<?xml version="1.0" encoding="UTF-8"?>
<svg version="1.1" xmlns="http://www.w3.org/2000/svg" width="512" height="512">
<path d="M0 0 C4.66891385 3.5012349 5.88307428 8.41095925 7.671875 13.7265625 C8.16279633 15.14260269 8.16279633 15.14260269 8.66363525 16.58724976 C9.35132556 18.57746115 10.03348145 20.56959241 10.71044922 22.56347656 C11.74984361 25.62453943 12.80498455 28.67980171 13.86328125 31.734375 C14.52956344 33.66895505 15.194959 35.60384073 15.859375 37.5390625 C16.17493347 38.45676422 16.49049194 39.37446594 16.81561279 40.31997681 C17.10301331 41.16780731 17.39041382 42.01563782 17.68652344 42.88916016 C17.94093201 43.63654449 18.19534058 44.38392883 18.4574585 45.15396118 C19 47 19 47 19 49 C19.66829834 48.75878418 20.33659668 48.51756836 21.02514648 48.26904297 C22.43389038 47.76074951 22.43389038 47.76074951 23.87109375 47.2421875 C24.91265625 46.86634521 25.95421875 46.49050293 27.02734375 46.10327148 C29.31177788 45.28046306 31.59694279 44.45968089 33.8828125 43.64086914 C38.97782951 41.81551453 44.06849018 39.98587441 49.12890625 38.06640625 C49.87793213 37.78748535 50.62695801 37.50856445 51.39868164 37.22119141 C52.74732897 36.71821035 54.09203557 36.20445756 55.43139648 35.67724609 C60.20655106 33.91894053 64.95736224 33.2618693 70 34 C72.625 36.0625 72.625 36.0625 74 39 C73.94269693 42.32357808 73.86790827 44.78692273 71.89501953 47.54443359 C69.12702387 49.67053385 66.0208211 50.59583516 62.7421875 51.6640625 C62.03853058 51.90160248 61.33487366 52.13914246 60.6098938 52.38388062 C58.36764411 53.13932288 56.12162912 53.88269412 53.875 54.625 C51.62197796 55.37648722 49.36983397 56.13046949 47.11868286 56.88754272 C45.71878295 57.35759135 44.31766124 57.82401929 42.91525269 58.28652954 C39.70217581 59.18582006 39.70217581 59.18582006 37 61 C37.54261475 61.2587793 38.08522949 61.51755859 38.64428711 61.78417969 C52.55923419 68.42731598 66.44316972 75.13451207 80.30911255 81.87927246 C82.07804115 82.73927168 83.84745694 83.59826964 85.61740112 84.45617676 C94.62804059 88.8251141 103.61333896 93.24227798 112.50390625 97.8515625 C113.20471313 98.20788254 113.90552002 98.56420258 114.62756348 98.93132019 C121.30814872 102.44036406 124.26895554 106.30185955 127.375 112.9375 C130.01366894 125.86697779 123.95847363 136.76764333 118 148 C119.08667969 148.14695313 119.08667969 148.14695313 120.1953125 148.296875 C127.64498036 149.4490903 132.53776015 150.80574289 137.3125 157 C139.52781034 160.9383295 140.15887565 163.83191513 139.93664455 168.31309509 C139.89686192 169.16149995 139.85707929 170.0099048 139.81609112 170.8840189 C139.76627919 171.80264178 139.71646726 172.72126467 139.66514587 173.66772461 C139.61637265 174.64041007 139.56759943 175.61309553 139.51734823 176.61525631 C138.91861468 188.18989442 138.14166298 199.7531408 137.35766602 211.31640625 C137.19308823 213.76979827 137.02870604 216.22320342 136.86450195 218.67662048 C136.46819764 224.58869011 136.06963014 230.5006043 135.66975278 236.41243309 C135.34446984 241.22152513 135.0199365 246.03066718 134.69590569 250.83984375 C133.77347418 264.52881871 132.84895188 278.21765023 131.92181016 291.90630698 C131.87212208 292.63992587 131.82243401 293.37354476 131.77124023 294.12939453 C131.72148991 294.86392546 131.67173958 295.59845639 131.62048166 296.35524583 C130.81263414 308.28455095 130.00992082 320.21419541 129.20947815 332.14399946 C128.38397659 344.44634789 127.55453466 356.74842534 126.72106689 369.0502367 C126.25462725 375.93600559 125.78978274 382.82187326 125.32922554 389.70803833 C124.89657995 396.17641962 124.45846601 402.64441643 124.01674652 409.11218452 C123.85611208 411.4766582 123.6972452 413.84125277 123.5403347 416.20597649 C120.75451638 458.13430535 120.75451638 458.13430535 107 471 C99.8200853 477.0576545 91.45609343 480.30613252 82 480 C82.05800781 481.27875 82.11601562 482.5575 82.17578125 483.875 C82.22271247 485.58329656 82.268209 487.29163295 82.3125 489 C82.35439453 489.83917969 82.39628906 490.67835938 82.43945312 491.54296875 C82.56378645 497.95856855 81.06945691 502.02687882 77 507 C71.89732627 511.73819704 67.78118763 512.17219246 61.04296875 512.23828125 C60.26238602 512.246353 59.48180328 512.25442474 58.67756653 512.26274109 C57.02587086 512.2765632 55.37414685 512.28729373 53.72241211 512.29516602 C51.20696365 512.31236691 48.69283423 512.35626607 46.17773438 512.40039062 C44.57032213 512.41051942 42.96289875 512.41903494 41.35546875 512.42578125 C40.60839157 512.44328934 39.86131439 512.46079742 39.09159851 512.47883606 C33.88501996 512.4574007 31.01536596 511.2628317 27 508 C18.59359819 499.21148901 20 492.79246816 20 480 C-43.36 480 -106.72 480 -172 480 C-172 485.61 -172 491.22 -172 497 C-174.26455732 503.5106023 -176.24687315 507.4713164 -182.19482422 510.99658203 C-188.05776851 513.09377098 -194.44250052 512.69235326 -200.59985352 512.59692383 C-203.06056818 512.562527 -205.51769968 512.57631503 -207.97851562 512.59570312 C-209.55991094 512.58880525 -211.1412971 512.57913338 -212.72265625 512.56640625 C-213.44888687 512.57136612 -214.17511749 512.57632599 -214.9233551 512.58143616 C-220.329972 512.45813347 -223.51591838 511.03548065 -228 508 C-233.71728503 501.97367254 -234.28818358 496.63956147 -234.125 488.6875 C-234.11597656 487.85154297 -234.10695312 487.01558594 -234.09765625 486.15429688 C-234.07420989 484.10274031 -234.03834266 482.05133223 -234 480 C-234.61746094 479.97421875 -235.23492187 479.9484375 -235.87109375 479.921875 C-247.4067369 479.14932051 -256.49080598 474.16205809 -264.25 465.625 C-271.58184234 456.57973799 -273.47675699 446.38053543 -274 435 C-274.03931641 434.1961084 -274.07863281 433.3922168 -274.11914062 432.56396484 C-274.23620143 429.87603062 -274.31063164 427.18967777 -274.375 424.5 C-274.43228271 423.19059448 -274.43228271 423.19059448 -274.49072266 421.85473633 C-274.52182519 419.46750048 -274.505681 417.3346232 -274 415 C-272.76056641 414.01773438 -272.76056641 414.01773438 -271.49609375 413.015625 C-268.82977137 411.3030995 -268.82977137 411.3030995 -268.58886719 408.92578125 C-268.50854587 406.35143234 -268.56400234 403.82255123 -268.6875 401.25 C-268.71005859 400.36183594 -268.73261719 399.47367187 -268.75585938 398.55859375 C-268.81467448 396.37067188 -268.89678732 394.18620329 -269 392 C-269.763125 391.9175 -270.52625 391.835 -271.3125 391.75 C-274.6493766 390.81877862 -275.24720533 389.93666015 -277 387 C-277.51441383 384.38133621 -277.51441383 384.38133621 -277.71426392 381.3460083 C-277.83837835 379.61362537 -277.83837835 379.61362537 -277.96500015 377.84624481 C-278.04180889 376.58117348 -278.11861763 375.31610214 -278.19775391 374.01269531 C-278.28954486 372.66225397 -278.38256284 371.31189555 -278.47671127 369.96161652 C-278.73035904 366.27636421 -278.96743643 362.59020594 -279.20188475 358.90368938 C-279.45474166 354.97501585 -279.72318544 351.04740941 -279.99038696 347.11968994 C-280.38387634 341.31615508 -280.77250114 335.51233044 -281.1551913 329.70807338 C-281.86071465 319.0097703 -282.59936912 308.31404815 -283.35449219 297.61914062 C-283.58109492 294.40702738 -283.80763562 291.19490977 -284.03411865 287.98278809 C-284.09012403 287.18869994 -284.1461294 286.39461179 -284.20383191 285.57646036 C-284.93871406 275.14414707 -285.6559448 264.71061501 -286.37340927 254.27709198 C-286.93664123 246.08916821 -287.50325543 237.90150542 -288.07763672 229.71435547 C-288.5937817 222.35726759 -289.10404904 214.99980041 -289.60711062 207.64180589 C-289.8693995 203.80807253 -290.13439761 199.97457642 -290.40659714 196.1415329 C-290.65856351 192.59201372 -290.90256667 189.04203493 -291.14056015 185.49155235 C-291.26987062 183.59245241 -291.40744312 181.69392054 -291.54534912 179.79542542 C-292.63179496 163.26358991 -292.63179496 163.26358991 -289.3125 156.625 C-286.03200726 152.90119742 -282.70749042 150.56916347 -278 149 C-276.37280518 148.91856145 -274.74248281 148.8924698 -273.11328125 148.90234375 C-272.17548828 148.90556641 -271.23769531 148.90878906 -270.27148438 148.91210938 C-268.80678711 148.92467773 -268.80678711 148.92467773 -267.3125 148.9375 C-266.32443359 148.94201172 -265.33636719 148.94652344 -264.31835938 148.95117188 C-261.87884526 148.96295697 -259.43945311 148.97940989 -257 149 C-257.00888245 148.12827148 -257.01776489 147.25654297 -257.0269165 146.35839844 C-257.10725738 138.11990425 -257.1680632 129.88154273 -257.20724869 121.64274597 C-257.22807209 117.40765593 -257.25629279 113.17289116 -257.30175781 108.93798828 C-257.34540424 104.84660674 -257.36917653 100.75553693 -257.37950897 96.66394043 C-257.3868668 95.10749407 -257.40123476 93.55106365 -257.42292023 91.99475098 C-257.54955716 82.52472168 -257.56234169 75.20633028 -251.03515625 67.7578125 C-250.38417969 67.21898438 -249.73320312 66.68015625 -249.0625 66.125 C-248.41410156 65.57070312 -247.76570313 65.01640625 -247.09765625 64.4453125 C-241.47271225 60.56965276 -236.22558118 60.69569676 -229.61010742 60.68115234 C-228.04356415 60.66608391 -228.04356415 60.66608391 -226.44537354 60.65071106 C-222.99874412 60.61985866 -219.55219247 60.60283797 -216.10546875 60.5859375 C-213.71364166 60.56722754 -211.32182119 60.54765425 -208.93000793 60.5272522 C-202.63855892 60.47590703 -196.34708851 60.43629391 -190.05554199 60.39910889 C-183.63397923 60.35908431 -177.2125057 60.30798488 -170.79101562 60.2578125 C-158.1940742 60.1610249 -145.5970816 60.07625293 -133 60 C-131.10019932 56.05404024 -129.20228942 52.1071738 -127.3046875 48.16015625 C-126.50744263 46.50433533 -126.50744263 46.50433533 -125.6940918 44.81506348 C-122.0690001 37.27181712 -118.51154685 29.70143073 -115.05575562 22.07910156 C-111.73788837 14.81562392 -107.37566778 7.55124745 -100 4 C-88.56358154 0.89859838 -80.83547123 3.29934619 -70.5625 8.375 C-69.1384082 9.06674316 -69.1384082 9.06674316 -67.68554688 9.77246094 C-64.8160956 11.16843401 -61.95041675 12.57189426 -59.08575439 13.97766113 C-54.12671718 16.40834832 -49.16197315 18.82738385 -44.19837952 21.24874878 C-39.7083067 23.43931101 -35.21918881 25.63176471 -30.73266602 27.82958984 C-20.86862164 32.65728332 -10.973483 37.40237545 -1 42 C-1.33845947 41.03175293 -1.67691895 40.06350586 -2.02563477 39.06591797 C-3.28247354 35.45879039 -4.52119111 31.84565474 -5.75463867 28.23046875 C-6.29010745 26.66921072 -6.83042038 25.10960512 -7.37573242 23.55175781 C-8.16055509 21.30694997 -8.92753242 19.05669701 -9.69140625 16.8046875 C-9.93717911 16.1138205 -10.18295197 15.42295349 -10.43617249 14.71115112 C-11.86812778 10.41970374 -12.18309298 7.37715953 -11 3 C-8.72811389 -1.00921078 -4.12997976 -1.00673211 0 0 Z " fill="#5FB6FD" transform="translate(332,0)"/>
<path d="M0 0 C4.66891385 3.5012349 5.88307428 8.41095925 7.671875 13.7265625 C8.16279633 15.14260269 8.16279633 15.14260269 8.66363525 16.58724976 C9.35132556 18.57746115 10.03348145 20.56959241 10.71044922 22.56347656 C11.74984361 25.62453943 12.80498455 28.67980171 13.86328125 31.734375 C14.52956344 33.66895505 15.194959 35.60384073 15.859375 37.5390625 C16.17493347 38.45676422 16.49049194 39.37446594 16.81561279 40.31997681 C17.10301331 41.16780731 17.39041382 42.01563782 17.68652344 42.88916016 C17.94093201 43.63654449 18.19534058 44.38392883 18.4574585 45.15396118 C19 47 19 47 19 49 C19.66829834 48.75878418 20.33659668 48.51756836 21.02514648 48.26904297 C22.43389038 47.76074951 22.43389038 47.76074951 23.87109375 47.2421875 C24.91265625 46.86634521 25.95421875 46.49050293 27.02734375 46.10327148 C29.31177788 45.28046306 31.59694279 44.45968089 33.8828125 43.64086914 C38.97782951 41.81551453 44.06849018 39.98587441 49.12890625 38.06640625 C49.87793213 37.78748535 50.62695801 37.50856445 51.39868164 37.22119141 C52.74732897 36.71821035 54.09203557 36.20445756 55.43139648 35.67724609 C60.20655106 33.91894053 64.95736224 33.2618693 70 34 C72.625 36.0625 72.625 36.0625 74 39 C73.94269693 42.32357808 73.86790827 44.78692273 71.89501953 47.54443359 C69.12702387 49.67053385 66.0208211 50.59583516 62.7421875 51.6640625 C62.03853058 51.90160248 61.33487366 52.13914246 60.6098938 52.38388062 C58.36764411 53.13932288 56.12162912 53.88269412 53.875 54.625 C51.62197796 55.37648722 49.36983397 56.13046949 47.11868286 56.88754272 C45.71878295 57.35759135 44.31766124 57.82401929 42.91525269 58.28652954 C39.70217581 59.18582006 39.70217581 59.18582006 37 61 C37.54261475 61.2587793 38.08522949 61.51755859 38.64428711 61.78417969 C52.55923419 68.42731598 66.44316972 75.13451207 80.30911255 81.87927246 C82.07804115 82.73927168 83.84745694 83.59826964 85.61740112 84.45617676 C94.62804059 88.8251141 103.61333896 93.24227798 112.50390625 97.8515625 C113.20471313 98.20788254 113.90552002 98.56420258 114.62756348 98.93132019 C121.30814872 102.44036406 124.26895554 106.30185955 127.375 112.9375 C130.01366894 125.86697779 123.95847363 136.76764333 118 148 C119.08667969 148.14695313 119.08667969 148.14695313 120.1953125 148.296875 C127.64498036 149.4490903 132.53776015 150.80574289 137.3125 157 C139.52781034 160.9383295 140.15887565 163.83191513 139.93664455 168.31309509 C139.89686192 169.16149995 139.85707929 170.0099048 139.81609112 170.8840189 C139.76627919 171.80264178 139.71646726 172.72126467 139.66514587 173.66772461 C139.61637265 174.64041007 139.56759943 175.61309553 139.51734823 176.61525631 C138.91861468 188.18989442 138.14166298 199.7531408 137.35766602 211.31640625 C137.19308823 213.76979827 137.02870604 216.22320342 136.86450195 218.67662048 C136.46819764 224.58869011 136.06963014 230.5006043 135.66975278 236.41243309 C135.34446984 241.22152513 135.0199365 246.03066718 134.69590569 250.83984375 C133.77347418 264.52881871 132.84895188 278.21765023 131.92181016 291.90630698 C131.87212208 292.63992587 131.82243401 293.37354476 131.77124023 294.12939453 C131.72148991 294.86392546 131.67173958 295.59845639 131.62048166 296.35524583 C130.81263414 308.28455095 130.00992082 320.21419541 129.20947815 332.14399946 C128.38397659 344.44634789 127.55453466 356.74842534 126.72106689 369.0502367 C126.25462725 375.93600559 125.78978274 382.82187326 125.32922554 389.70803833 C124.89657995 396.17641962 124.45846601 402.64441643 124.01674652 409.11218452 C123.85611208 411.4766582 123.6972452 413.84125277 123.5403347 416.20597649 C120.75451638 458.13430535 120.75451638 458.13430535 107 471 C99.8200853 477.0576545 91.45609343 480.30613252 82 480 C82.05800781 481.27875 82.11601562 482.5575 82.17578125 483.875 C82.22271247 485.58329656 82.268209 487.29163295 82.3125 489 C82.35439453 489.83917969 82.39628906 490.67835938 82.43945312 491.54296875 C82.56378645 497.95856855 81.06945691 502.02687882 77 507 C71.89732627 511.73819704 67.78118763 512.17219246 61.04296875 512.23828125 C60.26238602 512.246353 59.48180328 512.25442474 58.67756653 512.26274109 C57.02587086 512.2765632 55.37414685 512.28729373 53.72241211 512.29516602 C51.20696365 512.31236691 48.69283423 512.35626607 46.17773438 512.40039062 C44.57032213 512.41051942 42.96289875 512.41903494 41.35546875 512.42578125 C40.60839157 512.44328934 39.86131439 512.46079742 39.09159851 512.47883606 C33.88501996 512.4574007 31.01536596 511.2628317 27 508 C18.59359819 499.21148901 20 492.79246816 20 480 C-43.36 480 -106.72 480 -172 480 C-172 485.61 -172 491.22 -172 497 C-174.26455732 503.5106023 -176.24687315 507.4713164 -182.19482422 510.99658203 C-188.05776851 513.09377098 -194.44250052 512.69235326 -200.59985352 512.59692383 C-203.06056818 512.562527 -205.51769968 512.57631503 -207.97851562 512.59570312 C-209.55991094 512.58880525 -211.1412971 512.57913338 -212.72265625 512.56640625 C-213.44888687 512.57136612 -214.17511749 512.57632599 -214.9233551 512.58143616 C-220.329972 512.45813347 -223.51591838 511.03548065 -228 508 C-233.71728503 501.97367254 -234.28818358 496.63956147 -234.125 488.6875 C-234.11597656 487.85154297 -234.10695312 487.01558594 -234.09765625 486.15429688 C-234.07420989 484.10274031 -234.03834266 482.05133223 -234 480 C-234.61746094 479.97421875 -235.23492187 479.9484375 -235.87109375 479.921875 C-247.4067369 479.14932051 -256.49080598 474.16205809 -264.25 465.625 C-271.58184234 456.57973799 -273.47675699 446.38053543 -274 435 C-274.03931641 434.1961084 -274.07863281 433.3922168 -274.11914062 432.56396484 C-274.23620143 429.87603062 -274.31063164 427.18967777 -274.375 424.5 C-274.43228271 423.19059448 -274.43228271 423.19059448 -274.49072266 421.85473633 C-274.57150846 415.65412448 -274.57150846 415.65412448 -271.703125 412.37109375 C-269 411 -269 411 -265.375 411.5625 C-260.84705243 413.49107026 -260.84705243 413.49107026 -259 416 C-258.46337891 418.93579102 -258.46337891 418.93579102 -258.2265625 422.50390625 C-258.1234375 423.80263672 -258.0203125 425.10136719 -257.9140625 426.43945312 C-257.76689819 428.49025107 -257.62637256 430.54120221 -257.49414062 432.59301758 C-256.86612543 441.96204861 -256.10375806 451.10709505 -248.98486328 457.93188477 C-243.63531304 462.29563397 -238.21338649 464.24606869 -231.28205681 464.26006222 C-230.15934092 464.26712781 -229.03662504 464.2741934 -227.87988746 464.2814731 C-226.65655554 464.27905802 -225.43322363 464.27664293 -224.17282104 464.27415466 C-222.86534098 464.27939134 -221.55786091 464.28462802 -220.21076024 464.29002339 C-216.58755781 464.30418337 -212.96444126 464.30586706 -209.34121513 464.30542648 C-205.4310161 464.30707648 -201.52085226 464.32014651 -197.610672 464.33161926 C-189.06297401 464.35445522 -180.51530086 464.36238851 -171.9675765 464.36744571 C-166.62757212 464.37070466 -161.28757493 464.37722839 -155.94757462 464.3844471 C-141.1548352 464.40401198 -126.36210247 464.42041658 -111.56934929 464.42332363 C-110.62297555 464.4235112 -109.67660181 464.42369877 -108.70155007 464.42389202 C-106.78311515 464.42425827 -104.86468022 464.42462197 -102.9462453 464.42498314 C-101.99396482 464.42516595 -101.04168434 464.42534876 -100.06054688 464.42553711 C-99.10710027 464.42571766 -98.15365366 464.42589821 -97.17131473 464.42608423 C-81.72797535 464.42962458 -66.28477553 464.45663875 -50.84148453 464.494035 C-34.97585506 464.5321456 -19.11029478 464.55148131 -3.24461854 464.55178314 C5.65923732 464.55236713 14.56292673 464.560821 23.46673965 464.58978081 C31.04974768 464.61433165 38.63252858 464.62155274 46.21556564 464.60653328 C50.08146889 464.59937918 53.94692397 464.60015624 57.81277657 464.62294388 C62.0124844 464.64746123 66.21117897 464.63285619 70.41091919 464.61473083 C71.62086678 464.6279308 72.83081436 464.64113077 74.07742703 464.65473074 C82.72690421 464.56971749 91.2406758 463.02956746 98.03871453 457.27388567 C105.2680088 449.74759733 105.58270766 440.16289853 106.09765625 430.28125 C106.1770827 428.93763344 106.2577104 427.59408742 106.33946228 426.25061035 C106.55172105 422.7160377 106.74953029 419.18081146 106.94366455 415.64520264 C107.25285127 410.06380269 107.58499482 404.4836851 107.91407585 398.90342903 C107.99496253 397.5274788 108.07528888 396.15149552 108.15506172 394.77548027 C108.72076242 385.02492481 109.43432023 375.29664074 110.28543091 365.56690979 C111.13475244 355.74160676 111.70635229 345.90496498 112.26095581 336.05929565 C113.15945522 320.17130995 114.14826434 304.29862297 115.4375 288.4375 C116.42418093 276.29146109 117.26314901 264.13978875 118.0078125 251.9765625 C118.07313643 250.90972198 118.07313643 250.90972198 118.13978004 249.82132912 C118.57824697 242.64416292 119.00988965 235.46660716 119.43329716 228.28853703 C119.63215401 224.92272 119.83342981 221.55705272 120.03515625 218.19140625 C120.1129985 216.89083786 120.19084076 215.59026947 120.27104187 214.25028992 C120.82713883 205.20499679 121.51236698 196.17696831 122.38746643 187.15663147 C123.07425163 179.67422845 123 172.6239572 123 165 C-8.34 165 -139.68 165 -275 165 C-275.04319411 176.3797666 -275.04319411 176.3797666 -274.4140625 187.66796875 C-274.35294281 188.41810745 -274.29182312 189.16824615 -274.22885132 189.94111633 C-274.09895775 191.53400599 -273.96682099 193.12671421 -273.83251953 194.71923828 C-273.47060099 199.02394003 -273.12881275 203.33021788 -272.7890625 207.63671875 C-272.72003723 208.51097504 -272.65101196 209.38523132 -272.57989502 210.28598022 C-271.92763864 218.68439116 -271.44616095 227.08852534 -271 235.5 C-270.29730997 248.67252743 -269.3534449 261.81426619 -268.30325317 274.96340942 C-267.30391514 287.51602451 -266.49542977 300.06821653 -265.81887817 312.64212036 C-265.3271223 321.75397716 -264.73785929 330.84648662 -263.9375 339.9375 C-262.75055062 353.46346786 -261.95530831 366.98259519 -261.8125 380.5625 C-261.79944824 381.27140381 -261.78639648 381.98030762 -261.77294922 382.71069336 C-261.76661662 386.38043473 -261.90472572 387.85708858 -264 391 C-266.0234375 391.6875 -266.0234375 391.6875 -268.375 392 C-269.14585937 392.12375 -269.91671875 392.2475 -270.7109375 392.375 C-273 392 -273 392 -275.09132957 389.83703232 C-277.21217826 386.68461995 -277.58856942 384.98402327 -277.82778931 381.23248291 C-277.95179045 379.50021328 -277.95179045 379.50021328 -278.07829666 377.7329483 C-278.14994411 376.47303825 -278.22159157 375.2131282 -278.29541016 373.91503906 C-278.38535457 372.56600025 -278.47695568 371.21707103 -278.5700798 369.86824799 C-278.76767909 366.95564958 -278.95379466 364.04262385 -279.13102341 361.12871552 C-279.41614487 356.44155357 -279.72591444 351.75621312 -280.03921509 347.07086182 C-280.42495855 341.2767129 -280.8043989 335.48221362 -281.17611682 329.68714786 C-281.86226926 318.99629556 -282.59456168 308.30916836 -283.35058594 297.62304688 C-283.4067692 296.8281784 -283.46295247 296.03330992 -283.52083826 295.21435452 C-283.74788322 292.00225216 -283.97495057 288.79015139 -284.20222688 285.5780654 C-284.93954708 275.14535439 -285.65588294 264.71119565 -286.37339401 254.27710724 C-286.48377404 252.67252985 -286.59417267 251.06795374 -286.70458984 249.46337891 C-286.75934015 248.66774898 -286.81409045 247.87211905 -286.87049985 247.05237913 C-287.26876248 241.27274709 -287.67219337 235.49348783 -288.07763672 229.71435547 C-288.5937817 222.35726759 -289.10404904 214.99980041 -289.60711062 207.64180589 C-289.8693995 203.80807253 -290.13439761 199.97457642 -290.40659714 196.1415329 C-290.65856351 192.59201372 -290.90256667 189.04203493 -291.14056015 185.49155235 C-291.26987062 183.59245241 -291.40744312 181.69392054 -291.54534912 179.79542542 C-292.63179496 163.26358991 -292.63179496 163.26358991 -289.3125 156.625 C-286.03200726 152.90119742 -282.70749042 150.56916347 -278 149 C-276.37280518 148.91856145 -274.74248281 148.8924698 -273.11328125 148.90234375 C-272.17548828 148.90556641 -271.23769531 148.90878906 -270.27148438 148.91210938 C-268.80678711 148.92467773 -268.80678711 148.92467773 -267.3125 148.9375 C-266.32443359 148.94201172 -265.33636719 148.94652344 -264.31835938 148.95117188 C-261.87884526 148.96295697 -259.43945311 148.97940989 -257 149 C-257.00888245 148.12827148 -257.01776489 147.25654297 -257.0269165 146.35839844 C-257.10725738 138.11990425 -257.1680632 129.88154273 -257.20724869 121.64274597 C-257.22807209 117.40765593 -257.25629279 113.17289116 -257.30175781 108.93798828 C-257.34540424 104.84660674 -257.36917653 100.75553693 -257.37950897 96.66394043 C-257.3868668 95.10749407 -257.40123476 93.55106365 -257.42292023 91.99475098 C-257.54955716 82.52472168 -257.56234169 75.20633028 -251.03515625 67.7578125 C-250.38417969 67.21898438 -249.73320312 66.68015625 -249.0625 66.125 C-248.41410156 65.57070312 -247.76570313 65.01640625 -247.09765625 64.4453125 C-241.47271225 60.56965276 -236.22558118 60.69569676 -229.61010742 60.68115234 C-228.04356415 60.66608391 -228.04356415 60.66608391 -226.44537354 60.65071106 C-222.99874412 60.61985866 -219.55219247 60.60283797 -216.10546875 60.5859375 C-213.71364166 60.56722754 -211.32182119 60.54765425 -208.93000793 60.5272522 C-202.63855892 60.47590703 -196.34708851 60.43629391 -190.05554199 60.39910889 C-183.63397923 60.35908431 -177.2125057 60.30798488 -170.79101562 60.2578125 C-158.1940742 60.1610249 -145.5970816 60.07625293 -133 60 C-131.10019932 56.05404024 -129.20228942 52.1071738 -127.3046875 48.16015625 C-126.50744263 46.50433533 -126.50744263 46.50433533 -125.6940918 44.81506348 C-122.0690001 37.27181712 -118.51154685 29.70143073 -115.05575562 22.07910156 C-111.73788837 14.81562392 -107.37566778 7.55124745 -100 4 C-88.56358154 0.89859838 -80.83547123 3.29934619 -70.5625 8.375 C-69.1384082 9.06674316 -69.1384082 9.06674316 -67.68554688 9.77246094 C-64.8160956 11.16843401 -61.95041675 12.57189426 -59.08575439 13.97766113 C-54.12671718 16.40834832 -49.16197315 18.82738385 -44.19837952 21.24874878 C-39.7083067 23.43931101 -35.21918881 25.63176471 -30.73266602 27.82958984 C-20.86862164 32.65728332 -10.973483 37.40237545 -1 42 C-1.33845947 41.03175293 -1.67691895 40.06350586 -2.02563477 39.06591797 C-3.28247354 35.45879039 -4.52119111 31.84565474 -5.75463867 28.23046875 C-6.29010745 26.66921072 -6.83042038 25.10960512 -7.37573242 23.55175781 C-8.16055509 21.30694997 -8.92753242 19.05669701 -9.69140625 16.8046875 C-9.93717911 16.1138205 -10.18295197 15.42295349 -10.43617249 14.71115112 C-11.86812778 10.41970374 -12.18309298 7.37715953 -11 3 C-8.72811389 -1.00921078 -4.12997976 -1.00673211 0 0 Z " fill="#000101" transform="translate(332,0)"/>
<path d="M0 0 C4.74633546 2.02330696 9.31600283 4.324647 13.88943481 6.7093811 C16.94014079 8.30001266 20.00652299 9.85931239 23.07197571 11.42127991 C24.60610135 12.20357876 26.13938176 12.98753742 27.67179871 13.7731781 C33.42241694 16.72029262 39.21735638 19.55723605 45.0625 22.3125 C55.66506395 27.33507813 66.2087194 32.47544579 76.75 37.625 C80.34370656 39.38029729 83.93745298 41.13551293 87.53125 42.890625 C88.42063766 43.32500381 89.31002533 43.75938263 90.22636414 44.20692444 C97.86619868 47.93712189 105.51336677 51.65207759 113.16281128 55.36251831 C126.68840862 61.92369771 140.2027577 68.50776796 153.70959473 75.10748291 C155.66138116 76.061134 157.61328137 77.01455227 159.56530762 77.9677124 C164.89407651 80.57002939 170.21915826 83.17965914 175.54095459 85.79620361 C177.96134542 86.98107711 180.38749382 88.15339523 182.81494141 89.32373047 C184.27908797 90.03719562 185.74312455 90.75088655 187.20703125 91.46484375 C187.87159836 91.78119278 188.53616547 92.09754181 189.22087097 92.42347717 C192.46674885 94.0180056 193.94476609 94.91714913 196 98 C196.44670853 103.14684262 195.6836647 106.51703227 193.41015625 111.1171875 C192.87326172 112.21804687 192.33636719 113.31890625 191.78320312 114.453125 C191.21537109 115.58234375 190.64753906 116.7115625 190.0625 117.875 C189.49853516 119.02742188 188.93457031 120.17984375 188.35351562 121.3671875 C184.20344258 129.79655742 184.20344258 129.79655742 183 131 C180.64686445 131.07271741 178.29166332 131.08370868 175.9375 131.0625 C174.64714844 131.05347656 173.35679687 131.04445312 172.02734375 131.03515625 C170.52880859 131.01775391 170.52880859 131.01775391 169 131 C170.12851468 127.43145358 171.376582 124.17756734 173.125 120.875 C175.90780666 114.64781378 176.14900319 108.31995354 174.3984375 101.73828125 C171.90665177 96.58251321 167.46648849 94.16863933 162.625 91.5 C161.98876709 91.14905273 161.35253418 90.79810547 160.69702148 90.43652344 C156.3386389 88.22582241 152.9781652 87.54237984 148 88 C145.93597315 88.98048938 145.93597315 88.98048938 145 91 C144.44556418 94.97646188 144.44556418 94.97646188 146.10546875 98.45703125 C148.74740363 100.60871018 151.67710109 102.12522365 154.6875 103.6875 C155.29400391 104.00783203 155.90050781 104.32816406 156.52539062 104.65820312 C158.01434566 105.44371484 159.50683047 106.22252942 161 107 C161.58554796 112.8275964 159.59141892 116.74169335 157.0625 121.8125 C156.68931641 122.58787109 156.31613281 123.36324219 155.93164062 124.16210938 C153.18849649 129.81150351 153.18849649 129.81150351 152 131 C150.3424238 131.09611419 148.68073014 131.12187755 147.02037048 131.12025452 C145.40279091 131.12231651 145.40279091 131.12231651 143.75253296 131.12442017 C142.5592337 131.12082489 141.36593445 131.11722961 140.13647461 131.11352539 C138.88787155 131.11367142 137.63926849 131.11381744 136.35282898 131.1139679 C132.91909006 131.11338891 129.48541062 131.10835955 126.05168223 131.10139394 C122.46687541 131.09515998 118.88206787 131.09455657 115.29725647 131.09336853 C108.50449955 131.09025534 101.71175865 131.08204212 94.91900879 131.07201904 C87.18757506 131.06085753 79.45614058 131.05534736 71.72470081 131.05032361 C55.81645792 131.03985949 39.90823102 131.02226029 24 131 C23.99857498 130.13271271 23.99714996 129.26542542 23.99568176 128.37185669 C23.97778686 120.16309744 23.93598203 111.95487278 23.86790943 103.74637032 C23.833747 99.52713156 23.80854632 95.30825075 23.80444336 91.08886719 C23.80013713 87.01012368 23.77148441 82.93218616 23.72656822 78.85369492 C23.7136669 77.30458156 23.7092592 75.75537138 23.71384621 74.20621109 C23.73395981 65.34351669 23.51391413 57.42691449 18 50 C12.7565916 45.08711237 7.07105705 42.98665912 0 42 C0.52215539 38.2404812 1.17273053 35.63228537 4 33 C10.13404973 32.00009221 14.69815088 35.03251418 19.9375 37.8125 C27.40596485 41.70631501 34.93419109 45.42758339 42.5390625 49.046875 C55.89145451 55.40308651 69.16569809 61.91507679 82.4375 68.4375 C84.81831018 69.60622001 87.19916936 70.77484021 89.58007812 71.94335938 C91.86462799 73.06501321 94.14913484 74.18675468 96.43359375 75.30859375 C97.47946152 75.82215927 98.52532928 76.33572479 99.60289001 76.86485291 C100.58914871 77.34958572 101.57540741 77.83431854 102.59155273 78.33374023 C103.51845917 78.78804413 104.4453656 79.24234802 105.40036011 79.7104187 C107.06119078 80.53429288 108.71543589 81.37167002 110.36062622 82.22634888 C114.85116941 84.55623875 117.89068934 85.70127793 123 85 C125.08333333 84.08333333 125.08333333 84.08333333 126 82 C126.91720924 78.58643656 126.91720924 78.58643656 126 75 C118.69914176 69.62979233 110.15467821 66.08004608 102 62.1875 C99.16573759 60.82875369 96.33272732 59.46741208 93.5 58.10546875 C92.79688187 57.76791565 92.09376373 57.43036255 91.36933899 57.08258057 C85.76816411 54.38706958 80.20637544 51.61730896 74.65190125 48.82710266 C68.9038135 45.94253607 63.11768564 43.14288795 57.3125 40.375 C50.2176391 36.98303684 43.12736219 33.58226886 36.05078125 30.15234375 C35.05752586 29.67127167 35.05752586 29.67127167 34.04420471 29.18048096 C28.76118853 26.62168118 28.76118853 26.62168118 26.19180298 25.37298584 C24.38124798 24.49315403 22.56955437 23.61566646 20.7578125 22.73828125 C19.7177002 22.23337158 18.67758789 21.72846191 17.60595703 21.20825195 C11.78328567 18.50857043 6.33604531 18.39576786 0 19 C-7.09469761 22.42065777 -10.46925708 28.47644555 -13.75 35.3125 C-14.06582031 35.95767578 -14.38164062 36.60285156 -14.70703125 37.26757812 C-15.47691708 38.84234459 -16.23924891 40.4208004 -17 42 C-21.62 42 -26.24 42 -31 42 C-30.29393429 38.46967144 -29.85382142 36.32919505 -28.3894043 33.26708984 C-27.89835457 32.23109146 -27.89835457 32.23109146 -27.39738464 31.17416382 C-27.0432399 30.44379913 -26.68909515 29.71343445 -26.32421875 28.9609375 C-25.77457207 27.81692978 -25.77457207 27.81692978 -25.21382141 26.64981079 C-24.43925086 25.04308462 -23.66161174 23.43783457 -22.88110352 21.83398438 C-21.6908046 19.38180792 -20.51788846 16.9218139 -19.34570312 14.4609375 C-18.58958921 12.89793031 -17.8324616 11.33541301 -17.07421875 9.7734375 C-16.7261467 9.03902435 -16.37807465 8.30461121 -16.01945496 7.54794312 C-12.28310434 -0.04362244 -8.57839256 -2.44219495 0 0 Z " fill="#786C77" transform="translate(248,19)"/>
<path d="M0 0 C1.20864981 0.00037972 2.41729962 0.00075944 3.66257519 0.00115067 C4.33570176 -0.00000318 5.00882833 -0.00115702 5.70235267 -0.00234583 C7.98615503 -0.00501901 10.26988864 -0.00048462 12.55368751 0.00394398 C14.19622128 0.00350842 15.83875498 0.0026338 17.48128831 0.00135481 C22.01686413 -0.00089316 26.55241656 0.00313524 31.08798939 0.00813287 C35.97077135 0.01243288 40.85355189 0.01099127 45.73633522 0.0102306 C54.20340042 0.00970508 62.67045794 0.01285482 71.13752121 0.01846844 C83.37962342 0.02657963 95.6217219 0.02919827 107.86382651 0.03045643 C127.72361932 0.03264755 147.58340803 0.03930926 167.44319862 0.04875904 C186.74039893 0.05793161 206.03759813 0.0650132 225.33480018 0.06926686 C227.11764246 0.06966094 227.11764246 0.06966094 228.93650175 0.07006299 C234.89889147 0.07136798 240.86128119 0.0726317 246.82367092 0.07387489 C296.3237214 0.08424937 345.82376743 0.10186931 395.32381386 0.1241985 C395.32381386 0.4541985 395.32381386 0.7841985 395.32381386 1.1241985 C272.23381386 1.1241985 149.14381386 1.1241985 22.32381386 1.1241985 C23.97381386 24.5541985 25.62381386 47.9841985 27.32381386 72.1241985 C27.65381386 79.3841985 27.98381386 86.6441985 28.32381386 94.1241985 C28.6969269 99.23315005 29.07623316 104.33501871 29.50905555 109.43825489 C31.11589108 128.47762782 32.39054401 147.53564619 33.63307899 166.60153919 C34.21837443 175.5641596 34.81833762 184.52576242 35.42085594 193.48723751 C35.76055477 198.54103105 36.09946555 203.59487753 36.43851608 208.6487146 C36.71944172 212.83519126 37.00076589 217.02164036 37.28298134 221.20803028 C37.60276773 225.95342476 37.92090659 230.69892759 38.23787636 235.444511 C38.28817056 236.19597086 38.33846477 236.94743073 38.39028305 237.7216621 C39.00572933 246.94170314 39.60250055 256.16170779 39.98497719 265.39498097 C40.55861454 278.11670312 41.96289908 289.76328372 51.32381386 299.1241985 C53.62255237 299.43179332 53.62255237 299.43179332 56.33320755 299.38591152 C57.3996253 299.39337702 58.46604304 299.40084251 59.56477648 299.40853423 C61.3361468 299.40563213 61.3361468 299.40563213 63.14330238 299.4026714 C64.3904947 299.4084638 65.63768702 299.4142562 66.92267305 299.42022413 C70.39565065 299.436085 73.86854751 299.43945813 77.34155697 299.44087273 C81.08254835 299.44455621 84.82349487 299.45970635 88.56446022 299.47348744 C95.04964555 299.49579729 101.534815 299.51078812 108.02003044 299.52085453 C117.39664008 299.53541951 126.77319441 299.56095012 136.14977168 299.58918582 C151.36141695 299.63469358 166.57307017 299.67129188 181.78475136 299.7023235 C196.56438795 299.73249275 211.34400509 299.76683552 226.12361854 299.80681568 C227.03412675 299.80927723 227.94463495 299.81173878 228.88273431 299.81427492 C233.45033497 299.82664921 238.01793539 299.8391058 242.58553571 299.85160333 C280.49826827 299.95523076 318.411024 300.04441429 356.32381386 300.1241985 C356.32381386 300.4541985 356.32381386 300.7841985 356.32381386 301.1241985 C315.5835299 301.21576235 274.84325936 301.28624146 234.10289306 301.32845981 C229.29266271 301.33346262 224.48243257 301.33863991 219.67220253 301.34392506 C218.71457598 301.3449743 217.75694943 301.34602354 216.7703039 301.34710458 C201.26638876 301.36450781 185.76253298 301.39604507 170.25865305 301.43280968 C154.34916871 301.47022135 138.43971544 301.49243483 122.53018892 301.50055248 C112.71386132 301.50603977 102.89770149 301.52336834 93.08142554 301.55586436 C86.34920616 301.57701503 79.61707346 301.58339728 72.88482327 301.57820401 C69.00115722 301.57564308 65.11778426 301.57955717 61.23417038 301.6010204 C57.02009106 301.62413946 52.80663429 301.61613997 48.59250587 301.60521656 C47.36972704 301.61686793 46.14694821 301.62851929 44.88711548 301.64052373 C35.38617179 301.57392039 27.86180849 299.43924968 20.81063026 292.84661061 C14.47438689 285.50634838 14.41093088 275.98059831 13.76131386 266.7491985 C13.56748046 264.05202739 13.35500625 261.35843736 13.13240761 258.663261 C13.00563637 256.88749684 13.00563637 256.88749684 12.87630409 255.07585865 C12.27920294 251.88586623 11.95253307 250.93884158 9.32381386 249.1241985 C7.67381386 248.4641985 6.02381386 247.8041985 4.32381386 247.1241985 C3.82881386 237.7191985 3.82881386 237.7191985 3.32381386 228.1241985 C5.79881386 227.1341985 5.79881386 227.1341985 8.32381386 226.1241985 C9.84820258 223.07542105 9.46434572 219.90793924 9.44100136 216.56560475 C9.43792976 215.80711735 9.43485817 215.04862995 9.43169349 214.26715809 C9.37247169 206.90003186 9.0275194 199.55899213 8.57918495 192.20647389 C8.45030637 190.08625227 8.32981273 187.96568253 8.21053261 185.84490162 C7.72184819 177.40577177 7.07245047 168.98758885 6.34725136 160.56560475 C5.18802603 147.05062057 4.40965173 133.52080346 3.64656776 119.97869068 C2.93975165 107.51161644 2.10607746 95.07146 1.03121132 82.63042408 C0.34959162 74.66764189 -0.15744853 66.70619524 -0.56784874 58.72536427 C-1.13449211 47.7355157 -1.81321902 36.77309204 -2.80118614 25.8116985 C-4.27247379 9.34742117 -4.27247379 9.34742117 -3.67618614 1.1241985 C-2.67618614 0.1241985 -2.67618614 0.1241985 0 0 Z " fill="#269EF1" transform="translate(59.67618614435196,163.8758015036583)"/>
<path d="M0 0 C1.30116257 -0.00426498 2.60232513 -0.00852997 3.94291687 -0.01292419 C5.39331058 -0.01257465 6.84370426 -0.0121131 8.2940979 -0.0115509 C9.81497785 -0.01454165 11.33585704 -0.01794398 12.85673523 -0.02172852 C16.99518719 -0.03058183 21.13361848 -0.0329072 25.27207899 -0.0335443 C28.72392548 -0.03449248 32.17576713 -0.03816977 35.62761176 -0.0417164 C43.77051197 -0.04986618 51.91340111 -0.05230017 60.05630493 -0.05158997 C68.46210883 -0.05098917 76.86784856 -0.06154005 85.27363622 -0.07733363 C92.48472279 -0.09040076 99.69578837 -0.0957742 106.9068867 -0.09513456 C111.21623082 -0.0948793 115.52551795 -0.09774536 119.83485031 -0.10831261 C123.88791624 -0.11797958 127.94087053 -0.11808243 131.99394035 -0.11079597 C133.48226649 -0.10974835 134.97059952 -0.11212353 136.4589138 -0.11815643 C138.48927814 -0.12585395 140.51968036 -0.12004233 142.55004883 -0.11352539 C144.25515656 -0.11434254 144.25515656 -0.11434254 145.99471092 -0.1151762 C148.89751329 0.13332798 150.50811431 0.51001293 152.90200806 2.13371277 C155.33121664 5.77752565 155.14486371 7.46983721 155.12905884 11.80827332 C155.12935089 12.48170776 155.12964294 13.15514221 155.12994385 13.84898376 C155.1285515 16.07293116 155.11299508 18.29654272 155.09732056 20.52043152 C155.09359008 22.06313901 155.09074327 23.60584887 155.08874512 25.14855957 C155.08111135 29.20760141 155.06146512 33.26649997 155.03933716 37.32548523 C155.01527479 42.19632761 155.00609652 47.06721791 154.99443054 51.93810272 C154.97504051 59.33673904 154.93671635 66.735061 154.90200806 74.13371277 C135.76200806 74.13371277 116.62200806 74.13371277 96.90200806 74.13371277 C96.77700806 52.19621277 96.77700806 52.19621277 96.78433228 45.32536316 C96.76078076 43.50233356 96.73504435 41.67933033 96.70669556 39.85636902 C96.71579956 38.93078186 96.72490356 38.0051947 96.73428345 37.05155945 C96.56269538 29.05364887 93.85766008 24.11879118 88.26722717 18.48677063 C81.96383002 13.6051464 74.06433087 14.42854252 66.49185181 14.50480652 C64.99547656 14.50397646 63.49910142 14.50151191 62.00273132 14.49749756 C58.87829901 14.49465042 55.75458786 14.5092346 52.63027954 14.53678894 C48.64002093 14.57090068 44.65104804 14.56483396 40.6607275 14.54612637 C37.57471635 14.53552272 34.48900076 14.54452392 31.40301704 14.55951118 C29.93232668 14.56466687 28.46160512 14.56424316 26.99091911 14.55796623 C17.4012147 14.53239071 11.71128948 15.19884615 4.15200806 21.38371277 C-0.99625277 27.67603155 -1.55278797 34.2863314 -1.60971069 42.10246277 C-1.6276619 43.02337708 -1.6456131 43.94429138 -1.66410828 44.89311218 C-1.71787209 47.80660047 -1.7519974 50.71992817 -1.78549194 53.63371277 C-1.81869501 55.62071412 -1.85318741 57.60769437 -1.88900757 59.59465027 C-1.97357878 64.44088791 -2.04055085 69.28708073 -2.09799194 74.13371277 C-5.39799194 74.13371277 -8.69799194 74.13371277 -12.09799194 74.13371277 C-12.1907422 65.35403877 -12.26178207 56.57453385 -12.30524063 47.79447651 C-12.32610047 43.71735623 -12.35438813 39.64057155 -12.39974976 35.56364441 C-12.44326576 31.62788795 -12.46714112 27.69245395 -12.47750092 23.75647545 C-12.48488205 22.25616061 -12.49929597 20.75586308 -12.52091217 19.25568581 C-12.55002457 17.15124746 -12.55394496 15.0481351 -12.55209351 12.94352722 C-12.56097595 11.74661758 -12.5698584 10.54970795 -12.57901001 9.31652832 C-12.00202826 5.49873725 -10.77491149 3.8620456 -8.09799194 1.13371277 C-5.33158445 -0.24949098 -3.09708409 0.00456893 0 0 Z " fill="#C2E8F6" transform="translate(102.09799194335938,75.86628723144531)"/>
<path d="M0 0 C5.4987003 2.58700757 9.5318976 6.07298478 12.23828125 11.58984375 C14.32021623 14.47031132 14.32021623 14.47031132 17.16796875 14.8671875 C20.17255356 15.03056678 22.68159916 14.96319598 25.61328125 14.27734375 C28.09435001 11.55584192 28.09435001 11.55584192 29.61328125 8.27734375 C33.42651216 4.91272824 37.01884459 4.873592 41.89355469 4.93798828 C46.59249625 5.52430146 50.17517955 7.73352459 54.17578125 10.15234375 C55.03059082 10.64831055 55.88540039 11.14427734 56.76611328 11.65527344 C58.52678364 12.67969899 60.2823577 13.71293383 62.03271484 14.75488281 C64.49350422 16.2066787 66.97666103 17.60518303 69.4765625 18.98828125 C70.98094425 19.83378993 72.48487334 20.68010468 73.98828125 21.52734375 C74.67092041 21.9022998 75.35355957 22.27725586 76.05688477 22.66357422 C81.44998132 25.77940595 86.63770268 29.70546736 88.33984375 35.9375 C88.10457555 41.5024978 87.5586766 45.04326094 83.61328125 49.27734375 C77.15200211 54.10618594 70.03433037 58.02992464 63.0456543 62.02880859 C61.28437475 63.03673267 59.52579336 64.04924166 57.76757812 65.0625 C42.99246543 73.55159757 42.99246543 73.55159757 34.61328125 72.27734375 C30.0707456 70.19292611 27.74818032 67.73189276 25.61328125 63.27734375 C24.33650513 63.2633252 24.33650513 63.2633252 23.03393555 63.24902344 C19.82219871 63.20454619 16.61135434 63.14272935 13.40014648 63.06982422 C12.0203839 63.04190485 10.64047001 63.02054864 9.26049805 63.00634766 C-2.8298868 62.87459628 -12.88340711 61.23574268 -22.37890625 53.33984375 C-25.8391034 49.78539999 -28.21241576 45.71149608 -30.38671875 41.27734375 C-30.75925781 40.51808594 -31.13179687 39.75882812 -31.515625 38.9765625 C-34.19259588 30.68155409 -33.50704463 20.44044173 -29.88671875 12.58984375 C-26.93859878 7.49700143 -23.49638693 4.15282503 -18.38671875 1.27734375 C-17.76539063 0.90609375 -17.1440625 0.53484375 -16.50390625 0.15234375 C-11.5021541 -1.91480105 -5.11651138 -1.54918921 0 0 Z " fill="#020303" transform="translate(195.38671875,288.72265625)"/>
<path d="M0 0 C7.75449756 4.41637099 14.88113994 10.28792198 17.64453125 19.05078125 C18.99407169 26.08396315 19.00710341 32.3706966 15.36328125 38.66796875 C11.50347563 44.30852778 7.78175356 47.54754949 1.05078125 49.16796875 C-0.82411972 49.23337227 -2.69913207 49.29562556 -4.57421875 49.35546875 C-8.43936511 49.59140667 -8.43936511 49.59140667 -11.58203125 51.609375 C-13.30568286 54.39976205 -13.98437145 56.65239587 -13.76171875 59.91796875 C-13.49359375 60.66046875 -13.22546875 61.40296875 -12.94921875 62.16796875 C-12.05411355 64.85328435 -11.72809226 66.69598138 -11.63671875 69.48046875 C-11.58064453 70.58841797 -11.58064453 70.58841797 -11.5234375 71.71875 C-12.31655144 76.28097424 -14.83281755 79.31188645 -18.4453125 82.08203125 C-19.41597656 82.64664063 -20.38664062 83.21125 -21.38671875 83.79296875 C-22.52238281 84.45941406 -23.65804687 85.12585938 -24.828125 85.8125 C-25.47023926 86.17939941 -26.11235352 86.54629883 -26.77392578 86.92431641 C-29.26653978 88.34938663 -31.74615312 89.79598421 -34.2265625 91.2421875 C-36.09173838 92.32284016 -37.95762493 93.40226714 -39.82421875 94.48046875 C-40.7155249 94.99625488 -41.60683105 95.51204102 -42.52514648 96.04345703 C-56.62500515 104.10014139 -56.62500515 104.10014139 -63.94921875 103.16796875 C-69.03565676 100.42911752 -72.11925902 97.65784795 -73.94921875 92.16796875 C-74.05532177 90.65059101 -74.10774018 89.12912489 -74.1262207 87.6081543 C-74.13905594 86.6867717 -74.15189117 85.7653891 -74.16511536 84.81608582 C-74.17250229 83.82232437 -74.17988922 82.82856293 -74.1875 81.8046875 C-74.19557175 80.77994827 -74.20364349 79.75520905 -74.21195984 78.69941711 C-74.22579317 76.5298532 -74.23651868 74.36026759 -74.24438477 72.19067383 C-74.26159828 68.87864816 -74.30549199 65.56762056 -74.34960938 62.25585938 C-74.3597365 60.14714275 -74.36825254 58.03841765 -74.375 55.9296875 C-74.39250809 54.94199875 -74.41001617 53.95431 -74.42805481 52.93669128 C-74.4098896 47.15699647 -73.89226117 43.71141981 -69.94921875 39.16796875 C-66.43100386 36.20946987 -64.81181523 35.15462963 -60.16015625 35.2265625 C-57.15028776 34.895546 -56.20121983 34.45644184 -54.1796875 32.14233398 C-52.42802826 29.3320339 -50.85445908 26.47967998 -49.32421875 23.54296875 C-40.08020466 6.46163836 -40.08020466 6.46163836 -31.76171875 1.79296875 C-30.50294922 1.06980469 -30.50294922 1.06980469 -29.21875 0.33203125 C-21.4853445 -3.63450031 -8.07548385 -3.3399574 0 0 Z " fill="#030404" transform="translate(264.94921875,177.83203125)"/>
<path d="M0 0 C4.25890753 1.56649473 8.07891666 3.72918912 12 6 C12.66515625 6.38043457 13.3303125 6.76086914 14.015625 7.15283203 C18.38317132 9.65440795 22.71267641 12.21313557 27.02148438 14.81445312 C28.79975476 15.880011 30.59426463 16.9183552 32.390625 17.953125 C38.03826314 21.30546636 41.65527122 23.74738992 44 30 C44.51933702 34.22888713 44.34683341 36.33301268 42.375 40.125 C40.65527285 42.91614745 40.65527285 42.91614745 41.75 45.75 C42.1625 46.4925 42.575 47.235 43 48 C44.56430248 51.12860495 44.35627284 53.55602925 44 57 C41.61186047 59.66106976 39.98446115 60.77849624 36.5 61.5625 C31.79921706 60.50482384 29.84612947 57.30127494 27.3515625 53.46484375 C21.80138694 43.99306528 21.80138694 43.99306528 23 38 C24.28771842 36.29784347 25.61687596 34.62558403 27 33 C26.26885986 32.59160889 25.53771973 32.18321777 24.78442383 31.76245117 C22.05376892 30.23670722 19.32350786 28.71026146 16.59350586 27.18334961 C14.83802811 26.20177404 13.08210323 25.22099827 11.32617188 24.24023438 C10.21435547 23.61826172 9.10253906 22.99628906 7.95703125 22.35546875 C6.42526245 21.49924927 6.42526245 21.49924927 4.86254883 20.62573242 C2.21843898 19.12405844 -0.39255286 17.56446829 -3 16 C-3.33 27.88 -3.66 39.76 -4 52 C-3.01 51.34 -2.02 50.68 -1 50 C1.875 49.5625 1.875 49.5625 5 50 C9.97798561 54.12437518 13.0178242 59.44103599 16.3125 64.9375 C16.86228516 65.81857422 17.41207031 66.69964844 17.97851562 67.60742188 C22.95298835 75.85701329 22.95298835 75.85701329 22 81 C20.125 83.875 20.125 83.875 18 86 C17.34 86 16.68 86 16 86 C15.33378493 89.02765067 14.89094277 91.89446543 15 95 C16.8133497 98.2301177 16.8133497 98.2301177 20 100 C24.52471093 100.85371904 27.31561849 100.07949382 31.1875 97.8125 C36.13631025 94.3827261 38.7358655 91.14343979 40.5 85.375 C41.35469949 82.64723566 41.91326156 81.10532525 43.75 78.875 C47.136511 77.5580235 49.52896943 78.11646495 53 79 C54.9375 80.0625 54.9375 80.0625 56 82 C57.5473406 90.20090516 53.22244996 97.2360373 49 104 C43.08828808 111.22813437 33.93165363 115.28089988 24.703125 116.23828125 C16.92008538 116.47375538 12.00173111 114.66820543 6.1875 109.5 C0.90931732 103.46779123 -1.43993273 98.43789291 -1.26171875 90.30859375 C-0.75044046 85.79866136 0.84687174 81.65448837 3.4375 77.9375 C4.22481818 76.00502593 4.22481818 76.00502593 3.23046875 74.27734375 C2.19418066 72.49404941 1.09894357 70.74538097 0 69 C0 68.34 0 67.68 0 67 C-0.58007812 67.04640625 -1.16015625 67.0928125 -1.7578125 67.140625 C-7.40988674 67.40177695 -10.59254688 66.89495857 -15 63 C-19.61555941 57.63277583 -19.58713212 53.09547837 -19.53125 46.34375 C-19.5350769 45.32325562 -19.53890381 44.30276123 -19.54284668 43.25134277 C-19.54556145 41.09968068 -19.53823084 38.94798535 -19.52148438 36.79638672 C-19.50006936 33.51064183 -19.5213017 30.22708346 -19.546875 26.94140625 C-19.54423165 24.84634936 -19.53910652 22.75129383 -19.53125 20.65625 C-19.53934692 19.67797241 -19.54744385 18.69969482 -19.55578613 17.69177246 C-19.45816481 10.55980166 -17.66414378 6.97757246 -12.875 1.625 C-8.49955234 -0.84807911 -4.90679667 -0.88212075 0 0 Z " fill="#020303" transform="translate(293,226)"/>
<path d="M0 0 C4.74633546 2.02330696 9.31600283 4.324647 13.88943481 6.7093811 C16.94014079 8.30001266 20.00652299 9.85931239 23.07197571 11.42127991 C24.60610135 12.20357876 26.13938176 12.98753742 27.67179871 13.7731781 C33.42241694 16.72029262 39.21735638 19.55723605 45.0625 22.3125 C55.66506395 27.33507813 66.2087194 32.47544579 76.75 37.625 C80.34370656 39.38029729 83.93745298 41.13551293 87.53125 42.890625 C88.42063766 43.32500381 89.31002533 43.75938263 90.22636414 44.20692444 C97.86619868 47.93712189 105.51336677 51.65207759 113.16281128 55.36251831 C126.68840862 61.92369771 140.2027577 68.50776796 153.70959473 75.10748291 C155.66138116 76.061134 157.61328137 77.01455227 159.56530762 77.9677124 C164.89407651 80.57002939 170.21915826 83.17965914 175.54095459 85.79620361 C177.96134542 86.98107711 180.38749382 88.15339523 182.81494141 89.32373047 C184.27908797 90.03719562 185.74312455 90.75088655 187.20703125 91.46484375 C187.87159836 91.78119278 188.53616547 92.09754181 189.22087097 92.42347717 C192.46674885 94.0180056 193.94476609 94.91714913 196 98 C196.44670853 103.14684262 195.6836647 106.51703227 193.41015625 111.1171875 C192.87326172 112.21804687 192.33636719 113.31890625 191.78320312 114.453125 C191.21537109 115.58234375 190.64753906 116.7115625 190.0625 117.875 C189.49853516 119.02742188 188.93457031 120.17984375 188.35351562 121.3671875 C184.20344258 129.79655742 184.20344258 129.79655742 183 131 C180.64686445 131.07271741 178.29166332 131.08370868 175.9375 131.0625 C174.64714844 131.05347656 173.35679687 131.04445312 172.02734375 131.03515625 C170.52880859 131.01775391 170.52880859 131.01775391 169 131 C170.12851468 127.43145358 171.376582 124.17756734 173.125 120.875 C175.90780666 114.64781378 176.14900319 108.31995354 174.3984375 101.73828125 C171.90665177 96.58251321 167.46648849 94.16863933 162.625 91.5 C161.98876709 91.14905273 161.35253418 90.79810547 160.69702148 90.43652344 C156.35567136 88.23446178 152.96064318 87.45839132 148 88 C147.34 88.66 146.68 89.32 146 90 C141.20645238 89.68089263 137.43546681 88.04024937 133.1875 85.875 C132.04667969 85.31554687 130.90585937 84.75609375 129.73046875 84.1796875 C127 82 127 82 126.61328125 78.5703125 C126.36087649 74.73295977 126.36087649 74.73295977 122.9375 72.55078125 C121.31100204 71.66409386 119.6610353 70.82016576 118 70 C116.84757813 69.42040527 115.69515625 68.84081055 114.5078125 68.24365234 C110.35934641 66.18117635 106.18088803 64.18320099 102 62.1875 C99.16573759 60.82875369 96.33272732 59.46741208 93.5 58.10546875 C92.79688187 57.76791565 92.09376373 57.43036255 91.36933899 57.08258057 C85.76816411 54.38706958 80.20637544 51.61730896 74.65190125 48.82710266 C68.9038135 45.94253607 63.11768564 43.14288795 57.3125 40.375 C50.2176391 36.98303684 43.12736219 33.58226886 36.05078125 30.15234375 C35.05752586 29.67127167 35.05752586 29.67127167 34.04420471 29.18048096 C28.76118853 26.62168118 28.76118853 26.62168118 26.19180298 25.37298584 C24.38124798 24.49315403 22.56955437 23.61566646 20.7578125 22.73828125 C19.7177002 22.23337158 18.67758789 21.72846191 17.60595703 21.20825195 C11.78328567 18.50857043 6.33604531 18.39576786 0 19 C-7.09469761 22.42065777 -10.46925708 28.47644555 -13.75 35.3125 C-14.06582031 35.95767578 -14.38164062 36.60285156 -14.70703125 37.26757812 C-15.47691708 38.84234459 -16.23924891 40.4208004 -17 42 C-21.62 42 -26.24 42 -31 42 C-30.29393429 38.46967144 -29.85382142 36.32919505 -28.3894043 33.26708984 C-27.89835457 32.23109146 -27.89835457 32.23109146 -27.39738464 31.17416382 C-27.0432399 30.44379913 -26.68909515 29.71343445 -26.32421875 28.9609375 C-25.77457207 27.81692978 -25.77457207 27.81692978 -25.21382141 26.64981079 C-24.43925086 25.04308462 -23.66161174 23.43783457 -22.88110352 21.83398438 C-21.6908046 19.38180792 -20.51788846 16.9218139 -19.34570312 14.4609375 C-18.58958921 12.89793031 -17.8324616 11.33541301 -17.07421875 9.7734375 C-16.7261467 9.03902435 -16.37807465 8.30461121 -16.01945496 7.54794312 C-12.28310434 -0.04362244 -8.57839256 -2.44219495 0 0 Z " fill="#B47A6F" transform="translate(248,19)"/>
<path d="M0 0 C1.20805298 -0.01260864 2.41610596 -0.02521729 3.6607666 -0.03820801 C4.96187378 -0.03011108 6.26298096 -0.02201416 7.60351562 -0.01367188 C8.95585407 -0.01636772 10.30819063 -0.02025091 11.66052246 -0.02526855 C14.49180597 -0.03115946 17.32258395 -0.0226148 20.15380859 -0.00390625 C23.77903226 0.0188843 27.40307143 0.00575886 31.02825165 -0.01819611 C33.8198943 -0.03266583 36.61125714 -0.02804299 39.40290833 -0.01768494 C41.38820161 -0.01372732 43.37350586 -0.02585354 45.35876465 -0.03820801 C47.17084412 -0.01929504 47.17084412 -0.01929504 49.01953125 0 C50.08224243 0.00318237 51.14495361 0.00636475 52.23986816 0.00964355 C55.72985981 0.6496266 56.91373183 1.68999381 59.00976562 4.51757812 C59.49078369 6.55511475 59.49078369 6.55511475 59.46386719 8.73535156 C59.46338379 9.56728027 59.46290039 10.39920898 59.46240234 11.25634766 C59.43170654 12.55354736 59.43170654 12.55354736 59.40039062 13.87695312 C59.3963623 14.67891113 59.39233398 15.48086914 59.38818359 16.30712891 C59.36730302 19.29417906 59.31145721 22.28090228 59.25976562 25.26757812 C59.17726563 31.95007813 59.09476562 38.63257813 59.00976562 45.51757812 C36.23976563 45.51757812 13.46976563 45.51757812 -9.99023438 45.51757812 C-10.07273437 38.83507812 -10.15523438 32.15257812 -10.24023438 25.26757812 C-10.27665039 23.16350586 -10.31306641 21.05943359 -10.35058594 18.89160156 C-10.36227061 17.22006246 -10.37246296 15.54851198 -10.38085938 13.87695312 C-10.40132324 13.01215332 -10.42178711 12.14735352 -10.44287109 11.25634766 C-10.44335449 10.42441895 -10.44383789 9.59249023 -10.44433594 8.73535156 C-10.45321838 8.01587341 -10.46210083 7.29639526 -10.47125244 6.55511475 C-9.15025998 0.95954421 -5.17053474 0.01548358 0 0 Z " fill="#786B77" transform="translate(124.990234375,104.482421875)"/>
<path d="M0 0 C2.66191872 3.54988861 3.59842501 6.85081831 4.38671875 11.17578125 C4.60263672 12.33271484 4.81855469 13.48964844 5.04101562 14.68164062 C5.25435547 15.87982422 5.46769531 17.07800781 5.6875 18.3125 C6.02491211 20.1387793 6.02491211 20.1387793 6.36914062 22.00195312 C6.9216828 24.99978835 7.4649578 27.9990007 8 31 C8.25692627 30.13721436 8.51385254 29.27442871 8.77856445 28.38549805 C9.73822773 25.17949264 10.70639742 21.97631677 11.68041992 18.7746582 C12.09986676 17.38962498 12.51591684 16.00355825 12.9284668 14.61645508 C13.52278404 12.62037876 14.12930262 10.62836384 14.73828125 8.63671875 C15.09962158 7.43748779 15.46096191 6.23825684 15.83325195 5.00268555 C16.92605291 2.19030659 17.53511661 0.69577568 20 -1 C23.5 -1 23.5 -1 27 0 C29.36343068 3.27565092 30.66178785 6.56808649 31.82421875 10.4140625 C32.13037109 11.42210937 32.43652344 12.43015625 32.75195312 13.46875 C33.21504883 15.03109375 33.21504883 15.03109375 33.6875 16.625 C34.00783203 17.67429687 34.32816406 18.72359375 34.65820312 19.8046875 C37 27.59403318 37 27.59403318 37 31 C37.66 31 38.32 31 39 31 C39.0825 29.741875 39.165 28.48375 39.25 27.1875 C39.79895711 21.74498236 40.79628784 16.42013744 41.875 11.0625 C42.11718262 9.80119263 42.11718262 9.80119263 42.36425781 8.5144043 C42.53022461 7.71687744 42.69619141 6.91935059 42.8671875 6.09765625 C43.01269043 5.38101807 43.15819336 4.66437988 43.30810547 3.92602539 C44.14652061 1.59213088 45.01424367 0.48124626 47 -1 C53.33333333 -0.66666667 53.33333333 -0.66666667 56 2 C56.4427609 8.36653462 55.39522253 14.22329809 54.13671875 20.44921875 C53.94406937 21.42486282 53.75141998 22.4005069 53.55293274 23.40571594 C53.14565939 25.45622179 52.73447499 27.50595432 52.31958008 29.55493164 C51.68782159 32.68590619 51.07466276 35.82014469 50.46289062 38.95507812 C50.0636169 40.95334849 49.66326322 42.95140344 49.26171875 44.94921875 C49.08033859 45.88263596 48.89895844 46.81605316 48.71208191 47.77775574 C47.68944282 52.74851021 46.72701163 57.27298837 43 61 C36.81888809 61.58312377 36.81888809 61.58312377 33.96484375 59.55078125 C31.19468875 55.95453629 30.14345587 52.19502457 28.875 47.875 C28.61638184 47.02639404 28.35776367 46.17778809 28.09130859 45.3034668 C26.37905886 39.58336954 24.9667334 33.89707373 24 28 C23.34 28 22.68 28 22 28 C21.87093262 28.87180908 21.74186523 29.74361816 21.60888672 30.6418457 C20.6391164 35.9903584 18.83848004 41.03784764 17.125 46.1875 C16.77308594 47.27998047 16.42117187 48.37246094 16.05859375 49.49804688 C15.71183594 50.54412109 15.36507812 51.59019531 15.0078125 52.66796875 C14.69473145 53.61953857 14.38165039 54.5711084 14.05908203 55.55151367 C12.9812971 58.04323914 12.15747931 59.37377097 10 61 C6.5625 61.5 6.5625 61.5 3 61 C-1.64894906 56.76726862 -2.26871431 51.64299284 -3.359375 45.73046875 C-3.55347961 44.73549881 -3.74758423 43.74052887 -3.9475708 42.71540833 C-4.35428608 40.61457759 -4.75393699 38.51236846 -5.14697266 36.40893555 C-5.74653745 33.20599732 -6.36939717 30.00827477 -6.99609375 26.81054688 C-7.38940961 24.76328715 -7.78138092 22.71576857 -8.171875 20.66796875 C-8.3561908 19.71875046 -8.54050659 18.76953217 -8.73040771 17.79154968 C-11.21534505 4.35919922 -11.21534505 4.35919922 -8.9375 -0.0625 C-5.68007924 -1.63867133 -3.39359685 -0.9695991 0 0 Z " fill="#020405" transform="translate(179,384)"/>
<path d="M0 0 C7.82878681 3.91439341 15.31925441 7.82900005 22.75 12.375 C23.64976562 12.92027344 24.54953125 13.46554688 25.4765625 14.02734375 C27.65358669 15.34745416 29.82799178 16.67165907 32 18 C31.35417969 18.76183594 30.70835937 19.52367187 30.04296875 20.30859375 C27.80706798 22.86718993 27.80706798 22.86718993 27.3125 26.0625 C28.22475808 31.28725082 30.65589782 34.97767968 33.46875 39.42578125 C35 42 35 42 35 44 C36.27875 44.165 37.5575 44.33 38.875 44.5 C39.59429687 44.5928125 40.31359375 44.685625 41.0546875 44.78125 C43.00498344 45.0372485 43.00498344 45.0372485 45 45 C46.17993203 47.05585097 47.34378455 49.11836541 48.5 51.1875 C49.1496875 52.33605469 49.799375 53.48460937 50.46875 54.66796875 C52.77719724 59.69119705 52.77719724 59.69119705 52 63 C50.34951522 64.02648808 48.68134023 65.02487293 47 66 C45.83645691 68.4615738 45.83645691 68.4615738 45.1875 71.25 C42.9909859 78.01884957 39.06481462 81.68282161 32.96484375 85.16015625 C29.84172763 86.4950866 27.34863109 86.35248748 24 86 C21.24670979 84.20437595 19.47372539 82.94745078 18 80 C17.625 77.1875 17.625 77.1875 18 74 C20.375 71.3125 20.375 71.3125 23 69 C25.39884443 65.40173335 25.5364442 64.25181698 25 60 C23.66856835 57.00649293 21.98571576 54.27421986 20.25 51.5 C19.8065625 50.76652344 19.363125 50.03304687 18.90625 49.27734375 C17.62507497 47.17094127 16.31950304 45.08256449 15 43 C14.43055664 42.09314453 14.43055664 42.09314453 13.84960938 41.16796875 C11.9269904 38.06154648 11.9269904 38.06154648 9 36 C5.62177584 35.85624578 3.22609045 35.92463652 0 37 C0 24.79 0 12.58 0 0 Z " fill="#F1F4F5" transform="translate(289,241)"/>
<path d="M0 0 C4.04746525 2.16492327 5.327745 4.40296072 6.6875 8.625 C6.89761719 9.40101563 7.10773438 10.17703125 7.32421875 10.9765625 C7.89791802 13.19571509 7.89791802 13.19571509 10 15 C14.23899202 15.39906829 18.49285856 15.32900677 22.74853516 15.31567383 C24.86022936 15.31252205 26.97051122 15.33593861 29.08203125 15.36132812 C30.42708157 15.36360203 31.77213565 15.36430419 33.1171875 15.36328125 C34.95192627 15.36775269 34.95192627 15.36775269 36.82373047 15.37231445 C40.23740276 14.97217224 41.63313342 14.45443564 44 12 C44.80946422 8.89802603 44.80946422 8.89802603 45 6 C50.84621058 8.21236492 56.12992451 11.30925821 61.5625 14.375 C62.60341797 14.9525 63.64433594 15.53 64.71679688 16.125 C65.71904297 16.68960937 66.72128906 17.25421875 67.75390625 17.8359375 C68.66470947 18.34688965 69.5755127 18.8578418 70.51391602 19.38427734 C73.03427901 21.02227816 74.96072867 22.80202935 77 25 C76.37544922 25.36762451 75.75089844 25.73524902 75.10742188 26.11401367 C72.23763274 27.80407732 69.36881139 29.49577725 66.5 31.1875 C65.51773438 31.76564453 64.53546875 32.34378906 63.5234375 32.93945312 C59.11028067 35.54321566 54.72068999 38.1609898 50.40625 40.92578125 C47 43 47 43 45 43 C44.81824219 42.15115234 44.81824219 42.15115234 44.6328125 41.28515625 C44.38144531 40.18494141 44.38144531 40.18494141 44.125 39.0625 C43.96257812 38.33160156 43.80015625 37.60070312 43.6328125 36.84765625 C43.17038477 34.79299706 43.17038477 34.79299706 41 34 C38.16668542 33.8912639 35.35358769 33.83859723 32.51953125 33.82421875 C30.78058701 33.8010091 29.04165469 33.7768913 27.30273438 33.75195312 C24.56201329 33.71692559 21.82172759 33.68754536 19.08081055 33.67407227 C16.43484584 33.65852043 13.79015584 33.61825431 11.14453125 33.57421875 C9.92851982 33.57708138 9.92851982 33.57708138 8.6879425 33.58000183 C2.17792928 33.44126739 -2.09647382 31.68952126 -6.9609375 27.18359375 C-7.42757812 26.60738281 -7.89421875 26.03117187 -8.375 25.4375 C-9.09816406 24.56931641 -9.09816406 24.56931641 -9.8359375 23.68359375 C-12.17191677 20.30504655 -12.19040986 17.10760787 -12.25 13.125 C-12.28867188 11.58199219 -12.28867188 11.58199219 -12.328125 10.0078125 C-11.95207858 6.5607203 -11.06101514 4.76407171 -9 2 C-5.48746854 -0.34168764 -4.13530644 -0.49623677 0 0 Z " fill="#F1F3F4" transform="translate(190,303)"/>
<path d="M0 0 C4.44315285 3.27946996 8.13818691 6.50343453 9.25 12.0625 C8.44538196 15.76374298 7.38429478 17.33125643 4.625 19.9375 C1.73328261 20.22995439 -0.58764815 20.28310059 -3.4375 20.0625 C-8.46592542 19.43034014 -8.46592542 19.43034014 -12.92089844 21.15258789 C-15.94712215 24.86728258 -18.17586388 29.1092285 -20.5625 33.25 C-21.12130859 34.18779297 -21.68011719 35.12558594 -22.25585938 36.09179688 C-23.04766602 37.46368164 -23.04766602 37.46368164 -23.85546875 38.86328125 C-24.33910889 39.69255127 -24.82274902 40.52182129 -25.32104492 41.3762207 C-26.58277383 44.44242363 -26.70294641 46.65038287 -26.375 49.9375 C-24.49998069 52.31469693 -24.49998069 52.31469693 -22.375 53.9375 C-23.68846249 57.87788746 -25.17388915 58.23860887 -28.765625 60.22265625 C-29.86777344 60.83560547 -30.96992188 61.44855469 -32.10546875 62.08007812 C-32.68345215 62.39533447 -33.26143555 62.71059082 -33.85693359 63.03540039 C-35.60906243 63.99130498 -37.3534148 64.96141858 -39.09765625 65.93164062 C-43.82081077 68.5406474 -48.35495149 70.9294806 -53.375 72.9375 C-53.375 61.0575 -53.375 49.1775 -53.375 36.9375 C-50.735 37.2675 -48.095 37.5975 -45.375 37.9375 C-41.37184413 34.96260021 -39.17239423 31.26047261 -36.78125 26.9375 C-36.14316406 25.803125 -35.50507813 24.66875 -34.84765625 23.5 C-34.18913902 22.31303494 -33.53159408 21.12552997 -32.875 19.9375 C-31.58232237 17.59855144 -30.27898061 15.26679886 -28.96875 12.9375 C-28.39833984 11.90625 -27.82792969 10.875 -27.24023438 9.8125 C-20.57129553 -0.46674396 -11.69481346 -3.68170053 0 0 Z " fill="#F2F5F6" transform="translate(259.375,192.0625)"/>
<path d="M0 0 C4.08936091 0.65721872 4.88683065 1.47288437 7.5 4.5625 C8.66436768 6.81867981 8.66436768 6.81867981 9.60644531 9.31176758 C9.96651672 10.24986771 10.32658813 11.18796783 10.6975708 12.15449524 C11.07065369 13.16183212 11.44373657 14.16916901 11.828125 15.20703125 C12.22199402 16.2501799 12.61586304 17.29332855 13.02166748 18.36808777 C13.85058592 20.57254744 14.67396794 22.77909576 15.4921875 24.98754883 C16.74377508 28.35823549 18.01900859 31.71927961 19.296875 35.08007812 C20.10040125 37.22602277 20.90253122 39.37249086 21.703125 41.51953125 C22.27489471 43.02142754 22.27489471 43.02142754 22.85821533 44.55366516 C24.77158847 49.77157491 26.08440943 53.99437679 25.5 59.5625 C24.375 61.5 24.375 61.5 22.5 62.5625 C19.5 63 19.5 63 16.5 62.5625 C13.86614709 60.02271326 12.64774627 57.0057388 11.5 53.5625 C11.5 52.5725 11.5 51.5825 11.5 50.5625 C4.24 50.8925 -3.02 51.2225 -10.5 51.5625 C-11.82 54.5325 -13.14 57.5025 -14.5 60.5625 C-16.5 62.5625 -16.5 62.5625 -19.4375 62.875 C-22.5 62.5625 -22.5 62.5625 -24.375 61.5 C-26.07997013 58.56366256 -25.913517 55.8373656 -25.5 52.5625 C-24.46552081 48.87528724 -23.0952057 45.33874557 -21.703125 41.7734375 C-21.31308289 40.75198639 -20.92304077 39.73053528 -20.5211792 38.6781311 C-19.69620653 36.52608303 -18.86545453 34.37624261 -18.02929688 32.22851562 C-16.75378133 28.94722754 -15.50065404 25.6580201 -14.25 22.3671875 C-13.44403046 20.27292821 -12.63678153 18.17916074 -11.828125 16.0859375 C-11.45504211 15.10563568 -11.08195923 14.12533386 -10.6975708 13.11532593 C-5.92692528 0.95254156 -5.92692528 0.95254156 0 0 Z " fill="#010204" transform="translate(256.5,382.4375)"/>
<path d="M0 0 C3.12278036 1.71556695 5.17243327 3.22483101 7.17578125 6.1953125 C7.17578125 9.8828125 7.17578125 9.8828125 6.17578125 13.1953125 C3.17578125 15.1953125 3.17578125 15.1953125 0.30078125 15.0078125 C-2.82421875 14.1953125 -2.82421875 14.1953125 -5.07421875 12.6328125 C-9.13758069 10.5087824 -13.31488745 10.58076647 -17.82421875 11.1953125 C-18.48421875 11.8553125 -19.14421875 12.5153125 -19.82421875 13.1953125 C-19.93338822 15.24340547 -19.93338822 15.24340547 -18.82421875 17.1953125 C-16.33236713 18.6451967 -16.33236713 18.6451967 -13.26171875 19.6953125 C-11.63363281 20.32953125 -11.63363281 20.32953125 -9.97265625 20.9765625 C-8.93367188 21.37875 -7.8946875 21.7809375 -6.82421875 22.1953125 C-0.35141708 24.97840638 4.13158394 27.95279263 7.98828125 34.0703125 C9.96305201 39.26707765 9.80994747 43.29154083 7.55078125 48.3203125 C4.76571823 53.41638526 0.62093086 57.0674298 -4.82421875 59.1953125 C-14.2839995 60.18723212 -22.91666241 60.10663642 -30.82421875 54.1953125 C-33.74106541 51.65719081 -35.59711619 49.41598877 -36.32421875 45.5078125 C-35.82421875 43.1953125 -35.82421875 43.1953125 -34.69921875 41.3828125 C-31.76376529 39.52369198 -30.27534436 39.6201249 -26.82421875 40.1953125 C-25.33411441 41.14732361 -23.87788675 42.15337015 -22.44921875 43.1953125 C-17.87418442 46.45329149 -15.38184299 47.02895614 -9.82421875 46.1953125 C-6.80440774 45.20335277 -6.80440774 45.20335277 -4.82421875 43.1953125 C-4.40640996 40.56836828 -4.40640996 40.56836828 -4.82421875 38.1953125 C-9.46293534 35.78674812 -14.08475775 33.67448292 -18.94921875 31.7578125 C-24.27474704 29.56573899 -28.81583427 27.43801661 -31.94921875 22.37890625 C-33.64809438 18.13930144 -33.35050424 13.67198784 -32.82421875 9.1953125 C-26.34890839 -3.99513453 -12.38291205 -5.64834585 0 0 Z " fill="#020406" transform="translate(319.82421875,385.8046875)"/>
<path d="M0 0 C1.19496094 -0.00386719 2.38992188 -0.00773437 3.62109375 -0.01171875 C4.87019531 -0.00011719 6.11929687 0.01148438 7.40625 0.0234375 C8.65535156 0.01183594 9.90445312 0.00023437 11.19140625 -0.01171875 C12.98384766 -0.00591797 12.98384766 -0.00591797 14.8125 0 C15.90884766 0.00338379 17.00519531 0.00676758 18.13476562 0.01025391 C20.90625 0.3984375 20.90625 0.3984375 22.75976562 1.73583984 C24.57126573 4.3628236 24.35708138 6.30702236 23.90625 9.3984375 C21.35664165 12.22474753 19.86237428 12.40174139 16.015625 12.69140625 C14.56220991 12.67158695 13.10893833 12.63598595 11.65625 12.5859375 C10.53863281 12.56563477 10.53863281 12.56563477 9.3984375 12.54492188 C7.56739584 12.50970954 5.73672831 12.45590601 3.90625 12.3984375 C3.90625 16.3584375 3.90625 20.3184375 3.90625 24.3984375 C4.85886719 24.35203125 5.81148438 24.305625 6.79296875 24.2578125 C8.04722656 24.22171875 9.30148437 24.185625 10.59375 24.1484375 C11.83511719 24.10203125 13.07648438 24.055625 14.35546875 24.0078125 C18.47681081 24.46120547 20.04837424 25.45461059 22.90625 28.3984375 C23.46875 30.8984375 23.46875 30.8984375 22.90625 33.3984375 C21.35546875 35.5390625 21.35546875 35.5390625 18.90625 37.3984375 C16.16942029 37.6895896 13.86684961 37.78166168 11.15625 37.6484375 C10.45886719 37.63039063 9.76148438 37.61234375 9.04296875 37.59375 C7.33013461 37.54682304 5.61801176 37.47508355 3.90625 37.3984375 C3.90625 41.3584375 3.90625 45.3184375 3.90625 49.3984375 C5.56914062 49.34623047 5.56914062 49.34623047 7.265625 49.29296875 C8.72915148 49.26482401 10.19269439 49.23752458 11.65625 49.2109375 C12.38585937 49.18580078 13.11546875 49.16066406 13.8671875 49.13476562 C17.12813355 49.09029818 19.48748484 49.17557818 22.39453125 50.72265625 C23.90625 52.3984375 23.90625 52.3984375 24.34375 55.3984375 C23.90625 58.3984375 23.90625 58.3984375 22.75976562 60.05883789 C18.62276298 63.04879225 12.30967506 61.86376912 7.40625 61.8359375 C5.53259766 61.8659082 5.53259766 61.8659082 3.62109375 61.89648438 C2.42613281 61.89583984 1.23117187 61.89519531 0 61.89453125 C-1.09634766 61.89638428 -2.19269531 61.8982373 -3.32226562 61.90014648 C-6.09375 61.3984375 -6.09375 61.3984375 -7.7427063 59.70230103 C-9.37103483 56.92559832 -9.47380624 55.24043225 -9.48193359 52.03491211 C-9.49139008 50.9637767 -9.50084656 49.8926413 -9.5105896 48.78904724 C-9.50451691 47.63791946 -9.49844421 46.48679169 -9.4921875 45.30078125 C-9.49505768 44.11496964 -9.49792786 42.92915802 -9.50088501 41.70741272 C-9.50292592 39.20166547 -9.49739427 36.6959023 -9.48486328 34.19018555 C-9.4687968 30.34713279 -9.48471944 26.50512956 -9.50390625 22.66210938 C-9.5019241 20.22916434 -9.49808102 17.79621996 -9.4921875 15.36328125 C-9.49826019 14.21012924 -9.50433289 13.05697723 -9.5105896 11.86888123 C-9.50113312 10.80089798 -9.49167664 9.73291473 -9.48193359 8.63256836 C-9.47954681 7.69199081 -9.47716003 6.75141327 -9.47470093 5.78233337 C-8.58275617 0.20076558 -5.0106349 0.01546492 0 0 Z " fill="#020406" transform="translate(385.09375,383.6015625)"/>
<path d="M0 0 C1.19496094 -0.00386719 2.38992187 -0.00773437 3.62109375 -0.01171875 C4.87019531 -0.00011719 6.11929688 0.01148438 7.40625 0.0234375 C8.65535156 0.01183594 9.90445313 0.00023437 11.19140625 -0.01171875 C12.98384766 -0.00591797 12.98384766 -0.00591797 14.8125 0 C15.90884766 0.00338379 17.00519531 0.00676758 18.13476562 0.01025391 C20.90625 0.3984375 20.90625 0.3984375 22.79492188 1.70068359 C23.90625 3.3984375 23.90625 3.3984375 23.78125 6.9609375 C22.90625 10.3984375 22.90625 10.3984375 19.90625 12.3984375 C18.00512695 12.62548828 18.00512695 12.62548828 15.89453125 12.59375 C15.13720703 12.58730469 14.37988281 12.58085937 13.59960938 12.57421875 C12.42108398 12.54908203 12.42108398 12.54908203 11.21875 12.5234375 C10.42146484 12.51441406 9.62417969 12.50539063 8.80273438 12.49609375 C6.837111 12.47255335 4.87164225 12.43668297 2.90625 12.3984375 C2.90625 16.3584375 2.90625 20.3184375 2.90625 24.3984375 C3.94265625 24.35203125 4.9790625 24.305625 6.046875 24.2578125 C7.41663779 24.22028475 8.78643182 24.18388566 10.15625 24.1484375 C11.17912109 24.09816406 11.17912109 24.09816406 12.22265625 24.046875 C15.66939817 23.97994797 17.56341831 24.15194313 20.39453125 26.1875 C21.90625 28.3984375 21.90625 28.3984375 21.84375 32.0234375 C20.90625 35.3984375 20.90625 35.3984375 17.90625 37.3984375 C15.30379502 37.54064815 12.81507316 37.58646682 10.21875 37.5234375 C9.51685547 37.51441406 8.81496094 37.50539063 8.09179688 37.49609375 C6.36313475 37.47257454 4.63464855 37.43670463 2.90625 37.3984375 C2.90625 41.3584375 2.90625 45.3184375 2.90625 49.3984375 C4.08703125 49.35203125 5.2678125 49.305625 6.484375 49.2578125 C8.04164134 49.22028801 9.59893508 49.18388857 11.15625 49.1484375 C11.93355469 49.11492187 12.71085937 49.08140625 13.51171875 49.046875 C19.27460203 48.94836417 19.27460203 48.94836417 22.4609375 51.21875 C23.90625 53.3984375 23.90625 53.3984375 23.78125 56.5234375 C22.90625 59.3984375 22.90625 59.3984375 20.90625 61.3984375 C16.44470192 61.85946823 11.95134362 61.72242544 7.46875 61.7109375 C6.21513672 61.72705078 4.96152344 61.74316406 3.66992188 61.75976562 C2.47044922 61.76041016 1.27097656 61.76105469 0.03515625 61.76171875 C-1.06755615 61.76469971 -2.17026855 61.76768066 -3.30639648 61.77075195 C-6.09375 61.3984375 -6.09375 61.3984375 -7.74369812 60.20903015 C-9.58209541 57.74350369 -9.47433639 56.11667834 -9.48193359 53.05664062 C-9.49139008 51.96540894 -9.50084656 50.87417725 -9.5105896 49.74987793 C-9.50451691 48.57171509 -9.49844421 47.39355225 -9.4921875 46.1796875 C-9.49649277 44.36555359 -9.49649277 44.36555359 -9.50088501 42.51477051 C-9.50292786 39.95596855 -9.49738268 37.39715105 -9.48486328 34.83837891 C-9.46881379 30.91403396 -9.48470562 26.99071903 -9.50390625 23.06640625 C-9.50192386 20.58333105 -9.49808027 18.1002565 -9.4921875 15.6171875 C-9.50129654 13.84994324 -9.50129654 13.84994324 -9.5105896 12.04699707 C-9.50113312 10.95576538 -9.49167664 9.86453369 -9.48193359 8.74023438 C-9.47954681 7.77887573 -9.47716003 6.81751709 -9.47470093 5.82702637 C-9.09375 3.3984375 -9.09375 3.3984375 -7.7427063 1.58883667 C-5.2224732 -0.23054653 -3.07215292 0.00948195 0 0 Z " fill="#010203" transform="translate(112.09375,383.6015625)"/>
<path d="M0 0 C4.57901461 2.66710872 8.2566273 6.7007546 10.625 11.4375 C11.31387256 18.93636982 11.75545134 25.68841204 7.05078125 31.890625 C2.9459636 36.344071 -1.13449669 38.96681237 -7.171875 39.84375 C-14.87907002 40.08842286 -19.68300612 38.74359599 -25.375 33.4375 C-29.8340875 28.38386749 -30.67962974 23.28368906 -30.59375 16.74609375 C-30.05853854 11.09770142 -27.26430568 6.43484194 -23.375 2.4375 C-16.56756927 -2.80989452 -7.93160961 -3.51670215 0 0 Z " fill="#030203" transform="translate(239.375,97.5625)"/>
<path d="M0 0 C2.2479225 -0.00437292 4.49388 -0.04069822 6.74145508 -0.07861328 C8.173089 -0.08448191 9.60473223 -0.08845099 11.03637695 -0.09033203 C12.33696045 -0.0985498 13.63754395 -0.10676758 14.97753906 -0.11523438 C18.3215332 0.37060547 18.3215332 0.37060547 20.74951172 2.23925781 C22.3215332 4.37060547 22.3215332 4.37060547 22.7590332 6.93310547 C22.23206819 9.86905342 21.69523571 10.60554463 19.3215332 12.37060547 C16.62231445 12.66357422 16.62231445 12.66357422 13.6340332 12.55810547 C12.64016602 12.53103516 11.64629883 12.50396484 10.62231445 12.47607422 C9.86305664 12.44126953 9.10379883 12.40646484 8.3215332 12.37060547 C8.32819504 12.95276321 8.33485687 13.53492096 8.34172058 14.13471985 C8.40801011 20.18521612 8.45330713 26.23560951 8.48632812 32.28637695 C8.50142923 34.54553415 8.52191162 36.80466196 8.54785156 39.0637207 C8.58417628 42.3080164 8.60124629 45.55192503 8.61450195 48.79638672 C8.62998581 49.80897049 8.64546967 50.82155426 8.66142273 51.86482239 C8.66164932 52.80557114 8.66187592 53.74631989 8.66210938 54.71557617 C8.66877121 55.54386429 8.67543304 56.3721524 8.68229675 57.22554016 C8.23288321 59.89770976 7.4809106 60.77331442 5.3215332 62.37060547 C0.18888623 63.01218634 0.18888623 63.01218634 -2.34468079 61.1381073 C-4.0679012 58.85453616 -4.04191162 57.55891172 -4.01904297 54.71557617 C-4.01881638 53.77482742 -4.01858978 52.83407867 -4.01835632 51.86482239 C-4.00287247 50.85223862 -3.98738861 49.83965485 -3.97143555 48.79638672 C-3.9671907 47.75741745 -3.96294586 46.71844818 -3.95857239 45.647995 C-3.94176528 42.32610271 -3.90410876 39.00481472 -3.8659668 35.68310547 C-3.85092261 33.43246318 -3.83723375 31.1818114 -3.82495117 28.93115234 C-3.79185516 23.4107635 -3.74163549 17.89072765 -3.6784668 12.37060547 C-4.81735352 12.4228125 -4.81735352 12.4228125 -5.97924805 12.47607422 C-6.97311523 12.50314453 -7.96698242 12.53021484 -8.9909668 12.55810547 C-9.97709961 12.59291016 -10.96323242 12.62771484 -11.97924805 12.66357422 C-14.6784668 12.37060547 -14.6784668 12.37060547 -16.54174805 11.08154297 C-17.6784668 9.37060547 -17.6784668 9.37060547 -17.5534668 5.80810547 C-15.52915204 -2.14455963 -6.70645803 -0.00146509 0 0 Z " fill="#010102" transform="translate(347.678466796875,382.62939453125)"/>
<path d="M0 0 C9.9 0 19.8 0 30 0 C30.020625 2.619375 30.04125 5.23875 30.0625 7.9375 C30.071604 8.7637085 30.08070801 9.58991699 30.09008789 10.44116211 C30.09723945 12.29433759 30.0502852 14.14749308 30 16 C27.29928847 18.70071153 19.20329036 17.18565282 15.5625 17.1875 C14.29599609 17.19974609 13.02949219 17.21199219 11.72460938 17.22460938 C10.51740234 17.22654297 9.31019531 17.22847656 8.06640625 17.23046875 C6.3949353 17.23663208 6.3949353 17.23663208 4.68969727 17.24291992 C2 17 2 17 0 15 C0 10.05 0 5.1 0 0 Z " fill="#796C78" transform="translate(368,480)"/>
<path d="M0 0 C9.9 0 19.8 0 30 0 C30 4.95 30 9.9 30 15 C28 17 28 17 25.31030273 17.24291992 C24.19598877 17.23881104 23.0816748 17.23470215 21.93359375 17.23046875 C20.72638672 17.22853516 19.51917969 17.22660156 18.27539062 17.22460938 C17.00888672 17.21236328 15.74238281 17.20011719 14.4375 17.1875 C13.16712891 17.18685547 11.89675781 17.18621094 10.58789062 17.18554688 C1.14010053 17.14010053 1.14010053 17.14010053 0 16 C-0.07325436 13.3013095 -0.09222351 10.63497444 -0.0625 7.9375 C-0.041875 5.318125 -0.02125 2.69875 0 0 Z " fill="#796C78" transform="translate(114,480)"/>
<path d="M0 0 C0.82951172 -0.00386719 1.65902344 -0.00773437 2.51367188 -0.01171875 C3.37669922 -0.00011719 4.23972656 0.01148438 5.12890625 0.0234375 C5.98806641 0.01183594 6.84722656 0.00023437 7.73242188 -0.01171875 C11.39143976 0.00531314 13.98098013 0.02918867 17.26171875 1.734375 C18.69140625 3.3984375 18.69140625 3.3984375 19.12890625 6.3984375 C18.64288044 9.73118593 18.29798861 10.41526275 15.69140625 12.3984375 C13.5625 12.78662109 13.5625 12.78662109 11.12890625 12.796875 C10.24976563 12.80074219 9.370625 12.80460937 8.46484375 12.80859375 C7.54960937 12.79699219 6.634375 12.78539062 5.69140625 12.7734375 C4.31855469 12.79083984 4.31855469 12.79083984 2.91796875 12.80859375 C2.03882813 12.80472656 1.1596875 12.80085938 0.25390625 12.796875 C-0.95072266 12.79179932 -0.95072266 12.79179932 -2.1796875 12.78662109 C-4.82660245 12.30398408 -5.71500561 11.5380935 -7.30859375 9.3984375 C-7.95197871 4.2513578 -7.95197871 4.2513578 -6.05444336 1.73583984 C-3.88276861 0.07223555 -2.71410754 0.01216699 0 0 Z " fill="#010203" transform="translate(148.30859375,407.6015625)"/>
<path d="M0 0 C3.5625 0.1875 3.5625 0.1875 5.5625 2.1875 C5.8125 5.6875 5.8125 5.6875 5.5625 9.1875 C3.5625 11.1875 3.5625 11.1875 0.625 11.5 C-2.4375 11.1875 -2.4375 11.1875 -4.375 10.125 C-6.06931173 7.03537273 -5.17701685 4.51532582 -4.4375 1.1875 C-3.4375 0.1875 -3.4375 0.1875 0 0 Z " fill="#F6538F" transform="translate(229.4375,110.8125)"/>
<path d="M0 0 C2.35082212 2.89642841 3.83519406 5.65356331 5.1875 9.125 C5.53167969 9.99382812 5.87585938 10.86265625 6.23046875 11.7578125 C7 14 7 14 7 16 C3.04 16 -0.92 16 -5 16 C-4.22181136 12.10905678 -3.31126232 8.86563783 -1.9375 5.1875 C-1.57527344 4.21167969 -1.21304688 3.23585938 -0.83984375 2.23046875 C-0.42412109 1.12638672 -0.42412109 1.12638672 0 0 Z " fill="#55A2E2" transform="translate(256,405)"/>
</svg>
