<?xml version="1.0" encoding="UTF-8"?>
<svg version="1.1" xmlns="http://www.w3.org/2000/svg" width="512" height="512">
<path d="M0 0 C0.71577713 -0.00846954 1.43155426 -0.01693909 2.16902161 -0.02566528 C4.53612007 -0.04907242 6.90256993 -0.05005661 9.26977539 -0.04882812 C10.91500611 -0.05592758 12.56023435 -0.06362626 14.20545959 -0.07189941 C17.65462119 -0.08535278 21.10355387 -0.08690926 24.55273438 -0.08105469 C28.97280547 -0.07515814 33.39177831 -0.10574309 37.81163692 -0.14617157 C41.20974138 -0.17202222 44.60758049 -0.17492842 48.00576973 -0.17127991 C49.63527753 -0.1729737 51.26479726 -0.18264121 52.89420891 -0.20042419 C55.17370947 -0.22256363 57.4509758 -0.21294095 59.73046875 -0.1953125 C61.02713974 -0.19736694 62.32381073 -0.19942139 63.65977478 -0.20153809 C66.92993164 0.41992188 66.92993164 0.41992188 69.1966095 2.45817566 C71.25914921 5.98245948 72.61747384 9.55626139 73.86254883 13.4230957 C74.12647934 14.21386505 74.39040985 15.0046344 74.66233826 15.81936646 C75.52716489 18.41870024 76.37703371 21.02266323 77.22680664 23.62695312 C77.82551812 25.43615109 78.42516123 27.245041 79.0256958 29.05363464 C80.60003322 33.80331094 82.16170993 38.55705638 83.72076416 43.31176758 C85.3153958 48.16740316 86.92199703 53.01907341 88.52758789 57.87109375 C91.67341305 67.38353247 94.80587379 76.9003141 97.92993164 86.41992188 C99.35257324 86.42608521 99.35257324 86.42608521 100.80395508 86.43237305 C104.3307598 86.45937933 107.85582804 86.50848564 111.38208008 86.57250977 C112.90671097 86.59567405 114.43150152 86.61008187 115.95629883 86.61547852 C118.15164486 86.62478083 120.34448576 86.66578884 122.53930664 86.71289062 C123.85898437 86.72860107 125.17866211 86.74431152 126.53833008 86.76049805 C129.92993164 87.41992188 129.92993164 87.41992188 132.20855713 89.46391296 C134.2605017 92.98758918 135.61911525 96.56135913 136.86254883 100.4230957 C137.12647934 101.21386505 137.39040985 102.0046344 137.66233826 102.81936646 C138.52716489 105.41870024 139.37703371 108.02266323 140.22680664 110.62695312 C140.82551812 112.43615109 141.42516123 114.245041 142.0256958 116.05363464 C143.60003322 120.80331094 145.16170993 125.55705638 146.72076416 130.31176758 C148.3153958 135.16740316 149.92199703 140.01907341 151.52758789 144.87109375 C154.67341305 154.38353247 157.80587379 163.9003141 160.92993164 173.41992188 C162.29927856 173.43394043 162.29927856 173.43394043 163.69628906 173.44824219 C167.09809212 173.49237369 170.49865331 173.55403588 173.89990234 173.62744141 C175.36918614 173.65558799 176.83861959 173.67683396 178.30810547 173.69091797 C180.42631278 173.71243718 182.54273317 173.75912522 184.66040039 173.81054688 C185.93294678 173.83149414 187.20549316 173.85244141 188.51660156 173.87402344 C192.54366072 174.51807639 194.14311343 175.47185304 196.92993164 178.41992188 C198.22991943 181.03504944 198.22991943 181.03504944 199.19067383 184.04516602 C199.56166199 185.17898209 199.93265015 186.31279816 200.31488037 187.48097229 C200.69831604 188.70992722 201.08175171 189.93888214 201.47680664 191.20507812 C201.89500638 192.50279806 202.31473618 193.80002579 202.73590088 195.0967865 C203.84530955 198.52596002 204.93479342 201.96114175 206.01989746 205.39807129 C207.09349967 208.78844631 208.18378212 212.17342958 209.27368164 215.55859375 C210.56286431 219.56425108 211.85001028 223.57047912 213.12487793 227.58071899 C215.21615822 234.15089809 217.34692668 240.70331645 219.57641602 247.22802734 C220.20595184 249.07816689 220.20595184 249.07816689 220.84820557 250.96568298 C221.64134822 253.28559654 222.44197759 255.60296911 223.25140381 257.91725159 C223.60454651 258.95123581 223.95768921 259.98522003 224.3215332 261.05053711 C224.63334534 261.94699448 224.94515747 262.84345184 225.26641846 263.76707458 C226.0286977 266.81480667 226.24593062 269.29101971 225.92993164 272.41992188 C224.81124687 274.07422209 224.81124687 274.07422209 222.92993164 275.41992188 C220.08574486 275.7982707 220.08574486 275.7982707 216.54086304 275.80303192 C215.88658805 275.80799144 215.23231307 275.81295095 214.55821157 275.81806076 C212.3503812 275.83108675 210.14314872 275.82261054 207.93530273 275.81433105 C206.34267432 275.81921666 204.75004944 275.82540492 203.15743065 275.83278894 C198.76894016 275.84925344 194.38062854 275.84685739 189.99211788 275.84141397 C185.26403004 275.83875179 180.53599076 275.85326018 175.80792236 275.86550903 C166.54087262 275.88659896 157.27388538 275.89110188 148.00681448 275.88932115 C140.47782218 275.88801543 132.94884945 275.89180793 125.41986084 275.89924622 C123.25422605 275.90134532 121.08859126 275.90344292 118.92295647 275.90553904 C117.30631053 275.90710433 117.30631053 275.90710433 115.65700507 275.90870124 C95.2582693 275.92761764 74.85956946 275.92654899 54.46082854 275.91973191 C35.78119467 275.91415414 17.10169785 275.93498942 -1.57790399 275.96809238 C-20.73964556 276.00178733 -39.90132141 276.01700305 -59.06309319 276.01237535 C-69.82842869 276.01012657 -80.59363748 276.01543346 -91.35894775 276.04026794 C-100.52257568 276.06122685 -109.6860074 276.06492698 -118.84964323 276.04596835 C-123.52853283 276.03677735 -128.20705608 276.0357697 -132.88591766 276.05632401 C-137.16436466 276.0749121 -141.44214217 276.07066895 -145.7205627 276.04777819 C-147.27300693 276.04356142 -148.82550129 276.04789465 -150.37789273 276.06137413 C-152.47975155 276.07838989 -154.57923392 276.064961 -156.68099976 276.04354095 C-158.43571626 276.04394953 -158.43571626 276.04394953 -160.22588158 276.04436636 C-163.07006836 275.41992188 -163.07006836 275.41992188 -164.99845314 273.11445093 C-168.1703574 265.138838 -161.14959928 252.15704808 -158.51147461 244.19726562 C-157.96068184 242.52546435 -157.41022682 240.85355177 -156.86009216 239.18153381 C-155.71032563 235.69004607 -154.55772171 232.19951323 -153.40283203 228.7097168 C-151.92830953 224.25388647 -150.45902021 219.79635352 -148.99162388 215.33817196 C-147.85630223 211.8897514 -146.71915653 208.44193469 -145.58137321 204.99432564 C-145.03925068 203.35151767 -144.49746262 201.70859929 -143.95602608 200.06556511 C-143.19698795 197.76376763 -142.4357331 195.46271513 -141.67382812 193.16186523 C-141.45398758 192.49411072 -141.23414703 191.8263562 -141.00764465 191.1383667 C-136.68787001 178.12383765 -136.68787001 178.12383765 -134.33081055 175.43823242 C-131.10775948 173.9864672 -128.42428125 174.08359959 -124.89819336 174.12695312 C-123.87456696 174.13332039 -123.87456696 174.13332039 -122.83026123 174.13981628 C-120.65978832 174.15655215 -118.49025857 174.19419229 -116.32006836 174.23242188 C-114.84482139 174.24747542 -113.36955981 174.26116266 -111.89428711 174.2734375 C-108.28590991 174.30643811 -104.67808126 174.3581842 -101.07006836 174.41992188 C-100.83594238 173.22858643 -100.60181641 172.03725098 -100.3605957 170.80981445 C-98.86834262 164.11569784 -96.61167505 157.67261474 -94.42163086 151.18164062 C-93.96284911 149.81090875 -93.50447264 148.44004118 -93.04647827 147.06904602 C-91.84534114 143.47701517 -90.63882003 139.88681614 -89.43109131 136.29699707 C-88.2137767 132.67564006 -87.0014809 129.05260439 -85.78881836 125.4296875 C-81.1385887 111.54086605 -81.1385887 111.54086605 -79.21343994 105.86459351 C-78.45138428 103.56872438 -77.71879045 101.26286506 -77.01605225 98.94815063 C-76.51951141 97.33666641 -76.51951141 97.33666641 -76.01293945 95.69262695 C-75.73243744 94.74575516 -75.45193542 93.79888336 -75.16293335 92.82331848 C-73.8805791 90.00320265 -72.74684932 88.94167834 -70.07006836 87.41992188 C-67.44861342 87.16361898 -65.07480669 87.06922757 -62.46069336 87.12695312 C-61.37047882 87.13332039 -61.37047882 87.13332039 -60.25823975 87.13981628 C-57.94513331 87.15656058 -55.63290981 87.19420302 -53.32006836 87.23242188 C-51.74846639 87.24747429 -50.17685072 87.26116173 -48.60522461 87.2734375 C-44.75983421 87.30644992 -40.9151008 87.35820132 -37.07006836 87.41992188 C-36.92964111 86.86151611 -36.78921387 86.30311035 -36.64453125 85.7277832 C-34.02580189 75.72156152 -30.72984291 65.93117759 -27.50756836 56.10742188 C-26.88083708 54.19336668 -26.25412829 52.27930411 -25.62744141 50.36523438 C-24.37210136 46.53311815 -23.11459883 42.70171854 -21.85620117 38.87060547 C-20.4757162 34.66416588 -19.10702215 30.45406899 -17.74565125 26.2414093 C-16.83990721 23.44272116 -15.92696536 20.64642173 -15.01199341 17.85073853 C-14.39518715 15.95863113 -13.78709983 14.06368856 -13.17919922 12.16870117 C-12.62437866 10.48321167 -12.62437866 10.48321167 -12.05834961 8.76367188 C-11.74422119 7.79623047 -11.43009277 6.82878906 -11.10644531 5.83203125 C-8.68005837 0.1847514 -5.97305533 0.03880642 0 0 Z M9.92993164 101.41992188 C19.31446588 130.45800567 19.31446588 130.45800567 28.92993164 159.41992188 C31.27428643 157.07556709 31.76752554 155.4023962 32.80932617 152.26757812 C33.16954865 151.19306396 33.52977112 150.1185498 33.90090942 149.01147461 C34.28431488 147.84688721 34.66772034 146.6822998 35.06274414 145.48242188 C35.45944305 144.29140869 35.85614197 143.10039551 36.26486206 141.87329102 C37.10317815 139.35229418 37.93917106 136.8306687 38.77124023 134.30761719 C39.83891885 131.07058013 40.91449108 127.83623674 41.99283028 124.60273743 C43.01949197 121.5220784 44.04105018 118.43973136 45.06274414 115.35742188 C45.45019806 114.19283447 45.83765198 113.02824707 46.23684692 111.82836914 C46.59076508 110.75385498 46.94468323 109.67934082 47.30932617 108.57226562 C47.62306183 107.62343506 47.93679749 106.67460449 48.26004028 105.69702148 C49.02400727 103.49573791 49.02400727 103.49573791 48.92993164 101.41992188 C36.05993164 101.41992188 23.18993164 101.41992188 9.92993164 101.41992188 Z M-53.07006836 187.41992188 C-51.42821781 194.89284907 -51.42821781 194.89284907 -49.2824707 202.12329102 C-48.94226898 203.14366959 -48.60206726 204.16404816 -48.2515564 205.21534729 C-47.89002472 206.28445847 -47.52849304 207.35356964 -47.15600586 208.45507812 C-46.78150299 209.57434189 -46.40700012 210.69360565 -46.02114868 211.8467865 C-44.83336912 215.39343931 -43.639322 218.93794448 -42.44506836 222.48242188 C-41.63475641 224.89829797 -40.82485628 227.31431223 -40.01538086 229.73046875 C-38.03837191 235.6285601 -36.05622381 241.5249047 -34.07006836 247.41992188 C-33.41006836 247.41992188 -32.75006836 247.41992188 -32.07006836 247.41992188 C-29.58930192 239.89334198 -27.11170912 232.36572817 -24.63819122 224.83676338 C-23.48960942 221.34101532 -22.3399267 217.84563731 -21.18774414 214.35107422 C-20.07642205 210.98030557 -18.96797087 207.60860551 -17.86152649 204.23623276 C-17.43832584 202.94806004 -17.0140817 201.66022967 -16.58879089 200.37274551 C-15.99452431 198.57312973 -15.40426838 196.77219103 -14.81420898 194.97119141 C-14.30790955 193.43230759 -14.30790955 193.43230759 -13.79138184 191.86233521 C-12.9756568 189.52468817 -12.9756568 189.52468817 -13.07006836 187.41992188 C-26.27006836 187.41992188 -39.47006836 187.41992188 -53.07006836 187.41992188 Z M72.92993164 187.41992188 C75.17670541 195.79083507 75.17670541 195.79083507 77.70751953 204.04321289 C78.02116959 204.99692276 78.33481964 205.95063263 78.65797424 206.9332428 C78.98619675 207.92013596 79.31441925 208.90702911 79.65258789 209.92382812 C79.99873642 210.96893051 80.34488495 212.0140329 80.70152283 213.09080505 C81.42689187 215.2769582 82.15384357 217.46258682 82.88232422 219.64770508 C83.99914435 223.00258659 85.10629096 226.36056583 86.21313477 229.71875 C86.92153286 231.84980435 87.63049672 233.98067074 88.34008789 236.11132812 C88.83545799 237.61899498 88.83545799 237.61899498 89.34083557 239.15711975 C89.65133347 240.08246017 89.96183136 241.0078006 90.28173828 241.96118164 C90.55248672 242.77627701 90.82323517 243.59137238 91.10218811 244.4311676 C91.85720509 246.60126733 91.85720509 246.60126733 93.92993164 248.41992188 C96.41244927 240.9111883 98.89018352 233.40090074 101.36180878 225.88857555 C102.50960491 222.40043964 103.6590477 218.91286443 104.81225586 215.42651367 C105.92488089 212.06264992 107.03317733 208.69738867 108.13847351 205.33111 C108.56115018 204.04638142 108.98539011 202.76216606 109.41120911 201.47847557 C110.00685916 199.68191763 110.59646554 197.88335931 111.18579102 196.0847168 C111.52332397 195.06101486 111.86085693 194.03731293 112.20861816 192.98258972 C113.06540244 190.38233183 113.06540244 190.38233183 112.92993164 187.41992188 C99.72993164 187.41992188 86.52993164 187.41992188 72.92993164 187.41992188 Z " fill="#151F81" transform="translate(196.070068359375,229.580078125)"/>
<path d="M0 0 C3.51331544 2.30685428 4.40392367 6.26186365 5.69921875 10.07421875 C6.05908623 11.09996758 6.05908623 11.09996758 6.42622375 12.1464386 C7.18812118 14.3240548 7.93793419 16.5056122 8.6875 18.6875 C9.20298376 20.16759388 9.71925096 21.64741515 10.23632812 23.12695312 C11.49998689 26.74820548 12.75282659 30.37303869 14 34 C20.61641427 32.77778825 27.10850101 31.23554243 33.61791992 29.53759766 C53.6306047 24.32998083 74.06828047 20.0395677 94.8125 19.5625 C95.64458984 19.51673828 96.47667969 19.47097656 97.33398438 19.42382812 C98.13771484 19.40900391 98.94144531 19.39417969 99.76953125 19.37890625 C100.48729736 19.3538501 101.20506348 19.32879395 101.94458008 19.30297852 C105.25823464 20.42668487 106.47840258 23.03655154 108 26 C109.35843958 29.05643853 110.52715592 32.16665296 111.671875 35.30859375 C112.16279633 36.63601341 112.16279633 36.63601341 112.66363525 37.99024963 C113.34992901 39.85375833 114.03212998 41.71877888 114.71044922 43.58520508 C115.74728799 46.43005884 116.80445129 49.26678487 117.86328125 52.10351562 C118.52989262 53.9214183 119.19529811 55.7397637 119.859375 57.55859375 C120.17493347 58.40046738 120.49049194 59.242341 120.81561279 60.10972595 C122.52951486 64.8861965 123.49252566 68.84630766 123 74 C121.5 76 121.5 76 119 77 C116.21517972 76.84528776 113.73036226 76.50262519 111 76 C84.71610399 71.46712733 57.03726462 74.96398585 31 80 C33.1769518 87.64250029 35.77157014 95.08754862 38.515625 102.54296875 C39.19628017 104.40349992 39.87693535 106.26403108 40.55759048 108.12456226 C41.28362501 110.10737504 42.01109726 112.08965471 42.73901367 114.07177734 C44.28006924 118.26814974 45.8170883 122.46599372 47.35351562 126.6640625 C49.23111541 131.79358342 51.1096179 136.92277187 52.98931885 142.05152321 C56.27533262 151.017689 59.55425968 159.98642296 62.828125 168.95703125 C63.06310825 169.60090034 63.29809151 170.24476944 63.54019547 170.90814972 C64.48604718 173.49995273 65.43184327 176.09177603 66.37755013 178.6836319 C68.0367456 183.23087576 69.6966335 187.77786638 71.35693359 192.32470703 C75.97860651 204.9816819 80.59835741 217.63935275 85.21385193 230.29858208 C89.78843668 242.84555637 94.36744287 255.39090213 98.95446777 267.93333435 C101.17553983 274.00684171 103.39471101 280.08102329 105.60839844 286.15722656 C107.61367822 291.6608789 109.62529588 297.16216989 111.64215088 302.66159058 C112.37250458 304.65643274 113.10054612 306.65212316 113.82611084 308.64871216 C114.81012768 311.35538127 115.80238906 314.05888207 116.796875 316.76171875 C117.08013641 317.54700958 117.36339783 318.33230042 117.65524292 319.14138794 C119.07727674 323.19519282 119.07727674 323.19519282 121.57273865 326.61820984 C123.87474498 330.45975998 123.40817889 334.39274657 123.37231445 338.78564453 C123.37596512 339.77788025 123.37961578 340.77011597 123.38337708 341.79241943 C123.39148449 345.07272443 123.37787249 348.35253584 123.36328125 351.6328125 C123.36276275 353.90916951 123.36328006 356.18552698 123.36479187 358.46188354 C123.36470214 363.23165575 123.35427003 368.00125894 123.33618164 372.77099609 C123.31346884 378.89591612 123.312955 385.02058967 123.31969929 391.14554024 C123.32303431 395.84486089 123.31641841 400.54412497 123.30657005 405.24343491 C123.30271164 407.5025592 123.30157248 409.76168977 123.3031559 412.0208168 C123.30352519 415.17171566 123.29094553 418.32229369 123.2746582 421.47314453 C123.27837433 422.88359543 123.27837433 422.88359543 123.28216553 424.32254028 C123.27508072 425.17775269 123.26799591 426.03296509 123.26069641 426.91409302 C123.25864354 427.65923723 123.25659067 428.40438145 123.25447559 429.17210579 C123 431 123 431 121 433 C118.94140625 433.3359375 118.94140625 433.3359375 116.5625 433.375 C115.78003906 433.40335937 114.99757813 433.43171875 114.19140625 433.4609375 C111.16979397 432.82537556 110.66515782 431.55100695 109 429 C108.27869342 427.38940784 107.62189912 425.74901237 107.01733398 424.09106445 C106.65449814 423.10636673 106.29166229 422.12166901 105.91783142 421.10713196 C105.53115799 420.03666122 105.14448456 418.96619049 104.74609375 417.86328125 C104.33343765 416.73774338 103.92078156 415.61220551 103.49562073 414.45256042 C102.37144932 411.38266392 101.2532321 408.3106771 100.13751221 405.23770142 C98.95803827 401.99386529 97.77069768 398.75291187 96.58398438 395.51171875 C94.64341857 390.20913732 92.70676593 384.90514392 90.77294922 379.60009766 C87.22649488 369.87260838 83.65378031 360.15480638 80.07995605 350.43734741 C78.98776741 347.46672887 77.89655065 344.49575512 76.80566406 341.5246582 C71.11011049 326.01256749 65.40108211 310.50545843 59.6875 295 C59.03133194 293.21928101 59.03133194 293.21928101 58.36190796 291.40258789 C55.24160841 282.93493459 52.12085479 274.46744867 49 266 C45.43719045 256.33344739 41.87457801 246.6668222 38.3125 237 C37.87481293 235.81220947 37.43712585 234.62441895 36.98617554 233.40063477 C30.98139439 217.10386482 24.98630367 200.80356558 19 184.5 C12.70256673 167.35088883 6.40082557 150.20336625 0.08959961 133.05932617 C-0.83368461 130.55118401 -1.7564458 128.04285133 -2.67895508 125.53442383 C-3.96864564 122.02781882 -5.25956602 118.52166883 -6.55078125 115.015625 C-6.92713211 113.99160583 -7.30348297 112.96758667 -7.6912384 111.91253662 C-10.39312108 104.58192569 -13.17956509 97.28577535 -16 90 C-27.50804558 92.1874707 -38.8420835 94.83954028 -50.1875 97.75 C-51.53923309 98.09516159 -51.53923309 98.09516159 -52.91827393 98.44729614 C-73.69096415 103.7681891 -94.2846914 109.70631595 -114.8671875 115.71484375 C-115.86204163 116.00508926 -116.85689575 116.29533478 -117.88189697 116.59437561 C-124.15609425 118.43408558 -130.39335029 120.35677893 -136.59545898 122.42822266 C-140.41969841 123.33759099 -142.52599806 122.77560099 -146 121 C-148 118 -148 118 -147.9921875 115.07421875 C-146.64520202 110.900685 -144.86254147 110.04380363 -141.125 107.8125 C-140.19494141 107.24849487 -140.19494141 107.24849487 -139.24609375 106.6730957 C-137.17601926 105.42733992 -135.0893101 104.21317826 -133 103 C-131.53867346 102.13346824 -130.07774377 101.26626692 -128.6171875 100.3984375 C-117.42983148 93.80113495 -106.04431629 87.56112338 -94.60791016 81.40820312 C-92.24617642 80.13292882 -89.89369049 78.84228964 -87.54296875 77.546875 C-72.13337339 69.14888814 -56.03920754 62.09802745 -40 55 C-39.37291138 54.71389862 -38.74582275 54.42779724 -38.09973145 54.13302612 C-35.21577492 52.84225117 -33.19788429 52 -30 52 C-31.26829092 48.16582083 -32.54009441 44.33281545 -33.8125 40.5 C-34.16892578 39.42234375 -34.52535156 38.3446875 -34.89257812 37.234375 C-36.42666554 32.61803856 -37.96442042 28.02163126 -39.73046875 23.48828125 C-41.33612019 19.07644515 -41.62695926 16.62382455 -41 12 C-35.78418747 8.09948985 -29.24850421 6.48920604 -23.13500977 4.44628906 C-21.0673598 3.75163272 -19.00755314 3.03646441 -16.94726562 2.3203125 C-15.62282577 1.87372293 -14.29796866 1.42836846 -12.97265625 0.984375 C-11.77906494 0.57928711 -10.58547363 0.17419922 -9.35571289 -0.24316406 C-5.74304936 -1.05795176 -3.53917856 -1.04376094 0 0 Z " fill="#162081" transform="translate(382,72)"/>
<path d="M0 0 C1.37001499 -0.00679667 1.37001499 -0.00679667 2.76770705 -0.01373065 C5.82913209 -0.02639404 8.89037967 -0.02475301 11.951828 -0.02310181 C14.14645619 -0.02908585 16.34108226 -0.03589111 18.53570557 -0.04345703 C24.49857763 -0.06113708 30.4613923 -0.06581327 36.42428803 -0.0670886 C41.40190351 -0.06898734 46.3795056 -0.07634461 51.35711592 -0.08343279 C62.43038929 -0.09879156 73.50364002 -0.10477003 84.57692269 -0.10342209 C85.2410809 -0.10334218 85.9052391 -0.10326227 86.58952332 -0.10317993 C87.25449503 -0.10309817 87.91946675 -0.10301641 88.60458913 -0.10293217 C99.37862644 -0.10211947 110.15252388 -0.12125397 120.92652074 -0.14945666 C131.9963304 -0.17820441 143.06606852 -0.19162987 154.13591594 -0.19026911 C160.3479254 -0.18975916 166.55977659 -0.19546077 172.77175331 -0.21662521 C178.61504718 -0.2359897 184.4580315 -0.23614406 190.30133629 -0.22159195 C192.44429857 -0.21950053 194.58728014 -0.22422449 196.73020935 -0.23631287 C199.65928879 -0.25176394 202.58730074 -0.24245771 205.51635742 -0.22705078 C206.36121651 -0.23733791 207.2060756 -0.24762503 208.07653648 -0.25822389 C214.71131343 -0.18128277 219.87584411 1.66918073 224.97209167 5.97836304 C229.5875787 11.66101469 231.41324078 16.60666914 231.19084167 23.97055054 C230.48689651 30.64667569 227.78913708 34.97826909 223.15568542 39.72445679 C217.02155496 44.01291968 210.90335506 44.70754646 203.65716553 44.65510559 C202.75421515 44.66049113 201.85126477 44.66587667 200.92095226 44.6714254 C197.91254854 44.68566771 194.90458714 44.67861044 191.89616394 44.67147827 C189.73227079 44.67718376 187.56838065 44.68414872 185.40449524 44.692276 C179.53880578 44.71020222 173.67326596 44.70904003 167.80755734 44.70333362 C162.90692601 44.70024113 158.00632339 44.70633487 153.10569614 44.71237236 C141.54315195 44.72641411 129.98068165 44.72485906 118.4181366 44.71347046 C106.49723454 44.70198822 94.57655743 44.71606764 82.65568501 44.74286693 C72.41256425 44.76503068 62.16951407 44.77165981 51.92637104 44.76579052 C45.81219307 44.76242155 39.69815931 44.76483229 33.58400154 44.78204155 C27.83421739 44.7975193 22.0847663 44.79354558 16.33499527 44.7747364 C14.22793198 44.77105293 12.12084397 44.77415189 10.01380348 44.78462219 C7.13119569 44.79785008 4.2496876 44.78626841 1.36712646 44.76863098 C0.53889942 44.77823599 -0.28932762 44.78784099 -1.14265245 44.79773706 C-7.77588041 44.71457524 -13.96879065 43.12021153 -18.94228929 38.51743025 C-24.35892298 32.60714203 -25.52498665 27.1838826 -25.35993958 19.27133179 C-24.63441352 12.20893259 -21.27201024 7.93099366 -15.93025208 3.49398804 C-10.70650059 0.08388832 -6.04880541 -0.0220003 0 0 Z " fill="#172182" transform="translate(32.05134582519531,6.732574462890625)"/>
<path d="M0 0 C1.62215675 0.00333092 1.62215675 0.00333092 3.27708435 0.00672913 C4.49827469 0.00680466 5.71946503 0.00688019 6.97766113 0.00695801 C8.32022644 0.0120654 9.66279134 0.01728141 11.00535583 0.02259827 C12.37156116 0.02446252 13.73776716 0.02588639 15.10397339 0.02688599 C18.70596654 0.03071058 22.30791959 0.04054035 25.90989685 0.05158997 C29.58298703 0.06180536 33.25608368 0.06638388 36.92918396 0.07142639 C44.14079081 0.08216268 51.35236459 0.09923838 58.56394958 0.12025452 C58.81815674 0.88509659 59.07236389 1.64993866 59.33427429 2.43795776 C61.74494225 9.69010322 64.1571002 16.94175064 66.57088089 24.1928606 C67.81140106 27.91961188 69.05136953 31.64654473 70.2900238 35.37391663 C71.48820956 38.97943938 72.68791415 42.58445363 73.88861847 46.18913841 C74.34358707 47.55587407 74.79803284 48.9227839 75.25191498 50.28988075 C77.67431067 57.58496294 80.14729159 64.849012 82.86418152 72.04095459 C83.56394958 74.12025452 83.56394958 74.12025452 83.56394958 76.12025452 C47.26394958 76.12025452 10.96394958 76.12025452 -26.43605042 76.12025452 C-23.05967796 63.74022217 -23.05967796 63.74022217 -21.27540588 58.01234436 C-20.98455109 57.07600159 -20.98455109 57.07600159 -20.68782043 56.1207428 C-20.06164101 54.10692518 -19.43261291 52.09401301 -18.80323792 50.08119202 C-18.3614343 48.66443903 -17.91971422 47.24765998 -17.47807312 45.83085632 C-16.55998508 42.88734629 -15.64037232 39.94431795 -14.71974182 37.00160217 C-13.5382052 33.22421564 -12.36139404 29.44537483 -11.18577385 25.66614342 C-10.27862036 22.75222966 -9.36860877 19.83921457 -8.45775223 16.92645645 C-8.02217079 15.53205104 -7.58758404 14.13733452 -7.15400314 12.74230576 C-6.55161154 10.80534949 -5.94487165 8.86974713 -5.33790588 6.93421936 C-4.99387726 5.8326651 -4.64984863 4.73111084 -4.2953949 3.59617615 C-3.10035156 0.15304744 -3.10035156 0.15304744 0 0 Z " fill="#D5E6FD" transform="translate(197.43605041503906,416.87974548339844)"/>
<path d="M0 0 C20.13 0 40.26 0 61 0 C67.3125 18.5 67.3125 18.5 69.38647461 24.58251953 C72.36346275 33.30959742 75.35106609 42.03260828 78.37890625 50.7421875 C78.89222362 52.22198703 79.40549014 53.70180421 79.91870117 55.18164062 C80.64206659 57.26718065 81.36697762 59.35210971 82.09707642 61.43530273 C82.76401061 63.33829063 83.42513183 65.24331283 84.0859375 67.1484375 C84.4576709 68.21239746 84.8294043 69.27635742 85.21240234 70.37255859 C86 73 86 73 86 76 C50.03 76 14.06 76 -23 76 C-22.26310105 70.84170735 -21.43072583 66.74140331 -19.86694336 61.87133789 C-19.65221878 61.19731934 -19.4374942 60.52330078 -19.21626282 59.82885742 C-18.51275047 57.62505562 -17.80137615 55.42388032 -17.08984375 53.22265625 C-16.59753804 51.68582058 -16.10572933 50.14882562 -15.61439514 48.61167908 C-14.32553742 44.58404077 -13.0299757 40.55859034 -11.73297119 36.53356934 C-10.17513742 31.69427998 -8.62570485 26.85229506 -7.07485199 22.01076508 C-4.72297215 14.67176654 -2.36049525 7.33625711 0 0 Z " fill="#FDC209" transform="translate(321,417)"/>
<path d="M0 0 C19.8 0 39.6 0 60 0 C64.50174483 11.25436207 64.50174483 11.25436207 66.38183594 16.87084961 C67.01203644 18.74715309 67.01203644 18.74715309 67.65496826 20.66136169 C68.09830166 21.99162314 68.54143259 23.32195207 68.984375 24.65234375 C69.44935342 26.04338345 69.91446406 27.43437895 70.37969971 28.82533264 C71.34647396 31.71824948 72.31096357 34.61191565 73.27392578 37.50610352 C74.50845959 41.21554416 75.7498633 44.92264562 76.9930687 48.62918758 C77.95185315 51.49083592 78.90649528 54.35385302 79.85993195 57.21728706 C80.31624323 58.5857078 80.77397162 59.95365685 81.23314667 61.32111931 C81.87163657 63.22428257 82.50384123 65.129551 83.13574219 67.03491211 C83.49674011 68.11727646 83.85773804 69.19964081 84.22967529 70.31480408 C85 73 85 73 85 76 C49.03 76 13.06 76 -24 76 C-22.74716534 70.36224403 -21.54116818 65.24250362 -19.75341797 59.82788086 C-19.53854736 59.17307739 -19.32367676 58.51827393 -19.10229492 57.84362793 C-18.40301274 55.71599511 -17.69767536 53.59042602 -16.9921875 51.46484375 C-16.50142198 49.97567504 -16.01104131 48.48637944 -15.52102661 46.9969635 C-14.2392798 43.10449271 -12.95236062 39.21375174 -11.66430664 35.32336426 C-10.11510737 30.64054649 -8.57242924 25.95557687 -7.02864075 21.27097321 C-4.69071538 14.17900007 -2.3445932 7.08978718 0 0 Z " fill="#F1867E" transform="translate(69,417)"/>
<path d="M0 0 C19.8 0 39.6 0 60 0 C64.50263496 11.2565874 64.50263496 11.2565874 66.38183594 16.76318359 C66.8019696 17.99080414 67.22210327 19.21842468 67.65496826 20.48324585 C68.09834284 21.78822856 68.54147275 23.09329441 68.984375 24.3984375 C69.44942305 25.76463841 69.91453241 27.13081845 70.37969971 28.49697876 C71.346414 31.33862886 72.31084875 34.18104104 73.27392578 37.02392578 C74.50755588 40.66411219 75.74933243 44.30146389 76.9930687 47.93820763 C77.95286174 50.74892586 78.90716389 53.56148542 79.85993195 56.37459183 C80.31567004 57.71727017 80.7733897 59.05927765 81.23314667 60.40058517 C81.87310115 62.26949023 82.50461522 64.14127905 83.13574219 66.01318359 C83.49674011 67.07556244 83.85773804 68.13794128 84.22967529 69.23251343 C85 72 85 72 85 76 C49.36 76 13.72 76 -23 76 C-22.29269609 71.04887264 -21.54796621 67.0820745 -20.08227539 62.40966797 C-19.89027054 61.79244873 -19.69826569 61.17522949 -19.5004425 60.53930664 C-18.87140111 58.52192451 -18.2346881 56.50705929 -17.59765625 54.4921875 C-17.15505545 53.07940486 -16.71287794 51.66648956 -16.27110291 50.25344849 C-15.34720763 47.30219333 -14.41977902 44.35208166 -13.48950195 41.40283203 C-12.29973227 37.63069471 -11.11643699 33.85656736 -9.93547916 30.08166313 C-9.02353622 27.16771936 -8.1093891 24.25447118 -7.1944561 21.341465 C-6.75750854 19.95017972 -6.32095615 18.55877027 -5.88481331 17.16723251 C-5.27429696 15.2213588 -4.66076948 13.27643062 -4.04711914 11.33154297 C-3.69927872 10.22680634 -3.35143829 9.1220697 -2.99305725 7.9838562 C-2.09556069 5.28713286 -1.05554802 2.63887006 0 0 Z " fill="#D1D3E6" transform="translate(195,242)"/>
<path d="M0 0 C1.62215675 0.00333092 1.62215675 0.00333092 3.27708435 0.00672913 C4.49827469 0.00680466 5.71946503 0.00688019 6.97766113 0.00695801 C8.32022644 0.0120654 9.66279134 0.01728141 11.00535583 0.02259827 C12.37156116 0.02446252 13.73776716 0.02588639 15.10397339 0.02688599 C18.70596654 0.03071058 22.30791959 0.04054035 25.90989685 0.05158997 C29.58298703 0.06180536 33.25608368 0.06638388 36.92918396 0.07142639 C44.14079081 0.08216268 51.35236459 0.09923838 58.56394958 0.12025452 C73.28964105 44.10797778 73.28964105 44.10797778 79.00144958 61.80775452 C79.37197449 62.95018616 79.74249939 64.0926178 80.12425232 65.26966858 C80.45368835 66.29672913 80.78312439 67.32378967 81.12254333 68.38197327 C81.40412292 69.25813293 81.68570251 70.1342926 81.97581482 71.03700256 C82.56394958 73.12025452 82.56394958 73.12025452 82.56394958 75.12025452 C46.59394958 75.12025452 10.62394958 75.12025452 -26.43605042 75.12025452 C-25.70371034 69.99387402 -24.90354993 66.00641287 -23.31886292 61.1910553 C-23.10574463 60.53815018 -22.89262634 59.88524506 -22.67304993 59.21255493 C-21.97474947 57.07830627 -21.2681122 54.94692751 -20.56105042 52.81556702 C-20.07120475 51.32595047 -19.58179083 49.83619189 -19.0927887 48.34629822 C-18.07086842 45.23686138 -17.0450324 42.12875451 -16.01612854 39.0216217 C-14.6951602 35.03203976 -13.38211333 31.03990637 -12.07170105 27.04684639 C-11.06357659 23.97667553 -10.05232073 20.90754387 -9.03999329 17.83875656 C-8.55441834 16.3661371 -8.06959442 14.89326978 -7.58552551 13.42015457 C-6.91113743 11.37011123 -6.23278953 9.32142311 -5.55323792 7.27308655 C-5.16764709 6.10617279 -4.78205627 4.93925903 -4.38478088 3.73698425 C-3.08510361 0.15229473 -3.08510361 0.15229473 0 0 Z " fill="#33C89F" transform="translate(261.43605041503906,329.87974548339844)"/>
<path d="M0 0 C1.06367294 0.00222061 2.12734589 0.00444122 3.22325134 0.00672913 C5.02500572 0.00684242 5.02500572 0.00684242 6.86315918 0.00695801 C8.17042465 0.01211929 9.47769012 0.01728058 10.8245697 0.02259827 C12.16835477 0.02446253 13.51214052 0.02588639 14.85592651 0.02688599 C18.39873622 0.0307105 21.94150515 0.0405402 25.48429871 0.05158997 C29.09706572 0.06180552 32.7098393 0.06638392 36.32261658 0.07142639 C43.41573225 0.08216254 50.50882019 0.09923816 57.60191345 0.12025452 C60.99267275 8.21785501 63.82051375 16.48177619 66.58628845 24.80775452 C67.05122192 26.20120477 67.51633337 27.59459565 67.98161316 28.9879303 C68.94830264 31.88507224 69.91285102 34.78291544 70.87583923 37.68128967 C72.11139709 41.3994463 73.35240704 45.11575695 74.59498215 48.83157349 C75.55279228 51.69779447 76.50775564 54.56495752 77.4618454 57.43241882 C77.91868741 58.80427929 78.37642145 60.17584303 78.83506012 61.54710388 C79.47215663 63.45333381 80.10501361 65.3609791 80.73765564 67.26869202 C81.09865356 68.35327698 81.45965149 69.43786194 81.83158875 70.55531311 C82.60191345 73.12025452 82.60191345 73.12025452 82.60191345 75.12025452 C46.30191345 75.12025452 10.00191345 75.12025452 -27.39808655 75.12025452 C-24.02222871 62.74210912 -24.02222871 62.74210912 -22.14564514 57.10414124 C-21.94198837 56.48966629 -21.7383316 55.87519135 -21.52850342 55.24209595 C-20.87080784 53.26037758 -20.20885716 51.28011475 -19.54652405 49.29994202 C-19.08220745 47.90564188 -18.61806884 46.51128246 -18.15409851 45.11686707 C-17.18952038 42.22020813 -16.2228115 39.3242719 -15.25453186 36.42884827 C-14.01184215 32.71227506 -12.77463216 28.99390385 -11.53896141 25.27499199 C-10.58548379 22.40735523 -9.62916766 19.54067151 -8.67197037 16.67427444 C-8.21416214 15.30218504 -7.75724699 13.92979732 -7.3012352 12.55710983 C-6.6676322 10.65124891 -6.02979536 8.74679707 -5.39173889 6.84242249 C-4.84904861 5.21673843 -4.84904861 5.21673843 -4.2953949 3.55821228 C-3.04191201 0.15253981 -3.04191201 0.15253981 0 0 Z " fill="#29A9F3" transform="translate(134.39808654785156,329.87974548339844)"/>
<path d="M0 0 C3.31711758 7.8109212 6.43114454 15.66667585 9.34375 23.63671875 C9.74537354 24.72906326 10.14699707 25.82140778 10.56079102 26.94685364 C11.8762321 30.52620317 13.18809265 34.10685395 14.5 37.6875 C15.43366143 40.23068319 16.36816758 42.77355565 17.30273438 45.31640625 C18.9978455 49.92928127 20.69215185 54.54245019 22.38538361 59.1560154 C26.64756661 70.76884107 30.92513347 82.37598851 35.20361328 93.9828186 C37.38643546 99.90495698 39.56815838 105.82750031 41.75 111.75 C42.62499482 114.12500191 43.49999481 116.50000191 44.375 118.875 C49.625 133.12499999 49.625 133.12499999 50.9372406 136.6867981 C51.81310338 139.06413847 52.68896805 141.44147815 53.56483459 143.81881714 C55.73914948 149.72050372 57.91343259 155.622202 60.08764648 161.52392578 C64.18229853 172.63841515 68.27727793 183.75278364 72.37332153 194.86676025 C74.06888013 199.46740238 75.76428565 204.06810091 77.45965767 208.6688118 C78.61490312 211.80375091 79.77026343 214.93864759 80.92578125 218.07348633 C82.20203584 221.53589162 83.47800017 224.99840376 84.75390625 228.4609375 C85.12588638 229.46986053 85.49786652 230.47878357 85.88111877 231.51828003 C86.5842467 233.42674863 87.28171983 235.33731196 87.97299194 237.25010681 C88.65355071 239.07235533 89.37531387 240.87977801 90.13858032 242.66896057 C93.23466675 250.19147437 93.52577688 256.9036278 93.390625 264.98046875 C93.38496521 266.27447098 93.37930542 267.56847321 93.37347412 268.90168762 C93.35837084 272.30327608 93.31922741 275.70415585 93.2746582 279.10546875 C93.23336959 282.59169942 93.21539227 286.07804722 93.1953125 289.56445312 C93.15271324 296.37658893 93.08465425 303.18826023 93 310 C91.34333575 307.51500363 90.40744682 305.68526472 89.40625 302.93896484 C89.10340088 302.1143576 88.80055176 301.28975037 88.48852539 300.44015503 C88.16231201 299.53951324 87.83609863 298.63887146 87.5 297.7109375 C87.15251709 296.76155304 86.80503418 295.81216858 86.44702148 294.83401489 C85.29437881 291.68232509 84.14725535 288.52865442 83 285.375 C82.18922052 283.15544606 81.37801601 280.93604735 80.56640625 278.71679688 C78.87855438 274.10053691 77.19254473 269.4836103 75.5078125 264.86621094 C72.05630256 255.41076093 68.58267403 245.96345716 65.10888672 236.51617432 C63.23817921 231.42784578 61.36918318 226.33888865 59.5 221.25 C58.75000805 219.20833038 58.00000805 217.16666371 57.25 215.125 C43.75 178.375 30.25 141.625 16.75 104.875 C16.37882553 103.86458649 16.00765106 102.85417297 15.62522888 101.81314087 C14.87445058 99.76934362 14.12368767 97.72554071 13.37294006 95.68173218 C11.50997355 90.61011728 9.64674875 85.53859758 7.78295898 80.46728516 C4.26409259 70.8917024 0.74799557 61.31512589 -2.75961304 51.7354126 C-4.41828987 47.20582456 -6.07835316 42.67674521 -7.73852539 38.14770508 C-8.53023548 35.9866638 -9.32126466 33.82537293 -10.11157227 31.66381836 C-11.20677752 28.66847538 -12.30431728 25.67399722 -13.40234375 22.6796875 C-13.88392189 21.35969254 -13.88392189 21.35969254 -14.37522888 20.01303101 C-15.73184463 16.31962665 -17.11907421 12.67535907 -18.72485352 9.08251953 C-20 6 -20 6 -20 3 C-17.60530271 2.49395076 -15.20948283 1.99500483 -12.8125 1.5 C-12.13896484 1.35691406 -11.46542969 1.21382812 -10.77148438 1.06640625 C-7.10709081 0.31565245 -3.73080767 -0.06757689 0 0 Z " fill="#D4E5FD" transform="translate(399,154)"/>
<path d="M0 0 C0.88602073 -0.00382555 1.77204147 -0.00765109 2.68491131 -0.01159257 C5.65971625 -0.02192774 8.63432837 -0.01792943 11.60914612 -0.01396179 C13.73952921 -0.01830797 15.86991073 -0.0234908 18.00028992 -0.02944946 C23.79154395 -0.04286059 29.58273281 -0.0434158 35.37399936 -0.04088616 C40.20521226 -0.03981792 45.03641189 -0.04469603 49.86762196 -0.04949158 C61.26308147 -0.060594 72.65850803 -0.06101999 84.05397034 -0.05497742 C95.81805203 -0.0489354 107.58201418 -0.06125279 119.34607548 -0.08254749 C129.43957675 -0.10014782 139.53303992 -0.10616734 149.62655598 -0.10290974 C155.65792499 -0.1010943 161.68920874 -0.10375911 167.72056389 -0.11762428 C173.39143591 -0.13017253 179.06212121 -0.12828696 184.73299026 -0.11521339 C186.81593068 -0.11284154 188.89888412 -0.11560398 190.98180962 -0.12383652 C193.82207593 -0.1342541 196.6617099 -0.12624342 199.50195312 -0.11352539 C200.74251777 -0.12458682 200.74251777 -0.12458682 202.00814432 -0.13587171 C207.78190863 -0.08136597 211.13228173 1.07850976 215.31446838 5.26069641 C215.68556213 7.24897766 215.68556213 7.24897766 215.75196838 9.57319641 C215.79192932 10.33245422 215.83189026 11.09171204 215.87306213 11.87397766 C215.00856959 15.56771852 213.26813695 16.92609718 210.31446838 19.26069641 C207.32752991 19.98805234 204.41954965 19.94043655 201.35682678 19.90234375 C200.45361742 19.91084927 199.55040805 19.91935479 198.6198287 19.92811805 C195.59251507 19.95040811 192.56642828 19.93694481 189.53907776 19.92353821 C187.36913166 19.9319501 185.19919287 19.94247464 183.02926636 19.95495605 C177.13465739 19.98204716 171.24047091 19.97729207 165.3458271 19.9652555 C160.42755466 19.95813293 155.50936078 19.96661742 150.59109449 19.9751609 C138.99083881 19.9951257 127.39078915 19.98952902 115.7905426 19.96748352 C103.81547057 19.94511265 91.84118537 19.96272431 79.86614943 20.00053281 C69.59000519 20.03174032 59.314028 20.03969079 49.03784227 20.02857906 C42.89797629 20.02208332 36.75842144 20.02413605 30.61859131 20.04790306 C24.84654361 20.06910815 19.07525823 20.06123793 13.3032589 20.0308094 C11.1832349 20.02446599 9.0631521 20.02838116 6.94317055 20.04322052 C4.05193631 20.0618204 1.16321736 20.04357117 -1.72789001 20.01586914 C-2.56981478 20.02993559 -3.41173955 20.04400204 -4.27917719 20.05849475 C-9.79667033 19.95172701 -9.79667033 19.95172701 -12.32991505 17.98229754 C-14.55561784 15.44598792 -15.64032046 13.53761474 -16.18553162 10.19819641 C-15.52438506 6.31396039 -14.39343771 3.48649705 -11.11900234 1.13636494 C-7.46458814 -0.17865211 -3.83539232 -0.01747938 0 0 Z " fill="#D4E5FD" transform="translate(34.68553161621094,18.739303588867188)"/>
<path d="M0 0 C1.50776616 4.10135565 3.00487576 8.20652067 4.5 12.3125 C5.14388672 14.06336914 5.14388672 14.06336914 5.80078125 15.84960938 C6.20683594 16.96787109 6.61289062 18.08613281 7.03125 19.23828125 C7.40830078 20.26993408 7.78535156 21.30158691 8.17382812 22.36450195 C9 25 9 25 9 28 C8.17201904 28.01458252 7.34403809 28.02916504 6.4909668 28.04418945 C-28.61595935 28.72904918 -63.06011141 32.66644425 -97.265625 40.88671875 C-100.31445047 41.61895723 -103.36233137 42.27956201 -106.44140625 42.87109375 C-113.7283579 44.30111724 -120.94208772 46.06015419 -128.16577148 47.77636719 C-130.66388462 48.36939395 -133.16294077 48.95831427 -135.66210938 49.546875 C-150.20775103 52.98549562 -164.6244065 56.76162877 -178.91601562 61.15039062 C-179.78291016 61.40626953 -180.64980469 61.66214844 -181.54296875 61.92578125 C-182.30633545 62.15692627 -183.06970215 62.38807129 -183.85620117 62.6262207 C-186.22992386 63.04008808 -187.73073014 62.74762642 -190 62 C-170.54220543 51.38447907 -150.43100793 42.17952257 -130.125 33.3125 C-129.18688477 32.90257812 -128.24876953 32.49265625 -127.28222656 32.0703125 C-122.89872183 30.17666431 -118.5460536 28.47133685 -114 27 C-111.5556537 26.03463111 -109.11976997 25.05706689 -106.6875 24.0625 C-100.0831222 21.39298854 -93.49366319 18.97676662 -86.6328125 17.05859375 C-83.32092488 16.09351682 -80.11944933 14.98034233 -76.875 13.8125 C-59.71454827 7.96717223 -41.79321273 4.14901773 -23.875 1.5625 C-22.74489502 1.3987085 -21.61479004 1.23491699 -20.45043945 1.06616211 C-13.59516806 0.14970387 -6.91336931 -0.19438991 0 0 Z " fill="#EF857E" transform="translate(479,104)"/>
<path d="M0 0 C1.5053109 3.95633425 3.00334593 7.91538367 4.5 11.875 C4.92925781 13.00292969 5.35851562 14.13085938 5.80078125 15.29296875 C6.40986328 16.90751953 6.40986328 16.90751953 7.03125 18.5546875 C7.40830078 19.54968262 7.78535156 20.54467773 8.17382812 21.56982422 C9 24 9 24 9 26 C2.73 28.31 -3.54 30.62 -10 33 C-12.26759435 30.73240565 -12.85464688 29.09441567 -13.9453125 26.09765625 C-14.29980469 25.12505859 -14.65429688 24.15246094 -15.01953125 23.15039062 C-15.38433594 22.13138672 -15.74914062 21.11238281 -16.125 20.0625 C-16.49753906 19.04736328 -16.87007813 18.03222656 -17.25390625 16.98632812 C-20 9.38679029 -20 9.38679029 -20 6 C-17.41958904 4.99183944 -14.83613056 3.9932889 -12.25 3 C-11.15558594 2.57074219 -11.15558594 2.57074219 -10.0390625 2.1328125 C-9.33007812 1.86210938 -8.62109375 1.59140625 -7.890625 1.3125 C-7.24125977 1.06113281 -6.59189453 0.80976562 -5.92285156 0.55078125 C-4 0 -4 0 0 0 Z " fill="#D2E3FC" transform="translate(375,86)"/>
<path d="M0 0 C2.68642265 2.68642265 3.10019369 5.15440012 4.1640625 8.80078125 C4.36099701 9.47417038 4.55793152 10.14755951 4.76083374 10.84135437 C5.17581404 12.26691738 5.58748442 13.69344744 5.99609375 15.12084961 C6.62039266 17.29644407 7.25862455 19.46759627 7.8984375 21.63867188 C8.3003285 23.02579587 8.70139698 24.41315849 9.1015625 25.80078125 C9.46588379 27.06059814 9.83020508 28.32041504 10.20556641 29.6184082 C10.91243289 32.62726122 11.38188738 34.94356333 11 38 C9.04904902 40.2096899 7.21372602 42.03161505 5 43.9375 C4.41001221 44.46311523 3.82002441 44.98873047 3.2121582 45.53027344 C-1.02199895 49.26387764 -5.3864792 52.74339708 -10 56 C-9.45048006 48.76802552 -8.54067694 41.71343906 -7.1875 34.58984375 C-6.92682739 33.18866051 -6.92682739 33.18866051 -6.66088867 31.75917053 C-6.29685677 29.80847568 -5.93038039 27.8582355 -5.56152344 25.90844727 C-4.9956928 22.91471115 -4.43870141 19.91942454 -3.8828125 16.92382812 C-3.52655594 15.02073699 -3.16980332 13.11773863 -2.8125 11.21484375 C-2.64580811 10.31910141 -2.47911621 9.42335907 -2.30737305 8.50047302 C-2.15051025 7.67523636 -1.99364746 6.84999969 -1.83203125 5.99975586 C-1.69514893 5.27348495 -1.5582666 4.54721405 -1.41723633 3.79893494 C-1 2 -1 2 0 0 Z " fill="#FFC407" transform="translate(66,185)"/>
<path d="M0 0 C0.66 0.33 1.32 0.66 2 1 C2.76026305 3.39550284 3.39899297 5.73585129 3.98046875 8.17578125 C4.15757889 8.89734909 4.33468903 9.61891693 4.51716614 10.36235046 C4.89016219 11.89217845 5.25891517 13.42304617 5.6237793 14.95483398 C6.18344388 17.29553595 6.7616334 19.6311026 7.34179688 21.96679688 C7.70165332 23.45285122 8.06041324 24.93917161 8.41796875 26.42578125 C8.59184616 27.12383377 8.76572357 27.82188629 8.94487 28.54109192 C10.40115057 34.76403188 10.40115057 34.76403188 9 38 C3.75171679 44.10765122 -2.51013997 50.19623105 -9 55 C-9.66 55 -10.32 55 -11 55 C-9.28257841 43.4874794 -6.78283277 32.13299206 -4.375 20.75 C-3.95029155 18.73312118 -3.52581051 16.71619447 -3.1015625 14.69921875 C-2.07032984 9.79892287 -1.03602003 4.89928587 0 0 Z " fill="#FFC407" transform="translate(56,62)"/>
<path d="M0 0 C4.71408168 2.59045653 8.68900798 5.89500568 12.8125 9.3125 C14.17189936 10.43514273 15.53257581 11.55624085 16.89453125 12.67578125 C17.89734131 13.50070068 17.89734131 13.50070068 18.92041016 14.34228516 C21.71948058 16.5735235 24.61664773 18.6593331 27.5378418 20.72729492 C28.020354 21.1472876 28.50286621 21.56728027 29 22 C29 22.66 29 23.32 29 24 C20.64251778 24.84327749 12.39802254 25.12190678 4 25 C3.32727653 21.58449704 2.66288201 18.16742548 2 14.75 C1.80921875 13.78191406 1.6184375 12.81382813 1.421875 11.81640625 C1.24140625 10.88183594 1.0609375 9.94726562 0.875 8.984375 C0.70742187 8.12553711 0.53984375 7.26669922 0.3671875 6.38183594 C0 4 0 4 0 0 Z " fill="#FFC607" transform="translate(169,64)"/>
<path d="M0 0 C10.36166624 6.0709322 19.6161964 13.54473624 29 21 C21.41030156 24.96840477 12.37979281 24.14338049 4 24 C-0.20394737 8.08505639 -0.20394737 8.08505639 0 0 Z " fill="#FFC407" transform="translate(126,228)"/>
<path d="M0 0 C2.77022508 1.30659488 5.17095325 2.75922085 7.609375 4.609375 C8.28226563 5.11726563 8.95515625 5.62515625 9.6484375 6.1484375 C10.34195313 6.67695313 11.03546875 7.20546875 11.75 7.75 C12.42804688 8.26304687 13.10609375 8.77609375 13.8046875 9.3046875 C15.17335178 10.34029279 16.53989751 11.37870402 17.90429688 12.41992188 C19.35720682 13.5153591 20.82309143 14.59371675 22.29882812 15.65820312 C23.03037109 16.18865234 23.76191406 16.71910156 24.515625 17.265625 C25.18368164 17.74290039 25.85173828 18.22017578 26.54003906 18.71191406 C27.02182617 19.13698242 27.50361328 19.56205078 28 20 C28 20.66 28 21.32 28 22 C24.58363244 22.33644688 21.16686185 22.66861366 17.75 23 C16.78191406 23.09539062 15.81382813 23.19078125 14.81640625 23.2890625 C13.41455078 23.42441406 13.41455078 23.42441406 11.984375 23.5625 C11.12553711 23.64628906 10.26669922 23.73007812 9.38183594 23.81640625 C7.25997133 23.97996121 5.12815874 24 3 24 C2.49387936 21.1259578 1.99493459 18.25097127 1.5 15.375 C1.35691406 14.56675781 1.21382812 13.75851562 1.06640625 12.92578125 C0.32123749 8.56122136 -0.17272306 4.44761871 0 0 Z " fill="#FFC407" transform="translate(52,276)"/>
<path d="M0 0 C7.86920433 4.49668819 7.86920433 4.49668819 10.71875 6.83984375 C11.34136719 7.34580078 11.96398437 7.85175781 12.60546875 8.37304688 C13.23066406 8.88931641 13.85585937 9.40558594 14.5 9.9375 C15.75891094 10.96928783 17.01932046 11.99925002 18.28125 13.02734375 C18.89097656 13.52476074 19.50070313 14.02217773 20.12890625 14.53466797 C22.02771898 16.0217079 23.98017891 17.39001456 25.96875 18.75390625 C27.46921875 19.86572266 27.46921875 19.86572266 29 21 C29 21.66 29 22.32 29 23 C20.42 23.33 11.84 23.66 3 24 C2.01 16.08 1.02 8.16 0 0 Z " fill="#FFC507" transform="translate(112,144)"/>
<path d="M0 0 C7.58768681 4.56547257 14.65646557 9.63246089 21.69140625 14.99902344 C22.35140625 15.50208008 23.01140625 16.00513672 23.69140625 16.5234375 C24.28123291 16.97638184 24.87105957 17.42932617 25.47875977 17.89599609 C27.02142167 19.07879435 27.02142167 19.07879435 29 20 C29 20.66 29 21.32 29 22 C25.58363244 22.33644688 22.16686185 22.66861366 18.75 23 C17.78191406 23.09539062 16.81382812 23.19078125 15.81640625 23.2890625 C14.41455078 23.42441406 14.41455078 23.42441406 12.984375 23.5625 C12.12553711 23.64628906 11.26669922 23.73007813 10.38183594 23.81640625 C8.25997133 23.97996121 6.12815874 24 4 24 C3.32492934 20.93929066 2.66145078 17.8761791 2 14.8125 C1.80921875 13.94818359 1.6184375 13.08386719 1.421875 12.19335938 C1.24140625 11.35224609 1.0609375 10.51113281 0.875 9.64453125 C0.70742187 8.87471924 0.53984375 8.10490723 0.3671875 7.31176758 C-0.02550915 4.83939753 -0.06185285 2.49924191 0 0 Z " fill="#FFC407" transform="translate(183,184)"/>
<path d="M0 0 C2.70198044 2.70198044 2.99011068 5.10441093 3.9453125 8.80078125 C4.12005096 9.47417038 4.29478943 10.14755951 4.474823 10.84135437 C4.84288847 12.26698171 5.20747575 13.69351088 5.56884766 15.12084961 C6.12083397 17.29608279 6.68650552 19.46741513 7.25390625 21.63867188 C7.61020501 23.02582874 7.96569991 24.41319238 8.3203125 25.80078125 C8.64273926 27.06059814 8.96516602 28.32041504 9.29736328 29.6184082 C10 33 10 33 10 38 C4.72 36.02 -0.56 34.04 -6 32 C-5.58364907 24.81794643 -4.48543496 17.96286597 -3 10.9375 C-2.82178711 10.0921167 -2.64357422 9.2467334 -2.45996094 8.37573242 C-1.13816745 2.2763349 -1.13816745 2.2763349 0 0 Z " fill="#FFC407" transform="translate(154,178)"/>
<path d="M0 0 C0.66 0 1.32 0 2 0 C3.14521712 4.62503244 4.28437087 9.25150047 5.41796875 13.87939453 C5.80433148 15.45304474 6.19233846 17.02629222 6.58203125 18.59912109 C7.14236863 20.8619121 7.6967475 23.12609275 8.25 25.390625 C8.42499023 26.09181458 8.59998047 26.79300415 8.78027344 27.51544189 C9.58128802 30.81811607 10 33.57284955 10 37 C4.3856009 35.43551329 -0.86810338 33.83604813 -6 31 C-4.4189413 20.57749463 -2.21959007 10.30062189 0 0 Z " fill="#FFC407" transform="translate(239,116)"/>
<path d="M0 0 C9.51389771 1.68794959 18.71881118 4.3511204 28 7 C27.13364752 11.01269375 25.39101792 13.81362118 23.125 17.25 C22.42632812 18.32765625 21.72765625 19.4053125 21.0078125 20.515625 C20.34523438 21.33546875 19.68265625 22.1553125 19 23 C18.01 23 17.02 23 16 23 C14.40600586 21.31933594 14.40600586 21.31933594 12.71484375 18.984375 C12.10189453 18.14519531 11.48894531 17.30601562 10.85742188 16.44140625 C10.22384766 15.55324219 9.59027344 14.66507813 8.9375 13.75 C8.30005859 12.87730469 7.66261719 12.00460938 7.00585938 11.10546875 C4.3915191 7.49663233 1.89385663 4.04683016 0 0 Z " fill="#FFC307" transform="translate(32,141)"/>
<path d="M0 0 C13.6332574 0.77904328 13.6332574 0.77904328 20 3 C11.738041 21.04100228 11.738041 21.04100228 7 28 C4.42560381 25.42560381 4.36823482 23.68043084 3.7109375 20.1171875 C3.49179688 18.95058594 3.27265625 17.78398437 3.046875 16.58203125 C2.82515625 15.35871094 2.6034375 14.13539063 2.375 12.875 C2.14554687 11.64394531 1.91609375 10.41289062 1.6796875 9.14453125 C1.1128119 6.09757492 0.5532396 3.04945665 0 0 Z " fill="#FFC407" transform="translate(96,288)"/>
<path d="M0 0 C0.66 0 1.32 0 2 0 C3.28488939 4.80466618 4.5665557 9.61017592 5.84521484 14.41650391 C6.28084784 16.05215799 6.71736776 17.68757612 7.15478516 19.32275391 C7.78259704 21.67028633 8.40723648 24.01864297 9.03125 26.3671875 C9.22811401 27.10057343 9.42497803 27.83395935 9.62780762 28.58956909 C11 33.77225659 11 33.77225659 11 36 C4.97229862 35.52412884 0.23321711 32.80277043 -5 30 C-4.43617776 23.00634512 -3.37639601 16.23899157 -1.9375 9.375 C-1.75123047 8.46621094 -1.56496094 7.55742188 -1.37304688 6.62109375 C-0.91982704 4.4130997 -0.46210307 2.20614876 0 0 Z " fill="#FFC407" transform="translate(140,60)"/>
<path d="M0 0 C9.38203908 2.16677807 18.7371917 4.35919936 28 7 C26.56691865 10.95906817 24.66858051 14.28718181 22.375 17.8125 C21.74335937 18.78832031 21.11171875 19.76414062 20.4609375 20.76953125 C19.97882813 21.50558594 19.49671875 22.24164063 19 23 C14.47535107 21.43131275 12.26941385 17.8662173 9.5 14.1875 C8.55219469 12.9517375 7.6042799 11.71605896 6.65625 10.48046875 C6.20765625 9.8879834 5.7590625 9.29549805 5.296875 8.68505859 C4.11863111 7.15414004 2.8899417 5.66237974 1.65625 4.17578125 C0 2 0 2 0 0 Z " fill="#FFC407" transform="translate(86,89)"/>
<path d="M0 0 C9.38203908 2.16677807 18.7371917 4.35919936 28 7 C26.55797524 11.15151338 24.4989562 14.29978445 21.875 17.8125 C21.15054688 18.78832031 20.42609375 19.76414062 19.6796875 20.76953125 C19.12539062 21.50558594 18.57109375 22.24164063 18 23 C14.46162504 21.82054168 13.8418127 20.80743392 11.6796875 17.8515625 C11.06222656 17.01109375 10.44476563 16.170625 9.80859375 15.3046875 C9.17050781 14.42039062 8.53242187 13.53609375 7.875 12.625 C7.22917969 11.7484375 6.58335938 10.871875 5.91796875 9.96875 C1.13866433 3.415993 1.13866433 3.415993 0 0 Z " fill="#FFC407" transform="translate(58,345)"/>
<path d="M0 0 C19.53191489 4.19148936 19.53191489 4.19148936 28 7 C27.44151174 11.18358477 24.95553698 14.02629569 22.4375 17.25 C22.01275391 17.80429687 21.58800781 18.35859375 21.15039062 18.9296875 C20.10601659 20.29089411 19.05377536 21.64605833 18 23 C14.23452466 19.32368892 10.72637077 15.50375048 7.3125 11.5 C6.82716797 10.94441406 6.34183594 10.38882812 5.84179688 9.81640625 C3.1831442 6.69936518 1.24937326 3.91616414 0 0 Z " fill="#FFC407" transform="translate(124,269)"/>
<path d="M0 0 C9.90197767 1.46130507 19.40253901 4.23373511 29 7 C27.56691865 10.95906817 25.66858051 14.28718181 23.375 17.8125 C22.74335937 18.78832031 22.11171875 19.76414063 21.4609375 20.76953125 C20.97882813 21.50558594 20.49671875 22.24164063 20 23 C11.92428743 16.64252414 5.42007285 8.71924762 0 0 Z " fill="#FFC407" transform="translate(96,193)"/>
<path d="M0 0 C6.14154225 0.58490879 12.00679849 1.54066252 18 3 C17.32414935 6.32209174 16.08166075 8.99549008 14.49609375 11.984375 C14.00302734 12.91894531 13.50996094 13.85351562 13.00195312 14.81640625 C12.48568359 15.78449219 11.96941406 16.75257812 11.4375 17.75 C10.91736328 18.73355469 10.39722656 19.71710938 9.86132812 20.73046875 C8.57806493 23.15571846 7.29083434 25.578774 6 28 C5.34 28 4.68 28 4 28 C3.32634616 24.27206058 2.66231022 20.54247005 2 16.8125 C1.80921875 15.75740234 1.6184375 14.70230469 1.421875 13.61523438 C1.24140625 12.59365234 1.0609375 11.57207031 0.875 10.51953125 C0.70742187 9.58214111 0.53984375 8.64475098 0.3671875 7.67895508 C0.01100934 5.08032281 -0.06645996 2.61893788 0 0 Z " fill="#FFC407" transform="translate(199,102)"/>
<path d="M0 0 C5.91492272 0.45224761 11.35199888 1.1582605 17 3 C16.05928144 8.51088477 13.85982468 13.18797628 11.5625 18.25 C11.15451172 19.17296875 10.74652344 20.0959375 10.32617188 21.046875 C9.93107422 21.9234375 9.53597656 22.8 9.12890625 23.703125 C8.58858765 24.90437012 8.58858765 24.90437012 8.03735352 26.12988281 C7 28 7 28 5 29 C4.15628795 25.29394995 3.3268912 21.58483619 2.5 17.875 C2.26152344 16.82828125 2.02304688 15.7815625 1.77734375 14.703125 C1.55175781 13.68476563 1.32617188 12.66640625 1.09375 11.6171875 C0.88427734 10.68503418 0.67480469 9.75288086 0.45898438 8.79248047 C-0.03025569 5.81592307 -0.07770757 3.01116819 0 0 Z " fill="#FFC507" transform="translate(80,243)"/>
<path d="M0 0 C1.74644393 0.14023645 3.49245997 0.28580768 5.23828125 0.43359375 C6.69681519 0.55432251 6.69681519 0.55432251 8.18481445 0.67749023 C11.6512939 1.07461272 14.69683101 1.89894367 18 3 C16.37317535 8.70323584 13.66802013 13.68013903 10.875 18.875 C10.40707031 19.75414062 9.93914062 20.63328125 9.45703125 21.5390625 C8.3087907 23.69494271 7.15636097 25.84846777 6 28 C4.19873665 24.81974748 3.50400103 21.95840644 2.9296875 18.359375 C2.75566406 17.28945312 2.58164063 16.21953125 2.40234375 15.1171875 C2.14130859 13.45042969 2.14130859 13.45042969 1.875 11.75 C1.60236328 10.06003906 1.60236328 10.06003906 1.32421875 8.3359375 C0.87695191 5.558175 0.4357769 2.77958424 0 0 Z " fill="#FFC407" transform="translate(76,131)"/>
<path d="M0 0 C18.82004556 -0.18451025 18.82004556 -0.18451025 28 1 C28 1.66 28 2.32 28 3 C25.59972708 4.98285228 22.88901268 6.5415414 20.25 8.1875 C19.52039063 8.66380859 18.79078125 9.14011719 18.0390625 9.63085938 C17.33007812 10.07623047 16.62109375 10.52160156 15.890625 10.98046875 C15.24125977 11.39192139 14.59189453 11.80337402 13.92285156 12.22729492 C11.49263183 13.20388779 10.40384769 12.97221733 8 12 C5.859375 9.78515625 5.859375 9.78515625 3.75 7.0625 C3.04359375 6.16660156 2.3371875 5.27070313 1.609375 4.34765625 C0 2 0 2 0 0 Z " fill="#FFC507" transform="translate(164,136)"/>
<path d="M0 0 C6.95660771 0.57021375 13.31427305 2.01302694 20 4 C19.85860519 6.25028329 19.71171997 8.50022206 19.5625 10.75 C19.48128906 12.00296875 19.40007812 13.2559375 19.31640625 14.546875 C19.07484478 17.18317553 18.75716066 19.48037294 18 22 C17.34 22 16.68 22 16 22 C14.73486328 20.62646484 14.73486328 20.62646484 13.3203125 18.7109375 C12.80339844 18.01613281 12.28648437 17.32132813 11.75390625 16.60546875 C11.21636719 15.86941406 10.67882812 15.13335937 10.125 14.375 C9.59519531 13.66214844 9.06539062 12.94929687 8.51953125 12.21484375 C5.5618765 8.21503771 2.71975113 4.1650295 0 0 Z " fill="#FFC407" transform="translate(201,164)"/>
<path d="M0 0 C9.24 0 18.48 0 28 0 C28 0.66 28 1.32 28 2 C25.7462179 4.09690728 23.17949968 5.82178995 20.6875 7.625 C19.65206055 8.3984375 19.65206055 8.3984375 18.59570312 9.1875 C17.92861328 9.67476562 17.26152344 10.16203125 16.57421875 10.6640625 C15.65515747 11.33622803 15.65515747 11.33622803 14.7175293 12.02197266 C13 13 13 13 10 13 C7.7734375 10.6640625 7.7734375 10.6640625 5.375 7.625 C4.57835937 6.62726563 3.78171875 5.62953125 2.9609375 4.6015625 C1 2 1 2 0 0 Z " fill="#FFC407" transform="translate(126,116)"/>
<path d="M0 0 C6.6 1.65 13.2 3.3 20 5 C19.34 10.28 18.68 15.56 18 21 C15 21 15 21 13.39013672 19.50292969 C12.82568848 18.81618164 12.26124023 18.12943359 11.6796875 17.421875 C11.06222656 16.67292969 10.44476563 15.92398438 9.80859375 15.15234375 C9.17050781 14.35957031 8.53242188 13.56679687 7.875 12.75 C7.22917969 11.97269531 6.58335937 11.19539063 5.91796875 10.39453125 C1.13089923 4.52359694 1.13089923 4.52359694 0 0 Z " fill="#FFC407" transform="translate(208,68)"/>
</svg>
