<?xml version="1.0" encoding="UTF-8"?>
<svg version="1.1" xmlns="http://www.w3.org/2000/svg" width="512" height="512">
<path d="M0 0 C1.86578119 -0.00576172 1.86578119 -0.00576172 3.76925492 -0.01163983 C5.16233593 -0.0108595 6.55541688 -0.00998069 7.94849777 -0.00901413 C9.41850225 -0.01159628 10.88850603 -0.01460902 12.35850883 -0.01801753 C16.41277181 -0.02610852 20.4670171 -0.02787827 24.5212872 -0.028615 C28.88814729 -0.03046193 33.25499812 -0.03800747 37.62185287 -0.04475021 C47.17761641 -0.05834927 56.73337577 -0.06436079 66.28914738 -0.06876087 C72.25288673 -0.07152082 78.21662445 -0.07575773 84.1803627 -0.08026505 C100.68347828 -0.0924601 117.18659254 -0.10275873 133.68971252 -0.10614014 C135.27499893 -0.10646949 135.27499893 -0.10646949 136.89231132 -0.10680549 C137.9517388 -0.10702377 139.01116627 -0.10724204 140.10269761 -0.10746694 C142.24960089 -0.10791041 144.39650416 -0.10835697 146.54340744 -0.10880661 C147.60835205 -0.10902804 148.67329666 -0.10924947 149.77051231 -0.10947761 C167.02874365 -0.11342611 184.28693278 -0.13088066 201.54514781 -0.15416613 C219.2525361 -0.1778653 236.9599032 -0.19034134 254.66730762 -0.19150805 C264.61391799 -0.19242566 274.56047338 -0.19819937 284.50706863 -0.21632767 C292.97669814 -0.23170936 301.44625569 -0.23686058 309.91589651 -0.22858956 C314.23862675 -0.2246761 318.56121198 -0.22564645 322.88392448 -0.23964691 C326.84044787 -0.25234434 330.79671666 -0.25122512 334.75323948 -0.2390562 C336.18531169 -0.23709195 337.61740168 -0.24021112 339.04944888 -0.24890056 C340.99532358 -0.25996115 342.94128197 -0.25073242 344.88716125 -0.24050903 C345.96828005 -0.24110612 347.04939885 -0.24170321 348.16327882 -0.24231839 C353.27931905 0.38832488 356.41697321 2.31776126 359.94526291 6.00642776 C363.29801624 10.66302962 364.44417112 14.17965804 364.45532513 19.90205002 C364.46592351 21.64186354 364.46592351 21.64186354 364.47673601 23.41682482 C364.47432092 24.6867539 364.47190584 25.95668298 364.46941757 27.26509476 C364.47387078 28.63115847 364.4791851 29.99721961 364.4852863 31.36327696 C364.4994662 35.11626801 364.50112959 38.86917624 364.50068939 42.62219024 C364.50233754 46.66996966 364.51540378 50.71771496 364.52688217 54.76547623 C364.54972847 63.61440672 364.55765191 72.46331322 364.56270862 81.31226921 C364.56596509 86.83597165 364.57248714 92.35966713 364.57971001 97.88336563 C364.59927294 113.17362366 364.61567978 128.46387522 364.61858654 143.75414658 C364.61877411 144.73249249 364.61896168 145.7108384 364.61915493 146.71883115 C364.61952119 148.70219548 364.61988488 150.68555982 364.62024605 152.66892415 C364.62042886 153.65347906 364.62061167 154.63803396 364.62080002 155.65242386 C364.62107084 157.1310555 364.62107084 157.1310555 364.62134714 158.63955849 C364.62489137 174.62440984 364.65193064 190.6091267 364.68929791 206.59393138 C364.7273454 223.00077109 364.74674374 239.40754398 364.74704605 255.81442881 C364.74763131 265.02827092 364.75616775 274.24195246 364.78504372 283.45575333 C364.8095097 291.29846193 364.81687277 299.14095135 364.80179619 306.98368776 C364.79460839 310.98642904 364.79556457 314.98873709 364.81820679 318.99143028 C364.83872904 322.65435518 364.83626102 326.31651192 364.81533194 329.97942787 C364.81015977 331.93498945 364.82966807 333.89056793 364.84999365 335.84603071 C364.75871425 345.30855237 364.75871425 345.30855237 361.84434223 348.45228195 C359.19526291 350.13142776 359.19526291 350.13142776 356.19526291 350.13142776 C356.19526291 358.38142776 356.19526291 366.63142776 356.19526291 375.13142776 C358.17526291 375.79142776 360.15526291 376.45142776 362.19526291 377.13142776 C364.49561871 380.58196147 364.45217756 381.89421229 364.46992111 385.96052933 C364.47945313 387.15897476 364.48898514 388.3574202 364.498806 389.59218216 C364.49743889 391.53746811 364.49743889 391.53746811 364.49604416 393.52205276 C364.49993287 394.86863207 364.50426791 396.21521015 364.50902939 397.56178665 C364.51649249 400.38631027 364.51620097 403.21070894 364.51093674 406.03523636 C364.50515985 409.64092738 364.52202875 413.24610175 364.54528141 416.85170746 C364.56007716 419.63483509 364.56088226 422.41784022 364.55777168 425.20100021 C364.55852984 427.17231892 364.57236539 429.14361871 364.58645248 431.11488724 C364.54864219 438.46628341 364.39319551 444.14008404 359.65229416 450.05720901 C358.83825119 450.7436348 358.83825119 450.7436348 358.00776291 451.44392776 C357.47795822 451.91443558 356.94815353 452.38494339 356.40229416 452.86970901 C350.41882441 456.29034747 343.80375783 456.41432506 337.10151291 456.32674026 C336.26938278 456.32391037 335.43725266 456.32108047 334.57990646 456.31816483 C331.9515386 456.30707062 329.32352581 456.28198702 326.69526291 456.25642776 C324.90099704 456.24638402 323.10672576 456.23726063 321.31245041 456.22908401 C316.93992012 456.2071667 312.56765148 456.17271267 308.19526291 456.13142776 C308.21097336 457.40260452 308.22668381 458.67378128 308.24287033 459.98347855 C308.29729541 464.7133942 308.33165883 469.44328233 308.36005783 474.17341995 C308.37511579 476.21806371 308.39556647 478.26267531 308.42158127 480.30720901 C308.45809602 483.25130029 308.47501942 486.19496334 308.48823166 489.13924026 C308.50371552 490.04884506 308.51919937 490.95844986 308.53515244 491.89561844 C308.53674873 497.95719848 307.76384303 502.40266893 303.44135666 506.99470901 C302.84452072 507.4729512 302.24768478 507.95119339 301.63276291 508.44392776 C301.03334885 508.93506058 300.43393478 509.42619339 299.81635666 509.93220901 C297.09387035 511.94619286 295.39391749 512.25816187 292.06272697 512.26844215 C291.19181297 512.2735167 290.32089897 512.27859124 289.42359364 512.28381956 C288.46097674 512.28431731 287.49835984 512.28481507 286.50657272 512.28532791 C285.48835902 512.28971017 284.47014532 512.29409242 283.42107666 512.29860747 C279.98659136 512.31203232 276.55213174 512.3181827 273.11762619 512.32429886 C270.66392525 512.33219718 268.21022548 512.34046596 265.75652695 512.34907913 C258.37422269 512.37307094 250.99192265 512.3882363 243.60959274 512.4011392 C241.52351148 512.40485114 239.4374309 512.40882441 237.35135031 512.41289186 C224.39215286 512.43813763 211.43295434 512.4601871 198.47373772 512.47262001 C195.47075649 512.47554965 192.4677753 512.47851131 189.46479416 512.48152542 C188.71842858 512.48227147 187.972063 512.48301752 187.20308028 512.48378618 C175.12853726 512.49642351 163.05414205 512.52962276 150.97966804 512.57132725 C138.57652969 512.61381457 126.17346682 512.63732322 113.77025592 512.64254057 C106.80909306 512.64594793 99.84816077 512.65762209 92.8870697 512.69064331 C86.3322097 512.72168641 79.7776774 512.72702256 73.22273064 512.71525955 C70.82181871 512.71503909 68.42088799 512.72332096 66.02004051 512.74091339 C41.45018098 512.91109075 41.45018098 512.91109075 30.22260666 505.05012894 C29.53295822 504.36926224 28.84330978 503.68839554 28.13276291 502.98689651 C27.32709885 502.20878616 26.52143478 501.43067581 25.69135666 500.62898636 C24.86764572 499.80479202 24.04393478 498.98059769 23.19526291 498.13142776 C22.29936447 497.27500687 21.40346603 496.41858597 20.48041916 495.53621292 C17.69103453 492.86566077 14.94041072 490.15987187 12.19526291 487.44392776 C11.25553635 486.53320511 10.31580978 485.62248245 9.34760666 484.68416214 C8.45170822 483.79664261 7.55580978 482.90912308 6.63276291 481.99470901 C5.42426682 480.8080867 5.42426682 480.8080867 4.19135666 479.59749222 C1.94775663 476.82564731 1.00614155 474.59123531 0.19526291 471.13142776 C0.44920822 470.16978714 0.70315353 469.20814651 0.96479416 468.21736526 C1.23485061 464.60135511 0.81701554 464.16728072 -1.41801834 461.48299026 C-2.6252198 460.21564531 -3.85995782 458.97410894 -5.11723709 457.75642776 C-5.75935135 457.12083939 -6.40146561 456.48525101 -7.06303787 455.83040237 C-10.88270748 452.27162794 -10.88270748 452.27162794 -15.68364334 450.47127151 C-18.14630342 450.65066589 -18.14630342 450.65066589 -20.41244888 451.11215591 C-23.53284288 451.13729326 -24.33957308 450.28282811 -26.57744217 448.16243362 C-27.61537415 447.19296295 -27.61537415 447.19296295 -28.67427444 446.20390701 C-29.37732712 445.51998886 -30.08037979 444.83607071 -30.80473709 444.13142776 C-31.80529633 443.17552246 -31.80529633 443.17552246 -32.82606888 442.20030594 C-34.92445374 440.17558086 -36.99838609 438.12850049 -39.06645584 436.07283401 C-39.82013947 435.32485046 -40.57382309 434.57686691 -41.35034561 433.80621719 C-42.93068021 432.23526283 -44.50961727 430.66290144 -46.08720779 429.08919144 C-48.4892252 426.69692742 -50.90171073 424.31555226 -53.31450272 421.93416214 C-54.85747865 420.39771351 -56.39981822 418.86062548 -57.94145584 417.32283401 C-59.01347496 416.2693351 -59.01347496 416.2693351 -60.10715103 415.19455338 C-69.97286919 405.28494077 -74.10861662 395.56280839 -74.20596731 381.49785262 C-74.19927514 380.28665242 -74.19258298 379.07545222 -74.18568802 377.82754898 C-74.19036799 376.51720694 -74.19504796 375.20686489 -74.19986975 373.85681552 C-74.21232422 370.24434006 -74.206235 366.63210418 -74.1969111 363.01962817 C-74.19009821 359.11436871 -74.20061276 355.20914926 -74.20885086 351.30389786 C-74.22216545 343.66407696 -74.21932095 336.02434465 -74.21061294 328.38452033 C-74.20382932 322.17533378 -74.2029226 315.966172 -74.20618439 309.7569828 C-74.20664409 308.87224317 -74.20710379 307.98750353 -74.20757741 307.0759536 C-74.20853661 305.27848905 -74.20950925 303.48102451 -74.21049519 301.68355998 C-74.21904203 284.84419268 -74.20922526 268.00487445 -74.19309409 251.16551521 C-74.17968457 236.71996478 -74.18202559 222.27448666 -74.19585037 207.82893753 C-74.21190663 191.04390942 -74.21822546 174.25892424 -74.20901358 157.47388953 C-74.20805795 155.68406817 -74.20711484 153.8942468 -74.20618439 152.10442543 C-74.20572156 151.22384501 -74.20525873 150.34326458 -74.20478188 149.4359999 C-74.20219265 143.23351639 -74.2065614 137.03106014 -74.21362305 130.82858086 C-74.22203844 123.27117659 -74.21975679 115.7138658 -74.20378082 108.15647224 C-74.1958997 104.30140096 -74.19280384 100.44648551 -74.20272827 96.59141541 C-74.21332435 92.41225994 -74.2006676 88.23349758 -74.18568802 84.05435562 C-74.19238018 82.83646325 -74.19907235 81.61857089 -74.20596731 80.36377269 C-74.1567824 73.30685913 -73.81364097 67.88684451 -69.26176834 62.20564651 C-68.44772537 61.51922073 -68.44772537 61.51922073 -67.61723709 60.81892776 C-67.0874324 60.34841995 -66.55762772 59.87791214 -66.01176834 59.39314651 C-60.02829859 55.97250806 -53.41323201 55.84853047 -46.71098709 55.93611526 C-45.4627919 55.94036011 -45.4627919 55.94036011 -44.18938065 55.9446907 C-41.56101278 55.95578491 -38.93299999 55.98086851 -36.30473709 56.00642776 C-34.51047122 56.01647151 -32.71619994 56.0255949 -30.92192459 56.03377151 C-26.5493943 56.05568883 -22.17712566 56.09014286 -17.80473709 56.13142776 C-17.82044754 54.86025101 -17.83615799 53.58907425 -17.85234451 52.27937698 C-17.90676959 47.54946133 -17.94113301 42.8195732 -17.96953201 38.08943558 C-17.98458997 36.04479182 -18.00504066 34.00018022 -18.03105545 31.95564651 C-18.0675702 29.01155524 -18.0844936 26.06789219 -18.09770584 23.12361526 C-18.12093163 21.75920807 -18.12093163 21.75920807 -18.14462662 20.36723709 C-18.14622291 14.30565705 -17.37331721 9.8601866 -13.05083084 5.26814651 C-12.4539949 4.78990433 -11.85715897 4.31166214 -11.24223709 3.81892776 C-10.64282303 3.32779495 -10.04340897 2.83666214 -9.42583084 2.33064651 C-6.19745005 -0.05757735 -3.97714581 0.00458829 0 0 Z " fill="#FED554" transform="translate(110.80473709106445,-0.13142776489257813)"/>
<path d="M0 0 C1.86578119 -0.00576172 1.86578119 -0.00576172 3.76925492 -0.01163983 C5.16233593 -0.0108595 6.55541688 -0.00998069 7.94849777 -0.00901413 C9.41850225 -0.01159628 10.88850603 -0.01460902 12.35850883 -0.01801753 C16.41277181 -0.02610852 20.4670171 -0.02787827 24.5212872 -0.028615 C28.88814729 -0.03046193 33.25499812 -0.03800747 37.62185287 -0.04475021 C47.17761641 -0.05834927 56.73337577 -0.06436079 66.28914738 -0.06876087 C72.25288673 -0.07152082 78.21662445 -0.07575773 84.1803627 -0.08026505 C100.68347828 -0.0924601 117.18659254 -0.10275873 133.68971252 -0.10614014 C135.27499893 -0.10646949 135.27499893 -0.10646949 136.89231132 -0.10680549 C137.9517388 -0.10702377 139.01116627 -0.10724204 140.10269761 -0.10746694 C142.24960089 -0.10791041 144.39650416 -0.10835697 146.54340744 -0.10880661 C147.60835205 -0.10902804 148.67329666 -0.10924947 149.77051231 -0.10947761 C167.02874365 -0.11342611 184.28693278 -0.13088066 201.54514781 -0.15416613 C219.2525361 -0.1778653 236.9599032 -0.19034134 254.66730762 -0.19150805 C264.61391799 -0.19242566 274.56047338 -0.19819937 284.50706863 -0.21632767 C292.97669814 -0.23170936 301.44625569 -0.23686058 309.91589651 -0.22858956 C314.23862675 -0.2246761 318.56121198 -0.22564645 322.88392448 -0.23964691 C326.84044787 -0.25234434 330.79671666 -0.25122512 334.75323948 -0.2390562 C336.18531169 -0.23709195 337.61740168 -0.24021112 339.04944888 -0.24890056 C340.99532358 -0.25996115 342.94128197 -0.25073242 344.88716125 -0.24050903 C345.96828005 -0.24110612 347.04939885 -0.24170321 348.16327882 -0.24231839 C353.27931905 0.38832488 356.41697321 2.31776126 359.94526291 6.00642776 C363.29801624 10.66302962 364.44417112 14.17965804 364.45532513 19.90205002 C364.46592351 21.64186354 364.46592351 21.64186354 364.47673601 23.41682482 C364.47432092 24.6867539 364.47190584 25.95668298 364.46941757 27.26509476 C364.47387078 28.63115847 364.4791851 29.99721961 364.4852863 31.36327696 C364.4994662 35.11626801 364.50112959 38.86917624 364.50068939 42.62219024 C364.50233754 46.66996966 364.51540378 50.71771496 364.52688217 54.76547623 C364.54972847 63.61440672 364.55765191 72.46331322 364.56270862 81.31226921 C364.56596509 86.83597165 364.57248714 92.35966713 364.57971001 97.88336563 C364.59927294 113.17362366 364.61567978 128.46387522 364.61858654 143.75414658 C364.61877411 144.73249249 364.61896168 145.7108384 364.61915493 146.71883115 C364.61952119 148.70219548 364.61988488 150.68555982 364.62024605 152.66892415 C364.62042886 153.65347906 364.62061167 154.63803396 364.62080002 155.65242386 C364.62107084 157.1310555 364.62107084 157.1310555 364.62134714 158.63955849 C364.62489137 174.62440984 364.65193064 190.6091267 364.68929791 206.59393138 C364.7273454 223.00077109 364.74674374 239.40754398 364.74704605 255.81442881 C364.74763131 265.02827092 364.75616775 274.24195246 364.78504372 283.45575333 C364.8095097 291.29846193 364.81687277 299.14095135 364.80179619 306.98368776 C364.79460839 310.98642904 364.79556457 314.98873709 364.81820679 318.99143028 C364.83872904 322.65435518 364.83626102 326.31651192 364.81533194 329.97942787 C364.81015977 331.93498945 364.82966807 333.89056793 364.84999365 335.84603071 C364.75870725 345.30927871 364.75870725 345.30927871 361.87949848 348.4483757 C359.19526291 350.13142776 359.19526291 350.13142776 355.63276291 350.19392776 C351.87722627 349.03312553 350.60819029 348.16537482 348.19526291 345.13142776 C347.69205689 342.53148818 347.69205689 342.53148818 347.68745422 339.51673889 C347.67600624 338.36586037 347.66455826 337.21498184 347.65276337 336.02922821 C347.66440458 334.13289957 347.66440458 334.13289957 347.67628098 332.19826126 C347.67041127 330.84514407 347.66278896 329.49203354 347.65356064 328.13893509 C347.6332313 324.40968804 347.63790241 320.6808199 347.64647323 316.95154256 C347.65142108 312.87244538 347.63318903 308.79344064 347.61786652 304.71437836 C347.59159131 296.79222254 347.58587233 288.87018394 347.58728527 280.94798996 C347.58803575 271.78657268 347.56330333 262.62534157 347.53852463 253.4639473 C347.48571016 229.26981179 347.46762141 205.07561058 347.44526291 180.88142776 C347.32151291 99.82517776 347.32151291 99.82517776 347.19526291 17.13142776 C232.35526291 17.13142776 117.51526291 17.13142776 -0.80473709 17.13142776 C-1.13473709 30.33142776 -1.46473709 43.53142776 -1.80473709 57.13142776 C1.89024979 57.12476593 5.58523666 57.1181041 9.39219284 57.11124039 C43.26639138 57.05155872 77.14058336 57.0067643 111.01482294 56.97823178 C115.45338767 56.9744796 119.89195227 56.97059664 124.33051682 56.96663284 C125.21416493 56.96584591 126.09781303 56.96505898 127.00823836 56.9642482 C141.32109372 56.95118993 155.63391297 56.92753377 169.9467469 56.89996938 C184.63015475 56.8719269 199.31354368 56.85525396 213.99697721 56.84916228 C223.05936749 56.84504343 232.12165573 56.83202865 241.1840146 56.80767836 C247.39619205 56.79183547 253.60831665 56.78702412 259.82051285 56.79092363 C263.40604797 56.79284744 266.99140462 56.78987299 270.57690811 56.77381134 C274.46348208 56.75652805 278.34982288 56.76245696 282.23643112 56.77066422 C283.37067477 56.76192569 284.50491842 56.75318717 285.67353308 56.74418384 C292.85225497 56.78529435 297.30299316 57.64273054 302.88276291 62.44392776 C308.87199821 69.40439041 308.72346746 76.25179253 308.69623947 84.98128128 C308.69526369 87.19214683 308.73700777 89.39957498 308.78120041 91.60994339 C308.78640599 93.02464975 308.78909563 94.43936808 308.78901291 95.85408401 C308.79610275 97.13033646 308.8031926 98.4065889 308.81049728 99.72151566 C308.03737186 104.00653264 306.57562725 105.47315857 303.19526291 108.13142776 C300.19526291 108.75642776 300.19526291 108.75642776 297.19526291 108.13142776 C292.19526291 103.13142776 292.19526291 103.13142776 291.19526291 74.13142776 C176.35526291 74.13142776 61.51526291 74.13142776 -56.80473709 74.13142776 C-57.13473709 178.08142776 -57.46473709 282.03142776 -57.80473709 389.13142776 C-27.11473709 389.13142776 3.57526291 389.13142776 35.19526291 389.13142776 C43.08203785 392.51147417 43.08203785 392.51147417 45.57026291 395.69392776 C46.29342697 396.59304886 46.29342697 396.59304886 47.03120041 397.51033401 C66.21015701 424.21928364 49.19526291 463.24981639 49.19526291 496.13142776 C129.05526291 495.80142776 208.91526291 495.47142776 291.19526291 495.13142776 C291.2094426 469.20193558 291.22362228 443.27244339 291.23823166 416.55720901 C291.25827797 400.17373622 291.27954935 383.79027892 291.30659103 367.40681839 C291.32072601 358.80371025 291.33454907 350.20060169 291.3478508 341.59749222 C291.34953099 340.51919437 291.35121118 339.44089652 291.35294229 338.32992297 C291.37963234 320.90902542 291.38870572 303.48816077 291.39130434 286.06724487 C291.39436102 268.1960285 291.41627462 250.32490743 291.45578748 232.4537341 C291.47958279 221.42131722 291.48857212 210.38909043 291.47877602 199.35665139 C291.47347079 191.79696441 291.48643947 184.23744817 291.51392581 176.67780981 C291.5292531 172.3126175 291.53638174 167.94780717 291.52186012 163.58260345 C291.50874959 159.58823717 291.51852085 155.5946126 291.54670063 151.60033026 C291.55283231 150.15342437 291.55047621 148.70645315 291.53889217 147.25958065 C291.52439856 145.29606228 291.54353084 143.33238121 291.56440639 141.36892033 C291.56554556 140.27722438 291.56668472 139.18552843 291.5678584 138.06075078 C292.40727553 134.14155052 294.12577746 132.62267363 297.19526291 130.13142776 C300.19526291 129.50642776 300.19526291 129.50642776 303.19526291 130.13142776 C305.84518337 131.91159725 305.84518337 131.91159725 308.19526291 135.13142776 C308.94377139 139.17333665 308.84764966 143.17353634 308.79653549 147.27371597 C308.80080762 148.51938801 308.80507974 149.76506006 308.80948132 151.04847974 C308.816295 154.50379018 308.80066593 157.95768543 308.77559102 161.41282475 C308.75400262 165.13942436 308.76130528 168.86598011 308.76510239 172.59262466 C308.76772441 179.04840137 308.7520344 185.50392544 308.72391319 191.9596386 C308.68328128 201.29347637 308.67025631 210.62719196 308.66397323 219.96110859 C308.65302955 235.10462082 308.61975339 250.24799841 308.57246017 265.39143753 C308.52656648 280.10204265 308.49117365 294.81261121 308.46992111 309.52327347 C308.46860749 310.43000651 308.46729388 311.33673954 308.46594045 312.27094934 C308.45941528 316.8197536 308.45309673 321.36855812 308.44688094 325.91736281 C308.39504563 363.65548336 308.3056025 401.39343627 308.19526291 439.13142776 C327.50026291 438.63642776 327.50026291 438.63642776 347.19526291 438.13142776 C347.22104416 433.99095901 347.24682541 429.85049026 347.27338791 425.58455276 C347.30506941 422.28046001 347.34071964 418.97646306 347.37905502 415.67244339 C347.41841719 412.18609485 347.45080465 408.70000248 347.466259 405.21345901 C347.48431838 401.211744 347.53426272 397.21097653 347.58588791 393.20955276 C347.58711655 391.96151871 347.58834518 390.71348465 347.58961105 389.42763138 C347.60932968 388.26672989 347.62904831 387.1058284 347.64936447 385.90974808 C347.65824692 384.88826675 347.66712936 383.86678543 347.67628098 382.81435013 C348.3327705 379.42057027 349.50865421 378.24433079 352.19526291 376.13142776 C355.36047315 375.20824145 357.30055065 374.83319035 360.44526291 375.88142776 C362.19526291 377.13142776 362.19526291 377.13142776 364.19526291 380.13142776 C364.45595932 382.76088333 364.45595932 382.76088333 364.46992111 385.96052933 C364.47945313 387.15897476 364.48898514 388.3574202 364.498806 389.59218216 C364.49743889 391.53746811 364.49743889 391.53746811 364.49604416 393.52205276 C364.49993287 394.86863207 364.50426791 396.21521015 364.50902939 397.56178665 C364.51649249 400.38631027 364.51620097 403.21070894 364.51093674 406.03523636 C364.50515985 409.64092738 364.52202875 413.24610175 364.54528141 416.85170746 C364.56007716 419.63483509 364.56088226 422.41784022 364.55777168 425.20100021 C364.55852984 427.17231892 364.57236539 429.14361871 364.58645248 431.11488724 C364.54864219 438.46628341 364.39319551 444.14008404 359.65229416 450.05720901 C358.83825119 450.7436348 358.83825119 450.7436348 358.00776291 451.44392776 C357.47795822 451.91443558 356.94815353 452.38494339 356.40229416 452.86970901 C350.41882441 456.29034747 343.80375783 456.41432506 337.10151291 456.32674026 C336.26938278 456.32391037 335.43725266 456.32108047 334.57990646 456.31816483 C331.9515386 456.30707062 329.32352581 456.28198702 326.69526291 456.25642776 C324.90099704 456.24638402 323.10672576 456.23726063 321.31245041 456.22908401 C316.93992012 456.2071667 312.56765148 456.17271267 308.19526291 456.13142776 C308.21097336 457.40260452 308.22668381 458.67378128 308.24287033 459.98347855 C308.29729541 464.7133942 308.33165883 469.44328233 308.36005783 474.17341995 C308.37511579 476.21806371 308.39556647 478.26267531 308.42158127 480.30720901 C308.45809602 483.25130029 308.47501942 486.19496334 308.48823166 489.13924026 C308.50371552 490.04884506 308.51919937 490.95844986 308.53515244 491.89561844 C308.53674873 497.95719848 307.76384303 502.40266893 303.44135666 506.99470901 C302.84452072 507.4729512 302.24768478 507.95119339 301.63276291 508.44392776 C301.03334885 508.93506058 300.43393478 509.42619339 299.81635666 509.93220901 C297.09387035 511.94619286 295.39391749 512.25816187 292.06272697 512.26844215 C291.19181297 512.2735167 290.32089897 512.27859124 289.42359364 512.28381956 C288.46097674 512.28431731 287.49835984 512.28481507 286.50657272 512.28532791 C285.48835902 512.28971017 284.47014532 512.29409242 283.42107666 512.29860747 C279.98659136 512.31203232 276.55213174 512.3181827 273.11762619 512.32429886 C270.66392525 512.33219718 268.21022548 512.34046596 265.75652695 512.34907913 C258.37422269 512.37307094 250.99192265 512.3882363 243.60959274 512.4011392 C241.52351148 512.40485114 239.4374309 512.40882441 237.35135031 512.41289186 C224.39215286 512.43813763 211.43295434 512.4601871 198.47373772 512.47262001 C195.47075649 512.47554965 192.4677753 512.47851131 189.46479416 512.48152542 C188.71842858 512.48227147 187.972063 512.48301752 187.20308028 512.48378618 C175.12853726 512.49642351 163.05414205 512.52962276 150.97966804 512.57132725 C138.57652969 512.61381457 126.17346682 512.63732322 113.77025592 512.64254057 C106.80909306 512.64594793 99.84816077 512.65762209 92.8870697 512.69064331 C86.3322097 512.72168641 79.7776774 512.72702256 73.22273064 512.71525955 C70.82181871 512.71503909 68.42088799 512.72332096 66.02004051 512.74091339 C41.45018098 512.91109075 41.45018098 512.91109075 30.22260666 505.05012894 C29.53295822 504.36926224 28.84330978 503.68839554 28.13276291 502.98689651 C27.32709885 502.20878616 26.52143478 501.43067581 25.69135666 500.62898636 C24.86764572 499.80479202 24.04393478 498.98059769 23.19526291 498.13142776 C22.29936447 497.27500687 21.40346603 496.41858597 20.48041916 495.53621292 C17.69103453 492.86566077 14.94041072 490.15987187 12.19526291 487.44392776 C11.25553635 486.53320511 10.31580978 485.62248245 9.34760666 484.68416214 C8.45170822 483.79664261 7.55580978 482.90912308 6.63276291 481.99470901 C5.42426682 480.8080867 5.42426682 480.8080867 4.19135666 479.59749222 C1.94775663 476.82564731 1.00614155 474.59123531 0.19526291 471.13142776 C0.44920822 470.16978714 0.70315353 469.20814651 0.96479416 468.21736526 C1.23485061 464.60135511 0.81701554 464.16728072 -1.41801834 461.48299026 C-2.6252198 460.21564531 -3.85995782 458.97410894 -5.11723709 457.75642776 C-5.75935135 457.12083939 -6.40146561 456.48525101 -7.06303787 455.83040237 C-10.88270748 452.27162794 -10.88270748 452.27162794 -15.68364334 450.47127151 C-18.14630342 450.65066589 -18.14630342 450.65066589 -20.41244888 451.11215591 C-23.53284288 451.13729326 -24.33957308 450.28282811 -26.57744217 448.16243362 C-27.61537415 447.19296295 -27.61537415 447.19296295 -28.67427444 446.20390701 C-29.37732712 445.51998886 -30.08037979 444.83607071 -30.80473709 444.13142776 C-31.80529633 443.17552246 -31.80529633 443.17552246 -32.82606888 442.20030594 C-34.92445374 440.17558086 -36.99838609 438.12850049 -39.06645584 436.07283401 C-39.82013947 435.32485046 -40.57382309 434.57686691 -41.35034561 433.80621719 C-42.93068021 432.23526283 -44.50961727 430.66290144 -46.08720779 429.08919144 C-48.4892252 426.69692742 -50.90171073 424.31555226 -53.31450272 421.93416214 C-54.85747865 420.39771351 -56.39981822 418.86062548 -57.94145584 417.32283401 C-59.01347496 416.2693351 -59.01347496 416.2693351 -60.10715103 415.19455338 C-69.97286919 405.28494077 -74.10861662 395.56280839 -74.20596731 381.49785262 C-74.19927514 380.28665242 -74.19258298 379.07545222 -74.18568802 377.82754898 C-74.19036799 376.51720694 -74.19504796 375.20686489 -74.19986975 373.85681552 C-74.21232422 370.24434006 -74.206235 366.63210418 -74.1969111 363.01962817 C-74.19009821 359.11436871 -74.20061276 355.20914926 -74.20885086 351.30389786 C-74.22216545 343.66407696 -74.21932095 336.02434465 -74.21061294 328.38452033 C-74.20382932 322.17533378 -74.2029226 315.966172 -74.20618439 309.7569828 C-74.20664409 308.87224317 -74.20710379 307.98750353 -74.20757741 307.0759536 C-74.20853661 305.27848905 -74.20950925 303.48102451 -74.21049519 301.68355998 C-74.21904203 284.84419268 -74.20922526 268.00487445 -74.19309409 251.16551521 C-74.17968457 236.71996478 -74.18202559 222.27448666 -74.19585037 207.82893753 C-74.21190663 191.04390942 -74.21822546 174.25892424 -74.20901358 157.47388953 C-74.20805795 155.68406817 -74.20711484 153.8942468 -74.20618439 152.10442543 C-74.20572156 151.22384501 -74.20525873 150.34326458 -74.20478188 149.4359999 C-74.20219265 143.23351639 -74.2065614 137.03106014 -74.21362305 130.82858086 C-74.22203844 123.27117659 -74.21975679 115.7138658 -74.20378082 108.15647224 C-74.1958997 104.30140096 -74.19280384 100.44648551 -74.20272827 96.59141541 C-74.21332435 92.41225994 -74.2006676 88.23349758 -74.18568802 84.05435562 C-74.19238018 82.83646325 -74.19907235 81.61857089 -74.20596731 80.36377269 C-74.1567824 73.30685913 -73.81364097 67.88684451 -69.26176834 62.20564651 C-68.44772537 61.51922073 -68.44772537 61.51922073 -67.61723709 60.81892776 C-67.0874324 60.34841995 -66.55762772 59.87791214 -66.01176834 59.39314651 C-60.02829859 55.97250806 -53.41323201 55.84853047 -46.71098709 55.93611526 C-45.4627919 55.94036011 -45.4627919 55.94036011 -44.18938065 55.9446907 C-41.56101278 55.95578491 -38.93299999 55.98086851 -36.30473709 56.00642776 C-34.51047122 56.01647151 -32.71619994 56.0255949 -30.92192459 56.03377151 C-26.5493943 56.05568883 -22.17712566 56.09014286 -17.80473709 56.13142776 C-17.82044754 54.86025101 -17.83615799 53.58907425 -17.85234451 52.27937698 C-17.90676959 47.54946133 -17.94113301 42.8195732 -17.96953201 38.08943558 C-17.98458997 36.04479182 -18.00504066 34.00018022 -18.03105545 31.95564651 C-18.0675702 29.01155524 -18.0844936 26.06789219 -18.09770584 23.12361526 C-18.12093163 21.75920807 -18.12093163 21.75920807 -18.14462662 20.36723709 C-18.14622291 14.30565705 -17.37331721 9.8601866 -13.05083084 5.26814651 C-12.4539949 4.78990433 -11.85715897 4.31166214 -11.24223709 3.81892776 C-10.64282303 3.32779495 -10.04340897 2.83666214 -9.42583084 2.33064651 C-6.19745005 -0.05757735 -3.97714581 0.00458829 0 0 Z " fill="#020201" transform="translate(110.80473709106445,-0.13142776489257813)"/>
<path d="M0 0 C1.21359601 -0.00260775 2.42719202 -0.00521549 3.67756367 -0.00790226 C5.04165982 -0.00573974 6.40575583 -0.00348307 7.76985168 -0.0011425 C9.20543298 -0.00229335 10.64101398 -0.00388063 12.07659435 -0.00586975 C16.04016 -0.01006804 20.00370175 -0.00797014 23.96726751 -0.00488353 C28.23452261 -0.00263167 32.50177345 -0.00610797 36.76902771 -0.00886345 C45.1359632 -0.01332245 53.50288975 -0.01234411 61.8698256 -0.00945081 C68.66661036 -0.00719728 75.46339259 -0.00688403 82.26017761 -0.00797462 C83.22557911 -0.00812786 84.19098061 -0.00828109 85.1856367 -0.00843897 C87.14650544 -0.00875868 89.10737417 -0.00908289 91.06824291 -0.00941156 C109.47825708 -0.01226673 127.88826628 -0.00897875 146.29827964 -0.00361119 C162.11310628 0.00085688 177.92792557 0.00008096 193.74275208 -0.00452995 C212.08450727 -0.00987506 230.42625809 -0.01199204 248.76801395 -0.00891769 C250.72188377 -0.00859912 252.67575359 -0.00828475 254.62962341 -0.00797462 C256.07183542 -0.00774321 256.07183542 -0.00774321 257.54318303 -0.00750712 C264.3359746 -0.00664178 271.12876342 -0.00810522 277.92155457 -0.01045418 C286.19370647 -0.01325167 294.46584887 -0.01251499 302.73799968 -0.00717343 C306.96284174 -0.00453573 311.18766795 -0.00353251 315.41250992 -0.00682259 C319.27374927 -0.00978415 323.13495794 -0.0081951 326.99619448 -0.00284503 C328.39926836 -0.00172024 329.80234478 -0.00231338 331.20541704 -0.00472082 C333.10020997 -0.00772467 334.99501008 -0.00407148 336.88980103 0 C337.94602063 0.00016235 339.00224024 0.0003247 340.0904665 0.00049198 C342.44490051 0.12584114 342.44490051 0.12584114 343.44490051 1.12584114 C343.5445861 2.86925546 343.57337376 4.61674561 343.57518578 6.36300659 C343.57881012 7.50570129 343.58243447 8.64839599 343.58616865 9.82571781 C343.58456627 11.73262557 343.58456627 11.73262557 343.58293152 13.67805672 C343.58534737 15.02971706 343.58820894 16.38137667 343.59148085 17.73303521 C343.59926485 21.46470397 343.6008549 25.19635437 343.60153198 28.92803025 C343.6033662 32.94583656 343.61096988 36.96363199 343.61801147 40.98143196 C343.62955494 47.9489993 343.63778987 54.91656421 343.64413071 61.88413811 C343.65443719 72.8906763 343.67499534 83.8971841 343.69725037 94.90370369 C343.70473064 98.66582479 343.71214428 102.42794602 343.71953773 106.19006729 C343.7213883 107.13034071 343.72323887 108.07061414 343.72514551 109.03938069 C343.74608666 119.75065231 343.7649085 130.46192729 343.78279114 141.17320442 C343.78442932 142.15277363 343.7860675 143.13234285 343.78775533 144.14159597 C343.81404887 160.02128971 343.83268664 175.90098579 343.84938304 191.78069209 C343.86678481 208.06763444 343.89560979 224.35453095 343.93427241 240.6414367 C343.95771254 250.6965568 343.97167057 260.75160219 343.97360004 270.80674984 C343.97570444 277.69404972 343.98859173 284.58127521 344.01007937 291.46854173 C344.02214452 295.44658722 344.02923588 299.42448497 344.02336693 303.40254784 C344.01809533 307.0407139 344.02646635 310.67857783 344.04592331 314.31669332 C344.0527081 316.26394568 344.0446454 318.21123204 344.03614557 320.15847766 C344.04498541 321.30638786 344.05382525 322.45429806 344.06293297 323.63699341 C344.0642895 324.63169832 344.06564603 325.62640323 344.06704366 326.65125072 C344.51515019 329.58590738 345.08962973 330.37664638 347.44490051 332.12584114 C348.76490051 332.78584114 350.08490051 333.44584114 351.44490051 334.12584114 C351.44490051 342.70584114 351.44490051 351.28584114 351.44490051 360.12584114 C349.79490051 360.78584114 348.14490051 361.44584114 346.44490051 362.12584114 C343.80772491 364.76301674 344.17901301 365.98035256 344.141922 369.66124153 C344.12528 370.81906639 344.108638 371.97689125 344.0914917 373.16980171 C344.08307755 374.42502129 344.07466339 375.68024086 344.06599426 376.97349739 C344.04003535 378.93199958 344.01407165 380.89050173 343.98781681 382.84899998 C343.9533706 385.59644251 343.92782063 388.3439406 343.90229797 391.09147835 C343.85663185 395.90393175 343.80152347 400.71626572 343.73959351 405.52853584 C343.70749784 408.09257152 343.68065187 410.65667893 343.65936279 413.2208271 C343.64587296 414.3754998 343.63238312 415.5301725 343.6184845 416.71983528 C343.60897263 417.74194603 343.59946075 418.76405678 343.58966064 419.81714058 C343.44490051 422.12584114 343.44490051 422.12584114 342.44490051 423.12584114 C339.56056231 423.21449322 336.70027893 423.2410541 333.81599426 423.22349739 C332.51964806 423.22137497 332.51964806 423.22137497 331.19711304 423.21920967 C328.42550759 423.21359353 325.65398171 423.20103833 322.88240051 423.18834114 C321.00805272 423.18332822 319.13370366 423.17876495 317.25935364 423.17466927 C312.65450508 423.16361886 308.0497163 423.14634344 303.44490051 423.12584114 C303.44430342 422.48410525 303.44370634 421.84236935 303.44309115 421.18118691 C303.4072184 383.16963616 303.35061214 345.15816905 303.26697956 307.14669229 C303.25696178 302.58538025 303.2471177 298.02406785 303.23738098 293.4627552 C303.23543961 292.55465755 303.23349824 291.64655991 303.23149803 290.71094415 C303.20045391 275.99583585 303.18349066 261.28074317 303.17170629 246.56560829 C303.15930721 231.47309873 303.13183399 216.38067125 303.09028745 201.28821349 C303.06511636 191.97093946 303.05178586 182.6538015 303.05347094 173.33649299 C303.05350063 166.95234104 303.03892433 160.56832797 303.01273623 154.18423012 C302.9980489 150.4976627 302.9899224 146.81138009 302.99909782 143.12478828 C303.00886677 139.1322984 302.98794081 135.14031214 302.96388245 131.14787483 C302.97164286 129.97667792 302.97940328 128.805481 302.98739886 127.59879327 C302.97595127 126.53187682 302.96450368 125.46496037 302.9527092 124.36571312 C302.95119032 123.44375216 302.94967144 122.5217912 302.94810653 121.57189202 C302.28466853 118.34696417 300.97837505 117.16484112 298.44490051 115.12584114 C297.45490051 114.79584114 296.46490051 114.46584114 295.44490051 114.12584114 C295.44490051 106.86584114 295.44490051 99.60584114 295.44490051 92.12584114 C297.09490051 91.46584114 298.74490051 90.80584114 300.44490051 90.12584114 C303.73051104 85.19742535 302.7776876 79.32821046 302.76057434 73.55723763 C302.75742627 71.33155499 302.78083501 69.10721769 302.80622864 66.88170052 C302.80850307 65.45657197 302.80920446 64.03143988 302.80818176 62.60630989 C302.81116272 61.31620003 302.81414368 60.02609016 302.81721497 58.69688606 C302.41544195 54.84329008 301.33893838 52.47156428 299.44490051 49.12584114 C299.11490051 48.13584114 298.78490051 47.14584114 298.44490051 46.12584114 C296.66261115 44.98374297 296.66261115 44.98374297 294.44490051 44.12584114 C293.29984117 43.60993398 293.29984117 43.60993398 292.13164932 43.08360445 C289.29638695 42.07289952 287.20529063 41.87174141 284.20691967 41.86412811 C283.16587934 41.85666262 282.124839 41.84919713 281.05225199 41.84150541 C279.91509551 41.84344014 278.77793902 41.84537488 277.60632324 41.84736824 C276.39331962 41.84157584 275.180316 41.83578344 273.93055469 41.82981551 C270.56692438 41.81575019 267.20349281 41.81058506 263.83984745 41.80916691 C260.21138372 41.80547219 256.58296578 41.79031635 252.95452881 41.7765522 C246.66910977 41.75427781 240.38370703 41.73926561 234.09825706 41.7291851 C225.01055644 41.7145999 215.92291256 41.68906352 206.83524523 41.66085382 C192.09113167 41.61538295 177.34700995 41.57876936 162.6028595 41.54771614 C148.28025376 41.51753181 133.95766801 41.48318207 119.63508606 41.44322395 C118.75224899 41.4407624 117.86941191 41.43830086 116.9598222 41.43576472 C112.53089009 41.42339014 108.10195821 41.4109336 103.67302644 41.39843631 C66.93034537 41.29486409 30.18764048 41.20566229 -6.55509949 41.12584114 C-6.57974654 35.44754036 -6.59793411 29.76927045 -6.61003113 24.09092903 C-6.61507205 22.15765529 -6.62190467 20.22438538 -6.63053894 18.29112434 C-6.64261513 15.51857243 -6.64833005 12.74607073 -6.65275574 9.97349739 C-6.65791702 9.1037075 -6.66307831 8.23391762 -6.668396 7.33777046 C-6.66859134 5.266783 -6.61718116 3.1958979 -6.55509949 1.12584114 C-4.80638397 -0.62287438 -2.37642767 0.00036528 0 0 Z " fill="#71DAE6" transform="translate(115.55509948730469,15.87415885925293)"/>
<path d="M0 0 C12.21 0 24.42 0 37 0 C37 103.95 37 207.9 37 315 C54.16 315 71.32 315 89 315 C89 315.33 89 315.66 89 316 C59.3 316 29.6 316 -1 316 C-1.02202566 275.88788294 -1.04049741 235.77577156 -1.05106533 195.66365019 C-1.05231611 190.93323748 -1.05361042 186.20282479 -1.05493164 181.47241211 C-1.05519395 180.53063077 -1.05545626 179.58884942 -1.05572652 178.61852925 C-1.06008356 163.3485006 -1.06797129 148.0784757 -1.0771528 132.80844928 C-1.0864884 117.15212288 -1.09205541 101.49579844 -1.09408849 85.83946937 C-1.09546392 76.1705925 -1.09981554 66.50172621 -1.10791647 56.83285259 C-1.11318278 50.21190626 -1.11480456 43.59096543 -1.11350138 36.97001714 C-1.11285782 33.14415757 -1.11387753 29.31831656 -1.11920547 25.49246025 C-1.1249262 21.35458538 -1.12300124 17.21675057 -1.12025452 13.07887268 C-1.12316736 11.85613681 -1.1260802 10.63340094 -1.12908131 9.37361246 C-1.12709026 8.27435181 -1.12509921 7.17509115 -1.12304783 6.04251957 C-1.12342755 5.08600406 -1.12380727 4.12948855 -1.1241985 3.14398772 C-1 1 -1 1 0 0 Z " fill="#E5C04C" transform="translate(54,73)"/>
<path d="M0 0 C10.26576008 -0.04627383 20.53149548 -0.08184393 30.79733849 -0.10362434 C35.56382294 -0.11407612 40.33023621 -0.12826064 45.09667969 -0.15087891 C49.69374927 -0.17255773 54.29075024 -0.18455812 58.88786697 -0.18975449 C60.64460964 -0.19345919 62.40134841 -0.20069322 64.15806198 -0.21146011 C66.61245688 -0.22590924 69.06656573 -0.22798073 71.52099609 -0.22705078 C72.25251389 -0.23424133 72.98403168 -0.24143188 73.73771667 -0.24884033 C78.77189568 -0.22810432 78.77189568 -0.22810432 81 2 C81.1878075 4.52976535 81.25191906 6.94907405 81.22705078 9.47900391 C81.22734283 10.24982803 81.22763489 11.02065216 81.22793579 11.81483459 C81.22653974 14.36885745 81.21096579 16.92259046 81.1953125 19.4765625 C81.19158334 21.24490194 81.18873591 23.01324345 81.18673706 24.78158569 C81.17909293 29.44069095 81.15943778 34.09967194 81.1373291 38.75872803 C81.11688744 43.51100992 81.10773894 48.26331184 81.09765625 53.015625 C81.07619259 62.34380466 81.04204728 71.67189201 81 81 C73.61488061 74.74934341 73.61488061 74.74934341 70.54296875 71.60546875 C69.98802734 71.04279297 69.43308594 70.48011719 68.86132812 69.90039062 C68.30896484 69.33513672 67.75660156 68.76988281 67.1875 68.1875 C62.35063576 62.70624005 62.35063576 62.70624005 55.625 60.9375 C53.830625 60.9684375 53.830625 60.9684375 52 61 C48 61 48 61 46.16894531 59.62304688 C45.56147461 58.99462891 44.95400391 58.36621094 44.328125 57.71875 C43.66425781 57.04199219 43.00039062 56.36523438 42.31640625 55.66796875 C41.63449219 54.95253906 40.95257813 54.23710937 40.25 53.5 C39.55261719 52.78457031 38.85523438 52.06914062 38.13671875 51.33203125 C36.41516979 49.56331656 34.7036256 47.78595695 33 46 C33.33 45.01 33.66 44.02 34 43 C34.76755637 37.70500273 34.76755637 37.70500273 32.67626953 32.9836731 C30.72632244 30.8170321 28.6861233 28.81316946 26.5625 26.81640625 C25.80783447 26.07543198 25.05316895 25.3344577 24.27563477 24.57102966 C21.86860793 22.21527937 19.43556939 19.88869473 17 17.5625 C14.57076106 15.20542854 12.14703139 12.84281317 9.72436523 10.47898865 C8.21597902 9.01135357 6.70256189 7.54886904 5.18383789 6.0919342 C4.50313232 5.4371257 3.82242676 4.7823172 3.12109375 4.10766602 C2.21508423 3.24118187 2.21508423 3.24118187 1.29077148 2.35719299 C0 1 0 1 0 0 Z " fill="#70D6E2" transform="translate(64,404)"/>
<path d="M0 0 C1.14042755 -0.0083016 1.14042755 -0.0083016 2.30389404 -0.0167709 C4.84746138 -0.03036705 7.3900457 -0.01541443 9.93359375 -0.00050354 C11.75871192 -0.0042871 13.58382722 -0.00978745 15.40893555 -0.01687622 C20.36348464 -0.03084322 25.31768695 -0.01965227 30.2722168 -0.00316501 C35.45622025 0.0106808 40.64020348 0.00422595 45.82421875 0.0007019 C54.5300048 -0.00200059 63.235653 0.01147877 71.94140625 0.03465271 C82.007668 0.06126266 92.07369926 0.06300967 102.13998413 0.05126435 C111.82186839 0.04048656 121.50366924 0.04667365 131.18554688 0.06081963 C135.30666067 0.06657941 139.42771343 0.06649679 143.54882812 0.06175423 C148.40143685 0.05698325 153.25379307 0.06709119 158.10635376 0.08870888 C159.88773751 0.09427526 161.66914554 0.0947434 163.45053101 0.08975601 C165.88136373 0.08380365 168.31142434 0.09630689 170.7421875 0.11352539 C171.44792908 0.10751535 172.15367065 0.1015053 172.88079834 0.09531313 C177.6000286 0.15614245 180.97915678 1.10926847 184.37109375 4.50120544 C184.842342 11.80555327 184.842342 11.80555327 183.05859375 14.43870544 C179.19169304 16.8734207 175.33329668 16.64950799 170.93800354 16.64837646 C170.17463824 16.65205315 169.41127293 16.65572984 168.62477535 16.65951794 C166.05916964 16.67055763 163.49360443 16.67439905 160.92797852 16.6782074 C159.09168367 16.68447166 157.25539009 16.69111842 155.4190979 16.69812012 C150.42536899 16.71552915 145.43164965 16.72608088 140.43789792 16.73432565 C137.31999053 16.73947433 134.20208612 16.74555001 131.08418083 16.75183678 C121.33451442 16.77088564 111.58485559 16.78511936 101.83517414 16.79344875 C90.5697647 16.80323145 79.30455121 16.82957919 68.03921086 16.86994964 C59.33767195 16.90006611 50.63618937 16.91491323 41.93459934 16.91822976 C36.73429642 16.92058467 31.53420292 16.92960277 26.33395576 16.95469093 C21.44443937 16.97789962 16.55527137 16.98223405 11.66571426 16.97192955 C9.86937873 16.97143238 8.07302645 16.97780602 6.27674294 16.9914856 C3.82779582 17.00909508 1.38011405 17.00215348 -1.0688324 16.98895264 C-1.782742 16.99992188 -2.49665161 17.01089113 -3.23219484 17.02219278 C-6.63740928 16.97775266 -8.34752432 16.72120786 -11.06601048 14.59572124 C-12.75127014 12.33721939 -13.1968448 11.28574417 -13.19140625 8.50120544 C-13.21332031 7.84120544 -13.23523438 7.18120544 -13.2578125 6.50120544 C-11.33606965 0.38982447 -5.52382642 -0.07517821 0 0 Z " fill="#050401" transform="translate(147.62890625,342.49879455566406)"/>
<path d="M0 0 C0.76351416 -0.0055344 1.52702832 -0.01106879 2.31367928 -0.0167709 C4.87416846 -0.03039298 7.43368548 -0.01540029 9.99415588 -0.00050354 C11.82897862 -0.00428619 13.66379851 -0.00978579 15.49861145 -0.01687622 C20.48420956 -0.0308561 25.46946354 -0.01964283 30.4550426 -0.00316501 C35.66974846 0.01067101 40.88443403 0.00422699 46.09915161 0.0007019 C54.85799209 -0.0020016 63.61669564 0.01148667 72.37550354 0.03465271 C82.50366007 0.06125501 92.63158751 0.06301269 102.759767 0.05126435 C112.49878016 0.04048631 122.23771041 0.04667439 131.976717 0.06081963 C136.12295045 0.06658003 140.26912324 0.06649628 144.41535759 0.06175423 C149.29832114 0.05698317 154.18103376 0.06709157 159.06394958 0.08870888 C160.85662045 0.09427545 162.64931543 0.09474323 164.44198799 0.08975601 C166.88819921 0.08380395 169.33364307 0.09630642 171.77978516 0.11352539 C172.4900998 0.10751535 173.20041445 0.1015053 173.93225378 0.09531313 C178.66523003 0.15594 182.05091961 1.09874065 185.4533844 4.50120544 C185.92463265 11.80555327 185.92463265 11.80555327 184.1408844 14.43870544 C180.285895 16.86592099 176.44678759 16.64951176 172.06498718 16.64837646 C171.306411 16.65205315 170.54783481 16.65572984 169.76627147 16.65951794 C167.21681923 16.67055736 164.66740775 16.67439902 162.11793518 16.6782074 C160.29311493 16.68447173 158.46829596 16.6911185 156.64347839 16.69812012 C151.68067312 16.71552967 146.71787747 16.72608124 141.75504923 16.73432565 C138.65589512 16.73947473 135.55674401 16.74555043 132.45759201 16.75183678 C122.7650547 16.77088669 113.07252501 16.7851196 103.37997258 16.79344875 C92.18362317 16.80322864 80.98747107 16.82956862 69.79119122 16.86994964 C61.14144092 16.90007836 52.4917473 16.91491444 43.84194553 16.91822976 C38.6734682 16.92058347 33.5052017 16.92958594 28.33678055 16.95469093 C23.47598762 16.97792067 18.61554513 16.98222548 13.75471115 16.97192955 C11.97008348 16.97143288 10.18543885 16.97779197 8.40086365 16.9914856 C5.96540272 17.00912923 3.53120983 17.00213644 1.0957489 16.98895264 C0.38864308 16.99992188 -0.31846273 17.01089113 -1.046996 17.02219278 C-5.79439121 16.96009544 -8.22376902 15.87700869 -11.5466156 12.50120544 C-12.17552185 10.50120544 -12.17552185 10.50120544 -12.1091156 8.50120544 C-12.11040466 7.84120544 -12.11169373 7.18120544 -12.11302185 6.50120544 C-10.36625045 0.33329541 -5.59892657 -0.07547271 0 0 Z " fill="#050401" transform="translate(146.54661560058594,292.49879455566406)"/>
<path d="M0 0 C0.77238683 -0.00623996 1.54477366 -0.01247993 2.34056616 -0.01890898 C4.93100779 -0.03487522 7.52051316 -0.022221 10.11096191 -0.00964355 C11.96711273 -0.01506307 13.82325924 -0.02218477 15.67939758 -0.03088379 C20.72276388 -0.04914031 25.76580338 -0.04203998 30.80917549 -0.02936745 C36.08307919 -0.01925185 41.3569546 -0.02862912 46.63085938 -0.03491211 C55.48804761 -0.04219271 64.34510251 -0.03258996 73.20227051 -0.0135498 C83.44750259 0.00821969 93.6924163 0.00116861 103.93764067 -0.02085543 C112.72839699 -0.03899764 121.51905738 -0.04157351 130.30982637 -0.03110075 C135.562617 -0.02485934 140.81525789 -0.02404798 146.06803894 -0.0372467 C151.00604368 -0.04878741 155.94363728 -0.04081202 160.88159752 -0.01766968 C162.69565332 -0.01237307 164.50974363 -0.01391259 166.32378578 -0.02272034 C168.79681194 -0.03362212 171.26851374 -0.01997841 173.74145508 0 C174.46246446 -0.00892289 175.18347384 -0.01784577 175.926332 -0.02703905 C179.34401754 0.02666186 181.08408568 0.28472822 183.81655121 2.41248322 C186.42312966 5.92685815 185.84720035 8.21967926 185.37072754 12.50793457 C183.55909487 15.18224946 182.49311677 15.46713816 179.37072754 16.50793457 C176.89880606 16.61182659 174.45460395 16.66010531 171.98233032 16.66183472 C171.22375414 16.66621697 170.46517795 16.67059922 169.68361461 16.67511427 C167.13416668 16.68850077 164.58475331 16.69468073 162.03527832 16.70080566 C160.2104578 16.70870658 158.38563884 16.71697552 156.56082153 16.72558594 C150.56257621 16.75180138 144.56432391 16.76711042 138.56604004 16.78137207 C136.50233836 16.78673144 134.43863673 16.79210895 132.37493515 16.79750443 C123.79303912 16.81913004 115.21114497 16.83786837 106.62922859 16.84912682 C94.32218587 16.86537777 82.01545827 16.89858704 69.70853436 16.95552766 C61.0587857 16.99418676 52.40912148 17.01375457 43.75928867 17.01904738 C38.59075718 17.02270559 33.42256183 17.03477723 28.25412369 17.06715012 C23.3932779 17.09716077 18.53297288 17.10356767 13.67205429 17.09176636 C11.88741798 17.09154505 10.10275708 17.09989702 8.31820679 17.1174202 C5.88251364 17.14003689 3.44879408 17.13185361 1.01309204 17.11593628 C-0.04756668 17.13675941 -0.04756668 17.13675941 -1.12965286 17.15800321 C-4.93420839 17.09669146 -6.54470789 16.57447548 -9.57176399 14.19259071 C-11.62927246 11.50793457 -11.62927246 11.50793457 -12.19177246 7.94543457 C-11.00468493 0.69101078 -6.59457192 -0.08161145 0 0 Z " fill="#060502" transform="translate(146.6292724609375,242.4920654296875)"/>
<path d="M0 0 C0.77238683 -0.00623996 1.54477366 -0.01247993 2.34056616 -0.01890898 C4.93100779 -0.03487522 7.52051316 -0.022221 10.11096191 -0.00964355 C11.96711273 -0.01506307 13.82325924 -0.02218477 15.67939758 -0.03088379 C20.72276388 -0.04914031 25.76580338 -0.04203998 30.80917549 -0.02936745 C36.08307919 -0.01925185 41.3569546 -0.02862912 46.63085938 -0.03491211 C55.48804761 -0.04219271 64.34510251 -0.03258996 73.20227051 -0.0135498 C83.44750259 0.00821969 93.6924163 0.00116861 103.93764067 -0.02085543 C112.72839699 -0.03899764 121.51905738 -0.04157351 130.30982637 -0.03110075 C135.562617 -0.02485934 140.81525789 -0.02404798 146.06803894 -0.0372467 C151.00604368 -0.04878741 155.94363728 -0.04081202 160.88159752 -0.01766968 C162.69565332 -0.01237307 164.50974363 -0.01391259 166.32378578 -0.02272034 C168.79681194 -0.03362212 171.26851374 -0.01997841 173.74145508 0 C174.46246446 -0.00892289 175.18347384 -0.01784577 175.926332 -0.02703905 C179.28018196 0.02565883 181.0907585 0.30038347 183.81630707 2.32093048 C186.09189208 5.52258269 185.91773374 7.6788912 185.37072754 11.50793457 C183.81630707 13.69493866 183.81630707 13.69493866 181.37072754 15.50793457 C178.69031173 15.90098549 176.42004379 16.04901815 173.74145508 16.01586914 C172.58287483 16.02522908 172.58287483 16.02522908 171.40088892 16.03477812 C168.81044729 16.05074436 166.22094192 16.03809014 163.63049316 16.0255127 C161.77434235 16.03093222 159.91819584 16.03805392 158.0620575 16.04675293 C153.0186912 16.06500945 147.9756517 16.05790912 142.93227959 16.04523659 C137.65837589 16.03512099 132.38450048 16.04449826 127.1105957 16.05078125 C118.25340747 16.05806185 109.39635257 16.0484591 100.53918457 16.02941895 C90.29395248 16.00764945 80.04903878 16.01470053 69.80381441 16.03672457 C61.01305809 16.05486678 52.2223977 16.05744265 43.4316287 16.04696989 C38.17883808 16.04072848 32.92619719 16.03991712 27.67341614 16.05311584 C22.7354114 16.06465655 17.7978178 16.05668116 12.85985756 16.03353882 C11.04580176 16.02824221 9.23171145 16.02978173 7.4176693 16.03858948 C4.94464314 16.04949126 2.47294134 16.03584755 0 16.01586914 C-0.72100938 16.02479203 -1.44201877 16.03371491 -2.18487692 16.04290819 C-5.53872688 15.99021031 -7.34930343 15.71548567 -10.07485199 13.69493866 C-12.350437 10.49328645 -12.17627866 8.33697795 -11.62927246 4.50793457 C-8.45018874 0.03509776 -5.13135286 -0.06350331 0 0 Z " fill="#000000" transform="translate(146.6292724609375,142.4920654296875)"/>
<path d="M0 0 C0.77238683 -0.00623996 1.54477366 -0.01247993 2.34056616 -0.01890898 C4.93100779 -0.03487522 7.52051316 -0.022221 10.11096191 -0.00964355 C11.96711273 -0.01506307 13.82325924 -0.02218477 15.67939758 -0.03088379 C20.72276388 -0.04914031 25.76580338 -0.04203998 30.80917549 -0.02936745 C36.08307919 -0.01925185 41.3569546 -0.02862912 46.63085938 -0.03491211 C55.48804761 -0.04219271 64.34510251 -0.03258996 73.20227051 -0.0135498 C83.44750259 0.00821969 93.6924163 0.00116861 103.93764067 -0.02085543 C112.72839699 -0.03899764 121.51905738 -0.04157351 130.30982637 -0.03110075 C135.562617 -0.02485934 140.81525789 -0.02404798 146.06803894 -0.0372467 C151.00604368 -0.04878741 155.94363728 -0.04081202 160.88159752 -0.01766968 C162.69565332 -0.01237307 164.50974363 -0.01391259 166.32378578 -0.02272034 C168.79681194 -0.03362212 171.26851374 -0.01997841 173.74145508 0 C174.46246446 -0.00892289 175.18347384 -0.01784577 175.926332 -0.02703905 C179.28018196 0.02565883 181.0907585 0.30038347 183.81630707 2.32093048 C186.09189208 5.52258269 185.91773374 7.6788912 185.37072754 11.50793457 C183.81630707 13.69493866 183.81630707 13.69493866 181.37072754 15.50793457 C178.69031173 15.90098549 176.42004379 16.04901815 173.74145508 16.01586914 C172.58287483 16.02522908 172.58287483 16.02522908 171.40088892 16.03477812 C168.81044729 16.05074436 166.22094192 16.03809014 163.63049316 16.0255127 C161.77434235 16.03093222 159.91819584 16.03805392 158.0620575 16.04675293 C153.0186912 16.06500945 147.9756517 16.05790912 142.93227959 16.04523659 C137.65837589 16.03512099 132.38450048 16.04449826 127.1105957 16.05078125 C118.25340747 16.05806185 109.39635257 16.0484591 100.53918457 16.02941895 C90.29395248 16.00764945 80.04903878 16.01470053 69.80381441 16.03672457 C61.01305809 16.05486678 52.2223977 16.05744265 43.4316287 16.04696989 C38.17883808 16.04072848 32.92619719 16.03991712 27.67341614 16.05311584 C22.7354114 16.06465655 17.7978178 16.05668116 12.85985756 16.03353882 C11.04580176 16.02824221 9.23171145 16.02978173 7.4176693 16.03858948 C4.94464314 16.04949126 2.47294134 16.03584755 0 16.01586914 C-0.72100938 16.02479203 -1.44201877 16.03371491 -2.18487692 16.04290819 C-5.53872688 15.99021031 -7.34930343 15.71548567 -10.07485199 13.69493866 C-12.350437 10.49328645 -12.17627866 8.33697795 -11.62927246 4.50793457 C-8.45018874 0.03509776 -5.13135286 -0.06350331 0 0 Z " fill="#000000" transform="translate(146.6292724609375,192.4920654296875)"/>
<path d="M0 0 C0.96170609 -0.0071553 1.92341217 -0.01431061 2.91426086 -0.02168274 C3.97297897 -0.02437164 5.03169708 -0.02706055 6.12249756 -0.02983093 C7.23481247 -0.03640213 8.34712738 -0.04297333 9.4931488 -0.04974365 C13.18698183 -0.06951062 16.88077413 -0.08114687 20.574646 -0.09111023 C21.83406761 -0.09518576 23.09348923 -0.09926128 24.39107513 -0.10346031 C30.36902894 -0.12218133 36.34695798 -0.13674362 42.32493329 -0.14507228 C49.22153996 -0.1548397 56.11782525 -0.18114496 63.0143187 -0.22157317 C68.99013133 -0.25539959 74.96578824 -0.26721962 80.9417038 -0.27127647 C83.48223805 -0.27615331 86.0227686 -0.28779827 88.56324005 -0.30631447 C92.11841001 -0.33061538 95.67273903 -0.32975689 99.22796631 -0.32279968 C100.27858749 -0.33560974 101.32920868 -0.3484198 102.41166687 -0.36161804 C108.37431261 -0.31906497 111.91919104 0.11251399 116.434021 4.14717102 C117.1605835 6.14717102 117.1605835 6.14717102 117.059021 8.14717102 C117.05128662 8.80717102 117.04355225 9.46717102 117.0355835 10.14717102 C116.09933428 13.25989569 115.11629528 14.22274492 112.434021 16.14717102 C108.73634081 16.76255948 105.05986477 16.68262349 101.31903076 16.64888 C99.61845016 16.65698448 99.61845016 16.65698448 97.8835144 16.66525269 C94.13055428 16.67777433 90.37835617 16.66122404 86.62542725 16.64326477 C84.019953 16.64341969 81.41447852 16.64490746 78.80900574 16.64767456 C73.34562261 16.65037606 67.88245925 16.63690782 62.41912842 16.61372375 C56.1081405 16.58712748 49.7975203 16.58536279 43.48649555 16.59711212 C37.41025903 16.60790335 31.33417648 16.60159034 25.25794792 16.58755684 C22.67474695 16.5830378 20.09153517 16.58270948 17.50833321 16.58662224 C13.89813142 16.58953037 10.28853153 16.5730448 6.67840576 16.55122375 C5.60862991 16.5557254 4.53885406 16.56022705 3.43666077 16.56486511 C-5.69960592 16.47304686 -5.69960592 16.47304686 -9.565979 13.14717102 C-10.98639721 10.30633461 -10.88050173 8.29239824 -10.565979 5.14717102 C-7.31574264 1.13854618 -5.04542052 0.02571705 0 0 Z " fill="#060502" transform="translate(215.56597900390625,392.8528289794922)"/>
</svg>
