<?xml version="1.0" encoding="UTF-8"?>
<svg version="1.1" xmlns="http://www.w3.org/2000/svg" width="512" height="512">
<path d="M0 0 C1.02909392 -0.00538554 2.05818785 -0.01077108 3.11846644 -0.01631981 C6.57157619 -0.03064316 10.02430497 -0.02348471 13.47743225 -0.01637268 C15.95116485 -0.02207393 18.42489481 -0.02903724 20.89862061 -0.03717041 C26.92321614 -0.05327637 32.94766162 -0.055197 38.97226398 -0.04995751 C43.86912957 -0.04591589 48.76596434 -0.04735926 53.66282845 -0.05270576 C54.35980969 -0.05345419 55.05679094 -0.05420261 55.77489283 -0.05497371 C57.19081478 -0.05650519 58.60673672 -0.05804354 60.02265865 -0.05958868 C73.30053765 -0.07331626 86.57835773 -0.06787422 99.85623539 -0.05640347 C112.00252594 -0.04647071 124.14866417 -0.05941196 136.29493123 -0.08333766 C148.76821123 -0.1077223 161.24142028 -0.11733811 173.71472365 -0.11068493 C180.71695451 -0.1071913 187.71906821 -0.1094342 194.72128105 -0.12693596 C201.30488737 -0.14318736 207.88824979 -0.13848618 214.4718647 -0.11963081 C216.88979663 -0.11593578 219.30775 -0.11907985 221.72566223 -0.1295166 C225.02325733 -0.14266502 228.31987885 -0.13123256 231.61743164 -0.11352539 C232.57706296 -0.1231304 233.53669429 -0.1327354 234.52540535 -0.14263147 C240.11729947 -0.08073703 243.53532206 0.50278067 247.87220764 4.38768005 C251.15541927 8.64977924 251.2974973 12.51012027 251.25252438 17.7011404 C251.25718429 18.53916865 251.26184421 19.37719689 251.26664534 20.24061993 C251.2786393 23.06148049 251.26918296 25.8818633 251.2598877 28.70272827 C251.26405868 30.74042176 251.2695349 32.77811294 251.27620751 34.81579977 C251.29071164 40.42534282 251.2864019 46.03473957 251.27904069 51.6442908 C251.2743236 57.69005979 251.2868059 63.73579645 251.29705811 69.78155518 C251.31328394 80.94423725 251.31568548 92.1068738 251.31075311 103.26956144 C251.30619867 113.58182912 251.3067917 123.89407939 251.31259346 134.20634651 C251.31335032 135.58878961 251.3141063 136.9712327 251.31486141 138.3536758 C251.31600658 140.43680699 251.31715646 142.51993818 251.31832065 144.60306936 C251.32902816 163.97413741 251.33374831 183.34519966 251.32585049 202.71626949 C251.32555331 203.44672107 251.32525614 204.17717265 251.32494996 204.92975912 C251.32250094 210.8618156 251.3198894 216.79387201 251.31726583 222.72592841 C251.3071625 245.8673569 251.3155194 269.00871285 251.33876038 292.15013123 C251.36482125 318.1415045 251.37768408 344.13283408 251.37057263 370.12422091 C251.36985655 372.89454654 251.36918216 375.66487218 251.36853218 378.43519783 C251.36836237 379.11733713 251.36819256 379.79947643 251.36801761 380.50228661 C251.36571278 390.80798765 251.37370033 401.11364818 251.38682365 411.41934013 C251.4017182 423.13695663 251.40222516 434.85449438 251.38475274 446.57211464 C251.37621273 452.55356838 251.37416628 458.53484045 251.3894043 464.51628494 C251.40317205 469.98821947 251.39859062 475.45981533 251.37916506 480.93172986 C251.37538034 482.91484933 251.37839751 484.89799543 251.38877671 486.88109135 C251.40185592 489.57059928 251.39044468 492.25892255 251.37277889 494.94837856 C251.3824294 495.72373389 251.39207992 496.49908922 251.40202287 497.29794016 C251.33191821 502.47296779 250.1182943 505.38888636 246.87220764 509.38768005 C242.3735878 513.32053767 237.41739215 512.81080682 231.74441528 512.77536011 C230.2007744 512.78343841 230.2007744 512.78343841 228.62594885 512.79167992 C225.17283909 512.80600326 221.72011031 512.79884482 218.26698303 512.79173279 C215.79325044 512.79743404 213.31952047 512.80439735 210.84579468 512.81253052 C204.82119915 512.82863648 198.79675366 512.8305571 192.7721513 512.82531761 C187.87528572 512.82127599 182.97845095 512.82271937 178.08158684 512.82806587 C177.38460559 512.82881429 176.68762435 512.82956272 175.96952246 512.83033382 C174.55360051 512.8318653 173.13767856 512.83340364 171.72175663 512.83494879 C158.44387763 512.84867636 145.16605755 512.84323433 131.88817989 512.83176357 C119.74188934 512.82183082 107.59575111 512.83477207 95.44948406 512.85869776 C82.97620405 512.88308241 70.50299501 512.89269821 58.02969164 512.88604504 C51.02746078 512.88255141 44.02534707 512.88479431 37.02313423 512.90229607 C30.43952791 512.91854747 23.8561655 512.91384629 17.27255058 512.89499092 C14.85461865 512.89129589 12.43666528 512.89443996 10.01875305 512.90487671 C6.72115796 512.91802513 3.42453643 512.90659267 0.12698364 512.8888855 C-0.83264768 512.8984905 -1.792279 512.90809551 -2.78099006 512.91799158 C-8.37288418 512.85609713 -11.79090678 512.27257944 -16.12779236 508.38768005 C-19.41100398 504.12558086 -19.55308201 500.26523983 -19.50810909 495.0742197 C-19.51509897 493.81717734 -19.51509897 493.81717734 -19.52223006 492.53474018 C-19.53422401 489.71387962 -19.52476768 486.8934968 -19.51547241 484.07263184 C-19.5196434 482.03493834 -19.52511961 479.99724717 -19.53179222 477.95956033 C-19.54629635 472.35001728 -19.54198661 466.74062053 -19.53462541 461.1310693 C-19.52990832 455.08530032 -19.54239062 449.03956366 -19.55264282 442.99380493 C-19.56886866 431.83112286 -19.5712702 420.66848631 -19.56633783 409.50579867 C-19.56178339 399.19353098 -19.56237641 388.88128072 -19.56817818 378.5690136 C-19.56893504 377.1865705 -19.56969102 375.8041274 -19.57044612 374.42168431 C-19.5715913 372.33855312 -19.57274117 370.25542193 -19.57390536 368.17229075 C-19.58461288 348.80122269 -19.58933302 329.43016045 -19.5814352 310.05909061 C-19.58113803 309.32863904 -19.58084086 308.59818746 -19.58053468 307.84560098 C-19.57808566 301.91354451 -19.57547411 295.9814881 -19.57285054 290.0494317 C-19.56274722 266.9080032 -19.57110412 243.76664726 -19.59434509 220.62522888 C-19.62040596 194.63385561 -19.63326879 168.64252602 -19.62615734 142.6511392 C-19.62544126 139.88081357 -19.62476688 137.11048793 -19.6241169 134.34016228 C-19.62394709 133.65802298 -19.62377728 132.97588368 -19.62360232 132.2730735 C-19.6212975 121.96737246 -19.62928505 111.66171193 -19.64240837 101.35601997 C-19.65730291 89.63840347 -19.65780988 77.92086573 -19.64033746 66.20324547 C-19.63179744 60.22179173 -19.62975099 54.24051966 -19.64498901 48.25907516 C-19.65875677 42.78714064 -19.65417534 37.31554478 -19.63474978 31.84363025 C-19.63096505 29.86051077 -19.63398223 27.87736468 -19.64436143 25.89426876 C-19.65744064 23.20476082 -19.6460294 20.51643755 -19.62836361 17.82698154 C-19.63801412 17.05162622 -19.64766463 16.27627089 -19.65760759 15.47741994 C-19.58750293 10.30239232 -18.37387901 7.38647375 -15.12779236 3.38768005 C-10.62917252 -0.54517757 -5.67297687 -0.03544671 0 0 Z " fill="#FF3838" transform="translate(30.127792358398438,-0.3876800537109375)"/>
<path d="M0 0 C0 168.96 0 337.92 0 512 C-126 512 -126 512 -132 508 C-135.42692802 503.87115089 -135.42497863 499.84166003 -135.38031673 494.68653965 C-135.38730661 493.42949729 -135.38730661 493.42949729 -135.3944377 492.14706013 C-135.40643165 489.32619957 -135.39697532 486.50581675 -135.38768005 483.68495178 C-135.39185104 481.64725829 -135.39732726 479.60956712 -135.40399987 477.57188028 C-135.41850399 471.96233723 -135.41419425 466.35294048 -135.40683305 460.74338925 C-135.40211596 454.69762027 -135.41459826 448.65188361 -135.42485046 442.60612488 C-135.4410763 431.4434428 -135.44347784 420.28080625 -135.43854547 409.11811861 C-135.43399103 398.80585093 -135.43458406 388.49360066 -135.44038582 378.18133354 C-135.44114268 376.79889045 -135.44189866 375.41644735 -135.44265376 374.03400425 C-135.44379894 371.95087306 -135.44494881 369.86774188 -135.44611301 367.7846107 C-135.45682052 348.41354264 -135.46154066 329.0424804 -135.45364285 309.67141056 C-135.45334567 308.94095898 -135.4530485 308.2105074 -135.45274232 307.45792093 C-135.4502933 301.52586445 -135.44768176 295.59380805 -135.44505819 289.66175165 C-135.43495486 266.52032315 -135.44331176 243.37896721 -135.46655273 220.23754883 C-135.4926136 194.24617556 -135.50547643 168.25484597 -135.49836498 142.26345915 C-135.49764891 139.49313351 -135.49697452 136.72280787 -135.49632454 133.95248222 C-135.49615473 133.27034293 -135.49598492 132.58820363 -135.49580997 131.88539344 C-135.49350514 121.57969241 -135.50149269 111.27403187 -135.51461601 100.96833992 C-135.52951055 89.25072342 -135.53001752 77.53318567 -135.5125451 65.81556541 C-135.50400508 59.83411167 -135.50195864 53.8528396 -135.51719666 47.87139511 C-135.53096441 42.39946059 -135.52638298 36.92786473 -135.50695742 31.45595019 C-135.50317269 29.47283072 -135.50618987 27.48968463 -135.51656907 25.5065887 C-135.52964828 22.81708077 -135.51823704 20.1287575 -135.50057125 17.43930149 C-135.51022176 16.66394616 -135.51987227 15.88859083 -135.52981523 15.08973989 C-135.45962972 9.90874436 -134.36884741 6.92829433 -131 3 C-93.54632491 -19.47220505 -43.67811555 0 0 0 Z " fill="#D4D3EA" transform="translate(146,0)"/>
<path d="M0 0 C22.11 0 44.22 0 67 0 C67 168.96 67 337.92 67 512 C44.89 512 22.78 512 0 512 C-0.12844097 475.18526533 -0.25611385 438.37052834 -0.38218227 401.55578549 C-0.39719574 397.17179317 -0.41221815 392.78780087 -0.42724609 388.40380859 C-0.43023671 387.53133463 -0.43322732 386.65886067 -0.43630856 385.7599481 C-0.48423464 371.78428391 -0.53287834 357.80862231 -0.58180541 343.83296159 C-0.6323004 329.40467614 -0.6819822 314.97638803 -0.73096704 300.54809737 C-0.75837688 292.48106044 -0.78612168 284.41402501 -0.81480408 276.34699249 C-1.00258056 223.43711868 -1.17748056 170.52679341 -0.79807091 117.61735439 C-0.76853912 113.43365401 -0.74143144 109.24993766 -0.71398926 105.06622314 C-0.66245017 97.25898923 -0.60895325 89.45177023 -0.5546174 81.64455533 C-0.48075226 71.01323992 -0.41018661 60.38190252 -0.33936501 49.75056648 C-0.22881121 33.16702607 -0.11408808 16.58351735 0 0 Z " fill="#8CBCFE" transform="translate(79,0)"/>
<path d="M0 0 C58 0 58 0 64 4 C67.42692802 8.12884911 67.42497863 12.15833997 67.38031673 17.31346035 C67.38497665 18.15148859 67.38963657 18.98951684 67.3944377 19.85293987 C67.40643165 22.67380043 67.39697532 25.49418325 67.38768005 28.31504822 C67.39185104 30.35274171 67.39732726 32.39043288 67.40399987 34.42811972 C67.41850399 40.03766277 67.41419425 45.64705952 67.40683305 51.25661075 C67.40211596 57.30237973 67.41459826 63.34811639 67.42485046 69.39387512 C67.4410763 80.5565572 67.44347784 91.71919375 67.43854547 102.88188139 C67.43399103 113.19414907 67.43458406 123.50639934 67.44038582 133.81866646 C67.44114268 135.20110955 67.44189866 136.58355265 67.44265376 137.96599575 C67.44379894 140.04912694 67.44494881 142.13225812 67.44611301 144.2153893 C67.45682052 163.58645736 67.46154066 182.9575196 67.45364285 202.32858944 C67.45334567 203.05904102 67.4530485 203.7894926 67.45274232 204.54207907 C67.4502933 210.47413555 67.44768176 216.40619195 67.44505819 222.33824835 C67.43495486 245.47967685 67.44331176 268.62103279 67.46655273 291.76245117 C67.4926136 317.75382444 67.50547643 343.74515403 67.49836498 369.73654085 C67.49764891 372.50686649 67.49697452 375.27719213 67.49632454 378.04751778 C67.49615473 378.72965707 67.49598492 379.41179637 67.49580997 380.11460656 C67.49350514 390.42030759 67.50149269 400.72596813 67.51461601 411.03166008 C67.52951055 422.74927658 67.53001752 434.46681433 67.5125451 446.18443459 C67.50400508 452.16588833 67.50195864 458.1471604 67.51719666 464.12860489 C67.53096441 469.60053941 67.52638298 475.07213527 67.50695742 480.54404981 C67.50317269 482.52716928 67.50618987 484.51031537 67.51656907 486.4934113 C67.52964828 489.18291923 67.51823704 491.8712425 67.50057125 494.56069851 C67.51022176 495.33605384 67.51987227 496.11140917 67.52981523 496.91026011 C67.45962972 502.09125564 66.36884741 505.07170567 63 509 C44.97224362 519.81665383 21.02379604 512 0 512 C0 343.04 0 174.08 0 0 Z " fill="#9CDD05" transform="translate(214,0)"/>
<path d="M0 0 C7.39355938 4.92903959 11.10802114 13.27079 15.375 20.8125 C16.04047476 21.9788244 16.70648673 23.14484244 17.37304688 24.31054688 C18.64040619 26.5306547 19.90254531 28.7537531 21.15869141 30.98022461 C22.13023062 32.68077679 23.11969786 34.37168701 24.14990234 36.03735352 C26.45815864 39.77528926 27.3588929 42.5359737 27.3125 46.9375 C27.32796875 48.40896484 27.32796875 48.40896484 27.34375 49.91015625 C26.46281374 54.82655791 24.6452804 57.56548628 20.65332031 60.41772461 C17.87057016 62.12849674 15.04540813 63.73046812 12.1875 65.3125 C11.12644043 65.91521729 10.06538086 66.51793457 8.97216797 67.13891602 C6.72463096 68.4155289 4.4740622 69.68681699 2.22070312 70.953125 C-3.23280426 74.02834063 -8.64464041 77.17506452 -14.0625 80.3125 C-16.2262 81.56052451 -18.39026549 82.80791557 -20.5546875 84.0546875 C-21.63717773 84.67827148 -22.71966797 85.30185547 -23.83496094 85.94433594 C-26.12456939 87.2628783 -28.41426739 88.58126385 -30.70410156 89.89941406 C-33.06096291 91.25615258 -35.41756924 92.61333221 -37.77392578 93.97094727 C-39.97756869 95.24046119 -42.18163955 96.50923268 -44.38623047 97.77709961 C-45.39314941 98.3572583 -46.40006836 98.93741699 -47.4375 99.53515625 C-48.30890625 100.03668213 -49.1803125 100.53820801 -50.078125 101.05493164 C-51.10421875 101.6555542 -52.1303125 102.25617676 -53.1875 102.875 C-53.9954999 103.21221054 -54.8034998 103.54942107 -55.63598454 103.89685011 C-58.59598753 105.29282774 -60.80843511 106.61607486 -63.1875 108.875 C-64.681711 113.29174355 -64.50265245 117.57109523 -64.40109253 122.19812012 C-64.40672222 123.57260497 -64.416756 124.94707764 -64.43080628 126.32150221 C-64.4567206 130.09410647 -64.42045735 133.86394156 -64.37406301 137.63625503 C-64.33496821 141.70586828 -64.35371411 145.77525981 -64.36558533 149.84498596 C-64.37841201 156.89574148 -64.35512253 163.94563372 -64.30773544 170.99623108 C-64.23958323 181.1966076 -64.23041808 191.3963801 -64.23638131 201.59695166 C-64.24483203 218.1551303 -64.21161639 234.7129413 -64.14941406 251.27099609 C-64.08919078 267.34032067 -64.03853526 283.40959308 -64.0078125 299.47900391 C-64.00591065 300.46870467 -64.0040088 301.45840544 -64.00204931 302.47809714 C-63.98177569 313.28197682 -63.9666544 324.08585146 -63.9590168 334.88974762 C-63.95834197 335.83918496 -63.95766714 336.7886223 -63.95697186 337.76683047 C-63.95437899 341.56223632 -63.95189661 345.357642 -63.95013489 349.15304834 C-63.94492659 360.26697859 -63.92344635 371.38058461 -63.87246449 382.49440396 C-63.84102019 389.46480155 -63.82272942 396.43514755 -63.81479625 403.4056114 C-63.80959043 407.42871052 -63.7975364 411.45150521 -63.76788521 415.47450447 C-63.74078439 419.15703285 -63.7319911 422.83913349 -63.73770942 426.52175289 C-63.73587145 428.48550699 -63.71409533 430.44921114 -63.69162261 432.41283751 C-63.72075293 438.8572782 -63.7715584 443.00846324 -68.1875 447.875 C-68.703125 448.473125 -69.21875 449.07125 -69.75 449.6875 C-72.54941577 452.00006085 -75.39037474 452.00766454 -78.85498047 452.03613281 C-79.79961151 452.04574036 -80.74424255 452.0553479 -81.71749878 452.06524658 C-82.73627106 452.06949646 -83.75504333 452.07374634 -84.8046875 452.078125 C-85.85399445 452.08382507 -86.90330139 452.08952515 -87.98440552 452.09539795 C-90.20525097 452.10484686 -92.42611044 452.1113815 -94.64697266 452.11523438 C-98.04224112 452.12494208 -101.43690482 452.15596784 -104.83203125 452.1875 C-106.98957974 452.19402995 -109.14713256 452.19928045 -111.3046875 452.203125 C-112.82677322 452.2216452 -112.82677322 452.2216452 -114.37960815 452.24053955 C-123.19675604 452.21271313 -123.19675604 452.21271313 -127.1875 448.875 C-131.07798609 444.44416862 -132.31162829 442.14507427 -132.32172108 436.29842854 C-132.32617892 435.10540884 -132.33063676 433.91238915 -132.33522969 432.68321735 C-132.33514039 431.34743074 -132.33495052 430.01164413 -132.33467102 428.67585754 C-132.33796879 427.26588946 -132.34169417 425.85592233 -132.3458125 424.44595641 C-132.35585164 420.5572915 -132.3595524 416.66864203 -132.36220181 412.779966 C-132.36609953 408.5908477 -132.37567863 404.4017417 -132.38441467 400.21263123 C-132.40420033 390.08501246 -132.41425066 379.95739266 -132.42314246 369.82975939 C-132.42752434 365.05940993 -132.43289163 360.28906158 -132.43813133 355.518713 C-132.45515024 339.65642051 -132.46964189 323.79412872 -132.47688007 307.9318285 C-132.47878997 303.81303214 -132.48071029 299.69423579 -132.48266602 295.57543945 C-132.48314976 294.55173363 -132.4836335 293.52802781 -132.4841319 292.4733006 C-132.49242256 275.90981924 -132.51774021 259.34641033 -132.55024669 242.78296057 C-132.58335715 225.77274671 -132.60133268 208.76256958 -132.60452431 191.75232333 C-132.60668637 182.20390918 -132.61538966 172.65560049 -132.64098549 163.10721779 C-132.66274747 154.97013881 -132.67071618 146.83319087 -132.66101871 138.69608609 C-132.65648907 134.54839068 -132.65828148 130.40096531 -132.67778015 126.25330734 C-132.69552236 122.44612922 -132.69432577 118.6394159 -132.67888286 114.83223208 C-132.67541688 112.82328245 -132.69145053 110.8143273 -132.70848733 108.80544692 C-132.57570806 89.82028926 -125.76474054 71.99902678 -112.18359375 58.55859375 C-107.06307855 53.81230218 -101.20162909 50.34337197 -95.1875 46.875 C-94.28080566 46.34567871 -93.37411133 45.81635742 -92.43994141 45.27099609 C-86.43339463 41.76514998 -80.40765857 38.29385048 -74.37025452 34.84144592 C-68.29953364 31.36957918 -62.24350282 27.87245187 -56.1875 24.375 C-54.04690695 23.14056959 -51.9062818 21.90619486 -49.765625 20.671875 C-45.7749482 18.36983902 -41.78623078 16.06447837 -37.79992676 13.75488281 C-35.41937827 12.37581969 -33.03808694 10.99804215 -30.65673828 9.62036133 C-28.9826735 8.65115342 -27.30968088 7.68009435 -25.63671875 6.70898438 C-24.61707031 6.11923828 -23.59742188 5.52949219 -22.546875 4.921875 C-21.65452148 4.40463867 -20.76216797 3.88740234 -19.84277344 3.35449219 C-12.68897208 -0.63153542 -7.931187 -2.79924247 0 0 Z " fill="#FFB654" transform="translate(474.1875,60.125)"/>
<path d="M0 0 C10.89 0 21.78 0 33 0 C33 168.96 33 337.92 33 512 C22.11 512 11.22 512 0 512 C-0.1285588 475.1852658 -0.25611385 438.37052831 -0.38218227 401.55578549 C-0.39719574 397.17179317 -0.41221815 392.78780087 -0.42724609 388.40380859 C-0.43023671 387.53133463 -0.43322732 386.65886067 -0.43630856 385.7599481 C-0.48423464 371.78428391 -0.53287834 357.80862231 -0.58180541 343.83296159 C-0.6323004 329.40467614 -0.6819822 314.97638803 -0.73096704 300.54809737 C-0.75837688 292.48106044 -0.78612168 284.41402501 -0.81480408 276.34699249 C-1.00258056 223.43711868 -1.17748056 170.52679341 -0.79807091 117.61735439 C-0.76853912 113.43365401 -0.74143144 109.24993766 -0.71398926 105.06622314 C-0.66245017 97.25898923 -0.60895325 89.45177023 -0.5546174 81.64455533 C-0.49252331 72.70743187 -0.43281819 63.77029284 -0.37324238 54.83315229 C-0.25135146 36.55541706 -0.12637766 18.2777048 0 0 Z " fill="#9EE2F8" transform="translate(79,0)"/>
<path d="M0 0 C22.44 0 44.88 0 68 0 C68 168.96 68 337.92 68 512 C67.67 512 67.34 512 67 512 C67 394.19 67 276.38 67 155 C44.89 155 22.78 155 0 155 C0 103.85 0 52.7 0 0 Z " fill="#FC4039" transform="translate(146,0)"/>
<path d="M0 0 C3.78469236 1.47878083 7.26726726 3.16713476 10.81640625 5.15234375 C11.91017578 5.76400391 13.00394531 6.37566406 14.13085938 7.00585938 C15.26330078 7.64330078 16.39574219 8.28074219 17.5625 8.9375 C18.69880859 9.57107422 19.83511719 10.20464844 21.00585938 10.85742188 C31.61052526 16.80729636 31.61052526 16.80729636 34 19 C34.49679399 21.25773209 34.49679399 21.25773209 34.49219131 23.96065044 C34.50015551 24.99074189 34.5081197 26.02083333 34.51632524 27.08213967 C34.49884819 28.78494008 34.49884819 28.78494008 34.48101807 30.5221405 C34.48443577 31.72526817 34.48785347 32.92839584 34.49137473 34.16798192 C34.49683626 37.51361402 34.48429147 40.85831597 34.46426249 44.20383584 C34.44702353 47.80913385 34.45283165 51.414402 34.45587158 55.01972961 C34.45797121 61.26815316 34.44539814 67.5164099 34.42292023 73.76479149 C34.39044197 82.79892551 34.3799975 91.83297869 34.37496826 100.86716477 C34.36620904 115.52371223 34.33957648 130.18017076 34.30175781 144.83666992 C34.26505393 159.0759232 34.23673424 173.31515234 34.21972656 187.55444336 C34.21867567 188.43183189 34.21762477 189.30922042 34.21654204 190.21319648 C34.21132197 194.61470137 34.20626712 199.01620644 34.20129442 203.41771162 C34.15981286 239.94520388 34.08934739 276.47259502 34 313 C30.10430865 313.08732726 26.20887018 313.14050185 22.3125 313.1875 C20.65831055 313.22520508 20.65831055 313.22520508 18.97070312 313.26367188 C17.90400391 313.27333984 16.83730469 313.28300781 15.73828125 313.29296875 C14.75899658 313.3086792 13.77971191 313.32438965 12.77075195 313.34057617 C8.24407409 312.78416454 5.70935764 310.80787954 2.75 307.4375 C0.25547179 303.96297856 -0.12479373 302.25041811 -0.12304783 298.02184105 C-0.12503888 296.96239009 -0.12702993 295.90293914 -0.12908131 294.81138361 C-0.12616847 293.63825195 -0.12325563 292.4651203 -0.12025452 291.25643921 C-0.12110894 290.01741399 -0.12196337 288.77838878 -0.12284368 287.50181735 C-0.1242105 284.0516382 -0.12106819 280.60151524 -0.11606562 277.15134287 C-0.11176045 273.43491521 -0.11320759 269.71848939 -0.1139679 266.00205994 C-0.11449309 259.5594275 -0.11134678 253.11680516 -0.10573006 246.67417526 C-0.09761442 237.35913245 -0.09499977 228.04409453 -0.09374207 218.72904857 C-0.09155165 203.6172145 -0.08489183 188.50538582 -0.07543945 173.39355469 C-0.06626508 158.71093777 -0.05918437 144.02832232 -0.05493164 129.34570312 C-0.05466892 128.44116891 -0.05440619 127.5366347 -0.05413551 126.60469036 C-0.0528305 122.06705805 -0.05156679 117.52942572 -0.05032361 112.99179339 C-0.03995131 75.32785846 -0.02233326 37.66392965 0 0 Z " fill="#FFDE54" transform="translate(342,199)"/>
<path d="M0 0 C11.22 0 22.44 0 34 0 C34 98.01 34 196.02 34 297 C22.78 297 11.56 297 0 297 C0 198.99 0 100.98 0 0 Z " fill="#FF6326" transform="translate(146,215)"/>
<path d="M0 0 C11.22 0 22.44 0 34 0 C34 98.01 34 196.02 34 297 C22.78 297 11.56 297 0 297 C0 198.99 0 100.98 0 0 Z " fill="#D4D3EA" transform="translate(45,215)"/>
<path d="M0 0 C11.22 0 22.44 0 34 0 C34.09040519 36.58734852 34.16202745 73.1746646 34.20426132 109.76210187 C34.20926421 114.08049648 34.21444149 118.39889088 34.21972656 122.71728516 C34.2207758 123.57700835 34.22182505 124.43673154 34.22290608 125.32250695 C34.24031657 139.24738659 34.27185779 153.17220025 34.30861118 167.09704073 C34.34600272 181.38268235 34.36823207 195.66828939 34.37635398 209.95397794 C34.38184547 218.77072931 34.39919668 227.58729419 34.43166587 236.40398817 C34.4527917 242.44797675 34.45920444 248.49186877 34.45400551 254.53589161 C34.45144069 258.02427189 34.45540272 261.51232604 34.4768219 265.0006485 C34.49666131 268.78232087 34.49196015 272.56318899 34.48101807 276.34487915 C34.49266943 277.44799521 34.5043208 278.55111127 34.51632524 279.68765509 C34.46997138 285.59619689 34.20758992 289.46682004 30 294 C25 297 25 297 0 297 C0 198.99 0 100.98 0 0 Z " fill="#9CDD05" transform="translate(247,215)"/>
<path d="M0 0 C11.22 0 22.44 0 34 0 C34 98.01 34 196.02 34 297 C9 297 9 297 3 293 C-1.25585776 288.33837549 -0.40776059 282.41351566 -0.36076355 276.46513367 C-0.36332682 275.28479846 -0.3658901 274.10446326 -0.36853105 272.88836032 C-0.3726176 269.61587091 -0.363244 266.3437381 -0.34819686 263.07129085 C-0.33524033 259.54101189 -0.33962569 256.01074954 -0.34190369 252.48045349 C-0.34347667 246.36523691 -0.33406492 240.25011636 -0.31719017 234.13492393 C-0.29280805 225.29340056 -0.28499571 216.45192361 -0.2812262 207.61037026 C-0.27466048 193.26552976 -0.25469604 178.92074044 -0.22631836 164.57592773 C-0.19878091 150.64136003 -0.17754579 136.70680622 -0.16479492 122.7722168 C-0.16400675 121.91327569 -0.16321858 121.05433458 -0.16240653 120.16936495 C-0.15849141 115.86030569 -0.15470029 111.55124633 -0.15097082 107.2421869 C-0.11987115 71.4947533 -0.06620637 35.74738479 0 0 Z " fill="#F8F8F8" transform="translate(11,215)"/>
<path d="M0 0 C10.89 0 21.78 0 33 0 C33 98.01 33 196.02 33 297 C22.11 297 11.22 297 0 297 C0 198.99 0 100.98 0 0 Z " fill="#CCFC5C" transform="translate(214,215)"/>
<path d="M0 0 C11.22 0 22.44 0 34 0 C34 70.95 34 141.9 34 215 C22.78 215 11.56 215 0 215 C0 144.05 0 73.1 0 0 Z " fill="#8CBCFE" transform="translate(112,0)"/>
<path d="M0 0 C10.89 0 21.78 0 33 0 C33 70.95 33 141.9 33 215 C21.78 215 10.56 215 -1 215 C-1.0760983 170.54590697 -0.86394312 126.09705215 -0.55461788 81.64417505 C-0.49251401 72.70717842 -0.43281734 63.77016609 -0.37324238 54.83315229 C-0.25135146 36.55541706 -0.12637766 18.2777048 0 0 Z " fill="#9EE2F8" transform="translate(79,0)"/>
<path d="M0 0 C11.22 0 22.44 0 34 0 C34 51.15 34 102.3 34 155 C22.78 155 11.56 155 0 155 C0 103.85 0 52.7 0 0 Z " fill="#FF6326" transform="translate(146,0)"/>
<path d="M0 0 C0 51.15 0 102.3 0 155 C-11.22 155 -22.44 155 -34 155 C-34.09030984 136.06758357 -34.16398749 117.13534166 -34.20724869 98.20276451 C-34.22786991 89.41195334 -34.25598205 80.62128555 -34.30175781 71.83056641 C-34.34163911 64.16815743 -34.36743602 56.5058523 -34.37635398 48.84334242 C-34.38156657 44.78642587 -34.39380865 40.72980638 -34.42292023 36.67298508 C-34.45010993 32.85296523 -34.45843794 29.03336426 -34.45243073 25.21325684 C-34.45352939 23.81282905 -34.46146249 22.41238698 -34.4768219 21.012043 C-34.60079788 9.12383948 -34.60079788 9.12383948 -32.28411865 5.30728149 C-22.67007986 -4.40425156 -16.41448697 0 0 0 Z " fill="#F8F8F8" transform="translate(45,0)"/>
<path d="M0 0 C10.89 0 21.78 0 33 0 C33 51.15 33 102.3 33 155 C22.11 155 11.22 155 0 155 C0 103.85 0 52.7 0 0 Z " fill="#CCFC5C" transform="translate(214,0)"/>
<path d="M0 0 C5.68345122 3.78896748 8.89909456 9.38583033 12.125 15.25 C12.66350586 16.21099609 12.66350586 16.21099609 13.21289062 17.19140625 C14.08496714 18.7495163 14.94954021 20.31182222 15.8125 21.875 C12.97251025 24.94442939 10.21387415 26.97418742 6.55078125 28.9765625 C5.523479 29.54366943 4.49617676 30.11077637 3.43774414 30.69506836 C2.34453857 31.2906958 1.25133301 31.88632324 0.125 32.5 C-2.16222564 33.76293429 -4.44868353 35.02725999 -6.734375 36.29296875 C-7.84748047 36.90833496 -8.96058594 37.52370117 -10.10742188 38.15771484 C-13.98211955 40.31803693 -17.8123288 42.54495889 -21.625 44.8125 C-28.63426975 48.97365767 -35.68614227 53.05721009 -42.75 57.125 C-43.85005371 57.76050781 -44.95010742 58.39601562 -46.08349609 59.05078125 C-51.6690809 62.27739364 -57.26273744 65.48796174 -62.875 68.66796875 C-65.00008312 69.88266709 -67.12508633 71.09750525 -69.25 72.3125 C-70.2181665 72.85487305 -71.18633301 73.39724609 -72.18383789 73.95605469 C-79.93897276 78.41238886 -86.96107571 83.51471621 -92.1875 90.875 C-96.5274262 90.28207556 -99.60073881 88.70172208 -103.36328125 86.49609375 C-104.2183149 85.99880516 -104.2183149 85.99880516 -105.09062195 85.49147034 C-106.89771101 84.43842937 -108.69885275 83.3756655 -110.5 82.3125 C-111.72943713 81.59374965 -112.9592512 80.87564367 -114.18945312 80.15820312 C-117.19320084 78.40457186 -120.19169744 76.642178 -123.1875 74.875 C-121.72970668 71.05454872 -120.12931455 68.20084843 -117.5625 65 C-116.93085938 64.19820313 -116.29921875 63.39640625 -115.6484375 62.5703125 C-109.64200623 55.99184016 -103.01941984 51.27473046 -95.3125 46.875 C-94.36342773 46.32376465 -93.41435547 45.7725293 -92.43652344 45.20458984 C-89.35834194 43.41956449 -86.27313251 41.64710853 -83.1875 39.875 C-81.08551897 38.65957769 -78.98395975 37.44342562 -76.8828125 36.2265625 C-71.44029876 33.07777133 -65.99195375 29.93922939 -60.54150391 26.80419922 C-54.90101729 23.55983139 -49.262549 20.31196924 -43.625 17.0625 C-42.54629639 16.44117187 -41.46759277 15.81984375 -40.35620117 15.1796875 C-33.26409402 11.08936608 -26.19457873 6.96279761 -19.17163086 2.75463867 C-12.74829595 -1.06511335 -7.17059594 -2.53079857 0 0 Z " fill="#FFDD54" transform="translate(474.1875,60.125)"/>
<path d="M0 0 C22.11 0 44.22 0 67 0 C67 19.8 67 39.6 67 60 C44.89 60 22.78 60 0 60 C0 40.2 0 20.4 0 0 Z " fill="#56C224" transform="translate(214,155)"/>
<path d="M0 0 C22.11 0 44.22 0 67 0 C67 19.8 67 39.6 67 60 C44.89 60 22.78 60 0 60 C0 40.2 0 20.4 0 0 Z " fill="#FE3738" transform="translate(146,155)"/>
<path d="M0 0 C22.11 0 44.22 0 67 0 C67 19.8 67 39.6 67 60 C44.89 60 22.78 60 0 60 C0 40.2 0 20.4 0 0 Z " fill="#D4D2E9" transform="translate(11,155)"/>
<path d="M0 0 C2.02505567 0.97040418 4.04471373 1.95206949 6.0625 2.9375 C7.75052734 3.75541016 7.75052734 3.75541016 9.47265625 4.58984375 C10.13136719 4.94626953 10.79007812 5.30269531 11.46875 5.66992188 C12.87512048 6.40891747 14.29243359 7.1306714 15.74291992 7.77880859 C20.53601303 9.92511456 25.3037087 12.18766981 29 16 C31.03851587 21.35168308 30.76762525 26.36598398 30.46484375 31.97265625 C30.4368193 33.50668399 30.41548968 35.04084724 30.40052795 36.57505798 C30.34359692 40.58848424 30.19665808 44.59359318 30.02996826 48.60375977 C29.87571393 52.7053977 29.80784948 56.80839905 29.73242188 60.91210938 C29.57217195 68.94519893 29.3166796 76.97156166 29 85 C25.21530764 83.52121917 21.73273274 81.83286524 18.18359375 79.84765625 C17.08982422 79.23599609 15.99605469 78.62433594 14.86914062 77.99414062 C13.73669922 77.35669922 12.60425781 76.71925781 11.4375 76.0625 C10.30119141 75.42892578 9.16488281 74.79535156 7.99414062 74.14257812 C-2.59328757 68.20237505 -2.59328757 68.20237505 -5 66 C-5.50793457 63.75259399 -5.50793457 63.75259399 -5.51757812 61.09228516 C-5.53018677 60.09339264 -5.54279541 59.09450012 -5.55578613 58.06533813 C-5.54768921 56.98416718 -5.53959229 55.90299622 -5.53125 54.7890625 C-5.5350769 53.66994476 -5.53890381 52.55082703 -5.54284668 51.39779663 C-5.54557226 49.02218734 -5.53816617 46.64654837 -5.52148438 44.27099609 C-5.5002855 40.67345034 -5.52116106 37.07794798 -5.546875 33.48046875 C-5.57239585 10.60062871 -5.57239585 10.60062871 -1 1 C-0.67 0.67 -0.34 0.34 0 0 Z " fill="#FF7C48" transform="translate(381,152)"/>
<path d="M0 0 C11.22 0 22.44 0 34 0 C34 19.8 34 39.6 34 60 C22.78 60 11.56 60 0 60 C0 40.2 0 20.4 0 0 Z " fill="#7C84E8" transform="translate(112,155)"/>
<path d="M0 0 C11.22 0 22.44 0 34 0 C34 19.8 34 39.6 34 60 C22.78 60 11.56 60 0 60 C0 40.2 0 20.4 0 0 Z " fill="#8CBCFE" transform="translate(78,155)"/>
<path d="M0 0 C10.89 0 21.78 0 33 0 C33 19.8 33 39.6 33 60 C22.11 60 11.22 60 0 60 C0 40.2 0 20.4 0 0 Z " fill="#9CDD05" transform="translate(214,155)"/>
<path d="M0 0 C10.89 0 21.78 0 33 0 C33 19.8 33 39.6 33 60 C22.11 60 11.22 60 0 60 C0 40.2 0 20.4 0 0 Z " fill="#C30047" transform="translate(180,155)"/>
<path d="M0 0 C10.89 0 21.78 0 33 0 C33 19.8 33 39.6 33 60 C22.11 60 11.22 60 0 60 C0 40.2 0 20.4 0 0 Z " fill="#BEBCDD" transform="translate(45,155)"/>
</svg>
