<?xml version="1.0" encoding="UTF-8"?>
<svg version="1.1" xmlns="http://www.w3.org/2000/svg" width="512" height="512">
<path d="M0 0 C49.5 0 99 0 150 0 C146.61617292 12.40736597 146.61617292 12.40736597 144.28515625 17.86328125 C143.77009521 19.06895752 143.25503418 20.27463379 142.72436523 21.5168457 C142.1716833 22.78262047 141.6176991 24.0478273 141.0625 25.3125 C140.77754669 25.96552094 140.49259338 26.61854187 140.19900513 27.29135132 C129.01434322 52.83558819 115.32665185 81.66252848 91 97 C92.7325 97.556875 92.7325 97.556875 94.5 98.125 C116.80984556 105.64320814 134.39286106 114.92964243 151.79296875 130.98046875 C153.71482152 132.73904907 155.67647489 134.40819775 157.6875 136.0625 C161.5502552 139.36062973 164.73014081 143.12627684 168 147 C168.79019531 147.89074219 169.58039063 148.78148437 170.39453125 149.69921875 C212.08876036 197.02653795 236.595849 260.95857332 247.75 322.375 C247.94875732 323.46659424 248.14751465 324.55818848 248.35229492 325.68286133 C251.24705045 342.34290523 252.41105426 358.72574813 252.375 375.625 C252.37418427 377.07117706 252.37418427 377.07117706 252.37335205 378.54656982 C252.27905519 414.9715607 244.47362366 448.3574856 218 475 C185.88974801 505.76229539 135.87502607 512.06219587 93.34765625 512.203125 C92.66887358 512.20595238 91.9900909 512.20877975 91.29073906 512.21169281 C87.68348705 512.22656844 84.07627369 512.23586555 80.46899414 512.24023438 C77.56163676 512.24457407 74.65458369 512.25830548 71.74731445 512.28125 C30.37462528 512.60075964 -12.17317869 509.65610363 -49 489 C-49.98097656 488.45859375 -50.96195313 487.9171875 -51.97265625 487.359375 C-64.73014224 479.79666388 -74.58332375 469.05673513 -83 457 C-83.84304687 455.80697266 -83.84304687 455.80697266 -84.703125 454.58984375 C-92.90152705 442.01176902 -97.37396727 426.66151418 -100 412 C-100.26490234 410.56708618 -100.26490234 410.56708618 -100.53515625 409.10522461 C-102.29681626 398.43538471 -102.39788637 387.85376899 -102.375 377.0625 C-102.37445618 376.09634766 -102.37391235 375.13019531 -102.37335205 374.13476562 C-102.32871593 356.80024037 -101.09597498 340.08676602 -98 323 C-97.78569336 321.81599609 -97.57138672 320.63199219 -97.35058594 319.41210938 C-85.45104839 255.84398302 -58.70874438 193.8835026 -16 145 C-15.2059375 144.0821875 -14.411875 143.164375 -13.59375 142.21875 C-9.03350062 137.03380893 -4.33329375 132.37781767 1 128 C1.51272461 127.56429687 2.02544922 127.12859375 2.55371094 126.6796875 C18.39327086 113.22370701 35.69590761 103.48993399 56.0234375 98.54296875 C57.98571325 98.17913402 57.98571325 98.17913402 59 97 C58.31035156 96.53851563 57.62070313 96.07703125 56.91015625 95.6015625 C41.50633189 84.90974477 32.19742384 69.98852211 23 54 C22.46270264 53.07550049 22.46270264 53.07550049 21.91455078 52.13232422 C16.32760702 42.41845723 11.85564441 32.27251855 7.5625 21.9375 C7.16748795 20.99145905 7.16748795 20.99145905 6.76449585 20.02630615 C3.97950457 13.32832524 1.7705654 7.08226158 0 0 Z " fill="#07485E" transform="translate(181,0)"/>
<path d="M0 0 C-7.68118049 15.52290012 -15.63947836 30.87395889 -23.82421875 46.13671875 C-24.32464943 47.07005539 -24.32464943 47.07005539 -24.83518982 48.02224731 C-26.4955887 51.11823603 -28.15769812 54.21328523 -29.82299805 57.30664062 C-31.55699954 60.53341106 -33.28240593 63.76447019 -35 67 C-35.43989258 67.82580566 -35.87978516 68.65161133 -36.33300781 69.50244141 C-38.4501472 73.53459646 -38.4501472 73.53459646 -39 78 C-35.21179916 80.00661684 -31.41888948 82.0041624 -27.625 84 C-26.00464844 84.85851562 -26.00464844 84.85851562 -24.3515625 85.734375 C-23.3203125 86.27578125 -22.2890625 86.8171875 -21.2265625 87.375 C-20.27346191 87.87773437 -19.32036133 88.38046875 -18.33837891 88.8984375 C-16.12925941 90.14205363 -16.12925941 90.14205363 -14 90 C-8.72 79.77 -3.44 69.54 2 59 C2.33 59 2.66 59 3 59 C3 72.53 3 86.06 3 100 C7.95 100 12.9 100 18 100 C18 202.96 18 305.92 18 412 C-24.97214486 412 -67.80866708 410.42145596 -106 389 C-106.98097656 388.45859375 -107.96195313 387.9171875 -108.97265625 387.359375 C-121.73014224 379.79666388 -131.58332375 369.05673513 -140 357 C-140.84304687 355.80697266 -140.84304687 355.80697266 -141.703125 354.58984375 C-149.90152705 342.01176902 -154.37396727 326.66151418 -157 312 C-157.26490234 310.56708618 -157.26490234 310.56708618 -157.53515625 309.10522461 C-159.29681626 298.43538471 -159.39788637 287.85376899 -159.375 277.0625 C-159.37445618 276.09634766 -159.37391235 275.13019531 -159.37335205 274.13476562 C-159.32871593 256.80024037 -158.09597498 240.08676602 -155 223 C-154.78569336 221.81599609 -154.57138672 220.63199219 -154.35058594 219.41210938 C-142.45104839 155.84398302 -115.70874438 93.8835026 -73 45 C-72.2059375 44.0821875 -71.411875 43.164375 -70.59375 42.21875 C-66.03350062 37.03380893 -61.33329375 32.37781767 -56 28 C-55.48727539 27.56429687 -54.97455078 27.12859375 -54.44628906 26.6796875 C-43.31022455 17.21940782 -15.60559335 -5.20186445 0 0 Z " fill="#0A789C" transform="translate(238,100)"/>
<path d="M0 0 C24.75 0 49.5 0 75 0 C75 32.34 75 64.68 75 98 C58.06995231 98 58.06995231 98 53.25 93.8125 C52.72672119 93.36253662 52.20344238 92.91257324 51.66430664 92.44897461 C50.05106093 91.01587345 48.51997423 89.53133575 47 88 C46.5261084 87.52369141 46.0522168 87.04738281 45.56396484 86.55664062 C28.24910228 68.6058702 16.96197662 44.57592007 7.5 21.8125 C7.23815918 21.1849884 6.97631836 20.55747681 6.70654297 19.91094971 C3.9417301 13.25195119 1.76007393 7.04029571 0 0 Z " fill="#0A789D" transform="translate(181,0)"/>
<path d="M0 0 C4.13585402 0.57901956 7.74133771 1.52042122 11.6171875 3.06640625 C12.63554687 3.46923828 13.65390625 3.87207031 14.703125 4.28710938 C15.74984375 4.70798828 16.7965625 5.12886719 17.875 5.5625 C19.47988281 6.19961914 19.47988281 6.19961914 21.1171875 6.84960938 C23.74694526 7.89446849 26.37440342 8.94473782 29 10 C28.57589844 11.2478125 28.15179688 12.495625 27.71484375 13.78125 C17.3148823 45.06043024 7.36185143 82.35296196 20.87890625 114.16015625 C21.92090017 116.79963214 22.48560789 119.22123104 23 122 C19.96133765 123.94224243 16.91854976 125.87792695 13.875 127.8125 C12.59109375 128.63331055 12.59109375 128.63331055 11.28125 129.47070312 C6.94363771 132.22341861 2.65615599 134.82458286 -2 137 C-22.20543663 99.23741211 -18.07135162 57.93168127 -6 18 C-4.11249245 11.96040676 -2.10120766 5.96832387 0 0 Z " fill="#07485E" transform="translate(140,291)"/>
<path d="M0 0 C5.61 0 11.22 0 17 0 C17 33.66 17 67.32 17 102 C12.05 102 7.1 102 2 102 C1.67 89.13 1.34 76.26 1 63 C-3.81217921 72.49346058 -3.81217921 72.49346058 -8.6027832 81.99780273 C-9.20966864 83.18513238 -9.81728491 84.37208888 -10.42578125 85.55859375 C-10.88857483 86.49016296 -10.88857483 86.49016296 -11.36071777 87.44055176 C-13.6577846 91.8859282 -13.6577846 91.8859282 -17 93 C-21.03979677 91.46675583 -24.80563195 89.3259712 -28.625 87.3125 C-29.70007813 86.76916016 -30.77515625 86.22582031 -31.8828125 85.66601562 C-32.90375 85.13298828 -33.9246875 84.59996094 -34.9765625 84.05078125 C-35.91580566 83.56262939 -36.85504883 83.07447754 -37.82275391 82.5715332 C-40 81 -40 81 -41.01831055 79.24316406 C-40.98976479 75.74611899 -39.35058209 73.06577909 -37.73046875 70.05859375 C-37.37883667 69.3832811 -37.02720459 68.70796844 -36.66491699 68.01219177 C-35.51709876 65.81447726 -34.35252703 63.62613304 -33.1875 61.4375 C-32.39255694 59.92325483 -31.59869603 58.40844107 -30.8059082 56.89306641 C-28.88306223 53.22366808 -26.94750628 49.56118054 -25.00683594 45.90118408 C-23.68502719 43.40524443 -22.37292275 40.90427697 -21.0625 38.40234375 C-19.52118998 35.46115076 -17.97277634 32.52392152 -16.41796875 29.58984375 C-14.52453574 26.00943182 -12.65955297 22.41493127 -10.80078125 18.81640625 C-10.25268799 17.75760254 -9.70459473 16.69879883 -9.13989258 15.60791016 C-8.06765445 13.53494836 -6.99835621 11.46046258 -5.93237305 9.38427734 C-5.20787964 7.98556396 -5.20787964 7.98556396 -4.46875 6.55859375 C-3.82583008 5.31033813 -3.82583008 5.31033813 -3.16992188 4.03686523 C-2 2 -2 2 0 0 Z " fill="#07485E" transform="translate(239,98)"/>
<path d="M0 0 C15.06565657 0 15.06565657 0 19 2 C21.04684417 4.70613025 22.33458694 7.65114723 23.6875 10.75 C24.55070047 12.59692076 25.41803432 14.4419142 26.2890625 16.28515625 C26.95663574 17.71432373 26.95663574 17.71432373 27.63769531 19.17236328 C29.77425886 23.60707278 32.16641958 27.88915066 34.5625 32.1875 C39.52059499 41.19661991 44.37251394 50.26037852 49.13375854 59.37490845 C49.9168114 60.86967271 50.70416122 62.36219415 51.49588013 63.85238647 C52.6092714 65.95036072 53.70680008 68.05591669 54.80078125 70.1640625 C55.13970398 70.79541611 55.47862671 71.42676971 55.82781982 72.07725525 C57.07301765 74.50956629 57.99674327 76.47658 58.01391602 79.23657227 C56.51031645 81.8516697 54.63669472 82.66823355 51.9765625 84.05078125 C50.955625 84.58380859 49.9346875 85.11683594 48.8828125 85.66601562 C47.80773437 86.20935547 46.73265625 86.75269531 45.625 87.3125 C44.55765625 87.87517578 43.4903125 88.43785156 42.390625 89.01757812 C36.47810785 92.05947139 36.47810785 92.05947139 34 93 C30.45088527 91.81696176 30.01706366 90.64597917 28.36071777 87.44055176 C28.05218872 86.81950562 27.74365967 86.19845947 27.42578125 85.55859375 C27.13392944 84.98951294 26.84207764 84.42043213 26.54138184 83.83410645 C25.45433185 81.70736787 24.38443941 79.57189466 23.3125 77.4375 C20.899375 72.673125 18.48625 67.90875 16 63 C15.67 75.87 15.34 88.74 15 102 C10.05 102 5.1 102 0 102 C0 68.34 0 34.68 0 0 Z " fill="#03232E" transform="translate(256,98)"/>
</svg>
