<?xml version="1.0" encoding="UTF-8"?>
<svg version="1.1" xmlns="http://www.w3.org/2000/svg" width="512" height="512">
<path d="M0 0 C21.78 0 43.56 0 66 0 C65.6875 30.875 65.6875 30.875 65.48706055 40.50341797 C65.39637324 56.71191171 66.74221011 68.20462218 78.42507935 80.33630371 C80.5441412 82.57481353 82.30619027 85.01481565 84.0859375 87.52734375 C84.64015381 88.27024658 85.19437012 89.01314941 85.76538086 89.77856445 C96.56312869 104.26127097 96.56312869 104.26127097 101 112 C101.59167969 113.02480469 102.18335938 114.04960938 102.79296875 115.10546875 C110.27699049 128.97245146 114.13212086 144.54349267 114.12025452 160.30200195 C114.12153615 161.33518492 114.12153615 161.33518492 114.12284368 162.38924026 C114.12447659 164.67228131 114.11901339 166.9552471 114.11352539 169.23828125 C114.11324302 170.88476052 114.11340223 172.53123992 114.1139679 174.17771912 C114.11425392 178.62959386 114.10838871 183.08144148 114.10139394 187.53330994 C114.09512793 192.19245261 114.09455403 196.85159595 114.09336853 201.51074219 C114.09026478 210.325516 114.08206429 219.14027736 114.07201904 227.9550457 C114.06082819 237.9937326 114.05533997 248.0324201 114.05032361 258.07111168 C114.03988087 278.71408294 114.02154729 299.35703714 114 320 C134.79 320 155.58 320 177 320 C177 383.36 177 446.72 177 512 C8.04 512 -160.92 512 -335 512 C-335 448.64 -335 385.28 -335 320 C-314.21 320 -293.42 320 -272 320 C-272 256.97 -272 193.94 -272 129 C-218.54 129 -165.08 129 -110 129 C-109.67 149.13 -109.34 169.26 -109 190 C-105.37 187.69 -101.74 185.38 -98 183 C-86.48828703 178.11146435 -72.59128495 178.36474782 -60.87109375 182.5390625 C-56.67838829 184.67249358 -52.8652123 187.32763649 -49 190 C-48.98018066 189.08935791 -48.96036133 188.17871582 -48.93994141 187.24047852 C-48.16875405 153.54470372 -46.30924407 125.87408654 -25.44042969 97.93945312 C-22.75374301 94.32198889 -20.13352044 90.65623926 -17.5 87 C-16.48962182 85.6041388 -15.47920469 84.20830581 -14.46875 82.8125 C-13.94394043 82.04566895 -13.41913086 81.27883789 -12.87841797 80.48876953 C-11 78 -11 78 -8.40673828 75.47607422 C2.98469103 63.65829961 0.30899034 46.35191865 0.125 31.125 C0.063125 15.718125 0.063125 15.718125 0 0 Z " fill="#F57D47" transform="translate(335,0)"/>
<path d="M0 0 C21.78 0 43.56 0 66 0 C65.6875 30.875 65.6875 30.875 65.48706055 40.50341797 C65.39637324 56.71191171 66.74221011 68.20462218 78.42507935 80.33630371 C80.5441412 82.57481353 82.30619027 85.01481565 84.0859375 87.52734375 C84.64015381 88.27024658 85.19437012 89.01314941 85.76538086 89.77856445 C96.56312869 104.26127097 96.56312869 104.26127097 101 112 C101.59167969 113.02480469 102.18335938 114.04960938 102.79296875 115.10546875 C133.3029636 171.63678117 114 294.48060836 114 321 C-13.38 321 -140.76 321 -272 321 C-272 257.64 -272 194.28 -272 129 C-218.54 129 -165.08 129 -110 129 C-109.67 149.13 -109.34 169.26 -109 190 C-105.37 187.69 -101.74 185.38 -98 183 C-86.48828703 178.11146435 -72.59128495 178.36474782 -60.87109375 182.5390625 C-56.67838829 184.67249358 -52.8652123 187.32763649 -49 190 C-48.98018066 189.08935791 -48.96036133 188.17871582 -48.93994141 187.24047852 C-48.16875405 153.54470372 -46.30924407 125.87408654 -25.44042969 97.93945312 C-22.75374301 94.32198889 -20.13352044 90.65623926 -17.5 87 C-16.48962182 85.6041388 -15.47920469 84.20830581 -14.46875 82.8125 C-13.94394043 82.04566895 -13.41913086 81.27883789 -12.87841797 80.48876953 C-11 78 -11 78 -8.40673828 75.47607422 C2.98469103 63.65829961 0.30899034 46.35191865 0.125 31.125 C0.063125 15.718125 0.063125 15.718125 0 0 Z " fill="#5ED9F4" transform="translate(335,0)"/>
<path d="M0 0 C72.70811717 0 72.70811717 0 108.4895401 0.20263672 C113.21832158 0.22907946 117.94711257 0.25359042 122.67590332 0.27832031 C136.26311199 0.35039438 149.85030524 0.42535078 163.4375 0.5 C209.2559375 0.7475 209.2559375 0.7475 256 1 C256 64.03 256 127.06 256 192 C171.52 192 87.04 192 0 192 C0 128.64 0 65.28 0 0 Z " fill="#F89A4F" transform="translate(0,320)"/>
<path d="M0 0 C53.46 0 106.92 0 162 0 C162 73.65168539 162 73.65168539 161.78125 98.25 C161.7611587 100.72656061 161.74130547 103.20312316 161.72167969 105.6796875 C161.65060853 114.45314831 161.57508956 123.22657266 161.5 132 C161.335 151.8 161.17 171.6 161 192 C107.87 192 54.74 192 0 192 C0 128.64 0 65.28 0 0 Z " fill="#DBDADA" transform="translate(63,129)"/>
<path d="M0 0 C63.36 0 126.72 0 192 0 C192 31.68 192 63.36 192 96 C128.64 96 65.28 96 0 96 C0 64.32 0 32.64 0 0 Z " fill="#F1563C" transform="translate(256,416)"/>
<path d="M0 0 C63.36 0 126.72 0 192 0 C192 31.68 192 63.36 192 96 C128.64 96 65.28 96 0 96 C0 64.32 0 32.64 0 0 Z " fill="#F57D47" transform="translate(64,416)"/>
<path d="M0 0 C53.13 0 106.26 0 161 0 C161 31.68 161 63.36 161 96 C107.87 96 54.74 96 0 96 C0 64.32 0 32.64 0 0 Z " fill="#43C1F8" transform="translate(288,225)"/>
<path d="M0 0 C20.79 0 41.58 0 63 0 C63 63.36 63 126.72 63 192 C41.88 192 20.76 192 -1 192 C-1.02254453 167.11396292 -1.04097771 142.22793407 -1.05181217 117.34188938 C-1.05697576 105.787737 -1.06401965 94.23359139 -1.07543945 82.67944336 C-1.08538437 72.61275651 -1.09185297 62.54607456 -1.09408849 52.47938293 C-1.09539593 47.14563289 -1.09848384 41.81189688 -1.10573006 36.47815132 C-1.11248725 31.46402341 -1.11461758 26.44991541 -1.11310768 21.43578339 C-1.11338415 19.58982421 -1.11539104 17.74386442 -1.11920547 15.89790916 C-1.12413803 13.3890322 -1.12299992 10.88023167 -1.12025452 8.37135315 C-1.12316736 7.63109487 -1.1260802 6.89083658 -1.12908131 6.12814623 C-1.11412121 1.11412121 -1.11412121 1.11412121 0 0 Z " fill="#F7994E" transform="translate(449,320)"/>
<path d="M0 0 C20.79 0 41.58 0 63 0 C64.70589706 1.70589706 64.12229238 3.85276894 64.12908131 6.12814623 C64.12616847 6.86840451 64.12325563 7.6086628 64.12025452 8.37135315 C64.12110894 9.15216608 64.12196337 9.932979 64.12284368 10.73745292 C64.12450086 13.3739009 64.11897326 16.01028632 64.11352539 18.64672852 C64.11324354 20.52862547 64.1134012 22.41052254 64.1139679 24.29241943 C64.11425597 29.41823935 64.10835767 34.54403608 64.10139394 39.66985059 C64.09516202 45.02037264 64.09455673 50.37089517 64.09336853 55.72142029 C64.09025474 65.86098358 64.0820407 76.00053614 64.07201904 86.1400947 C64.06085939 97.68040474 64.05534783 109.22071528 64.05032361 120.76102936 C64.03985812 144.50736023 64.02151205 168.25367639 64 192 C42.88 192 21.76 192 0 192 C0 128.64 0 65.28 0 0 Z " fill="#F9B656" transform="translate(0,320)"/>
<path d="M0 0 C53.46 0 106.92 0 162 0 C162 21.12 162 42.24 162 64 C108.54 64 55.08 64 0 64 C0 42.88 0 21.76 0 0 Z " fill="#DADBDB" transform="translate(63,129)"/>
<path d="M0 0 C53.13 0 106.26 0 161 0 C161 21.12 161 42.24 161 64 C107.87 64 54.74 64 0 64 C0 42.88 0 21.76 0 0 Z " fill="#C5C6CE" transform="translate(63,193)"/>
<path d="M0 0 C3.91875 2.91875 3.91875 2.91875 5.3125 4.3125 C5.40864133 5.98274669 5.43437722 7.65708276 5.43275452 9.33009338 C5.43481651 10.96029419 5.43481651 10.96029419 5.43692017 12.62342834 C5.43152725 14.42740334 5.43152725 14.42740334 5.42602539 16.26782227 C5.42617142 17.52617889 5.42631744 18.78453552 5.4264679 20.08102417 C5.42675585 23.54161253 5.42085949 27.00216652 5.41389394 30.46274686 C5.40766003 34.07558091 5.40705657 37.68841567 5.40586853 41.30125427 C5.40275532 48.14713508 5.39454208 54.993 5.38451904 61.8388738 C5.37127223 71.08655577 5.36585791 80.33424206 5.36001682 89.58193111 C5.35060218 104.15879932 5.3306832 118.73563399 5.3125 133.3125 C-15.8075 133.3125 -36.9275 133.3125 -58.6875 133.3125 C-58.88901517 101.41488747 -58.88901517 101.41488747 -58.93164062 88.05664062 C-58.96131854 78.8300183 -58.99622262 69.60362413 -59.06469727 60.37719727 C-59.11454164 53.65785002 -59.14679314 46.93868772 -59.15794247 40.21916074 C-59.16445966 36.66128373 -59.17976953 33.1039358 -59.21615028 29.54622841 C-59.25643926 25.5740939 -59.25744874 21.60247647 -59.25512695 17.63012695 C-59.27310333 16.4512088 -59.29107971 15.27229065 -59.30960083 14.05764771 C-59.2589072 6.06354106 -59.2589072 6.06354106 -56.26994324 2.13493347 C-55.41773697 1.53353043 -54.5655307 0.93212738 -53.6875 0.3125 C-52.75357422 -0.41839844 -52.75357422 -0.41839844 -51.80078125 -1.1640625 C-35.98962972 -11.24753007 -15.37497095 -10.53911972 0 0 Z " fill="#70C08F" transform="translate(282.6875,187.6875)"/>
<path d="M0 0 C12.76693541 0 21.07453543 3.07211321 31 11 C32 12 32 12 32.12304783 14.12207127 C32.12166514 15.5365626 32.12166514 15.5365626 32.12025452 16.97962952 C32.12162918 18.0580159 32.12300385 19.13640228 32.12442017 20.24746704 C32.11902725 22.03741592 32.11902725 22.03741592 32.11352539 23.86352539 C32.11367142 25.11212845 32.11381744 26.36073151 32.1139679 27.64717102 C32.11338891 31.08090994 32.10835955 34.51458938 32.10139394 37.94831777 C32.09515998 41.53312459 32.09455657 45.11793213 32.09336853 48.70274353 C32.09025534 55.49550045 32.08204212 62.28824135 32.07201904 69.08099121 C32.06085753 76.81242494 32.05534736 84.54385942 32.05032361 92.27529919 C32.03985949 108.18354366 32.02151416 124.09176606 32 140 C21.44 140 10.88 140 0 140 C0 93.8 0 47.6 0 0 Z " fill="#5EAA9F" transform="translate(256,180)"/>
<path d="M0 0 C21.78 0 43.56 0 66 0 C66 21.12 66 42.24 66 64 C44.22 64 22.44 64 0 64 C0 42.88 0 21.76 0 0 Z " fill="#26ABFE" transform="translate(335,0)"/>
</svg>
