<?xml version="1.0" encoding="UTF-8"?>
<svg version="1.1" xmlns="http://www.w3.org/2000/svg" width="512" height="512">
<path d="M0 0 C0.83106766 -0.0065712 1.66213531 -0.0131424 2.51838684 -0.01991272 C5.27552373 -0.03966371 8.03260612 -0.05131218 10.78979492 -0.0612793 C11.73052038 -0.06535482 12.67124584 -0.06943035 13.64047813 -0.07362938 C18.61936601 -0.09449761 23.59822627 -0.10879617 28.57714844 -0.11816406 C33.72219671 -0.1292313 38.86681282 -0.16363267 44.01170826 -0.20333576 C47.96568104 -0.2294696 51.91955035 -0.23785301 55.87360191 -0.24144554 C57.77022916 -0.24631972 59.66685153 -0.25795729 61.56339455 -0.27648354 C64.2183935 -0.30080687 66.87226771 -0.2999226 69.52734375 -0.29296875 C70.31038879 -0.30577881 71.09343384 -0.31858887 71.90020752 -0.33178711 C75.63424702 -0.29615149 77.74908574 0.04294431 80.92216492 2.08137512 C84.57339906 5.84028106 84.14898692 9.30017816 84.19604492 14.2902832 C84.20411667 15.0968486 84.21218842 15.903414 84.22050476 16.73442078 C84.23434511 18.44336803 84.24506749 20.15234292 84.25292969 21.86132812 C84.27012873 24.46904225 84.31401162 27.07548382 84.3581543 29.68286133 C84.36828264 31.3436593 84.3767983 33.00446805 84.38354492 34.6652832 C84.40105301 35.4425325 84.4185611 36.2197818 84.43659973 37.02058411 C84.42157954 40.78868662 84.10828543 42.94195302 82.05615234 46.14648438 C79.15476328 48.95402979 78.4737671 49.16810534 74.33276367 49.23950195 C73.21901367 49.21887695 72.10526367 49.19825195 70.95776367 49.17700195 C70.14548729 55.81129028 69.70023799 62.58390243 73.38354492 68.44628906 C78.0175974 74.14609789 83.52010694 79.01275603 88.95776367 83.92700195 C92.14123171 86.8833086 95.30321661 89.86175167 98.45776367 92.84887695 C99.21567703 93.56232773 99.97359039 94.2757785 100.75447083 95.010849 C116.64441328 110.21609102 127.53987674 132.24251288 128.16088867 154.45043945 C128.44289017 176.19668121 124.96507731 194.55210326 114.39526367 213.61450195 C103.92934084 232.51070165 101.32285812 253.27999566 106.95776367 274.17700195 C108.57178336 279.03288136 110.52543057 283.74203714 112.53198242 288.4465332 C112.86781845 289.27089874 113.20365448 290.09526428 113.54966736 290.9446106 C114.59351223 293.34083528 115.68933275 295.57091499 116.9122467 297.86975098 C124.76069226 313.6090113 124.07563448 329.87732678 123.90064144 347.00557685 C123.86500548 351.24000291 123.87255863 355.47439308 123.87408447 359.7089386 C123.87036395 366.80203233 123.83596396 373.89443233 123.78100586 380.98730469 C123.717863 389.16631887 123.69702406 397.34457932 123.69994807 405.52381963 C123.70265504 414.28187222 123.67489596 423.03963815 123.63816166 431.79760385 C123.62967182 434.30393532 123.62680201 436.81022004 123.62520599 439.31656456 C123.6211694 443.25767959 123.5966005 447.19816986 123.55654144 451.13907814 C123.54492884 452.57851456 123.53992214 454.0180229 123.54225159 455.45750427 C123.55385993 467.00333582 121.75585028 474.90685286 113.82495117 483.45043945 C106.62523772 490.10791507 98.54947571 490.79646897 89.15307617 490.58325195 C81.36139608 490.08719228 74.57760791 486.39237231 69.39526367 480.61450195 C67.37265442 477.92962242 65.56836394 475.12976911 63.95776367 472.17700195 C63.68963867 472.67329102 63.42151367 473.16958008 63.14526367 473.6809082 C59.08879637 480.71300778 53.4745256 487.24314686 45.47338867 489.73168945 C35.42673488 491.51013438 26.51870353 491.19277286 17.52416992 486.02856445 C12.3517291 482.29684916 8.6505243 477.9472033 5.95776367 472.17700195 C5.55686523 472.82926758 5.1559668 473.4815332 4.74291992 474.15356445 C-0.31354212 481.92744487 -6.0827824 487.30687386 -15.04223633 490.17700195 C-25.10600298 491.10663024 -34.71711107 491.00954446 -43.06176758 484.6340332 C-48.39406483 479.72831973 -52.79234609 472.84905302 -53.18763065 465.45864964 C-53.19709941 464.35174243 -53.20656816 463.24483522 -53.21632385 462.10438538 C-53.2292598 460.83338486 -53.24219574 459.56238434 -53.25552368 458.25286865 C-53.26474415 456.8409434 -53.27380238 455.42901708 -53.28271484 454.01708984 C-53.29552935 452.53187288 -53.3086649 451.04665865 -53.32209778 449.56144714 C-53.43839413 435.95118907 -53.49474462 422.3401939 -53.53886509 408.72953129 C-53.57197216 398.68740214 -53.63125991 388.64618619 -53.72637612 378.60444838 C-53.7911257 371.52559055 -53.82446625 364.44697831 -53.83561462 357.36783594 C-53.84311378 353.15144044 -53.86376098 348.93614667 -53.91864204 344.72007942 C-54.33092151 311.58648184 -54.33092151 311.58648184 -45.97546387 295.94339943 C-44.69053815 293.51131352 -43.65288493 290.99249295 -42.61645508 288.4465332 C-42.29612305 287.69549316 -41.97579102 286.94445312 -41.64575195 286.1706543 C-32.59111469 264.6103853 -31.6184819 243.27583058 -40.52661133 221.43481445 C-42.18943764 217.86059501 -44.06261564 214.43054582 -45.97973633 210.98950195 C-49.0464484 205.46653051 -51.41730662 199.92049209 -53.41723633 193.92700195 C-53.65563232 193.21906494 -53.89402832 192.51112793 -54.13964844 191.78173828 C-61.37966356 169.07334848 -60.46662723 142.59242116 -49.65551758 121.18481445 C-49.12313477 120.19223633 -48.59075195 119.1996582 -48.04223633 118.17700195 C-47.54079102 117.18442383 -47.0393457 116.1918457 -46.52270508 115.16918945 C-43.51805334 109.56927891 -40.02142099 104.76423245 -35.68676758 100.13012695 C-35.16789474 99.57077454 -34.64902191 99.01142212 -34.11442566 98.43511963 C-30.23400642 94.30953448 -26.1671571 90.43106108 -21.99926758 86.59887695 C-20.21631752 84.93280755 -18.4358385 83.26414154 -16.65625 81.59448242 C-15.44812675 80.47624393 -14.22712114 79.37177539 -12.99414062 78.28100586 C-6.59300089 72.58941648 -1.59810319 68.03344883 -0.81486511 59.15899658 C-0.70963552 55.80276105 -0.80233541 52.52701983 -1.04223633 49.17700195 C-2.13793945 49.21567383 -3.23364258 49.2543457 -4.36254883 49.29418945 C-8.70796431 49.15580043 -10.02249037 48.19674791 -13.04223633 45.17700195 C-14.63180992 41.99785478 -14.24757354 38.55715813 -14.28051758 35.0637207 C-14.28858932 34.2571553 -14.29666107 33.4505899 -14.30497742 32.61958313 C-14.31881776 30.91063588 -14.32954015 29.20166099 -14.33740234 27.49267578 C-14.35460139 24.88496166 -14.39848427 22.27852008 -14.44262695 19.67114258 C-14.4527553 18.0103446 -14.46127096 16.34953586 -14.46801758 14.6887207 C-14.48552567 13.91147141 -14.50303375 13.13422211 -14.52107239 12.3334198 C-14.5060522 8.56531728 -14.19275808 6.41205088 -12.140625 3.20751953 C-8.37791434 -0.43348857 -4.98233405 0.01697721 0 0 Z " fill="#464545" transform="translate(221.042236328125,10.822998046875)"/>
<path d="M0 0 C0.83106766 -0.0065712 1.66213531 -0.0131424 2.51838684 -0.01991272 C5.27552373 -0.03966371 8.03260612 -0.05131218 10.78979492 -0.0612793 C11.73052038 -0.06535482 12.67124584 -0.06943035 13.64047813 -0.07362938 C18.61936601 -0.09449761 23.59822627 -0.10879617 28.57714844 -0.11816406 C33.72219671 -0.1292313 38.86681282 -0.16363267 44.01170826 -0.20333576 C47.96568104 -0.2294696 51.91955035 -0.23785301 55.87360191 -0.24144554 C57.77022916 -0.24631972 59.66685153 -0.25795729 61.56339455 -0.27648354 C64.2183935 -0.30080687 66.87226771 -0.2999226 69.52734375 -0.29296875 C70.31038879 -0.30577881 71.09343384 -0.31858887 71.90020752 -0.33178711 C75.63424702 -0.29615149 77.74908574 0.04294431 80.92216492 2.08137512 C84.57339906 5.84028106 84.14898692 9.30017816 84.19604492 14.2902832 C84.20411667 15.0968486 84.21218842 15.903414 84.22050476 16.73442078 C84.23434511 18.44336803 84.24506749 20.15234292 84.25292969 21.86132812 C84.27012873 24.46904225 84.31401162 27.07548382 84.3581543 29.68286133 C84.36828264 31.3436593 84.3767983 33.00446805 84.38354492 34.6652832 C84.40105301 35.4425325 84.4185611 36.2197818 84.43659973 37.02058411 C84.42157954 40.78868662 84.10828543 42.94195302 82.05615234 46.14648438 C79.15476328 48.95402979 78.4737671 49.16810534 74.33276367 49.23950195 C73.21901367 49.21887695 72.10526367 49.19825195 70.95776367 49.17700195 C70.14548729 55.81129028 69.70023799 62.58390243 73.38354492 68.44628906 C78.0175974 74.14609789 83.52010694 79.01275603 88.95776367 83.92700195 C92.14123171 86.8833086 95.30321661 89.86175167 98.45776367 92.84887695 C99.21567703 93.56232773 99.97359039 94.2757785 100.75447083 95.010849 C116.64441328 110.21609102 127.53987674 132.24251288 128.16088867 154.45043945 C128.51125221 181.46834661 122.41082198 198.961497 108.95776367 223.17700195 C60.11776367 223.17700195 11.27776367 223.17700195 -39.04223633 223.17700195 C-54.73112989 194.93699354 -64.09007347 167.26746586 -55.30395508 135.12231445 C-53.48682245 129.16511675 -50.98279603 123.65940139 -48.04223633 118.17700195 C-47.54079102 117.18442383 -47.0393457 116.1918457 -46.52270508 115.16918945 C-43.51805334 109.56927891 -40.02142099 104.76423245 -35.68676758 100.13012695 C-35.16789474 99.57077454 -34.64902191 99.01142212 -34.11442566 98.43511963 C-30.23400642 94.30953448 -26.1671571 90.43106108 -21.99926758 86.59887695 C-20.21631752 84.93280755 -18.4358385 83.26414154 -16.65625 81.59448242 C-15.44812675 80.47624393 -14.22712114 79.37177539 -12.99414062 78.28100586 C-6.59300089 72.58941648 -1.59810319 68.03344883 -0.81486511 59.15899658 C-0.70963552 55.80276105 -0.80233541 52.52701983 -1.04223633 49.17700195 C-2.13793945 49.21567383 -3.23364258 49.2543457 -4.36254883 49.29418945 C-8.70796431 49.15580043 -10.02249037 48.19674791 -13.04223633 45.17700195 C-14.63180992 41.99785478 -14.24757354 38.55715813 -14.28051758 35.0637207 C-14.28858932 34.2571553 -14.29666107 33.4505899 -14.30497742 32.61958313 C-14.31881776 30.91063588 -14.32954015 29.20166099 -14.33740234 27.49267578 C-14.35460139 24.88496166 -14.39848427 22.27852008 -14.44262695 19.67114258 C-14.4527553 18.0103446 -14.46127096 16.34953586 -14.46801758 14.6887207 C-14.48552567 13.91147141 -14.50303375 13.13422211 -14.52107239 12.3334198 C-14.5060522 8.56531728 -14.19275808 6.41205088 -12.140625 3.20751953 C-8.37791434 -0.43348857 -4.98233405 0.01697721 0 0 Z " fill="#FB6459" transform="translate(221.042236328125,10.822998046875)"/>
<path d="M0 0 C0.83106766 -0.0065712 1.66213531 -0.0131424 2.51838684 -0.01991272 C5.27552373 -0.03966371 8.03260612 -0.05131218 10.78979492 -0.0612793 C11.73052038 -0.06535482 12.67124584 -0.06943035 13.64047813 -0.07362938 C18.61936601 -0.09449761 23.59822627 -0.10879617 28.57714844 -0.11816406 C33.72219671 -0.1292313 38.86681282 -0.16363267 44.01170826 -0.20333576 C47.96568104 -0.2294696 51.91955035 -0.23785301 55.87360191 -0.24144554 C57.77022916 -0.24631972 59.66685153 -0.25795729 61.56339455 -0.27648354 C64.2183935 -0.30080687 66.87226771 -0.2999226 69.52734375 -0.29296875 C70.31038879 -0.30577881 71.09343384 -0.31858887 71.90020752 -0.33178711 C75.63424702 -0.29615149 77.74908574 0.04294431 80.92216492 2.08137512 C84.57339906 5.84028106 84.14898692 9.30017816 84.19604492 14.2902832 C84.20411667 15.0968486 84.21218842 15.903414 84.22050476 16.73442078 C84.23434511 18.44336803 84.24506749 20.15234292 84.25292969 21.86132812 C84.27012873 24.46904225 84.31401162 27.07548382 84.3581543 29.68286133 C84.36828264 31.3436593 84.3767983 33.00446805 84.38354492 34.6652832 C84.40105301 35.4425325 84.4185611 36.2197818 84.43659973 37.02058411 C84.42157954 40.78868662 84.10828543 42.94195302 82.05615234 46.14648438 C79.15476328 48.95402979 78.4737671 49.16810534 74.33276367 49.23950195 C73.21901367 49.21887695 72.10526367 49.19825195 70.95776367 49.17700195 C70.1242396 55.84466661 69.70584103 62.5903182 73.40496826 68.48199463 C78.09178115 74.27696833 83.64732511 79.23249893 89.14526367 84.23950195 C91.58191425 86.53064478 94.0071268 88.83330706 96.42951965 91.13951111 C97.93128644 92.56133398 99.44330765 93.97243639 100.96733093 95.37037659 C105.49314218 99.55989634 109.71543254 103.89004106 112.95776367 109.17700195 C112.95776367 109.83700195 112.95776367 110.49700195 112.95776367 111.17700195 C61.47776367 111.17700195 9.99776367 111.17700195 -43.04223633 111.17700195 C-41.16397613 106.48135146 -39.18232589 103.74760531 -35.80395508 100.19262695 C-35.27662277 99.62876282 -34.74929047 99.06489868 -34.20597839 98.48394775 C-30.28894309 94.35128959 -26.18760728 90.45361425 -21.99926758 86.59887695 C-20.2164099 84.93270974 -18.43583802 83.26414109 -16.65625 81.59448242 C-15.44812675 80.47624393 -14.22712114 79.37177539 -12.99414062 78.28100586 C-6.59300089 72.58941648 -1.59810319 68.03344883 -0.81486511 59.15899658 C-0.70963552 55.80276105 -0.80233541 52.52701983 -1.04223633 49.17700195 C-2.13793945 49.21567383 -3.23364258 49.2543457 -4.36254883 49.29418945 C-8.70796431 49.15580043 -10.02249037 48.19674791 -13.04223633 45.17700195 C-14.63180992 41.99785478 -14.24757354 38.55715813 -14.28051758 35.0637207 C-14.28858932 34.2571553 -14.29666107 33.4505899 -14.30497742 32.61958313 C-14.31881776 30.91063588 -14.32954015 29.20166099 -14.33740234 27.49267578 C-14.35460139 24.88496166 -14.39848427 22.27852008 -14.44262695 19.67114258 C-14.4527553 18.0103446 -14.46127096 16.34953586 -14.46801758 14.6887207 C-14.48552567 13.91147141 -14.50303375 13.13422211 -14.52107239 12.3334198 C-14.5060522 8.56531728 -14.19275808 6.41205088 -12.140625 3.20751953 C-8.37791434 -0.43348857 -4.98233405 0.01697721 0 0 Z " fill="#464545" transform="translate(221.042236328125,10.822998046875)"/>
<path d="M0 0 C5.61 0 11.22 0 17 0 C15.0625 7.5 15.0625 7.5 14.45727539 9.81054688 C9.5074367 29.30069258 12.81704176 47.08230693 20.57421875 65.26953125 C21.07797279 66.50607956 21.07797279 66.50607956 21.59190369 67.76760864 C22.63574856 70.16383333 23.73156908 72.39391303 24.95448303 74.69274902 C32.80292859 90.43200935 32.11787081 106.70032483 31.94287777 123.8285749 C31.90724181 128.06300096 31.91479496 132.29739112 31.9163208 136.53193665 C31.91260028 143.62503038 31.87820029 150.71743038 31.82324219 157.81030273 C31.76009933 165.98931692 31.73926039 174.16757736 31.7421844 182.34681767 C31.74489136 191.10487027 31.71713229 199.86263619 31.68039799 208.62060189 C31.67190815 211.12693337 31.66903834 213.63321809 31.66744232 216.13956261 C31.66340573 220.08067764 31.63883683 224.02116791 31.59877777 227.96207619 C31.58716517 229.4015126 31.58215847 230.84102095 31.58448792 232.28050232 C31.59609626 243.82633386 29.79808661 251.7298509 21.8671875 260.2734375 C14.66747405 266.93091312 6.59171204 267.61946701 -2.8046875 267.40625 C-10.5963676 266.91019033 -17.38015576 263.21537035 -22.5625 257.4375 C-24.58510925 254.75262047 -26.38939973 251.95276715 -28 249 C-28.268125 249.49628906 -28.53625 249.99257813 -28.8125 250.50390625 C-32.86896731 257.53600582 -38.48323807 264.06614491 -46.484375 266.5546875 C-56.53102879 268.33313243 -65.43906015 268.01577091 -74.43359375 262.8515625 C-79.60603457 259.1198472 -83.30723937 254.77020135 -86 249 C-86.40089844 249.65226563 -86.80179688 250.30453125 -87.21484375 250.9765625 C-92.27130579 258.75044292 -98.04054607 264.1298719 -107 267 C-117.06376665 267.92962828 -126.67487474 267.83254251 -135.01953125 261.45703125 C-140.18046368 256.70897342 -144.76729897 249.83767918 -145.11352539 242.63989258 C-145.10828857 241.73392334 -145.10305176 240.8279541 -145.09765625 239.89453125 C-145.09443359 238.91162109 -145.09121094 237.92871094 -145.08789062 236.91601562 C-145.07951172 235.89185547 -145.07113281 234.86769531 -145.0625 233.8125 C-145.05798828 232.77673828 -145.05347656 231.74097656 -145.04882812 230.67382812 C-145.0370401 228.11582734 -145.02058515 225.55794267 -145 223 C-143 226 -143 226 -141.875 229.625 C-139.37400562 236.40269478 -134.31688286 242.14971106 -127.9375 245.5625 C-120.48634948 248.32456442 -112.09500197 248.32292872 -104.578125 245.89453125 C-95.88184124 241.8600613 -90.84316649 236.75387924 -87 228 C-85.00660712 229.79405359 -83.72876239 231.44201685 -82.3125 233.75 C-77.36959495 240.69678548 -71.52099058 245.51284598 -63 247 C-54.2830581 247.82741026 -46.53264208 247.36422768 -39.36328125 242.04296875 C-34.44314497 237.82673518 -30.75036578 233.87578145 -28 228 C-26.51901457 229.9429838 -25.07761522 231.88055477 -23.74609375 233.9296875 C-19.34517861 240.47194344 -13.47797149 244.50734284 -6 247 C-3.50732972 247.1219395 -1.05488198 247.18511037 1.4375 247.1875 C2.75621094 247.20167969 4.07492187 247.21585938 5.43359375 247.23046875 C9.56579139 246.99631012 9.56579139 246.99631012 13 245 C14.14110542 241.69811361 14.1381234 238.51647595 14.16062927 235.04595947 C14.1706749 233.82670273 14.18072052 232.60744598 14.19107056 231.35124207 C14.19710044 230.00271668 14.20298545 228.65419065 14.20874023 227.30566406 C14.21828357 225.88277458 14.22817494 224.4598874 14.23838806 223.03700256 C14.26974341 218.36323793 14.29004912 213.68945576 14.30859375 209.015625 C14.31353973 207.8196628 14.31353973 207.8196628 14.31858563 206.59953976 C14.34938588 199.06677925 14.37607119 191.53401454 14.39300442 184.00120926 C14.41484871 174.39873925 14.45668189 164.79683281 14.52644199 155.19458795 C14.57392041 148.42658847 14.59797021 141.65873963 14.6052013 134.89057899 C14.61012529 130.85785335 14.62488934 126.82576307 14.6649456 122.79322052 C15.16884966 99.6788751 15.16884966 99.6788751 8 78 C7.09522623 75.87630812 6.20357082 73.74692069 5.33203125 71.609375 C4.07358725 68.66977391 2.80584444 65.73476998 1.52539062 62.8046875 C-3.25190812 51.60069605 -5.54724258 41.3218444 -5.4375 29.125 C-5.43355225 27.99255859 -5.42960449 26.86011719 -5.42553711 25.69335938 C-5.26899835 16.56040359 -4.13819715 8.2763943 0 0 Z " fill="#2D2C2C" transform="translate(313,234)"/>
<path d="M0 0 C0.83106766 -0.0065712 1.66213531 -0.0131424 2.51838684 -0.01991272 C5.27552373 -0.03966371 8.03260612 -0.05131218 10.78979492 -0.0612793 C11.73052038 -0.06535482 12.67124584 -0.06943035 13.64047813 -0.07362938 C18.61936601 -0.09449761 23.59822627 -0.10879617 28.57714844 -0.11816406 C33.72219671 -0.1292313 38.86681282 -0.16363267 44.01170826 -0.20333576 C47.96568104 -0.2294696 51.91955035 -0.23785301 55.87360191 -0.24144554 C57.77022916 -0.24631972 59.66685153 -0.25795729 61.56339455 -0.27648354 C64.2183935 -0.30080687 66.87226771 -0.2999226 69.52734375 -0.29296875 C70.31038879 -0.30577881 71.09343384 -0.31858887 71.90020752 -0.33178711 C75.63424702 -0.29615149 77.74908574 0.04294431 80.92216492 2.08137512 C84.57339906 5.84028106 84.14898692 9.30017816 84.19604492 14.2902832 C84.20411667 15.0968486 84.21218842 15.903414 84.22050476 16.73442078 C84.23434511 18.44336803 84.24506749 20.15234292 84.25292969 21.86132812 C84.27012873 24.46904225 84.31401162 27.07548382 84.3581543 29.68286133 C84.36828264 31.3436593 84.3767983 33.00446805 84.38354492 34.6652832 C84.40105301 35.4425325 84.4185611 36.2197818 84.43659973 37.02058411 C84.42157954 40.78868662 84.10828543 42.94195302 82.05615234 46.14648438 C78.29344168 49.78749247 74.89786139 49.3370267 69.91552734 49.35400391 C68.66892586 49.3638607 68.66892586 49.3638607 67.3971405 49.37391663 C64.64000361 49.39366762 61.88292123 49.40531609 59.12573242 49.4152832 C58.18500696 49.41935873 57.2442815 49.42343426 56.27504921 49.42763329 C51.29616133 49.44850151 46.31730108 49.46280008 41.33837891 49.47216797 C36.19333063 49.48323521 31.04871452 49.51763658 25.90381908 49.55733967 C21.9498463 49.58347351 17.99597699 49.59185692 14.04192543 49.59544945 C12.14529819 49.60032362 10.24867582 49.6119612 8.3521328 49.63048744 C5.69713384 49.65481078 3.04325963 49.65392651 0.38818359 49.64697266 C-0.39486145 49.65978271 -1.17790649 49.67259277 -1.98468018 49.68579102 C-5.71871968 49.65015539 -7.8335584 49.3110596 -11.00663757 47.27262878 C-14.65787172 43.51372285 -14.23345958 40.05382575 -14.28051758 35.0637207 C-14.28858932 34.2571553 -14.29666107 33.4505899 -14.30497742 32.61958313 C-14.31881776 30.91063588 -14.32954015 29.20166099 -14.33740234 27.49267578 C-14.35460139 24.88496166 -14.39848427 22.27852008 -14.44262695 19.67114258 C-14.4527553 18.0103446 -14.46127096 16.34953586 -14.46801758 14.6887207 C-14.48552567 13.91147141 -14.50303375 13.13422211 -14.52107239 12.3334198 C-14.5060522 8.56531728 -14.19275808 6.41205088 -12.140625 3.20751953 C-8.37791434 -0.43348857 -4.98233405 0.01697721 0 0 Z " fill="#FB6559" transform="translate(221.042236328125,10.822998046875)"/>
<path d="M0 0 C52.14 0 104.28 0 158 0 C167.21783796 17.28344618 167.21783796 17.28344618 168.9375 24.0625 C169.13150391 24.75537109 169.32550781 25.44824219 169.52539062 26.16210938 C178.03254365 57.21763338 168.07840548 84.85887014 153 112 C104.16 112 55.32 112 5 112 C5 111.67 5 111.34 5 111 C48.56 111 92.12 111 137 111 C137.66 109.02 138.32 107.04 139 105 C139.89138805 103.22525442 140.78511483 101.45132319 141.71655273 99.69726562 C145.19667491 93.13987028 148.08396404 86.5429784 150.4375 79.5 C150.6840332 78.77135742 150.93056641 78.04271484 151.18457031 77.29199219 C158.73758185 53.79492785 154.22337761 27.81960878 144 6 C143.32665401 4.33602061 142.65889587 2.66975401 142 1 C123.81524366 1.0605036 105.63064288 1.13798148 87.44604874 1.23571491 C79.00278216 1.28069684 70.55955798 1.32010592 62.11621094 1.34643555 C54.75771649 1.36939628 47.39935597 1.40277261 40.0409677 1.44870156 C36.14407466 1.47265991 32.24731447 1.4913715 28.35034943 1.49761391 C24.68295528 1.50365305 21.01590118 1.52360997 17.34863281 1.55427551 C15.35988314 1.56727261 13.3710541 1.5654826 11.38226318 1.5632782 C10.19878296 1.57581635 9.01530273 1.58835449 7.79595947 1.60127258 C6.7672385 1.60588155 5.73851753 1.61049051 4.6786232 1.61523914 C1.63976757 2.05174425 0.25559923 2.96844261 -2 5 C-1.34 3.35 -0.68 1.7 0 0 Z " fill="#E95544" transform="translate(177,122)"/>
<path d="M0 0 C23.43 0 46.86 0 71 0 C71.495 8.415 71.495 8.415 72 17 C74.55060251 20.95935993 76.17058175 23.06683194 79.54296875 26.03515625 C80.68479362 27.13590736 80.68479362 27.13590736 81.84968567 28.25889587 C84.26032116 30.56790341 86.71959434 32.81496468 89.1875 35.0625 C91.62415058 37.35364283 94.04936313 39.65630511 96.47175598 41.96250916 C97.97352277 43.38433203 99.48554398 44.79543444 101.00956726 46.19337463 C105.53537851 50.38289439 109.75766887 54.71303911 113 60 C113 60.66 113 61.32 113 62 C110.36307222 62.35791247 107.77486458 62.60952216 105.125 62.8125 C104.39796875 62.92142578 103.6709375 63.03035156 102.921875 63.14257812 C100.18187956 63.29880594 98.53840438 63.08754911 96 62 C93.85692819 59.70567197 92.04725769 57.30332047 90.2489624 54.7333374 C86.62674396 49.613021 82.52679687 45.29830728 78.0234375 40.94140625 C77.32147247 40.25663712 76.61950745 39.57186798 75.89627075 38.86634827 C72.98423259 36.03451236 70.05944638 33.21645565 67.12255859 30.41040039 C64.9514415 28.32960822 62.79915833 26.23074348 60.6484375 24.12890625 C59.97984711 23.50069473 59.31125671 22.87248322 58.62240601 22.22523499 C58.01401886 21.6269841 57.40563171 21.02873322 56.77880859 20.41235352 C55.97133682 19.63844017 55.97133682 19.63844017 55.14755249 18.84889221 C54 17 54 17 54 11 C36.18 11 18.36 11 0 11 C0 7.37 0 3.74 0 0 Z " fill="#2D2C2C" transform="translate(221,60)"/>
<path d="M0 0 C3.65341096 0.2490962 5.54414649 0.60345687 8.34179688 3.03710938 C10.47563521 6.8498688 10.57614343 10.14896819 10.53125 14.40625 C10.53699036 15.60973083 10.53699036 15.60973083 10.54284668 16.83752441 C10.54556052 18.52857727 10.53823624 20.21967248 10.52148438 21.91064453 C10.50006499 24.49216716 10.52130161 27.0709072 10.546875 29.65234375 C10.54423163 31.29948528 10.53910645 32.94662509 10.53125 34.59375 C10.53934692 35.36158813 10.54744385 36.12942627 10.55578613 36.92053223 C10.46910569 41.89953434 9.57734188 44.5161834 6 48 C2.83698128 49.58150936 -0.56795723 49.16516341 -4.04223633 49.17700195 C-5.28883781 49.18685875 -5.28883781 49.18685875 -6.56062317 49.19691467 C-9.31776006 49.21666566 -12.07484244 49.22831413 -14.83203125 49.23828125 C-15.77275671 49.24235678 -16.71348217 49.2464323 -17.68271446 49.25063133 C-22.66160234 49.27149956 -27.64046259 49.28579813 -32.61938477 49.29516602 C-37.76443304 49.30623326 -42.90904915 49.34063463 -48.05394459 49.38033772 C-52.00791737 49.40647155 -55.96178668 49.41485497 -59.91583824 49.41844749 C-61.81246548 49.42332167 -63.70908785 49.43495924 -65.60563087 49.45348549 C-68.26062983 49.47780883 -70.91450404 49.47692455 -73.56958008 49.4699707 C-74.35262512 49.48278076 -75.13567017 49.49559082 -75.94244385 49.50878906 C-79.53035019 49.47454806 -81.86003969 49.07649624 -85.02690125 47.34562683 C-87 45 -87 45 -87.3125 41.75 C-87.209375 40.8425 -87.10625 39.935 -87 39 C-85.53207756 38.99120064 -85.53207756 38.99120064 -84.03450012 38.98222351 C-74.80887415 38.92499346 -65.58348383 38.85223035 -56.35809803 38.76428509 C-51.61529555 38.71957066 -46.87257918 38.68031688 -42.12963867 38.65356445 C-37.5518353 38.62754219 -32.97436312 38.5871474 -28.39676476 38.53681374 C-26.65092783 38.52013773 -24.9050336 38.50862802 -23.15912819 38.50238609 C-20.71225955 38.49275289 -18.26623959 38.46470381 -15.81958008 38.43237305 C-14.73848213 38.43452568 -14.73848213 38.43452568 -13.63554382 38.4367218 C-9.26092518 38.35505071 -6.47090882 37.69785482 -3 35 C-0.62931088 31.44396632 -0.65534892 28.82006655 -0.5859375 24.70703125 C-0.56657135 24.00100266 -0.5472052 23.29497406 -0.5272522 22.56755066 C-0.46754776 20.31598939 -0.4211086 18.06437672 -0.375 15.8125 C-0.33681171 14.28448311 -0.29775948 12.75648755 -0.2578125 11.22851562 C-0.16185404 7.48585065 -0.07778989 3.7430849 0 0 Z " fill="#F05543" transform="translate(295,11)"/>
<path d="M0 0 C0.86208069 -0.00525696 1.72416138 -0.01051392 2.61236572 -0.01593018 C5.4664514 -0.02915036 8.31998076 -0.02038421 11.17407227 -0.01025391 C13.15560514 -0.01227425 15.13713728 -0.01518535 17.1186676 -0.01895142 C21.27400788 -0.02337766 25.42915483 -0.01693471 29.58447266 -0.00292969 C34.91227604 0.01415117 40.2396257 0.00432981 45.56741238 -0.01364708 C49.66033854 -0.02448629 53.7531571 -0.02103774 57.8460865 -0.0132637 C59.81049719 -0.0112615 61.77491763 -0.01372167 63.73931694 -0.02070236 C66.48532869 -0.02831779 69.23060551 -0.01671085 71.9765625 0 C72.78968399 -0.00607269 73.60280548 -0.01214539 74.44056702 -0.0184021 C78.73626665 0.03004889 81.45393084 0.26423191 84.55297852 3.38818359 C84.24047852 6.76318359 84.24047852 6.76318359 83.55297852 10.38818359 C79.73241641 12.935225 76.62672885 12.68369272 72.19775391 12.67871094 C71.34542679 12.68542816 70.49309967 12.69214539 69.61494446 12.69906616 C66.79344883 12.7180862 63.97219053 12.72197224 61.15063477 12.72412109 C59.19152223 12.73054579 57.23241067 12.73727391 55.27330017 12.74429321 C51.16508763 12.75627569 47.05695925 12.75997299 42.94873047 12.75878906 C37.68139594 12.75858572 32.41460002 12.78589961 27.14739323 12.82033348 C23.10079971 12.8425564 19.05433682 12.84662804 15.00768852 12.84556961 C13.06558817 12.84793207 11.12348456 12.85679174 9.18144417 12.87223434 C6.46644331 12.89180306 3.75261692 12.88609268 1.03759766 12.87402344 C-0.16805847 12.89088196 -0.16805847 12.89088196 -1.39807129 12.90808105 C-4.98213484 12.86753862 -7.03823858 12.69362753 -9.94996643 10.51797485 C-11.44702148 8.38818359 -11.44702148 8.38818359 -11.88452148 5.82568359 C-11.44702148 3.38818359 -11.44702148 3.38818359 -10.44761658 1.76010132 C-7.24027003 -0.43935203 -3.75596859 -0.02798131 0 0 Z " fill="#E4DFFA" transform="translate(219.447021484375,143.61181640625)"/>
<path d="M0 0 C0.85232712 -0.00671722 1.70465424 -0.01343445 2.58280945 -0.02035522 C5.40430507 -0.03937526 8.22556337 -0.04326131 11.04711914 -0.04541016 C13.00623168 -0.05183486 14.96534324 -0.05856297 16.92445374 -0.06558228 C21.03266627 -0.07756475 25.14079465 -0.08126206 29.24902344 -0.08007812 C34.51635796 -0.07987478 39.78315388 -0.10718867 45.05036068 -0.14162254 C49.09695419 -0.16384546 53.14341709 -0.1679171 57.19006538 -0.16685867 C59.13216574 -0.16922114 61.07426934 -0.1780808 63.01630974 -0.19352341 C65.7313106 -0.21309212 68.44513699 -0.20738174 71.16015625 -0.1953125 C72.36581238 -0.21217102 72.36581238 -0.21217102 73.5958252 -0.22937012 C77.16472736 -0.18899918 79.25036868 0.00493092 82.17897034 2.12557983 C83.64477539 4.29052734 83.64477539 4.29052734 83.58227539 7.41552734 C82.64477539 10.29052734 82.64477539 10.29052734 79.64477539 12.29052734 C76.82737082 12.4955652 74.10799837 12.58422493 71.28955078 12.58105469 C70.43722366 12.58777191 69.58489655 12.59448914 68.70674133 12.60140991 C65.88524571 12.62042995 63.06398741 12.62431599 60.24243164 12.62646484 C58.2833191 12.63288954 56.32420754 12.63961766 54.36509705 12.64663696 C50.25688451 12.65861944 46.14875613 12.66231674 42.04052734 12.66113281 C36.77319282 12.66092947 31.5063969 12.68824336 26.2391901 12.72267723 C22.19259659 12.74490015 18.14613369 12.74897179 14.0994854 12.74791336 C12.15738504 12.75027582 10.21528144 12.75913549 8.27324104 12.77457809 C5.55824019 12.79414681 2.84441379 12.78843643 0.12939453 12.77636719 C-1.0762616 12.79322571 -1.0762616 12.79322571 -2.30627441 12.8104248 C-5.87517658 12.77005387 -7.9608179 12.57612377 -10.88941956 10.45547485 C-12.35522461 8.29052734 -12.35522461 8.29052734 -12.29272461 5.16552734 C-10.32145511 -0.87969911 -5.39845828 -0.00607228 0 0 Z " fill="#E4E0FB" transform="translate(220.355224609375,171.70947265625)"/>
<path d="M0 0 C1.68959045 1.08546448 1.68959045 1.08546448 3 3 C3.38768005 6.14317322 3.38768005 6.14317322 3.40405273 10.07006836 C3.41091599 10.78584549 3.41777924 11.50162262 3.42485046 12.23908997 C3.44315824 14.60620945 3.43927542 16.97266863 3.43359375 19.33984375 C3.43815384 20.98507402 3.4434589 22.63030238 3.44947815 24.27552795 C3.45841717 27.72469823 3.45597745 31.17363707 3.44604492 34.62280273 C3.43455718 39.0427383 3.4547591 43.46187473 3.48396206 47.88170528 C3.50231016 51.27980117 3.50203437 54.6777051 3.49632454 58.07583809 C3.49617114 59.70532922 3.50223119 61.3348332 3.51461601 62.96427727 C3.52949785 65.24353996 3.51887145 67.52132074 3.50170898 69.80053711 C3.50145973 71.74554359 3.50145973 71.74554359 3.50120544 73.72984314 C3 77 3 77 1.19129944 79.44996643 C-1 81 -1 81 -4.5625 81 C-8.43106365 79.87459967 -9.10622822 79.43229184 -11 76 C-11.38768005 72.8125 -11.38768005 72.8125 -11.40405273 69 C-11.41091599 68.30358398 -11.41777924 67.60716797 -11.42485046 66.88964844 C-11.44311783 64.59289025 -11.43928178 62.29681508 -11.43359375 60 C-11.43815523 58.40103941 -11.44346071 56.80208078 -11.44947815 55.203125 C-11.45840881 51.85408557 -11.45598632 48.50528462 -11.44604492 45.15625 C-11.43454826 40.86524987 -11.45477687 36.57507181 -11.48396206 32.28417969 C-11.5023097 28.98301978 -11.50203465 25.68205747 -11.49632454 22.38085938 C-11.49617118 20.79881638 -11.50222734 19.21676012 -11.51461601 17.63476562 C-11.52950009 15.4226524 -11.51887079 13.21206554 -11.50170898 11 C-11.50154282 9.741875 -11.50137665 8.48375 -11.50120544 7.1875 C-11 4 -11 4 -9.19129944 1.58984375 C-6.02819823 -0.70506702 -3.80636176 -0.48444604 0 0 Z " fill="#7C7B7B" transform="translate(198,377)"/>
<path d="M0 0 C2.875 0.75 2.875 0.75 3.875 1.75 C4.19105642 7.02881471 3.34450598 11.63883147 1.9375 16.6875 C1.56937294 18.02862719 1.20607745 19.37109008 0.84765625 20.71484375 C0.68531494 21.2987085 0.52297363 21.88257324 0.35571289 22.48413086 C-1.00010604 28.87486499 -1.27483523 35.19762927 -1.3359375 41.703125 C-1.36397109 43.39063528 -1.39263522 45.07813519 -1.421875 46.765625 C-1.46329064 49.39453213 -1.50023101 52.02323749 -1.52636719 54.65234375 C-1.55393426 57.21132885 -1.59975419 59.76946622 -1.6484375 62.328125 C-1.65169037 63.11358704 -1.65494324 63.89904907 -1.65829468 64.70831299 C-1.73194454 67.97442681 -1.91017508 70.35914542 -3.49853516 73.24902344 C-5.125 74.75 -5.125 74.75 -7.625 75.1875 C-10.125 74.75 -10.125 74.75 -11.75415039 73.71435547 C-13.88073743 70.66706797 -13.57180461 67.46936727 -13.55859375 63.8828125 C-13.56542175 63.09975739 -13.57224976 62.31670227 -13.57928467 61.50991821 C-13.59292331 58.96455257 -13.58023967 56.42032907 -13.5625 53.875 C-13.56045563 53.013302 -13.55841125 52.151604 -13.55630493 51.26379395 C-13.5050903 38.08825373 -12.71291563 25.4955612 -9.125 12.75 C-8.89377441 11.87408203 -8.66254883 10.99816406 -8.42431641 10.09570312 C-8.1772998 9.20302734 -7.9302832 8.31035156 -7.67578125 7.390625 C-7.45188721 6.57625977 -7.22799316 5.76189453 -6.99731445 4.92285156 C-5.43233754 1.0246443 -4.27644672 -0.34211574 0 0 Z " fill="#FC9087" transform="translate(186.125,130.25)"/>
<path d="M0 0 C0.80752213 -0.0066568 1.61504425 -0.0133136 2.44703674 -0.02017212 C4.15420251 -0.03029266 5.86140778 -0.03498932 7.56860352 -0.03466797 C10.17856078 -0.03904098 12.78682636 -0.07536377 15.39648438 -0.11328125 C17.0559838 -0.11914963 18.71549126 -0.12311888 20.375 -0.125 C21.54391029 -0.14655655 21.54391029 -0.14655655 22.73643494 -0.16854858 C26.29474725 -0.13858726 28.3640735 0.05315531 31.28149414 2.16943359 C32.75390625 4.3359375 32.75390625 4.3359375 32.69140625 7.4609375 C31.75390625 10.3359375 31.75390625 10.3359375 28.75390625 12.3359375 C25.88792768 12.55614117 23.12146848 12.66395969 20.25390625 12.671875 C19.42181641 12.6785318 18.58972656 12.6851886 17.73242188 12.69204712 C15.97398082 12.70216755 14.2155014 12.70686433 12.45703125 12.70654297 C9.76368253 12.71092161 7.07196557 12.7472605 4.37890625 12.78515625 C2.67057853 12.79102342 0.96224301 12.79499348 -0.74609375 12.796875 C-1.55240234 12.81124603 -2.35871094 12.82561707 -3.18945312 12.84042358 C-8.73559091 12.79497441 -8.73559091 12.79497441 -11.28515625 10.50244141 C-12.6531075 7.41829521 -12.21466505 5.51838607 -11.24609375 2.3359375 C-7.46066284 -0.18768311 -4.38927343 0.01250352 0 0 Z " fill="#E4DEF9" transform="translate(220.24609375,199.6640625)"/>
<path d="M0 0 C2.27818415 -0.00218869 4.5558858 -0.0203553 6.83398438 -0.03930664 C8.27669105 -0.04224019 9.71940003 -0.04422524 11.16210938 -0.04516602 C13.13824219 -0.05132935 13.13824219 -0.05132935 15.15429688 -0.05761719 C18.28710938 0.18530273 18.28710938 0.18530273 20.28710938 2.18530273 C20.53710938 5.68530273 20.53710938 5.68530273 20.28710938 9.18530273 C16.79209966 12.68031245 11.60738134 11.48925162 6.8828125 11.50756836 C6.139104 11.50539307 5.39539551 11.50321777 4.62915039 11.50097656 C2.36165191 11.4978195 0.09546178 11.52126033 -2.171875 11.54663086 C-3.61132648 11.54890415 -5.05078147 11.54960721 -6.49023438 11.54858398 C-7.80241943 11.55156494 -9.11460449 11.5545459 -10.46655273 11.55761719 C-13.71289062 11.18530273 -13.71289062 11.18530273 -15.67602539 9.88916016 C-17.46109164 6.95580076 -16.48024211 4.37276274 -15.71289062 1.18530273 C-11.2085821 -1.06685153 -5.01432851 -0.00054174 0 0 Z " fill="#FC9289" transform="translate(237.712890625,23.814697265625)"/>
<path d="M0 0 C2.12109375 1.53515625 2.12109375 1.53515625 4 4 C4.40100915 6.83065284 4.56122899 9.18346659 4.5 12 C4.51546875 12.7115625 4.5309375 13.423125 4.546875 14.15625 C4.5209508 17.63009262 4.24642211 19.65937332 2.19140625 22.5 C0 24 0 24 -3.5625 24 C-7.43234479 22.87422697 -8.09747323 22.42680638 -10 19 C-10.73821087 13.83867568 -11.31143185 7.80095938 -9.05078125 2.97265625 C-6.39832805 0.08591696 -3.76559417 -0.86898327 0 0 Z " fill="#7B7A7A" transform="translate(197,339)"/>
<path d="M0 0 C52.14 0 104.28 0 158 0 C158 0.33 158 0.66 158 1 C157.19970493 1.00238835 156.39940987 1.00477671 155.57486343 1.00723743 C136.11236327 1.06634349 116.6499904 1.14186528 97.18762589 1.23571491 C87.77581145 1.28070279 78.3640351 1.32011052 68.95214844 1.34643555 C60.74985876 1.36939144 52.54768934 1.40276237 44.34549499 1.44870156 C40.00147315 1.47266638 35.65757065 1.49137375 31.31348419 1.49761391 C27.22586863 1.50365009 23.13855852 1.52359641 19.05105591 1.55427551 C17.54985421 1.56307936 16.04861264 1.56677347 14.54738617 1.56500816 C12.49934955 1.56336004 10.45132598 1.58179204 8.40338135 1.60127258 C6.68331564 1.60818603 6.68331564 1.60818603 4.92850113 1.61523914 C1.72455332 2.03618954 0.34701409 2.83594388 -2 5 C-1.34 3.35 -0.68 1.7 0 0 Z " fill="#AD574F" transform="translate(177,122)"/>
<path d="M0 0 C0.86625 -0.00773437 1.7325 -0.01546875 2.625 -0.0234375 C5 0.375 5 0.375 6.82421875 1.70703125 C8 3.375 8 3.375 7.8125 6.4375 C7 9.375 7 9.375 5 11.375 C2.72265625 11.67578125 2.72265625 11.67578125 0.0625 11.6875 C-1.25041016 11.71263672 -1.25041016 11.71263672 -2.58984375 11.73828125 C-5 11.375 -5 11.375 -6.79296875 10.01171875 C-8.51348869 7.67871598 -8.42424347 6.20328978 -8 3.375 C-5.66867727 0.23147451 -3.81958719 -0.03410346 0 0 Z " fill="#FC9188" transform="translate(273,23.625)"/>
</svg>
