<?xml version="1.0" encoding="UTF-8"?>
<svg version="1.1" xmlns="http://www.w3.org/2000/svg" width="512" height="512">
<path d="M0 0 C147.18 0 294.36 0 446 0 C446 29.04 446 58.08 446 88 C440.06 88 434.12 88 428 88 C427.87850586 89.39565186 427.75701172 90.79130371 427.63183594 92.22924805 C427.01984888 98.32204846 425.98518645 104.30979874 424.890625 110.33203125 C424.68193787 111.48563644 424.47325073 112.63924164 424.25823975 113.82780457 C423.81671367 116.25614667 423.3728473 118.68406432 422.92675781 121.11157227 C422.25427502 124.78912155 421.59965749 128.46957708 420.9453125 132.15039062 C416.81798927 154.9223025 416.81798927 154.9223025 412 165 C411.56880859 165.97803589 411.56880859 165.97803589 411.12890625 166.97583008 C401.3630288 188.52023215 382.40039836 203.1266641 361 212 C359.02 212.66 357.04 213.32 355 214 C395.92 214.33 436.84 214.66 479 215 C479 244.37 479 273.74 479 304 C472.73 304 466.46 304 460 304 C459.59523438 307.02800781 459.19046875 310.05601562 458.7734375 313.17578125 C457.04319477 325.93501463 455.153194 338.66891069 453.203125 351.39624023 C452.81698873 353.92846582 452.43516771 356.46135311 452.05761719 358.99487305 C448.42458601 383.36096686 448.42458601 383.36096686 445.453125 394.765625 C445.2650528 395.48948898 445.07698059 396.21335297 444.88320923 396.95915222 C438.22191583 420.89632596 420.02786369 442.4431694 398.83398438 454.8737793 C382.31980801 464.14946388 364.8248659 468.15664473 345.9780426 468.14044189 C344.34419338 468.14489858 344.34419338 468.14489858 342.67733711 468.1494453 C339.03822013 468.15809632 335.3991362 468.15963751 331.76000977 468.16113281 C329.14605133 468.1657636 326.53209357 468.17078862 323.9181366 468.17617798 C316.82265555 468.18972271 309.72718018 468.19578029 302.63168836 468.20018864 C298.19384407 468.20295822 293.75600193 468.20719692 289.3181591 468.21169281 C277.01049849 468.2238816 264.70283959 468.23418093 252.39517307 468.2375679 C251.21502964 468.23789725 251.21502964 468.23789725 250.01104492 468.23823325 C249.22248646 468.23845153 248.43392801 468.23866981 247.62147385 468.2388947 C246.02377228 468.23933815 244.42607071 468.23978472 242.82836914 468.24023438 C242.03586767 468.2404558 241.2433662 468.24067723 240.42684954 468.24090537 C227.6027614 468.24484834 214.77873026 468.26228876 201.95466412 468.2855939 C188.76143173 468.30937461 175.56822786 468.32177284 162.37497371 468.32293582 C154.97841626 468.32384894 147.58193305 468.32950886 140.18539619 468.34775543 C133.88354148 468.3632476 127.58178395 468.36822376 121.27991379 468.36001733 C118.07167164 468.35614243 114.86366306 468.35855587 111.65543747 468.37107468 C95.17107609 468.43158683 78.96329819 468.18617183 63.3125 462.3125 C62.61882324 462.05831299 61.92514648 461.80412598 61.21044922 461.54223633 C35.94560258 451.89539603 16.15165067 431.86897951 4.90336609 407.49719238 C2.97458639 403.13805061 1.63633077 398.75144793 0.46020508 394.13867188 C0.24797963 393.31680138 0.03575418 392.49493088 -0.18290234 391.64815521 C-2.35563456 382.97954272 -3.78932341 374.23734761 -5.11328125 365.40625 C-5.37436403 363.71410761 -5.63627868 362.02209338 -5.89897156 360.3302002 C-6.44008375 356.83219477 -6.97486284 353.33330997 -7.50415039 349.83349609 C-8.18254485 345.34785099 -8.8719052 340.86398002 -9.56524372 336.38062286 C-10.23045075 332.07718024 -10.89105056 327.77303509 -11.55078125 323.46875 C-11.67608027 322.65291946 -11.80137928 321.83708893 -11.93047523 320.99653625 C-12.28210015 318.70053952 -12.63051329 316.40408084 -12.9777832 314.10742188 C-13.17588089 312.80349487 -13.37397858 311.49956787 -13.57807922 310.15612793 C-14 307 -14 307 -14 304 C-20.27 304 -26.54 304 -33 304 C-33 274.63 -33 245.26 -33 215 C28.38 214.505 28.38 214.505 91 214 C86.71 212.35 82.42 210.7 78 209 C68.96827807 204.8722948 61.37910859 199.61739416 54 193 C53.36578125 192.44828125 52.7315625 191.8965625 52.078125 191.328125 C31.90268025 172.63344684 27.52064597 145.86945812 22.85302734 120.13256836 C22.24392631 116.77906027 21.62442093 113.42758481 21.00390625 110.07617188 C20.61136578 107.93240389 20.21941667 105.78852752 19.828125 103.64453125 C19.6438092 102.64871536 19.45949341 101.65289948 19.26959229 100.62690735 C19.01867828 99.23341316 19.01867828 99.23341316 18.76269531 97.81176758 C18.6148761 97.00065018 18.46705688 96.18953278 18.3147583 95.35383606 C18 93 18 93 18 88 C12.06 88 6.12 88 0 88 C0 58.96 0 29.92 0 0 Z " fill="#C5E8F7" transform="translate(33,22)"/>
<path d="M0 0 C18.15 0 36.3 0 55 0 C62.96326586 17.63294583 70.78689526 35.31882907 78.5 53.0625 C78.93397095 54.06009338 79.36794189 55.05768677 79.81506348 56.08551025 C82.55465995 62.38549448 85.28552651 68.68914737 88 75 C88.44279297 76.02900421 88.44279297 76.02900421 88.89453125 77.07879639 C89.63230869 78.79921898 90.36338757 80.52251022 91.09375 82.24609375 C91.66125977 83.58498657 91.66125977 83.58498657 92.24023438 84.95092773 C93 87 93 87 93 89 C200.58 89 308.16 89 419 89 C420.485 84.545 420.485 84.545 422 80 C422.81538983 77.9638875 423.65981834 75.93905168 424.5390625 73.9296875 C425.02890625 72.80473877 425.51875 71.67979004 426.0234375 70.52075195 C426.81621094 68.71610474 426.81621094 68.71610474 427.625 66.875 C428.18785696 65.5863375 428.75034679 64.29751458 429.3125 63.00854492 C430.53616665 60.20423476 431.76204463 57.40090438 432.98925781 54.59814453 C435.15432056 49.65086496 437.30785779 44.69859747 439.4609375 39.74609375 C440.60002032 37.12732015 441.73926575 34.50861737 442.87860107 31.88995361 C443.61867126 30.18895629 444.35862329 28.48790756 445.09844971 26.7868042 C446.14802843 24.37438678 447.19885093 21.96251477 448.25 19.55078125 C448.55481293 18.84964706 448.85962585 18.14851288 449.17367554 17.4261322 C451.72088948 11.58692979 454.36275105 5.8019477 457 0 C475.15 0 493.3 0 512 0 C512 29.37 512 58.74 512 89 C505.73 89 499.46 89 493 89 C492.59523438 92.02800781 492.19046875 95.05601562 491.7734375 98.17578125 C490.04319477 110.93501463 488.153194 123.66891069 486.203125 136.39624023 C485.81698873 138.92846582 485.43516771 141.46135311 485.05761719 143.99487305 C481.42458601 168.36096686 481.42458601 168.36096686 478.453125 179.765625 C478.2650528 180.48948898 478.07698059 181.21335297 477.88320923 181.95915222 C471.22191583 205.89632596 453.02786369 227.4431694 431.83398438 239.8737793 C415.31980801 249.14946388 397.8248659 253.15664473 378.9780426 253.14044189 C377.88880979 253.14341302 376.79957698 253.14638414 375.67733711 253.1494453 C372.03822013 253.15809632 368.3991362 253.15963751 364.76000977 253.16113281 C362.14605133 253.1657636 359.53209357 253.17078862 356.9181366 253.17617798 C349.82265555 253.18972271 342.72718018 253.19578029 335.63168836 253.20018864 C331.19384407 253.20295822 326.75600193 253.20719692 322.3181591 253.21169281 C310.01049849 253.2238816 297.70283959 253.23418093 285.39517307 253.2375679 C284.21502964 253.23789725 284.21502964 253.23789725 283.01104492 253.23823325 C282.22248646 253.23845153 281.43392801 253.23866981 280.62147385 253.2388947 C279.02377228 253.23933815 277.42607071 253.23978472 275.82836914 253.24023438 C275.03586767 253.2404558 274.2433662 253.24067723 273.42684954 253.24090537 C260.6027614 253.24484834 247.77873026 253.26228876 234.95466412 253.2855939 C221.76143173 253.30937461 208.56822786 253.32177284 195.37497371 253.32293582 C187.97841626 253.32384894 180.58193305 253.32950886 173.18539619 253.34775543 C166.88354148 253.3632476 160.58178395 253.36822376 154.27991379 253.36001733 C151.07167164 253.35614243 147.86366306 253.35855587 144.65543747 253.37107468 C128.17107609 253.43158683 111.96329819 253.18617183 96.3125 247.3125 C95.27198486 246.93121948 95.27198486 246.93121948 94.21044922 246.54223633 C68.94560258 236.89539603 49.15165067 216.86897951 37.90336609 192.49719238 C35.97458639 188.13805061 34.63633077 183.75144793 33.46020508 179.13867188 C33.24797963 178.31680138 33.03575418 177.49493088 32.81709766 176.64815521 C30.64436544 167.97954272 29.21067659 159.23734761 27.88671875 150.40625 C27.62563597 148.71410761 27.36372132 147.02209338 27.10102844 145.3302002 C26.55991625 141.83219477 26.02513716 138.33330997 25.49584961 134.83349609 C24.81745515 130.34785099 24.1280948 125.86398002 23.43475628 121.38062286 C22.76954925 117.07718024 22.10894944 112.77303509 21.44921875 108.46875 C21.32391973 107.65291946 21.19862072 106.83708893 21.06952477 105.99653625 C20.71789985 103.70053952 20.36948671 101.40408084 20.0222168 99.10742188 C19.82411911 97.80349487 19.62602142 96.49956787 19.42192078 95.15612793 C19 92 19 92 19 89 C12.73 89 6.46 89 0 89 C0 59.63 0 30.26 0 0 Z " fill="#96D7F5" transform="translate(0,237)"/>
<path d="M0 0 C18.15 0 36.3 0 55 0 C62.96326586 17.63294583 70.78689526 35.31882907 78.5 53.0625 C78.93397095 54.06009338 79.36794189 55.05768677 79.81506348 56.08551025 C82.55465995 62.38549448 85.28552651 68.68914737 88 75 C88.44279297 76.02900421 88.44279297 76.02900421 88.89453125 77.07879639 C89.63230869 78.79921898 90.36338757 80.52251022 91.09375 82.24609375 C91.66125977 83.58498657 91.66125977 83.58498657 92.24023438 84.95092773 C93 87 93 87 93 89 C146.79 89 200.58 89 256 89 C256 143.12 256 197.24 256 253 C234.240625 253.061875 212.48125 253.12375 190.0625 253.1875 C183.22152588 253.21481201 176.38055176 253.24212402 169.33227539 253.27026367 C160.90319824 253.28381348 160.90319824 253.28381348 156.94261169 253.28633118 C154.20818607 253.290903 151.47419371 253.30022503 148.73985291 253.31672668 C112.8627493 253.52373166 112.8627493 253.52373166 96.3125 247.3125 C95.27198486 246.93121948 95.27198486 246.93121948 94.21044922 246.54223633 C68.94560258 236.89539603 49.15165067 216.86897951 37.90336609 192.49719238 C35.97458639 188.13805061 34.63633077 183.75144793 33.46020508 179.13867188 C33.24797963 178.31680138 33.03575418 177.49493088 32.81709766 176.64815521 C30.64436544 167.97954272 29.21067659 159.23734761 27.88671875 150.40625 C27.62563597 148.71410761 27.36372132 147.02209338 27.10102844 145.3302002 C26.55991625 141.83219477 26.02513716 138.33330997 25.49584961 134.83349609 C24.81745515 130.34785099 24.1280948 125.86398002 23.43475628 121.38062286 C22.76954925 117.07718024 22.10894944 112.77303509 21.44921875 108.46875 C21.32391973 107.65291946 21.19862072 106.83708893 21.06952477 105.99653625 C20.71789985 103.70053952 20.36948671 101.40408084 20.0222168 99.10742188 C19.82411911 97.80349487 19.62602142 96.49956787 19.42192078 95.15612793 C19 92 19 92 19 89 C12.73 89 6.46 89 0 89 C0 59.63 0 30.26 0 0 Z " fill="#C6E9F9" transform="translate(0,237)"/>
<path d="M0 0 C132.66 0 265.32 0 402 0 C398.62987763 10.11036712 398.62987763 10.11036712 396.42578125 14.921875 C395.93086182 16.01169678 395.43594238 17.10151855 394.92602539 18.22436523 C394.39356201 19.38782471 393.86109863 20.55128418 393.3125 21.75 C392.14717238 24.3172689 390.98682779 26.88676623 389.828125 29.45703125 C389.52326675 30.13302872 389.21840851 30.80902618 388.90431213 31.50550842 C385.03501422 40.11079751 381.29909158 48.77397381 377.5625 57.4375 C377.22819977 58.21210571 376.89389954 58.98671143 376.54946899 59.78479004 C372.35055931 69.51647042 368.17511822 79.25805748 364 89 C256.42 89 148.84 89 38 89 C32.39 76.13 26.78 63.26 21 50 C15.50333764 37.52160462 15.50333764 37.52160462 9.98291016 25.05371094 C8.86251435 22.52961178 7.74724512 20.00329904 6.6328125 17.4765625 C6.30789825 16.74853424 5.98298401 16.02050598 5.64822388 15.27041626 C3.42663634 10.21784916 1.76324712 5.28974136 0 0 Z " fill="#FE4B00" transform="translate(55,237)"/>
<path d="M0 0 C15.84 0 31.68 0 48 0 C48 29.04 48 58.08 48 88 C42.06 88 36.12 88 30 88 C29.81775879 90.09347778 29.81775879 90.09347778 29.63183594 92.22924805 C29.01984888 98.32204846 27.98518645 104.30979874 26.890625 110.33203125 C26.68193787 111.48563644 26.47325073 112.63924164 26.25823975 113.82780457 C25.81671367 116.25614667 25.3728473 118.68406432 24.92675781 121.11157227 C24.25427502 124.78912155 23.59965749 128.46957708 22.9453125 132.15039062 C18.81798927 154.9223025 18.81798927 154.9223025 14 165 C13.71253906 165.65202393 13.42507813 166.30404785 13.12890625 166.97583008 C3.45238529 188.32310372 -15.60428708 203.48126981 -37 212 C-51.45014484 217.17454871 -66.09427134 216.51533681 -81.25 216.390625 C-83.65624622 216.38473132 -86.0624976 216.38065835 -88.46875 216.37841797 C-97.31257907 216.35759174 -106.1562978 216.30174701 -115 216.25 C-134.8 216.1675 -154.6 216.085 -175 216 C-175 173.76 -175 131.52 -175 88 C-128.14 88 -81.28 88 -33 88 C-32.67 86.35 -32.34 84.7 -32 83 C-31.09757327 80.38091354 -30.16377502 77.79265464 -29.18359375 75.203125 C-28.89518112 74.43273895 -28.60676849 73.66235291 -28.30961609 72.86862183 C-27.35649492 70.32746045 -26.39729288 67.78864832 -25.4375 65.25 C-24.77129963 63.48031427 -24.10512158 61.71062013 -23.43896484 59.94091797 C-18.41976739 46.63579875 -13.29618002 33.37170726 -8.125 20.125 C-7.77307587 19.22334106 -7.42115173 18.32168213 -7.05856323 17.3927002 C-6.06405152 14.84711865 -5.06772235 12.30225973 -4.0703125 9.7578125 C-3.62446053 8.61842728 -3.62446053 8.61842728 -3.16960144 7.45602417 C-1.11818945 2.2363789 -1.11818945 2.2363789 0 0 Z " fill="#95D6F4" transform="translate(431,22)"/>
<path d="M0 0 C115.5 0 231 0 350 0 C348.05529729 5.83410814 346.07759484 11.61169807 343.91796875 17.36328125 C343.62691757 18.14167862 343.33586639 18.92007599 343.03599548 19.72206116 C342.08857931 22.25299367 341.1383062 24.78283924 340.1875 27.3125 C339.86207214 28.17973694 339.53664429 29.04697388 339.20135498 29.94049072 C334.25495289 43.11611292 329.22840911 56.25941505 324.125 69.375 C323.8207309 70.15743073 323.51646179 70.93986145 323.20297241 71.7460022 C322.34775399 73.94323689 321.49079102 76.13977928 320.6328125 78.3359375 C320.37934555 78.98611343 320.1258786 79.63628937 319.86473083 80.3061676 C318.97460562 82.57780698 318.09175394 84.81649211 317 87 C223.28 87 129.56 87 33 87 C23.82095994 64.05239986 23.82095994 64.05239986 19.765625 53.3671875 C19.32031433 52.19842072 18.87500366 51.02965393 18.41619873 49.82546997 C17.02590315 46.17590588 15.63778123 42.52552085 14.25 38.875 C12.84763357 35.18889023 11.44476788 31.50297233 10.04095459 27.81741333 C9.17631922 25.54714884 8.31253122 23.27656136 7.44976807 21.00558472 C5.27379002 15.28943255 3.05018382 9.60125699 0.70965576 3.95022583 C0 2 0 2 0 0 Z " fill="#DC3400" transform="translate(81,22)"/>
<path d="M0 0 C0.84023335 0.00085602 1.68046669 0.00171204 2.54616165 0.00259399 C12.32246818 0.01334883 22.09873308 0.03229801 31.875 0.0625 C30.23887398 5.15396424 28.53105247 10.11572784 26.30078125 14.984375 C25.80586182 16.07427734 25.31094238 17.16417969 24.80102539 18.28710938 C24.26856201 19.45048828 23.73609863 20.61386719 23.1875 21.8125 C22.02213533 24.3784499 20.86169946 26.94660271 19.703125 29.515625 C19.39826675 30.19141602 19.09340851 30.86720703 18.77931213 31.56347656 C14.20715125 41.73259175 9.82976266 51.98762916 5.43286133 62.23339844 C5.10799744 62.98872864 4.78313354 63.74405884 4.44842529 64.52227783 C3.85144038 65.91056191 3.25583965 67.29944276 2.66217041 68.68914795 C-0.14300532 75.21101408 -3.14579902 81.60756455 -6.125 88.0625 C-59.915 88.0625 -113.705 88.0625 -169.125 88.0625 C-169.125 59.3525 -169.125 30.6425 -169.125 1.0625 C-150.43753163 0.89153149 -131.75005789 0.72306024 -113.0625 0.5625 C-112.02538234 0.55357719 -112.02538234 0.55357719 -110.96731281 0.54447412 C-73.97825029 0.22664586 -36.99076547 -0.03797333 0 0 Z " fill="#DC3400" transform="translate(425.125,236.9375)"/>
<path d="M0 0 C57.75 0 115.5 0 175 0 C175 28.71 175 57.42 175 87 C128.14 87 81.28 87 33 87 C23.82095994 64.05239986 23.82095994 64.05239986 19.765625 53.3671875 C19.32031433 52.19842072 18.87500366 51.02965393 18.41619873 49.82546997 C17.02590315 46.17590588 15.63778123 42.52552085 14.25 38.875 C12.84763357 35.18889023 11.44476788 31.50297233 10.04095459 27.81741333 C9.17631922 25.54714884 8.31253122 23.27656136 7.44976807 21.00558472 C5.27379002 15.28943255 3.05018382 9.60125699 0.70965576 3.95022583 C0 2 0 2 0 0 Z " fill="#FE4B00" transform="translate(81,22)"/>
<path d="M0 0 C18.15 0 36.3 0 55 0 C55 29.37 55 58.74 55 89 C24.31 89 -6.38 89 -38 89 C-34.62540193 78.87620579 -34.62540193 78.87620579 -32.4609375 73.9296875 C-31.97109375 72.80473877 -31.48125 71.67979004 -30.9765625 70.52075195 C-30.44804687 69.31765381 -29.91953125 68.11455566 -29.375 66.875 C-28.81214304 65.5863375 -28.24965321 64.29751458 -27.6875 63.00854492 C-26.46383335 60.20423476 -25.23795537 57.40090438 -24.01074219 54.59814453 C-21.84567944 49.65086496 -19.69214221 44.69859747 -17.5390625 39.74609375 C-16.39997968 37.12732015 -15.26073425 34.50861737 -14.12139893 31.88995361 C-13.38132874 30.18895629 -12.64137671 28.48790756 -11.90155029 26.7868042 C-10.85197157 24.37438678 -9.80114907 21.96251477 -8.75 19.55078125 C-8.44518707 18.84964706 -8.14037415 18.14851288 -7.82632446 17.4261322 C-5.27911052 11.58692979 -2.63724895 5.8019477 0 0 Z " fill="#4BB9EC" transform="translate(457,237)"/>
<path d="M0 0 C18.15 0 36.3 0 55 0 C62.96326586 17.63294583 70.78689526 35.31882907 78.5 53.0625 C78.93397095 54.06009338 79.36794189 55.05768677 79.81506348 56.08551025 C82.55465995 62.38549448 85.28552651 68.68914737 88 75 C88.44279297 76.02900421 88.44279297 76.02900421 88.89453125 77.07879639 C89.63230869 78.79921898 90.36338757 80.52251022 91.09375 82.24609375 C91.66125977 83.58498657 91.66125977 83.58498657 92.24023438 84.95092773 C93 87 93 87 93 89 C62.31 89 31.62 89 0 89 C0 59.63 0 30.26 0 0 Z " fill="#96D6F4" transform="translate(0,237)"/>
<path d="M0 0 C15.84 0 31.68 0 48 0 C48 29.04 48 58.08 48 88 C36.88592164 88 25.78939854 87.97361675 14.6796875 87.78125 C13.31536061 87.75870055 11.95103153 87.73628326 10.58670044 87.71398926 C7.06550869 87.6561086 3.54434878 87.59648291 0.02319336 87.53643799 C-3.59780081 87.47501812 -7.21882346 87.41532556 -10.83984375 87.35546875 C-17.89325724 87.23862806 -24.9466384 87.11993578 -32 87 C-31.44194725 80.26644141 -29.09351536 74.42850816 -26.66015625 68.1640625 C-26.21917099 67.0124765 -25.77818573 65.8608905 -25.32383728 64.67440796 C-23.91020481 60.98861257 -22.486315 57.30687208 -21.0625 53.625 C-20.13934344 51.21899183 -19.21681173 48.81274381 -18.29492188 46.40625 C-12.33472171 30.88103335 -6.20626245 15.4284421 0 0 Z " fill="#4BB9EC" transform="translate(431,22)"/>
<path d="M0 0 C15.84 0 31.68 0 48 0 C57.21478611 23.03696528 57.21478611 23.03696528 61.015625 32.94140625 C61.43873962 34.04121323 61.86185425 35.1410202 62.29779053 36.27415466 C63.17541289 38.55629964 64.05238936 40.83869311 64.92871094 43.12133789 C66.26057725 46.59004737 67.594993 50.05776853 68.9296875 53.52539062 C69.79181631 55.76817165 70.6538007 58.0110082 71.515625 60.25390625 C71.90735901 61.27182755 72.29909302 62.28974884 72.70269775 63.33851624 C73.80920022 66.22292219 74.90578051 69.11091517 76 72 C76.57808411 73.50238724 76.57808411 73.50238724 77.16784668 75.03512573 C77.53494751 76.00829742 77.90204834 76.98146912 78.28027344 77.98413086 C78.61105896 78.85267197 78.94184448 79.72121307 79.28265381 80.61607361 C80 83 80 83 80 87 C72.22710618 87.13217075 64.45418599 87.26266159 56.68123055 87.39115143 C53.06986257 87.45089841 49.45850514 87.51117115 45.84716797 87.57275391 C42.34582485 87.63243982 38.84445914 87.69060324 35.3430748 87.74781799 C33.39277235 87.78005239 31.44249449 87.81376477 29.49221802 87.84753418 C19.65735776 88.00633489 9.84010132 88 0 88 C0 58.96 0 29.92 0 0 Z " fill="#96D6F4" transform="translate(33,22)"/>
</svg>
