<?xml version="1.0" encoding="UTF-8"?>
<svg version="1.1" xmlns="http://www.w3.org/2000/svg" width="512" height="512">
<path d="M0 0 C1.49341039 -0.00417984 2.98681761 -0.0096609 4.48021901 -0.01631981 C8.557702 -0.03070798 12.63498173 -0.02655058 16.71247554 -0.019153 C21.12022569 -0.01440713 25.52793277 -0.0269437 29.93566895 -0.03717041 C38.56061795 -0.05433603 47.18549402 -0.05520306 55.81045566 -0.04995751 C62.82334275 -0.04591038 69.83620833 -0.0473658 76.84909439 -0.05270576 C78.34824986 -0.0538284 78.34824986 -0.0538284 79.87769131 -0.05497371 C81.90827393 -0.05650524 83.93885655 -0.05804359 85.96943916 -0.05958868 C104.99697278 -0.07330564 124.02446524 -0.06788169 143.05199791 -0.05640347 C160.44397987 -0.04647206 177.83585543 -0.0594116 195.22782098 -0.08333766 C213.10390923 -0.10774366 230.97994795 -0.11733283 248.85605252 -0.11068493 C258.88492053 -0.10719604 268.91370672 -0.10940302 278.9425621 -0.12693596 C287.47987234 -0.1416767 296.01704316 -0.14226891 304.55435072 -0.12486505 C308.90639765 -0.11636808 313.25819571 -0.11417348 317.61022949 -0.1295166 C321.6013787 -0.14341273 325.59206698 -0.13853793 329.58318986 -0.11927737 C331.01982447 -0.11553206 332.45649645 -0.11839655 333.89309762 -0.12888902 C348.16412777 -0.22563184 360.35201841 2.48739188 371.02175903 12.38768005 C379.74209729 22.34670272 383.84521602 35.24533342 388.21707153 47.5243988 C388.69556341 48.85729824 389.17448448 50.19004367 389.65380859 51.52264404 C390.9027814 54.99831002 392.14633844 58.47588781 393.38858032 61.95396423 C394.89729158 66.17500361 396.4123361 70.39377296 397.92654228 74.61284351 C399.10461695 77.89566251 400.2817656 81.17880248 401.45587158 84.46304321 C403.60018424 90.4554935 405.76395291 96.43700586 408.02175903 102.38768005 C408.69722778 102.42506287 409.37269653 102.46244568 410.06863403 102.5009613 C410.96066528 102.56670349 411.85269653 102.63244568 412.77175903 102.70018005 C413.65347778 102.75818787 414.53519653 102.81619568 415.44363403 102.8759613 C418.55444042 103.49340924 419.80760574 104.10500682 422.02175903 106.38768005 C422.42003082 108.98118153 422.55907125 111.15458931 422.52346802 113.74900818 C422.528871 114.49565231 422.53427399 115.24229645 422.5398407 116.01156616 C422.55235424 118.48108997 422.53582066 120.94945385 422.51785278 123.41893005 C422.51800771 125.13381512 422.51949566 126.84870054 422.52226257 128.56358337 C422.52364774 132.15826387 422.51106921 135.75254594 422.48831177 139.34715271 C422.45992658 143.95766035 422.46266279 148.5675058 422.47540188 153.17806244 C422.4823529 156.7193824 422.47457642 160.26054898 422.46214485 163.80184937 C422.45762472 165.5019268 422.45729845 167.20202067 422.46121025 168.90209961 C422.46411688 171.27719441 422.44764289 173.65137285 422.42581177 176.02635193 C422.43031342 176.73085983 422.43481506 177.43536774 422.43945312 178.16122437 C422.39522355 181.05346084 422.35536318 182.93435563 420.61076355 185.30503845 C417.073582 187.71503783 413.43750031 187.49977221 409.27175903 187.45018005 C408.28691528 187.44115662 407.30207153 187.43213318 406.28738403 187.4228363 C405.53972778 187.41123474 404.79207153 187.39963318 404.02175903 187.38768005 C403.85395935 187.96902206 403.68615967 188.55036407 403.51327515 189.14932251 C401.4970312 196.01364452 399.20840156 202.75860295 396.81863403 209.5009613 C396.41775574 210.63237045 396.01687744 211.7637796 395.60385132 212.92947388 C394.75819249 215.31086169 393.91097845 217.69169774 393.06228638 220.07200623 C392.20443343 222.4837642 391.35121289 224.8971751 390.50271606 227.3122406 C375.94879322 268.73472688 375.94879322 268.73472688 358.02175903 277.38768005 C349.40034253 280.51141798 341.12734673 280.81703976 332.04351807 280.77536011 C330.55010767 280.77953994 329.05670046 280.78502101 327.56329906 280.79167992 C323.48581606 280.80606809 319.40853634 280.80191069 315.33104253 280.79451311 C310.92329237 280.78976723 306.5155853 280.8023038 302.10784912 280.81253052 C293.48290012 280.82969613 284.85802404 280.83056317 276.2330624 280.82531761 C269.22017532 280.82127049 262.20730973 280.82272591 255.19442368 280.82806587 C253.6952682 280.82918851 253.6952682 280.82918851 252.16582676 280.83033382 C250.13524414 280.83186535 248.10466152 280.8334037 246.0740789 280.83494879 C227.04654529 280.84866575 208.01905282 280.8432418 188.99152015 280.83176357 C171.59953819 280.82183217 154.20766264 280.83477171 136.81569709 280.85869776 C118.93960884 280.88310377 101.06357012 280.89269293 83.18746555 280.88604504 C73.15859754 280.88255614 63.12981134 280.88476312 53.10095596 280.90229607 C44.56364572 280.91703681 36.02647491 280.91762902 27.48916735 280.90022516 C23.13712042 280.89172819 18.78532236 280.88953359 14.43328857 280.90487671 C10.44213937 280.91877284 6.45145109 280.91389803 2.46032821 280.89463747 C1.02369359 280.89089217 -0.41297838 280.89375665 -1.84957956 280.90424912 C-16.1206097 281.00099195 -28.30850034 278.28796823 -38.97824097 268.38768005 C-47.59179746 258.55060701 -51.70207709 245.81589213 -56.06027222 233.6962738 C-56.52365048 232.41630344 -56.98733541 231.13644406 -57.4513092 229.85668945 C-58.41292228 227.20129005 -59.37145688 224.54480743 -60.3276062 221.88743591 C-61.55409051 218.47926816 -62.78753748 215.07366946 -64.02312183 211.66879177 C-64.97689549 209.03863078 -65.92751204 206.40733782 -66.87711143 203.77566719 C-67.55142849 201.90826494 -68.22805352 200.04169662 -68.90470886 198.17514038 C-69.3090062 197.04959244 -69.71330353 195.92404449 -70.12985229 194.76438904 C-70.66682487 193.2752726 -70.66682487 193.2752726 -71.21464539 191.756073 C-71.97824097 189.38768005 -71.97824097 189.38768005 -71.97824097 187.38768005 C-72.70269409 187.41088318 -73.42714722 187.4340863 -74.17355347 187.45799255 C-84.21199239 187.64537675 -84.21199239 187.64537675 -88.97824097 185.38768005 C-90.46163999 182.420882 -90.14288602 179.39397553 -90.15524292 176.13987732 C-90.16181412 175.39337921 -90.16838531 174.6468811 -90.17515564 173.87776184 C-90.19489512 171.40320237 -90.2065509 168.92870351 -90.21652222 166.4540863 C-90.22059774 165.6101576 -90.22467327 164.7662289 -90.2288723 163.89672661 C-90.24973303 159.43236917 -90.2640363 154.9680425 -90.27340698 150.50364685 C-90.28448837 145.88525135 -90.31890777 141.26733544 -90.35857868 136.64910984 C-90.38467651 133.10354698 -90.39309256 129.55809974 -90.39668846 126.01244926 C-90.40156998 124.30954171 -90.41322828 122.60663984 -90.43172646 120.90382576 C-90.45598006 118.52378481 -90.45517916 116.14500305 -90.44821167 113.76487732 C-90.46102173 113.05879837 -90.47383179 112.35271942 -90.48703003 111.62524414 C-90.45403985 108.54124857 -90.36105461 106.81929091 -88.2769928 104.46957397 C-85.6605419 103.23815687 -83.60845193 102.88966762 -80.72824097 102.70018005 C-79.83620972 102.63443787 -78.94417847 102.56869568 -78.02511597 102.5009613 C-77.01191284 102.44488708 -77.01191284 102.44488708 -75.97824097 102.38768005 C-75.71594696 101.65677658 -75.45365295 100.92587311 -75.18341064 100.17282104 C-72.68623998 93.21578091 -70.18642445 86.25969918 -67.68378258 79.30462551 C-66.39787314 75.73068363 -65.11291707 72.15640551 -63.83029175 68.58128357 C-62.5877398 65.11797851 -61.34248543 61.65565531 -60.09550858 58.19394112 C-59.62504317 56.88649259 -59.15548162 55.57871837 -58.68693161 54.2705822 C-43.52553101 11.9539103 -43.52553101 11.9539103 -25.97824097 3.38768005 C-17.36103172 0.25690058 -9.08106809 -0.04166698 0 0 Z " fill="#1B74B9" transform="translate(89.97824096679688,115.61231994628906)"/>
<path d="M0 0 C1.51030289 0.00848969 1.51030289 0.00848969 3.05111694 0.01715088 C6.22989852 0.03933108 9.40750344 0.0894922 12.5859375 0.140625 C14.756494 0.16071375 16.92706838 0.17896032 19.09765625 0.1953125 C24.38581014 0.23913513 29.67328972 0.30585964 34.9609375 0.390625 C34.97552002 1.39851074 34.99010254 2.40639648 35.00512695 3.44482422 C35.06364255 7.22852887 35.14086557 11.01167106 35.22338867 14.79492188 C35.25638999 16.42405992 35.28449685 18.05330551 35.30737305 19.68261719 C35.54910968 38.07034555 35.54910968 38.07034555 44.9609375 53.390625 C53.96344691 60.53547374 61.48912683 62.38108734 72.9609375 61.390625 C81.09158283 59.53314515 87.83798767 54.9895959 92.53125 48.078125 C96.26790956 41.58701353 97.11907558 36.37513435 97.27734375 28.90625 C97.3085154 27.68285919 97.3085154 27.68285919 97.34031677 26.43475342 C97.40555047 23.83679395 97.46457518 21.23873587 97.5234375 18.640625 C97.56664764 16.876292 97.61026272 15.11196887 97.65429688 13.34765625 C97.76120495 9.02874616 97.86254577 4.70973716 97.9609375 0.390625 C103.35440738 0.36597651 108.74784475 0.34778969 114.14135742 0.33569336 C115.97762625 0.33065269 117.81389104 0.32382023 119.65014648 0.31518555 C122.28370151 0.30310828 124.91720366 0.29739419 127.55078125 0.29296875 C128.37682358 0.28780746 129.20286591 0.28264618 130.05393982 0.27732849 C132.02330118 0.27713295 133.99255364 0.32858348 135.9609375 0.390625 C137.96909573 2.39878323 137.12186059 6.47312196 137.13671875 9.23046875 C137.15994792 10.86785096 137.18406644 12.50522075 137.20898438 14.14257812 C137.24386897 16.72281823 137.27330341 19.30261124 137.28686523 21.88305664 C137.35561505 32.8227383 137.42430292 42.54436621 144.2109375 51.703125 C150.70641193 58.05097501 157.95373074 61.65140504 167.1484375 61.765625 C175.16975077 61.62827375 181.54165132 59.58412934 188.2734375 55.265625 C195.56420383 47.46620055 198.0613482 40.40573685 198.2421875 29.94140625 C198.26980164 28.72157295 198.26980164 28.72157295 198.29797363 27.47709656 C198.37656465 24.00301072 198.44465198 20.52874006 198.51318359 17.05444336 C198.56475778 14.51666227 198.62203767 11.97905539 198.6796875 9.44140625 C198.69326294 8.64978592 198.70683838 7.85816559 198.7208252 7.04255676 C198.84806023 1.50350227 198.84806023 1.50350227 199.9609375 0.390625 C202.7725713 0.30200508 205.55952005 0.27540145 208.37109375 0.29296875 C209.21312851 0.2943837 210.05516327 0.29579865 210.92271423 0.29725647 C213.62299085 0.30287237 216.32318578 0.31542752 219.0234375 0.328125 C220.84960818 0.33313795 222.67578016 0.33770121 224.50195312 0.34179688 C228.98831292 0.35284696 233.47461134 0.37012221 237.9609375 0.390625 C237.98281128 1.95574829 237.98281128 1.95574829 238.00512695 3.55249023 C238.06354143 7.46102449 238.14076757 11.36900835 238.22338867 15.27709961 C238.25643663 16.96157837 238.2845298 18.6461625 238.30737305 20.33081055 C238.51486061 38.19519868 238.51486061 38.19519868 247.71484375 53.20703125 C255.43140929 60.44036763 261.94481736 62.00482039 272.4921875 61.734375 C281.24635047 60.86684534 288.16950322 56.98642515 293.9609375 50.390625 C298.7002086 43.22529846 300.24131255 35.49307986 300.375 27.05078125 C300.39436615 26.28382431 300.4137323 25.51686737 300.4336853 24.72666931 C300.49296308 22.30226394 300.53965661 19.87780972 300.5859375 17.453125 C300.62416512 15.79880862 300.66321956 14.14451113 300.703125 12.49023438 C300.79862113 8.45718656 300.88284057 4.42404573 300.9609375 0.390625 C307.04408136 0.31599224 313.12695362 0.26179588 319.21044922 0.22583008 C321.27625171 0.21082308 323.34202278 0.190411 325.40771484 0.16430664 C328.39168088 0.12756539 331.37522257 0.11081736 334.359375 0.09765625 C335.72562515 0.07443047 335.72562515 0.07443047 337.11947632 0.05073547 C346.73805123 0.04825921 355.14196588 2.21480288 362.4453125 8.7109375 C373.57501992 20.12749305 377.54493393 40.88327358 382.7109375 55.453125 C384.0042052 59.08848364 385.29872658 62.72339217 386.59405518 66.35801697 C387.3946346 68.60567429 388.19381127 70.85383189 388.99139404 73.10255432 C389.35227112 74.11808884 389.71314819 75.13362335 390.08496094 76.17993164 C390.5574527 77.51224571 390.5574527 77.51224571 391.03948975 78.87147522 C391.67450022 80.60753295 392.35731512 82.3265948 393.07818604 84.02879333 C393.9609375 86.390625 393.9609375 86.390625 393.9609375 89.390625 C393.00014345 89.39282484 393.00014345 89.39282484 392.01993942 89.39506912 C376.43789649 89.43211302 360.85611466 89.49109528 345.27425766 89.57452774 C337.73898713 89.61434542 330.20382144 89.64672396 322.66845703 89.66162109 C316.10098825 89.67462358 309.53374989 89.70155195 302.96641088 89.74523807 C299.48865519 89.76788493 296.01118405 89.78353378 292.53334808 89.78250885 C288.65187673 89.78162579 284.77098791 89.81183209 280.88964844 89.84472656 C279.73518723 89.8396962 278.58072601 89.83466583 277.39128113 89.82948303 C275.80537926 89.85035225 275.80537926 89.85035225 274.18743896 89.87164307 C273.26933315 89.87533024 272.35122734 89.87901741 271.40530014 89.88281631 C268.33205959 90.28817441 268.33205959 90.28817441 264.9609375 94.390625 C264.6309375 102.640625 264.3009375 110.890625 263.9609375 119.390625 C200.6009375 119.390625 137.2409375 119.390625 71.9609375 119.390625 C71.6309375 111.140625 71.3009375 102.890625 70.9609375 94.390625 C70.6309375 93.400625 70.3009375 92.410625 69.9609375 91.390625 C66.958927 90.22034701 63.96553233 90.25503002 60.7723999 90.23240662 C59.72354614 90.2226178 58.67469238 90.21282898 57.59405518 90.20274353 C55.87638947 90.19411034 55.87638947 90.19411034 54.12402344 90.18530273 C52.30898315 90.17045334 52.30898315 90.17045334 50.45727539 90.15530396 C47.14357364 90.12913901 43.82989569 90.10726758 40.51615429 90.08730197 C37.0514538 90.06541259 33.58679676 90.03803836 30.12213135 90.01124573 C23.5632512 89.96135872 17.00434689 89.91640511 10.44541955 89.87322336 C2.97748376 89.82381684 -4.49040842 89.76891139 -11.95830202 89.71354377 C-27.31851521 89.59978502 -42.67876852 89.49293272 -58.0390625 89.390625 C-57.4134387 86.15995562 -56.687012 83.12691666 -55.58374023 80.02539062 C-55.28930527 79.19261597 -54.9948703 78.35984131 -54.69151306 77.50183105 C-54.21192894 76.16287781 -54.21192894 76.16287781 -53.72265625 74.796875 C-53.38790787 73.85493286 -53.05315948 72.91299072 -52.70826721 71.94250488 C-51.99621615 69.94138502 -51.28246293 67.94087013 -50.56713867 65.94091797 C-49.50073065 62.95822224 -48.44032808 59.97344781 -47.38085938 56.98828125 C-45.63767873 52.08754056 -43.87495843 47.19419716 -42.09783936 42.30566406 C-41.39004983 40.35696816 -40.68551645 38.40708661 -39.98419189 36.45605469 C-38.96421104 33.62740935 -37.92776509 30.80532562 -36.88671875 27.984375 C-36.58809433 27.14902222 -36.28946991 26.31366943 -35.98179626 25.45300293 C-32.61453421 16.44846179 -27.77358425 7.81036355 -18.92227173 3.31573486 C-12.44507564 0.51171316 -7.01117354 -0.15163372 0 0 Z " fill="#00CBFE" transform="translate(88.0390625,129.609375)"/>
<path d="M0 0 C147.18 0 294.36 0 446 0 C442.62103107 11.26322977 442.62103107 11.26322977 441.10229492 15.56640625 C440.59112373 17.01841431 440.59112373 17.01841431 440.06962585 18.49975586 C439.53049309 20.01581421 439.53049309 20.01581421 438.98046875 21.5625 C438.40888786 23.17040405 438.40888786 23.17040405 437.82575989 24.81079102 C437.02301617 27.0635456 436.21868603 29.31573546 435.4128418 31.56738281 C434.59655256 33.85409862 433.78501854 36.14251752 432.97827148 38.43261719 C431.80202469 41.77142401 430.61158262 45.10486809 429.41796875 48.4375 C429.0646196 49.44820557 428.71127045 50.45891113 428.34721375 51.50024414 C424.55719569 61.97530805 419.96337983 71.44695095 410.03662109 77.12255859 C399.87992793 81.60276274 388.66718074 80.42940222 377.8125 80.25 C375.69467833 80.22990589 373.57683827 80.21166027 371.45898438 80.1953125 C366.30553039 80.15154425 361.15297064 80.08267648 356 80 C355.9906543 78.96705811 355.98130859 77.93411621 355.97167969 76.86987305 C355.93139457 72.98729468 355.86553558 69.1054771 355.79248047 65.22338867 C355.76449175 63.55259068 355.74316888 61.88166572 355.72900391 60.21069336 C355.6096932 46.9234572 354.80147096 35.93800796 345.15625 25.87890625 C337.79702523 19.46624843 330.02345347 18.62831914 320.54296875 18.7265625 C312.09379126 19.37864897 305.58538321 23.76968148 300 30 C295.14365822 37.13388172 293.86491547 42.927563 293.68359375 51.484375 C293.6524221 52.70776581 293.6524221 52.70776581 293.62062073 53.95587158 C293.55538703 56.55383105 293.49636232 59.15188913 293.4375 61.75 C293.39428986 63.514333 293.35067478 65.27865613 293.30664062 67.04296875 C293.19973255 71.36187884 293.09839173 75.68088784 293 80 C287.60653012 80.02464849 282.21309275 80.04283531 276.81958008 80.05493164 C274.98331125 80.05997231 273.14704646 80.06680477 271.31079102 80.07543945 C268.67723599 80.08751672 266.04373384 80.09323081 263.41015625 80.09765625 C262.17109276 80.10539818 262.17109276 80.10539818 260.90699768 80.11329651 C258.93763632 80.11349205 256.96838386 80.06204152 255 80 C253.20723184 78.20723184 253.89005097 75.78610429 253.88813782 73.40080261 C253.89024765 72.61240494 253.89235748 71.82400726 253.89453125 71.01171875 C253.88105317 69.33787791 253.86602608 67.66404897 253.84960938 65.99023438 C253.82696089 63.35497372 253.81233951 60.72103599 253.82495117 58.08569336 C253.86282913 47.30071339 253.6655223 38.07439204 247 29 C239.91809765 21.90729972 233.06638939 18.90641834 223.125 18.5625 C214.65764321 18.77078792 206.87738146 20.93057084 200.70996094 27.02075195 C191.98323325 37.12177727 192.12725709 48.0990946 192.1875 60.6875 C192.1733186 63.30721334 192.1510136 65.9267171 192.12532043 68.54634094 C192.11229113 70.16444859 192.10753184 71.7826483 192.11186218 73.40080261 C192.10745748 78.89254252 192.10745748 78.89254252 191 80 C188.1883662 80.08861992 185.40141745 80.11522355 182.58984375 80.09765625 C181.74780899 80.0962413 180.90577423 80.09482635 180.03822327 80.09336853 C177.33794665 80.08775263 174.63775172 80.07519748 171.9375 80.0625 C170.11132932 80.05748705 168.28515734 80.05292379 166.45898438 80.04882812 C161.97262458 80.03777804 157.48632616 80.02050279 153 80 C152.97812622 78.43487671 152.97812622 78.43487671 152.95581055 76.83813477 C152.89739607 72.92960051 152.82016993 69.02161665 152.73754883 65.11352539 C152.70450087 63.42904663 152.6764077 61.7444625 152.65356445 60.05981445 C152.42058476 42.22434048 152.42058476 42.22434048 143.28125 27.18359375 C135.62482337 19.90695019 128.02823368 18.26758977 117.5703125 18.52734375 C109.86858415 19.54693798 103.39350612 23.13367735 98 28.6875 C90.26273513 39.06719322 90.35498588 50.30282888 90.25 62.6875 C90.22178552 64.37177472 90.19185062 66.05602154 90.16015625 67.74023438 C90.0869463 71.82677195 90.03697795 75.91298057 90 80 C83.63213925 80.10208207 77.26449237 80.17174934 70.89599609 80.21972656 C68.73315546 80.2397439 66.57036827 80.2669663 64.40771484 80.30175781 C61.28469594 80.35071247 58.1623974 80.37306817 55.0390625 80.390625 C53.60719101 80.42159271 53.60719101 80.42159271 52.14639282 80.45318604 C42.76116337 80.45626744 34.63265474 77.6765667 27.77758789 71.11083984 C19.86357114 61.71314876 16.50125131 47.93477761 12.44897461 36.56347656 C11.31170905 33.37278091 10.16364864 30.18613372 9.01367188 27 C8.27541151 24.94553883 7.53776035 22.89085863 6.80078125 20.8359375 C6.46323318 19.89712738 6.12568512 18.95831726 5.77790833 17.99105835 C5.45714828 17.08957062 5.13638824 16.18808289 4.8059082 15.25927734 C4.52866409 14.48272797 4.25141998 13.70617859 3.96577454 12.90609741 C2.54644387 8.63521119 1.29322411 4.31074704 0 0 Z " fill="#00CBFE" transform="translate(33,302)"/>
<path d="M0 0 C43.56 0 87.12 0 132 0 C132.33 8.58 132.66 17.16 133 26 C136.33901765 29.33901765 137.37749574 29.35341564 141.89112276 29.40123022 C142.70064585 29.39453805 143.51016893 29.38784589 144.34422302 29.38095093 C145.20559358 29.3856309 146.06696414 29.39031087 146.95443684 29.39513266 C149.85185949 29.4071354 152.74881375 29.39760483 155.64624023 29.38818359 C157.71898679 29.39224698 159.79173117 29.39758754 161.86447144 29.40411377 C167.50286604 29.41782172 173.14109647 29.41247413 178.77949405 29.40297651 C184.67266718 29.39539691 190.56582597 29.40242088 196.45899963 29.40713501 C206.3578647 29.41259795 216.25666269 29.40538727 226.15551758 29.39111328 C237.60775393 29.37479028 249.05983003 29.38007063 260.51206249 29.3965925 C270.33462346 29.41019739 280.15713614 29.41213176 289.97970349 29.40427649 C295.85064099 29.39959392 301.72150314 29.39899109 307.59243584 29.40888596 C313.11228196 29.41753865 318.63192112 29.41156467 324.15174484 29.39420319 C326.18027337 29.39022908 328.20881925 29.39138811 330.23734093 29.39799118 C333.00139526 29.40616035 335.76478182 29.39594112 338.52879333 29.38095093 C339.73973188 29.39098918 339.73973188 29.39098918 340.97513384 29.40123022 C345.75258593 29.35079892 346.98569645 29.01072766 351 26 C351.33 17.42 351.66 8.84 352 0 C395.56 0 439.12 0 484 0 C484 18.15 484 36.3 484 55 C324.28 55 164.56 55 0 55 C0 36.85 0 18.7 0 0 Z " fill="#F8F8F8" transform="translate(14,233)"/>
<path d="M0 0 C4.6209371 2.66082649 6.89459424 6.37128273 8.5625 11.375 C8.6474393 14.03369128 8.67852423 16.66606773 8.66015625 19.32421875 C8.65914917 20.00923462 8.65814209 20.69425049 8.65710449 21.40002441 C8.65188007 23.95420002 8.63791879 26.50835172 8.625 29.0625 C8.604375 34.775625 8.58375 40.48875 8.5625 46.375 C-3.3175 46.375 -15.1975 46.375 -27.4375 46.375 C-27.52 40.765 -27.6025 35.155 -27.6875 29.375 C-27.72391602 27.62058594 -27.76033203 25.86617188 -27.79785156 24.05859375 C-27.8095513 22.64324155 -27.81974007 21.22787572 -27.828125 19.8125 C-27.84858887 19.09771484 -27.86905273 18.38292969 -27.89013672 17.64648438 C-27.89439184 11.39997217 -25.99431629 6.10834481 -21.68359375 1.5 C-14.82889864 -2.76382763 -7.4459755 -3.28621265 0 0 Z " fill="#F3F5F7" transform="translate(265.4375,335.625)"/>
<path d="M0 0 C11.88 0 23.76 0 36 0 C36.0825 5.61 36.165 11.22 36.25 17 C36.28641602 18.75441406 36.32283203 20.50882813 36.36035156 22.31640625 C36.3720513 23.73175845 36.38224007 25.14712428 36.390625 26.5625 C36.41108887 27.27728516 36.43155273 27.99207031 36.45263672 28.72851562 C36.45635592 34.18830467 35.10652378 38.47167498 32 43 C26.41123242 47.44820277 21.84339745 48.42831875 14.859375 48.3359375 C10.41492731 47.81377561 7.06414911 46.27570506 4 43 C0.54022484 37.51663293 -0.57447658 32.98427638 -0.390625 26.5625 C-0.38659668 25.88251953 -0.38256836 25.20253906 -0.37841797 24.50195312 C-0.35774449 22.00102118 -0.30190193 19.50047879 -0.25 17 C-0.1675 11.39 -0.085 5.78 0 0 Z " fill="#F3F5F7" transform="translate(238,130)"/>
<path d="M0 0 C3.7229703 2.6592645 6.55543557 5.73587115 8.625 9.875 C8.71183445 12.64660626 8.7405579 15.39274765 8.72265625 18.1640625 C8.7212413 18.98248627 8.71982635 19.80091003 8.71836853 20.64413452 C8.7127629 23.26279325 8.70020948 25.88136704 8.6875 28.5 C8.68248572 30.27343627 8.67792269 32.04687387 8.67382812 33.8203125 C8.66364174 38.17193419 8.6440675 42.52337182 8.625 46.875 C-2.925 46.875 -14.475 46.875 -26.375 46.875 C-26.46716064 41.87528509 -26.54669227 36.87855174 -26.59472656 31.87866211 C-26.61476221 30.18031798 -26.64199885 28.48204215 -26.67675781 26.78393555 C-26.72563415 24.3336496 -26.74804872 21.8842806 -26.765625 19.43359375 C-26.78627014 18.68226669 -26.80691528 17.93093964 -26.82818604 17.15684509 C-26.83051167 11.61287239 -25.51732086 8.45593483 -22.375 3.875 C-16.00606735 -2.02791319 -8.14686898 -2.71562299 0 0 Z " fill="#F6F7F8" transform="translate(163.375,335.125)"/>
<path d="M0 0 C3.34023768 1.93733785 5.01351672 3.60617353 7.125 6.8125 C7.48577637 7.35487305 7.84655273 7.89724609 8.21826172 8.45605469 C9.56158497 11.9471037 9.36992211 15.39288139 9.3203125 19.078125 C9.3174826 19.87152283 9.31465271 20.66492065 9.31173706 21.48236084 C9.30056779 24.00922917 9.27546944 26.53573932 9.25 29.0625 C9.23996598 30.7786407 9.23084087 32.49478698 9.22265625 34.2109375 C9.20234305 38.41170639 9.16318906 42.61170361 9.125 46.8125 C-2.425 46.8125 -13.975 46.8125 -25.875 46.8125 C-25.96705878 41.65209367 -26.04662277 36.494559 -26.09472656 31.33398438 C-26.1147871 29.58030521 -26.14204251 27.82669247 -26.17675781 26.07324219 C-26.22552302 23.54605682 -26.24802392 21.01975909 -26.265625 18.4921875 C-26.28627014 17.71382538 -26.30691528 16.93546326 -26.32818604 16.1335144 C-26.33032769 10.88567396 -25.30897627 7.9962356 -21.875 3.8125 C-15.66710788 -1.78974411 -7.91099352 -3.03083518 0 0 Z " fill="#F6F7F8" transform="translate(365.875,335.1875)"/>
<path d="M0 0 C11.55 0 23.1 0 35 0 C35.0690497 5.0176117 35.12872743 10.03356045 35.16479492 15.05126953 C35.17983738 16.75640463 35.20027653 18.46150132 35.22631836 20.16650391 C35.26290284 22.62412012 35.27977173 25.08122269 35.29296875 27.5390625 C35.30845261 28.29555084 35.32393646 29.05203918 35.33988953 29.83145142 C35.34160672 35.29006309 34.30676846 39.47096478 30.5 43.64453125 C24.49448362 48.32070155 19.43332757 48.73813463 12 48 C6.63841084 46.28468354 3.68445087 42.8526612 1 38 C-0.23170492 34.30488524 -0.12423376 30.89698659 -0.09765625 27.05078125 C-0.09664917 26.36576538 -0.09564209 25.68074951 -0.09460449 24.97497559 C-0.08938007 22.42079998 -0.07541879 19.86664828 -0.0625 17.3125 C-0.041875 11.599375 -0.02125 5.88625 0 0 Z " fill="#F6F7F8" transform="translate(137,130)"/>
<path d="M0 0 C11.55 0 23.1 0 35 0 C35.0825 5.61 35.165 11.22 35.25 17 C35.28641602 18.75441406 35.32283203 20.50882813 35.36035156 22.31640625 C35.3720513 23.73175845 35.38224007 25.14712428 35.390625 26.5625 C35.41108887 27.27728516 35.43155273 27.99207031 35.45263672 28.72851562 C35.45635592 34.18830467 34.10652378 38.47167498 31 43 C24.86310204 47.8844698 19.61970456 48.64291257 12 48 C6.71902596 46.20646165 4.20104749 43.39000798 1 39 C-0.25282725 35.24151826 -0.12381835 31.74509081 -0.09765625 27.83203125 C-0.0962413 27.03721848 -0.09482635 26.2424057 -0.09336853 25.42350769 C-0.08777378 22.88646675 -0.07522228 20.34951425 -0.0625 17.8125 C-0.05748432 16.09179815 -0.05292153 14.37109492 -0.04882812 12.65039062 C-0.03865722 8.43353231 -0.01908084 4.21686509 0 0 Z " fill="#F6F7F8" transform="translate(340,130)"/>
</svg>
