<?xml version="1.0" encoding="UTF-8"?>
<svg version="1.1" xmlns="http://www.w3.org/2000/svg" width="512" height="512">
<path d="M0 0 C16.08904446 12.34396826 24.37865446 28.22489868 27.17578125 48.08203125 C29.10013473 48.08561378 29.10013473 48.08561378 31.06336403 48.08926868 C61.51395007 48.14662322 91.96445623 48.21934996 122.41495685 48.31101753 C126.16254251 48.32228575 129.91012855 48.3334242 133.65771484 48.34448242 C134.40379467 48.34668611 135.1498745 48.34888979 135.91856281 48.35116025 C148.00043652 48.38653676 160.08231017 48.41139889 172.16421647 48.43237827 C184.56052295 48.45413751 196.9567622 48.4871891 209.35301149 48.53073281 C217.00273525 48.55724743 224.65237522 48.57494418 232.30214266 48.58137729 C238.16708095 48.58725273 244.03189524 48.6088361 249.89677429 48.63630676 C252.30340121 48.64511332 254.71005302 48.64880418 257.1166954 48.64703941 C260.39911449 48.64539216 263.6809484 48.66203987 266.96328735 48.68330383 C268.39617739 48.67603247 268.39617739 48.67603247 269.8580147 48.66861421 C275.04845655 48.72421445 278.69496424 49.1654475 283.17578125 52.08203125 C287.36960379 56.61589345 288.30132268 59.8349306 288.29603577 65.90959167 C288.29809776 67.73323494 288.29809776 67.73323494 288.30020142 69.59371948 C288.29666229 70.94293237 288.29302749 72.29214502 288.28930664 73.64135742 C288.2890246 75.06050108 288.28918283 76.47964488 288.28974915 77.89878845 C288.29003647 81.7538725 288.28415019 85.60892554 288.27717519 89.46400237 C288.27093088 93.49189456 288.270337 97.51978743 288.26914978 101.54768372 C288.26603965 109.17619003 288.25783053 116.80468205 288.24780029 124.43318206 C288.2366293 133.11748588 288.23112621 141.80179038 288.22610486 150.4860996 C288.21564767 168.35141826 288.19805436 186.21672361 288.17578125 204.08203125 C288.88242416 204.05982513 289.58906708 204.03761902 290.31712341 204.01473999 C297.00966804 203.81352663 303.70135726 203.66170905 310.39625454 203.56390953 C313.83767674 203.51193253 317.27658037 203.44158048 320.71655273 203.32763672 C324.68050878 203.19717389 328.64348192 203.14949332 332.609375 203.10546875 C334.44271645 203.02804947 334.44271645 203.02804947 336.31309509 202.94906616 C341.4373635 202.94573111 344.81334853 202.99797113 348.91372681 206.26055908 C351.18619281 208.77201975 353.19613323 211.33703642 355.17578125 214.08203125 C356.14665914 215.18215961 357.13356778 216.26862204 358.14453125 217.33203125 C363.0840803 222.69845491 367.99172358 228.09122413 372.86328125 233.51953125 C375.4519336 236.38803791 378.06191635 239.23653521 380.67578125 242.08203125 C382.50960462 244.08158263 384.34268773 246.08181054 386.17578125 248.08203125 C386.97371094 248.95085937 387.77164062 249.8196875 388.59375 250.71484375 C390.81165178 253.15033658 392.99574643 255.61264636 395.17578125 258.08203125 C395.94664062 258.91605469 396.7175 259.75007813 397.51171875 260.609375 C401.59350075 265.25687766 404.0777146 268.57175149 403.9453125 274.87890625 C401.79769103 281.02742661 396.25524515 284.80488647 391.17578125 288.45703125 C389.75833305 289.4976342 388.3417111 290.53936326 386.92578125 291.58203125 C386.16652344 292.13890625 385.40726562 292.69578125 384.625 293.26953125 C380.10397203 296.61523616 375.64355308 300.04073185 371.17578125 303.45703125 C368.63183515 305.40027115 366.08730693 307.34267291 363.5390625 309.28027344 C361.96885953 310.47739099 360.40369228 311.68114384 358.84375 312.89160156 C358.12832031 313.44170898 357.41289062 313.99181641 356.67578125 314.55859375 C356.04671875 315.04666504 355.41765625 315.53473633 354.76953125 316.03759766 C353.17578125 317.08203125 353.17578125 317.08203125 351.17578125 317.08203125 C351.23922226 317.87399399 351.30266327 318.66595673 351.36802673 319.48191833 C352.14058761 329.62561867 352.56471233 339.76461429 352.9296875 349.9296875 C352.99537559 351.71700052 353.06121002 353.50430816 353.12718201 355.29161072 C353.26401783 359.01376893 353.39912433 362.73598466 353.53295898 366.45825195 C353.70337085 371.19405255 353.87810525 375.92968197 354.05413914 380.66527653 C354.19057036 384.34840182 354.32470484 388.03160812 354.45817375 391.71484184 C354.52166638 393.45971643 354.58584233 395.20456631 354.65075874 396.9493885 C354.8244451 401.63568804 354.9837034 406.32190615 355.11479568 411.00960159 C355.17314072 412.99230008 355.24588261 414.9745592 355.31930542 416.95675659 C355.3466275 418.10596588 355.37394958 419.25517517 355.40209961 420.43920898 C355.4312999 421.41889145 355.46050018 422.39857391 355.49058533 423.40794373 C355.00489768 427.53359319 353.27389002 430.01510615 350.33221436 432.87324524 C347.60782868 434.40039639 345.78875423 434.44404712 342.67285156 434.42260742 C341.02159271 434.42226753 341.02159271 434.42226753 339.3369751 434.42192078 C338.15456238 434.40643692 336.97214966 434.39095306 335.75390625 434.375 C334.53878357 434.37075516 333.32366089 434.36651031 332.07171631 434.36213684 C328.18951286 434.34534001 324.30782789 434.30768463 320.42578125 434.26953125 C317.79427833 434.25448577 315.16276727 434.24079713 312.53125 434.22851562 C306.07925008 434.1954331 299.62755271 434.14522304 293.17578125 434.08203125 C293.24434326 435.31002441 293.31290527 436.53801758 293.38354492 437.80322266 C293.88965902 447.01869492 294.39077469 456.22640981 294.48828125 465.45703125 C294.51728516 466.42640625 294.54628906 467.39578125 294.57617188 468.39453125 C294.61580124 472.82082649 294.62952995 475.33919318 292.28125 479.18359375 C288.42656357 482.65924794 284.99419338 482.23286072 280.0344696 482.2359314 C279.18282614 482.24031365 278.33118268 482.2446959 277.45373183 482.24921095 C274.58332881 482.2626279 271.71295651 482.26878427 268.8425293 482.27490234 C266.79125834 482.28280096 264.73998878 482.29106976 262.6887207 482.29968262 C255.93832735 482.32592803 249.18792771 482.3412116 242.4375 482.35546875 C240.11655994 482.36082717 237.79561992 482.36620468 235.47467995 482.3716011 C225.82310238 482.39323247 216.17152652 482.41197075 206.51993084 482.4232235 C192.67235792 482.43947276 178.82506517 482.47267152 164.97759789 482.52962434 C155.24932206 482.56827623 145.52112131 482.58785049 135.79277068 482.59314406 C129.97813624 482.59680369 124.16380044 482.60889019 118.34924889 482.6412468 C112.88023878 482.67124408 107.41170932 482.67766898 101.94263458 482.66586304 C99.93385594 482.66564161 97.92505553 482.67400342 95.91635323 482.69151688 C93.17633335 482.71410878 90.43807109 482.70596036 87.69804382 482.69003296 C86.90076408 482.70391505 86.10348433 482.71779713 85.28204459 482.73209989 C81.26861787 482.67450963 79.39553972 482.2537113 76.19455338 479.75303173 C72.32096313 474.62795531 73.07038752 468.75451846 73.33764648 462.58618164 C73.36676117 461.8731488 73.39587585 461.16011597 73.4258728 460.42547607 C73.5226076 458.09324278 73.62841539 455.7615183 73.734375 453.4296875 C73.80362786 451.80303799 73.8723092 450.17636405 73.94044495 448.54966736 C74.12053375 444.28663508 74.30834386 440.02397729 74.49780273 435.76135254 C74.6900785 431.40425352 74.87499639 427.04684281 75.06054688 422.68945312 C75.42512008 414.15332499 75.79785677 405.61757865 76.17578125 397.08203125 C75.54262623 397.08479663 74.90947121 397.08756201 74.25712967 397.09041119 C58.8059719 397.15684716 43.35486425 397.20639712 27.90359879 397.23746777 C20.4312856 397.25289511 12.95906813 397.27390489 5.48681641 397.30834961 C-1.03080223 397.33837929 -7.54835151 397.35763624 -14.06603742 397.36429673 C-17.51276828 397.36818619 -20.95930081 397.37723908 -24.40596771 397.39922142 C-28.26644938 397.42364018 -32.12674221 397.4239926 -35.98730469 397.42260742 C-37.11300369 397.43339325 -38.2387027 397.44417908 -39.39851379 397.45529175 C-54.97356989 397.3951649 -68.55952082 392.5583794 -80.82421875 383.08203125 C-81.51386719 382.57027344 -82.20351562 382.05851562 -82.9140625 381.53125 C-94.48550554 372.29700932 -102.27569009 357.53352993 -104.82421875 343.08203125 C-105.1098975 338.98274279 -105.10282151 334.8950724 -105.09164429 330.78707886 C-105.0961754 329.56097212 -105.10070651 328.33486538 -105.10537493 327.07160389 C-105.11581453 323.68476287 -105.11735004 320.29813489 -105.11498618 316.91129303 C-105.11457682 313.25194797 -105.12562867 309.59263419 -105.13510132 305.93330383 C-105.15168742 298.76947871 -105.15720981 291.60568651 -105.15832607 284.44184379 C-105.15927784 278.61501397 -105.16339456 272.78819496 -105.16972733 266.96136856 C-105.18733451 250.42295149 -105.19656721 233.88456033 -105.19506638 217.34613381 C-105.19498647 216.4552495 -105.19490655 215.56436518 -105.19482422 214.64648438 C-105.19474246 213.75450569 -105.1946607 212.862527 -105.19457646 211.94351865 C-105.19376408 197.49752042 -105.21289097 183.05162657 -105.24110095 168.60565852 C-105.26987169 153.75470725 -105.28363889 138.90380683 -105.2819134 124.052827 C-105.28125086 115.72240738 -105.28668297 107.39209716 -105.3082695 99.06170273 C-105.3265367 91.96703257 -105.33078353 84.87252137 -105.31725065 77.7778378 C-105.3107483 74.16286084 -105.31050366 70.54818834 -105.32795715 66.93324089 C-105.43630612 42.97611083 -103.22809874 24.09891161 -85.82421875 6.08203125 C-61.05612684 -15.44381381 -27.43973119 -18.63472754 0 0 Z " fill="#3863CC" transform="translate(106.82421875,20.91796875)"/>
<path d="M0 0 C41.353125 -0.0825 82.70625 -0.165 125.3125 -0.25 C138.38915283 -0.28641602 151.46580566 -0.32283203 164.9387207 -0.36035156 C180.85778809 -0.37841797 180.85778809 -0.37841797 188.30070496 -0.3817749 C193.51981333 -0.38551454 198.73875675 -0.40022694 203.95780945 -0.42230225 C210.60482121 -0.45037607 217.25164291 -0.4579842 223.89872587 -0.4522891 C226.34456622 -0.45348087 228.7904144 -0.46147446 231.23620665 -0.47686052 C234.52787689 -0.49661407 237.81861636 -0.4920136 241.11030579 -0.48101807 C242.07791934 -0.49266872 243.04553289 -0.50431938 244.04246807 -0.51632309 C250.42210258 -0.45862924 250.42210258 -0.45862924 253.09555817 1.66307068 C254.21180217 4.54726206 254.36897402 6.77380442 254.36076355 9.87188721 C254.36694954 11.67235001 254.36694954 11.67235001 254.3732605 13.50918579 C254.36247467 14.82260956 254.35168884 16.13603333 254.34057617 17.48925781 C254.33972979 18.88884462 254.34020527 20.28843276 254.34190369 21.6880188 C254.34276463 25.48529822 254.32512307 29.2822935 254.30418181 33.07950687 C254.2854314 37.04865644 254.28366587 41.01781249 254.28010559 44.98699951 C254.27078031 52.5021974 254.24616002 60.01726441 254.21605712 67.53240466 C254.18252813 76.08854349 254.16603088 84.64468855 254.15097082 93.20087671 C254.11961086 110.80065869 254.06684099 128.40031882 254 146 C253.30554496 145.99777939 252.61108992 145.99555878 251.89559078 145.99327087 C234.98555769 145.94194954 218.07613906 145.93481478 201.16609097 145.97665405 C192.98840112 145.99582574 184.81121154 146.00012874 176.63354492 145.96923828 C169.50450637 145.94234686 162.37611589 145.94354733 155.24710137 145.97825909 C151.47324748 145.9956591 147.70055415 145.9991421 143.92675591 145.96896362 C140.37123159 145.94097503 136.8177617 145.95067456 133.26235008 145.98873711 C131.34209173 145.99964201 129.42173499 145.97107718 127.50167847 145.94117737 C121.19399979 145.96120017 121.19399979 145.96120017 115.73179817 148.73257446 C113.96135066 150.73969058 112.48287237 152.77613499 111 155 C110.02272186 156.10920021 109.02845181 157.20400163 108.0078125 158.2734375 C107.53529053 158.78269775 107.06276855 159.29195801 106.57592773 159.81665039 C106.09712158 160.33090576 105.61831543 160.84516113 105.125 161.375 C100.80885525 166.03024638 96.53523656 170.71932443 92.30078125 175.44921875 C90.57913885 177.35793265 88.84836304 179.25539607 87.10546875 181.14453125 C86.61054932 181.68134521 86.11562988 182.21815918 85.60571289 182.77124023 C84.64425657 183.81259334 83.68128839 184.85255336 82.71655273 185.89086914 C80.78659669 187.98191981 79.07461149 189.86462706 77.6953125 192.3671875 C76 194 76 194 72.296875 194.046875 C71.57089111 193.9960376 70.84490723 193.9452002 70.09692383 193.89282227 C64.95332685 193.5798082 60.2032514 193.5257836 55.80126953 196.47119141 C51.6284109 200.20686541 48.11173842 204.47512776 44.67089844 208.88085938 C40.13155379 214.63794756 35.11826558 220.01204961 30.125 225.375 C25.80827525 230.03087194 21.53616721 234.72256266 17.296875 239.44921875 C14.60686329 242.4365957 11.90082909 245.40880616 9.1875 248.375 C8.50288696 249.12535522 8.50288696 249.12535522 7.80444336 249.89086914 C5.26167902 252.66620053 2.66435489 255.33564511 0 258 C0 172.86 0 87.72 0 0 Z " fill="#4570C6" transform="translate(133,79)"/>
<path d="M0 0 C36.18791468 -5.76967593 36.18791468 -5.76967593 49.43847656 3.33837891 C60.15738104 11.78741557 69.06729837 22.44847623 77.50534058 33.11236572 C82.95601615 40.64315559 82.95601615 40.64315559 91.10546875 44.31640625 C97.2920724 44.63765368 100.93284395 42.70906526 105.52705383 38.65122986 C107.12631164 37.11991024 108.69086737 35.5603859 110.24609375 33.984375 C110.82029556 33.40971497 111.39449738 32.83505493 111.98609924 32.24298096 C113.19436668 31.0317076 114.4002182 29.81801996 115.60375977 28.60205078 C117.42352685 26.76411267 119.2510823 24.93421845 121.08007812 23.10546875 C126.37240899 17.79659398 131.64054589 12.5068434 136.45727539 6.75488281 C137.22092407 5.88621582 137.22092407 5.88621582 138 5 C138.64372055 4.14887634 139.2874411 3.29775269 139.95066833 2.4208374 C144.3371236 -1.06153058 147.88946551 -0.63481352 153.33203125 -0.48828125 C154.32377853 -0.48120651 155.31552582 -0.47413177 156.33732605 -0.46684265 C159.49649342 -0.43891433 162.65387082 -0.3761772 165.8125 -0.3125 C167.95765665 -0.28741518 170.10284115 -0.26460234 172.24804688 -0.24414062 C177.49930584 -0.18909327 182.74952503 -0.1054831 188 0 C188.60650857 15.58324278 189.2104802 31.16658316 189.8125 46.75 C189.88013235 48.50051603 189.88013235 48.50051603 189.94913101 50.28639603 C191.34449067 86.41986099 192.69187307 122.55466839 193.9599638 158.69282722 C194.04669933 161.16431256 194.1336244 163.63579118 194.2205658 166.10726929 C194.32923667 169.19710371 194.43692343 172.28697017 194.54396057 175.37686157 C194.78159275 182.18901158 195.03664161 188.99938774 195.33837891 195.80908203 C195.4159417 197.58443077 195.4159417 197.58443077 195.49507141 199.39564514 C195.5917636 201.56825309 195.69285831 203.74067149 195.79924011 205.91282654 C195.84075699 206.84466263 195.88227386 207.77649872 195.92504883 208.73657227 C195.96382645 209.54280533 196.00260406 210.34903839 196.04255676 211.17970276 C196 213 196 213 195 214 C192.39727909 214.10001009 189.82102778 214.13440607 187.21777344 214.12698364 C186.392747 214.12854363 185.56772057 214.13010362 184.71769333 214.13171089 C181.93156947 214.13572438 179.14549934 214.1325299 176.359375 214.12939453 C174.37072721 214.13074842 172.38207967 214.13252828 170.39343262 214.13470459 C164.97623587 214.13928043 159.55905806 214.13748875 154.14186096 214.1343255 C148.486175 214.13180268 142.83049071 214.13413922 137.17480469 214.13571167 C127.67512723 214.13753359 118.17545753 214.13512646 108.67578125 214.13037109 C97.67573296 214.12492843 86.6757032 214.12669107 75.67565536 214.1321975 C66.24979366 214.13672798 56.82393755 214.1373795 47.3980751 214.13475883 C41.76029405 214.1331957 36.12252172 214.13300327 30.48474121 214.13629532 C25.18578723 214.1391731 19.88685726 214.13720007 14.58790588 214.13140106 C12.63713114 214.13007296 10.6863544 214.13046842 8.73558044 214.13266373 C6.08443472 214.13537328 3.43336723 214.13199652 0.78222656 214.12698364 C-0.00015003 214.12921436 -0.78252663 214.13144509 -1.5886116 214.13374341 C-6.88585016 214.11414984 -6.88585016 214.11414984 -8 213 C-8.03423334 210.80180922 -7.99452464 208.60245694 -7.92724609 206.4050293 C-7.90742298 205.71493334 -7.88759987 205.02483738 -7.86717606 204.31382942 C-7.79938158 202.00460739 -7.72399942 199.69569876 -7.6484375 197.38671875 C-7.598493 195.7525075 -7.54888757 194.11828586 -7.49960327 192.48405457 C-7.34161666 187.32241364 -7.17218546 182.16118455 -7 177 C-6.97323685 176.1943586 -6.94647369 175.38871719 -6.91889954 174.55866241 C-6.53973401 163.18060052 -6.13369553 151.80354776 -5.71996307 140.42669678 C-5.59020432 136.85462511 -5.46132093 133.28252202 -5.33238411 129.71042061 C-5.02836951 121.28947902 -4.72270678 112.8685984 -4.41601562 104.44775391 C-4.10149468 95.81089833 -3.790243 87.17392896 -3.4804554 78.53690243 C-3.21153195 71.04298361 -2.94042203 63.54914595 -2.66761589 56.05536747 C-2.50589746 51.61220313 -2.3450137 47.16901275 -2.18634033 42.72573853 C-2.03781122 38.56872112 -1.88653824 34.4118122 -1.73322296 30.25496864 C-1.67783331 28.74098523 -1.62338449 27.22696703 -1.56999969 25.71291161 C-1.26634834 17.11910668 -0.81266564 8.56279498 0 0 Z " fill="#A3C8FE" transform="translate(197,281)"/>
<path d="M0 0 C1.03125 0.7425 2.0625 1.485 3.125 2.25 C13.7969107 12.45791458 20.88029783 26.18601695 21.24609566 41.05862522 C21.25440403 42.93478236 21.2519157 44.81100819 21.24050903 46.68714905 C21.24221788 47.72797762 21.24392673 48.76880619 21.24568737 49.84117502 C21.24896718 53.30963391 21.23800338 56.77789698 21.22705078 60.24633789 C21.22648634 62.7402445 21.22680387 65.23415144 21.22793579 67.72805786 C21.22839042 73.08744359 21.22273785 78.446769 21.21146011 83.80613899 C21.19516534 91.5547575 21.18999305 99.30335249 21.18748413 107.05198627 C21.18311325 119.62540983 21.16982067 132.19880736 21.15087891 144.7722168 C21.13250436 156.98185089 21.11835557 169.1914779 21.10986328 181.40112305 C21.10933783 182.15446842 21.10881239 182.90781379 21.10827102 183.6839878 C21.10566083 187.46352208 21.10313344 191.2430564 21.10064721 195.02259076 C21.07993363 226.34841277 21.0445754 257.67420242 21 289 C18.33325599 286.37775878 16.05146861 283.79049384 13.875 280.75 C5.19029432 269.54985103 -8.46099945 261.40199543 -22.3515625 258.44140625 C-43.63465318 255.8664713 -60.45289413 259.08394695 -78.203125 271.546875 C-83.73354824 275.94508561 -87.37926118 281.55447003 -91.21484375 287.40234375 C-92.09849609 288.68818359 -92.09849609 288.68818359 -93 290 C-93.33 290 -93.66 290 -94 290 C-94.06853107 258.26240012 -94.12157708 226.52482142 -94.15319599 194.78716477 C-94.15694782 191.03486754 -94.16083082 187.28257045 -94.16479492 183.53027344 C-94.16558185 182.78330148 -94.16636878 182.03632951 -94.16717956 181.26672204 C-94.18021101 169.19345238 -94.2038523 157.12022586 -94.23145839 145.04698174 C-94.25957567 132.64616074 -94.27618959 120.24536224 -94.28226548 107.84451067 C-94.28636885 100.20091224 -94.29929911 92.55743575 -94.3237494 84.91387488 C-94.3415765 79.03932859 -94.34334974 73.16484389 -94.33932304 67.29026985 C-94.34014481 64.89020731 -94.34606441 62.49013993 -94.35761642 60.09010506 C-94.45271714 39.30326994 -93.50072612 21.05515586 -78.2734375 5.24609375 C-77.52320312 4.50488281 -76.77296875 3.76367188 -76 3 C-75.37351562 2.35160156 -74.74703125 1.70320313 -74.1015625 1.03515625 C-54.03107379 -18.31550481 -20.81992761 -16.84485637 0 0 Z " fill="#4570C6" transform="translate(104,30)"/>
<path d="M0 0 C0.80308594 0.350625 1.60617188 0.70125 2.43359375 1.0625 C8.84921323 4.26475028 13.91576395 9.01152867 19 14 C19.85078125 14.81404297 19.85078125 14.81404297 20.71875 15.64453125 C31.90516331 27.39621545 34.56074025 42.73494052 34.18359375 58.33984375 C33.44952754 72.97431264 25.74960934 87.09686812 15 96.875 C13.68573312 97.94062179 12.35295405 98.98394755 11 100 C10.40960938 100.44859375 9.81921875 100.8971875 9.2109375 101.359375 C-3.5170853 110.13358646 -19.06122966 112.49421406 -34.12109375 110.609375 C-49.87226846 107.27534073 -62.45935237 98.16083226 -71.93359375 85.39453125 C-80.38906687 72.13145746 -82.70292542 57.15138311 -80.5390625 41.7109375 C-76.91311371 25.54347173 -67.44767951 12.50105977 -53.6171875 3.46484375 C-37.37814585 -5.6241721 -17.28056266 -7.55869216 0 0 Z " fill="#A1C6FD" transform="translate(91,299)"/>
<path d="M0 0 C0.62889213 16.18735049 1.25340357 32.37486774 1.875 48.5625 C1.92094425 49.75818604 1.9668885 50.95387207 2.01422501 52.18579102 C3.25888855 84.59657149 4.46316753 117.00680037 5.40380859 149.42797852 C5.69598661 159.37059887 6.03142948 169.29229907 6.67457581 179.21875 C7.10666095 186.14674648 7.1475786 193.06084364 7.125 200 C7.12886719 201.25039063 7.13273437 202.50078125 7.13671875 203.7890625 C7.13542969 204.97242188 7.13414062 206.15578125 7.1328125 207.375 C7.13168457 208.43460938 7.13055664 209.49421875 7.12939453 210.5859375 C7 213 7 213 6 214 C4.34261557 214.09346915 2.68125356 214.11744977 1.02124023 214.11352539 C-0.03978409 214.11344986 -1.10080841 214.11337433 -2.19398499 214.11329651 C-3.348134 214.10813522 -4.50228302 214.10297394 -5.69140625 214.09765625 C-6.86638168 214.0962413 -8.04135712 214.09482635 -9.25193787 214.09336853 C-13.02215064 214.08774992 -16.79230504 214.07519426 -20.5625 214.0625 C-23.11132727 214.0574874 -25.66015547 214.05292408 -28.20898438 214.04882812 C-34.47267633 214.03777444 -40.73633399 214.02101821 -47 214 C-47.29051149 208.20599552 -47.57503072 202.41173549 -47.85449219 196.6171875 C-47.94993397 194.65454574 -48.04688717 192.69197678 -48.14550781 190.72949219 C-48.42989205 185.05921865 -48.67793045 179.38921671 -48.88638306 173.71563721 C-48.99686152 171.07501506 -49.15376042 168.4401689 -49.31518555 165.80224609 C-49.86384659 154.61749328 -49.86384659 154.61749328 -47.74072266 150.64208984 C-45.87816105 148.82285592 -44.08394163 147.64274052 -41.8125 146.375 C-40.25205648 145.35046807 -38.69355183 144.32297866 -37.13671875 143.29296875 C-36.30446777 142.77009277 -35.4722168 142.2472168 -34.61474609 141.70849609 C-29.9171452 138.63904595 -25.55090615 135.13154713 -21.125 131.6875 C-14.79955969 126.83944306 -8.44674865 122.07210275 -1.86328125 117.578125 C1.5085863 114.72228749 1.9592524 112.42784984 2.375 108.0625 C1.42989545 101.05489553 -4.6764807 96.31168628 -9.46044922 91.55175781 C-11.57684393 89.4185823 -13.57027584 87.18643544 -15.5625 84.9375 C-18.8505372 81.26893046 -22.16673766 77.62745822 -25.5 74 C-29.58547539 69.55343995 -33.63689213 65.07795274 -37.66796875 60.58203125 C-39.39076259 58.67454929 -41.12143914 56.77665505 -42.86328125 54.88671875 C-43.59804688 54.08911133 -43.59804688 54.08911133 -44.34765625 53.27539062 C-45.73684645 51.76950845 -47.12812913 50.2655574 -48.51953125 48.76171875 C-51 46 -51 46 -52.74780273 43.37158203 C-54.82267984 40.742023 -54.82267984 40.742023 -58.02441406 40.34057617 C-59.17651367 40.32486572 -60.32861328 40.30915527 -61.515625 40.29296875 C-62.76601563 40.26396484 -64.01640625 40.23496094 -65.3046875 40.20507812 C-66.60664063 40.19927734 -67.90859375 40.19347656 -69.25 40.1875 C-70.56742187 40.16236328 -71.88484375 40.13722656 -73.2421875 40.11132812 C-76.49509156 40.0523987 -79.74664795 40.01615903 -83 40 C-81.00681714 37.32817459 -79.00542236 34.66265016 -77 32 C-76.51506073 31.35409912 -76.03012146 30.70819824 -75.53048706 30.04272461 C-72.29623377 25.78660328 -68.89304171 21.72494364 -65.34741211 17.72460938 C-64.09602811 16.26703415 -62.88959313 14.76935261 -61.73706055 13.23242188 C-46.96358452 -6.3042961 -21.9093923 -1.40404064 0 0 Z " fill="#F7A6A7" transform="translate(446,233)"/>
<path d="M0 0 C0.80308594 0.350625 1.60617188 0.70125 2.43359375 1.0625 C8.84921323 4.26475028 13.91576395 9.01152867 19 14 C19.85078125 14.81404297 19.85078125 14.81404297 20.71875 15.64453125 C31.90516331 27.39621545 34.56074025 42.73494052 34.18359375 58.33984375 C33.44952754 72.97431264 25.74960934 87.09686812 15 96.875 C13.68573312 97.94062179 12.35295405 98.98394755 11 100 C10.40960938 100.44859375 9.81921875 100.8971875 9.2109375 101.359375 C-3.5170853 110.13358646 -19.06122966 112.49421406 -34.12109375 110.609375 C-49.87226846 107.27534073 -62.45935237 98.16083226 -71.93359375 85.39453125 C-80.38906687 72.13145746 -82.70292542 57.15138311 -80.5390625 41.7109375 C-76.91311371 25.54347173 -67.44767951 12.50105977 -53.6171875 3.46484375 C-37.37814585 -5.6241721 -17.28056266 -7.55869216 0 0 Z M-59.02734375 22.70703125 C-67.58495747 32.65419809 -70.42121153 43.50675645 -70.2734375 56.49609375 C-69.31181651 68.81857982 -63.7007793 79.81066762 -54.8125 88.3125 C-42.14590444 98.88976021 -28.87130422 100.34574176 -13 99 C-1.17300746 96.92944808 8.53164746 88.90341671 15.46484375 79.4296875 C22.81897108 67.79033076 25.18048045 54.42952695 22.3515625 40.8984375 C18.40633336 29.19762969 11.1786362 18.45900611 0.19140625 12.46875 C-2.51380934 11.20607135 -5.20654778 10.05213237 -8 9 C-8.91910156 8.63261719 -9.83820313 8.26523437 -10.78515625 7.88671875 C-14.84290589 6.76750955 -18.56014235 6.65676969 -22.75 6.6875 C-23.54986328 6.69313965 -24.34972656 6.6987793 -25.17382812 6.70458984 C-39.03251442 6.98885615 -49.52294519 12.69975446 -59.02734375 22.70703125 Z " fill="#A1C6FD" transform="translate(91,299)"/>
<path d="M0 0 C0.97582031 0.84949219 1.95164063 1.69898438 2.95703125 2.57421875 C7.09796048 6.12224929 11.3743558 9.47741396 15.6875 12.8125 C16.4813208 13.42778564 17.2751416 14.04307129 18.09301758 14.67700195 C22.43901371 18.03909877 26.79749863 21.38306962 31.1875 24.6875 C32.56035156 25.75871094 32.56035156 25.75871094 33.9609375 26.8515625 C36.89699103 28.92717875 39.81686083 30.52786947 43.04541016 32.08740234 C46.38410725 34.25974865 49.13031482 37.23759277 52 40 C51.67 47.92 51.34 55.84 51 64 C22.95 64 -5.1 64 -34 64 C-29 60 -29 60 -26.82421875 58.39453125 C-13.43467686 48.48088506 -3.51605267 33.7447643 -1 17 C-0.45260014 11.34353477 -0.19304263 5.6781161 0 0 Z " fill="#4570C6" transform="translate(133,346)"/>
<path d="M0 0 C36.32766926 -5.60095919 36.32766926 -5.60095919 49.35644531 3.24023438 C62.21153921 13.27017219 72.99376774 26.49065161 82 40 C54.28 40 26.56 40 -2 40 C-1 8 -1 8 0 0 Z " fill="#F8A6A7" transform="translate(258,233)"/>
<path d="M0 0 C7.92414585 6.53586046 15.39399679 17.26980892 16.984375 27.63671875 C17.70589687 43.14104923 15.57644104 56.0799668 5.296875 68.44921875 C-2.52927569 76.6786253 -12.6762413 82.47888754 -24.13671875 83.0703125 C-25.90870288 83.09350472 -27.68110345 83.09434987 -29.453125 83.07421875 C-30.37891357 83.06737061 -31.30470215 83.06052246 -32.25854492 83.0534668 C-38.87735193 82.89742075 -44.26390118 82.09903093 -50.015625 78.63671875 C-50.71429688 78.25128906 -51.41296875 77.86585938 -52.1328125 77.46875 C-54.17276732 76.27941785 -56.09187731 75.00507484 -58.015625 73.63671875 C-58.61117187 73.2190625 -59.20671875 72.80140625 -59.8203125 72.37109375 C-68.89917129 65.35010962 -73.85173611 54.70235413 -76.015625 43.63671875 C-77.17820483 30.83362443 -74.9357367 19.28541269 -66.96875 8.9921875 C-49.25471568 -11.37895196 -22.64615841 -16.40606731 0 0 Z M-59.265625 11.69921875 C-65.87481394 19.57737196 -68.81399531 28.70332277 -68.3046875 38.9296875 C-67.12308379 49.99524657 -62.61591516 58.9808217 -54.4921875 66.65625 C-44.13566045 74.9382046 -32.78630754 75.65755434 -20.015625 74.63671875 C-11.32208738 72.89134099 -3.30400223 67.16163453 1.875 60.03515625 C3.35042825 57.60714568 4.7072326 55.17374487 5.984375 52.63671875 C6.3453125 52.0025 6.70625 51.36828125 7.078125 50.71484375 C10.75052558 42.29364931 10.21610384 30.81621402 7.046875 22.38671875 C2.76260606 13.32198023 -4.03185986 6.10137779 -13.015625 1.63671875 C-14.170625 1.03859375 -15.325625 0.44046875 -16.515625 -0.17578125 C-32.14934792 -5.59340801 -48.18727576 0.37145077 -59.265625 11.69921875 Z " fill="#3A65CD" transform="translate(97.015625,315.36328125)"/>
<path d="M0 0 C4.3982172 4.3383193 8.64146647 8.81387605 12.875 13.3125 C13.55691406 14.03373047 14.23882812 14.75496094 14.94140625 15.49804688 C18.83562554 19.63333689 22.63358559 23.83235813 26.35644531 28.12231445 C28.82805259 30.94601196 31.38085692 33.69100084 33.9375 36.4375 C34.9715888 37.55967966 36.00544195 38.68207652 37.0390625 39.8046875 C38.86936494 41.78859827 40.71682981 43.74714889 42.5859375 45.6953125 C43.32070313 46.47648437 44.05546875 47.25765625 44.8125 48.0625 C45.78123047 49.06990234 45.78123047 49.06990234 46.76953125 50.09765625 C48 52 48 52 47.76928711 53.9519043 C46.85833949 56.37714693 45.99314361 57.14782181 43.921875 58.671875 C43.26533936 59.16381348 42.60880371 59.65575195 41.93237305 60.16259766 C41.21218994 60.68644043 40.49200684 61.2102832 39.75 61.75 C38.20936821 62.89807901 36.66901712 64.04653478 35.12890625 65.1953125 C33.89164795 66.11038574 33.89164795 66.11038574 32.62939453 67.04394531 C27.9482338 70.5263464 23.32240556 74.08142017 18.6875 77.625 C16.920963 78.97186595 15.15405995 80.31825198 13.38671875 81.6640625 C12.63608154 82.23592285 11.88544434 82.8077832 11.11206055 83.39697266 C10.41508057 83.92597168 9.71810059 84.4549707 9 85 C8.29077393 85.56380371 7.58154785 86.12760742 6.85083008 86.70849609 C5 88 5 88 3 88 C2.60706755 77.70752827 2.21577369 67.41499565 1.82654572 57.12238312 C1.64574222 52.34262564 1.4643839 47.56289059 1.28173828 42.78320312 C1.10534959 38.16671109 0.93044357 33.55016501 0.75654602 28.93357849 C0.69009207 27.17620355 0.62311259 25.4188484 0.55558777 23.66151428 C0.46077839 21.19171162 0.36787307 18.72184387 0.27539062 16.25195312 C0.24733841 15.53265625 0.21928619 14.81335938 0.19038391 14.07226562 C0.01719117 9.3783381 -0.02320365 4.69717601 0 0 Z " fill="#F7A6A7" transform="translate(454,240)"/>
<path d="M0 0 C0.33 0 0.66 0 1 0 C1.08384453 11.34601664 0.85962541 22.63896852 0.34375 33.97265625 C0.27616684 35.51776242 0.20891289 37.06288302 0.14196777 38.60801697 C-0.03232908 42.61103953 -0.21099716 46.61385452 -0.39068604 50.61663818 C-0.57438005 54.72672777 -0.75378793 58.83700443 -0.93359375 62.94726562 C-1.28494975 70.96502914 -1.64093987 78.98257782 -2 87 C-5.28277512 85.40973727 -8.02788958 83.58818384 -10.9375 81.375 C-11.98292969 80.58222656 -13.02835938 79.78945313 -14.10546875 78.97265625 C-15.40378588 77.98195433 -16.701946 76.99104665 -18 76 C-19.72514193 74.68604234 -21.45041158 73.37225236 -23.17578125 72.05859375 C-25.93057676 69.96073894 -28.68485547 67.86222693 -31.43725586 65.76123047 C-36.60648917 61.81599655 -41.78988632 57.89110915 -47 54 C-45.40072931 50.64421091 -43.59124536 48.24366585 -41.0625 45.5 C-39.85787109 44.18515625 -39.85787109 44.18515625 -38.62890625 42.84375 C-37.76136719 41.9053125 -36.89382812 40.966875 -36 40 C-34.63033639 38.50815982 -33.26230509 37.01483357 -31.89428711 35.52148438 C-30.95949337 34.50141179 -30.02410233 33.48188627 -29.08813477 32.46289062 C-25.47337791 28.52616397 -21.8963016 24.55702696 -18.328125 20.578125 C-16.61785026 18.6841966 -14.90025771 16.7991359 -13.171875 14.921875 C-12.68654297 14.39464844 -12.20121094 13.86742187 -11.70117188 13.32421875 C-10.32811843 11.8347422 -8.95317818 10.34700563 -7.578125 8.859375 C-5.73592259 6.81620506 -3.97254515 4.76782606 -2.234375 2.640625 C-1.49703125 1.76921875 -0.7596875 0.8978125 0 0 Z " fill="#A3C8FE" transform="translate(187,289)"/>
<path d="M0 0 C7.39482373 6.23024797 7.39482373 6.23024797 10.5 9.5859375 C11.07314941 10.20227051 11.64629883 10.81860352 12.23681641 11.45361328 C12.81866699 12.0876709 13.40051758 12.72172852 14 13.375 C14.61665527 14.04128418 15.23331055 14.70756836 15.86865234 15.39404297 C19.36321614 19.18128691 22.80327703 23.00736264 26.1640625 26.9140625 C28.72494959 29.82366613 31.36510438 32.65749923 34 35.5 C35.03530886 36.62355731 36.07046843 37.74725221 37.10546875 38.87109375 C38.8421889 40.7554266 40.59243317 42.61985156 42.36328125 44.47265625 C43.00652344 45.16230469 43.64976562 45.85195313 44.3125 46.5625 C45.14201172 47.43068359 45.14201172 47.43068359 45.98828125 48.31640625 C47 50 47 50 46.96875 51.953125 C45.59937976 54.8464718 43.69946978 56.21457953 41.1875 58.1875 C40.18074219 58.9815625 39.17398438 59.775625 38.13671875 60.59375 C33.74652572 63.96156931 29.34770394 67.31231424 24.89599609 70.59863281 C22.61079205 72.28767108 20.33107633 73.98402815 18.05078125 75.6796875 C16.3049158 76.97426627 14.55882171 78.26853677 12.8125 79.5625 C11.96171875 80.19502686 11.1109375 80.82755371 10.234375 81.47924805 C9.44160156 82.06488525 8.64882813 82.65052246 7.83203125 83.25390625 C7.11764893 83.78314697 6.4032666 84.3123877 5.66723633 84.85766602 C4 86 4 86 3 86 C2.29756427 82.12880011 1.84367996 78.38214808 1.70288086 74.45141602 C1.66291489 73.38492325 1.62294891 72.31843048 1.58177185 71.21961975 C1.54318558 70.0759343 1.5045993 68.93224884 1.46484375 67.75390625 C1.42186661 66.55176987 1.37888947 65.34963348 1.33460999 64.11106873 C1.2444862 61.56003495 1.15635521 59.00893011 1.07006836 56.45776367 C0.9399681 52.63502045 0.80153397 48.81264744 0.66210938 44.99023438 C0.13226475 29.98674592 -0.12394853 15.01246277 0 0 Z " fill="#A3C8FE" transform="translate(394,290)"/>
<path d="M0 0 C25.08 0 50.16 0 76 0 C69.33567663 7.77504394 69.33567663 7.77504394 66.0625 10.9375 C63.54468114 13.41752796 61.15791145 15.92805927 58.875 18.625 C55.34029133 22.69032313 51.67147877 26.61810234 47.9375 30.5 C47.34759277 31.13631348 46.75768555 31.77262695 46.14990234 32.42822266 C45.57320801 33.01909668 44.99651367 33.6099707 44.40234375 34.21875 C43.89179443 34.75435547 43.38124512 35.28996094 42.85522461 35.84179688 C39.89329165 37.69090991 38.45156966 37.67719863 35 37 C31.93242963 34.78976327 29.381455 32.12589708 26.7578125 29.4140625 C25.98944061 28.64194427 25.22106873 27.86982605 24.42941284 27.0743103 C22.81046436 25.44192947 21.19872174 23.80237486 19.59375 22.15625 C17.12742201 19.62748333 14.64026299 17.12080862 12.1484375 14.6171875 C10.57947214 13.02988736 9.01172078 11.44138613 7.4453125 9.8515625 C6.69855255 9.0963028 5.9517926 8.34104309 5.18240356 7.56289673 C4.5010434 6.86232147 3.81968323 6.16174622 3.11767578 5.43994141 C2.21216476 4.51394638 2.21216476 4.51394638 1.2883606 3.56924438 C0 2 0 2 0 0 Z " fill="#DAE6FA" transform="translate(253,281)"/>
<path d="M0 0 C25.41 0 50.82 0 77 0 C70.23970545 7.88701031 70.23970545 7.88701031 67.64428711 10.54858398 C67.0602562 11.14867783 66.47622528 11.74877167 65.87449646 12.36705017 C63.25573174 15.03102754 60.63448459 17.692415 58.00463867 20.34545898 C56.61938581 21.74739967 55.23953844 23.15470092 53.86499023 24.56713867 C51.86856214 26.61813342 49.85635723 28.65236706 47.83984375 30.68359375 C46.92246681 31.63497475 46.92246681 31.63497475 45.98655701 32.60557556 C45.40567825 33.18360428 44.8247995 33.761633 44.22631836 34.35717773 C43.72257187 34.86901108 43.21882538 35.38084442 42.69981384 35.90818787 C40.2959114 37.4522451 38.80501934 37.40934823 36 37 C34.0320282 35.64002991 34.0320282 35.64002991 32.12768555 33.71118164 C31.40731613 32.99366226 30.68694672 32.27614288 29.94474792 31.53688049 C29.1830983 30.75256149 28.42144867 29.96824249 27.63671875 29.16015625 C26.84473587 28.36347031 26.05275299 27.56678436 25.23677063 26.74595642 C22.70844909 24.19626355 20.1982919 21.62944456 17.6875 19.0625 C15.97700564 17.33550413 14.26542974 15.60957874 12.55273438 13.88476562 C9.43735114 10.73536774 6.32228347 7.58575538 3.2253418 4.41821289 C2.60088669 3.78089737 1.97643158 3.14358185 1.33305359 2.48695374 C0 1 0 1 0 0 Z " fill="#F7CECE" transform="translate(313,233)"/>
<path d="M0 0 C5.09473426 3.07606597 9.40478922 7.27686765 11.3125 13 C11.91743596 19.00282609 11.300573 23.64207599 8.3125 29 C4.39429605 33.65948577 0.64170515 36.6244913 -5.52734375 37.3203125 C-11.74441247 37.55085893 -15.93524521 37.40452883 -20.6875 33 C-25.15500206 28.43238585 -27.43393971 24.5778629 -28.0625 18.1875 C-27.88431615 12.62187504 -25.79911022 8.21239162 -21.96875 4.19921875 C-15.31614929 -1.70637383 -8.52674083 -2.3123365 0 0 Z " fill="#A2C7FE" transform="translate(75.6875,334)"/>
<path d="M0 0 C7.27266241 4.48456262 11.24910753 10.15747883 13.92578125 18.1875 C15.07692336 27.49863681 13.1392216 34.41912861 7.92578125 42.1875 C2.98850445 48.02246349 -2.87972531 50.79012694 -10.4140625 51.50390625 C-17.62263861 51.74239703 -23.10652525 51.3794408 -29.07421875 47.1875 C-30.40453125 46.32125 -30.40453125 46.32125 -31.76171875 45.4375 C-37.85821232 39.50577653 -40.99270173 32.30960719 -41.44921875 23.8125 C-41.22290948 15.97154935 -37.39704768 9.58986116 -32.10546875 3.984375 C-23.01212458 -4.05973715 -10.84733643 -5.71121187 0 0 Z M-28.88671875 12.125 C-32.59165622 17.31191246 -34.01090379 21.77298602 -33.07421875 28.1875 C-31.11100424 34.45332833 -27.35051447 38.43171315 -22.07421875 42.1875 C-17.38844834 44.5303852 -10.56005642 43.92286034 -5.64453125 42.46875 C-0.33580249 39.9846656 2.73106668 36.81587206 5.17578125 31.4375 C6.44722455 25.92791237 7.02919802 20.67164971 4.36328125 15.5 C1.64977315 11.35731325 -2.21176323 7.14942497 -6.9921875 5.54296875 C-16.01819867 4.00194245 -22.61042137 5.06416545 -28.88671875 12.125 Z " fill="#3A65CD" transform="translate(81.07421875,327.8125)"/>
<path d="M0 0 C-0.33 10.56 -0.66 21.12 -1 32 C-10.24 32 -19.48 32 -29 32 C-27.29714478 28.59428957 -26.10000333 26.82490853 -23.55078125 24.171875 C-22.86693359 23.45386719 -22.18308594 22.73585938 -21.47851562 21.99609375 C-20.76373047 21.25488281 -20.04894531 20.51367188 -19.3125 19.75 C-14.60412494 14.83653353 -9.9661123 9.8993494 -5.53198242 4.73535156 C-1.35157569 0 -1.35157569 0 0 0 Z " fill="#F6A6A7" transform="translate(249,241)"/>
</svg>
